%TF.GenerationSoftware,KiCad,Pcbnew,10.0.5*%
%TF.CreationDate,2026-09-20T16:01:36+08:00*%
%TF.ProjectId,stm32c8t6-mini,73746d33-3263-4387-9436-2d6d696e692e,v1.3*%
%TF.SameCoordinates,Original*%
%TF.FileFunction,Legend,Top*%
%TF.FilePolarity,Positive*%
%FSLAX46Y46*%
G04 Gerber Fmt 4.6, Leading zero omitted, Abs format (unit mm)*
G04 Created by KiCad (PCBNEW 10.0.5) date 2026-09-20 16:01:36*
%MOMM*%
%LPD*%
G01*
G04 APERTURE LIST*
%ADD10C,0.254000*%
%ADD11C,0.158750*%
%ADD12C,0.200000*%
%ADD13C,0.100000*%
%ADD14C,0.120000*%
G04 APERTURE END LIST*
D10*
G36*
X124826473Y-82760116D02*
G01*
X124818566Y-82807720D01*
X124797039Y-82839577D01*
X124760761Y-82859861D01*
X124703328Y-82867674D01*
X124294655Y-82867674D01*
X124237694Y-82859885D01*
X124201662Y-82839639D01*
X124180242Y-82807787D01*
X124172363Y-82760116D01*
X124172363Y-82421002D01*
X124375382Y-82421002D01*
X124375382Y-82698931D01*
X124623455Y-82698931D01*
X124623455Y-82430928D01*
X124216643Y-82044976D01*
X124192171Y-82014202D01*
X124177468Y-81978491D01*
X124172363Y-81936333D01*
X124172363Y-81615365D01*
X124180242Y-81567694D01*
X124201662Y-81535842D01*
X124237694Y-81515596D01*
X124294655Y-81507807D01*
X124703328Y-81507807D01*
X124760939Y-81515547D01*
X124797204Y-81535587D01*
X124818628Y-81566925D01*
X124826473Y-81613582D01*
X124826473Y-81934627D01*
X124623455Y-81934627D01*
X124623455Y-81676550D01*
X124375382Y-81676550D01*
X124375382Y-81927182D01*
X124782194Y-82311351D01*
X124806501Y-82341663D01*
X124821281Y-82377887D01*
X124826473Y-82421778D01*
X124826473Y-82760116D01*
G37*
G36*
X127132707Y-82867674D02*
G01*
X126937521Y-82867674D01*
X126937521Y-82195185D01*
X126949618Y-82047070D01*
X126774439Y-82738635D01*
X126671147Y-82738635D01*
X126495037Y-82047070D01*
X126507212Y-82195185D01*
X126507212Y-82867674D01*
X126312026Y-82867674D01*
X126312026Y-81507807D01*
X126503722Y-81507807D01*
X126717132Y-82256525D01*
X126722328Y-82317942D01*
X126727523Y-82256525D01*
X126941011Y-81507807D01*
X127132707Y-81507807D01*
X127132707Y-82867674D01*
G37*
G36*
X127802170Y-81996655D02*
G01*
X127834708Y-82016324D01*
X127854587Y-82048113D01*
X127862038Y-82096778D01*
X127862038Y-82760116D01*
X127854587Y-82808780D01*
X127834708Y-82840570D01*
X127802170Y-82860239D01*
X127751843Y-82867674D01*
X127396212Y-82867674D01*
X127344913Y-82860184D01*
X127311860Y-82840427D01*
X127291750Y-82808628D01*
X127284234Y-82760116D01*
X127284234Y-82703894D01*
X127479498Y-82703894D01*
X127667705Y-82703894D01*
X127667705Y-82152999D01*
X127479498Y-82152999D01*
X127479498Y-82703894D01*
X127284234Y-82703894D01*
X127284234Y-82096778D01*
X127291750Y-82048266D01*
X127311860Y-82016466D01*
X127344913Y-81996709D01*
X127396212Y-81989220D01*
X127751843Y-81989220D01*
X127802170Y-81996655D01*
G37*
G36*
X128586405Y-82867674D02*
G01*
X128388582Y-82867674D01*
X128388582Y-82834173D01*
X128163075Y-82872637D01*
X128115181Y-82867348D01*
X128076841Y-82852538D01*
X128045902Y-82828667D01*
X128022889Y-82796916D01*
X128008538Y-82757682D01*
X128003406Y-82708857D01*
X128003406Y-82219147D01*
X128200376Y-82219147D01*
X128200376Y-82639530D01*
X128207793Y-82676255D01*
X128227543Y-82696440D01*
X128262801Y-82703894D01*
X128388582Y-82695209D01*
X128388582Y-82152999D01*
X128266291Y-82152999D01*
X128228893Y-82160748D01*
X128208119Y-82181573D01*
X128200376Y-82219147D01*
X128003406Y-82219147D01*
X128003406Y-82091815D01*
X128011413Y-82054503D01*
X128035303Y-82025461D01*
X128079712Y-82002946D01*
X128142467Y-81989763D01*
X128248067Y-81984257D01*
X128320884Y-81986738D01*
X128388582Y-81989220D01*
X128388582Y-81507807D01*
X128586405Y-81507807D01*
X128586405Y-82867674D01*
G37*
G36*
X129235627Y-81996707D02*
G01*
X129268658Y-82016460D01*
X129288758Y-82048259D01*
X129296271Y-82096778D01*
X129296271Y-82421002D01*
X129241601Y-82475595D01*
X128919703Y-82475595D01*
X128919703Y-82723746D01*
X129106281Y-82723746D01*
X129106281Y-82574856D01*
X129296271Y-82574856D01*
X129296271Y-82760116D01*
X129288758Y-82808634D01*
X129268658Y-82840434D01*
X129235627Y-82860187D01*
X129184371Y-82867674D01*
X128841690Y-82867674D01*
X128790391Y-82860184D01*
X128757338Y-82840427D01*
X128737228Y-82808628D01*
X128729712Y-82760116D01*
X128729712Y-82345084D01*
X128919703Y-82345084D01*
X129106281Y-82345084D01*
X129106281Y-82133147D01*
X128919703Y-82133147D01*
X128919703Y-82345084D01*
X128729712Y-82345084D01*
X128729712Y-82096778D01*
X128737228Y-82048266D01*
X128757338Y-82016466D01*
X128790391Y-81996709D01*
X128841690Y-81989220D01*
X129184371Y-81989220D01*
X129235627Y-81996707D01*
G37*
D11*
G36*
X124618041Y-83574353D02*
G01*
X124649159Y-83595333D01*
X124669766Y-83626943D01*
X124676921Y-83667840D01*
X124676921Y-84826393D01*
X124669769Y-84867304D01*
X124649159Y-84898977D01*
X124618047Y-84919897D01*
X124578901Y-84927050D01*
X124218850Y-84927050D01*
X124179851Y-84919869D01*
X124149445Y-84898977D01*
X124129495Y-84867373D01*
X124122536Y-84826393D01*
X124122536Y-84817863D01*
X124243200Y-84817863D01*
X124556335Y-84817863D01*
X124556335Y-83676370D01*
X124243200Y-83676370D01*
X124243200Y-84817863D01*
X124122536Y-84817863D01*
X124122536Y-83667840D01*
X124129497Y-83626873D01*
X124149445Y-83595333D01*
X124179858Y-83574381D01*
X124218850Y-83567183D01*
X124578901Y-83567183D01*
X124618041Y-83574353D01*
G37*
G36*
X126897739Y-83676370D02*
G01*
X126581115Y-83676370D01*
X126581115Y-84187560D01*
X126872614Y-84187560D01*
X126872614Y-84296747D01*
X126581115Y-84296747D01*
X126581115Y-84927050D01*
X126460451Y-84927050D01*
X126460451Y-83567183D01*
X126897739Y-83567183D01*
X126897739Y-83676370D01*
G37*
G36*
X127171481Y-84927050D02*
G01*
X127057797Y-84927050D01*
X127057797Y-83567183D01*
X127171481Y-83567183D01*
X127171481Y-84927050D01*
G37*
G36*
X127791256Y-84090058D02*
G01*
X127819973Y-84107979D01*
X127837727Y-84137290D01*
X127844435Y-84182597D01*
X127844435Y-84927050D01*
X127730750Y-84927050D01*
X127730750Y-84902234D01*
X127593647Y-84921156D01*
X127457474Y-84932013D01*
X127415027Y-84925326D01*
X127387067Y-84907364D01*
X127369593Y-84877667D01*
X127362945Y-84831356D01*
X127362945Y-84827789D01*
X127474845Y-84827789D01*
X127732456Y-84822826D01*
X127732456Y-84525045D01*
X127474845Y-84525045D01*
X127474845Y-84827789D01*
X127362945Y-84827789D01*
X127362945Y-84536367D01*
X127369727Y-84490376D01*
X127387663Y-84460656D01*
X127416635Y-84442510D01*
X127460964Y-84435711D01*
X127732456Y-84435711D01*
X127732456Y-84177634D01*
X127484383Y-84177634D01*
X127484383Y-84321562D01*
X127372483Y-84321562D01*
X127372483Y-84182597D01*
X127379191Y-84137290D01*
X127396945Y-84107979D01*
X127425662Y-84090058D01*
X127469649Y-84083337D01*
X127747268Y-84083337D01*
X127791256Y-84090058D01*
G37*
G36*
X128488153Y-84826393D02*
G01*
X128481370Y-84872384D01*
X128463434Y-84902104D01*
X128434462Y-84920251D01*
X128390133Y-84927050D01*
X128125465Y-84927050D01*
X128081136Y-84920251D01*
X128052165Y-84902104D01*
X128034228Y-84872384D01*
X128027446Y-84826393D01*
X128027446Y-84639195D01*
X128141130Y-84639195D01*
X128141130Y-84827789D01*
X128374469Y-84827789D01*
X128374469Y-84658969D01*
X128072578Y-84412137D01*
X128048348Y-84386453D01*
X128034118Y-84356821D01*
X128029229Y-84321872D01*
X128029229Y-84183993D01*
X128036012Y-84138002D01*
X128053948Y-84108282D01*
X128082920Y-84090136D01*
X128127249Y-84083337D01*
X128388350Y-84083337D01*
X128432679Y-84090136D01*
X128461651Y-84108282D01*
X128479587Y-84138002D01*
X128486369Y-84183993D01*
X128486369Y-84346377D01*
X128374469Y-84346377D01*
X128374469Y-84182597D01*
X128141130Y-84182597D01*
X128141130Y-84330557D01*
X128445657Y-84577390D01*
X128469183Y-84602513D01*
X128483243Y-84632635D01*
X128488153Y-84669360D01*
X128488153Y-84826393D01*
G37*
G36*
X129156221Y-84927050D02*
G01*
X129040831Y-84927050D01*
X129040831Y-84187560D01*
X128786632Y-84194384D01*
X128786632Y-84927050D01*
X128671242Y-84927050D01*
X128671242Y-83567183D01*
X128786632Y-83567183D01*
X128786632Y-84110013D01*
X128923735Y-84090859D01*
X129059908Y-84078374D01*
X129103316Y-84085118D01*
X129131793Y-84103175D01*
X129149504Y-84132884D01*
X129156221Y-84179030D01*
X129156221Y-84927050D01*
G37*
G36*
X124463279Y-86927050D02*
G01*
X124341762Y-86927050D01*
X124341762Y-85984077D01*
X124288875Y-85984077D01*
X124288875Y-85981595D01*
X124365259Y-85567183D01*
X124463279Y-85567183D01*
X124463279Y-86927050D01*
G37*
G36*
X127124022Y-86927050D02*
G01*
X127003437Y-86927050D01*
X127003437Y-85567183D01*
X127124022Y-85567183D01*
X127124022Y-86927050D01*
G37*
G36*
X127879331Y-86826393D02*
G01*
X127872461Y-86867405D01*
X127852810Y-86898977D01*
X127822788Y-86919853D01*
X127783871Y-86927050D01*
X127442043Y-86927050D01*
X127402964Y-86919884D01*
X127372173Y-86898977D01*
X127351923Y-86867342D01*
X127344876Y-86826393D01*
X127344876Y-86490304D01*
X127465462Y-86490304D01*
X127465462Y-86817863D01*
X127758745Y-86817863D01*
X127758745Y-86497749D01*
X127383883Y-86043633D01*
X127354438Y-85993747D01*
X127344876Y-85940108D01*
X127344876Y-85667840D01*
X127351925Y-85626904D01*
X127372173Y-85595333D01*
X127402970Y-85574366D01*
X127442043Y-85567183D01*
X127783871Y-85567183D01*
X127822782Y-85574397D01*
X127852810Y-85595333D01*
X127872459Y-85626841D01*
X127879331Y-85667840D01*
X127879331Y-85979114D01*
X127758745Y-85979114D01*
X127758745Y-85676370D01*
X127465462Y-85676370D01*
X127465462Y-85961743D01*
X127842031Y-86415859D01*
X127870094Y-86464197D01*
X127879331Y-86517678D01*
X127879331Y-86826393D01*
G37*
G36*
X128571880Y-85574368D02*
G01*
X128602613Y-85595333D01*
X128622921Y-85626911D01*
X128629987Y-85667840D01*
X128629987Y-86285425D01*
X128622944Y-86326058D01*
X128602613Y-86357776D01*
X128571867Y-86378862D01*
X128532821Y-86386081D01*
X128212706Y-86386081D01*
X128212706Y-86927050D01*
X128092043Y-86927050D01*
X128092043Y-86276895D01*
X128212706Y-86276895D01*
X128509401Y-86276895D01*
X128509401Y-85676370D01*
X128212706Y-85676370D01*
X128212706Y-86276895D01*
X128092043Y-86276895D01*
X128092043Y-85567183D01*
X128532821Y-85567183D01*
X128571880Y-85574368D01*
G37*
D12*
X125800000Y-81281247D02*
X125800000Y-83400000D01*
X125800000Y-83400000D02*
X125800000Y-85400000D01*
X125800000Y-85400000D02*
X125800000Y-87400000D01*
X125800000Y-83400000D02*
X123000000Y-83400000D01*
X129800000Y-83400000D02*
X125800000Y-83400000D01*
X125800000Y-85400000D02*
X123000000Y-85400000D01*
X129800000Y-85400000D02*
X125800000Y-85400000D01*
X123000000Y-81281247D02*
X129800000Y-81281247D01*
X129800000Y-81281247D02*
X129800000Y-87400000D01*
X129800000Y-87400000D02*
X123000000Y-87400000D01*
X123000000Y-87400000D02*
X123000000Y-81281247D01*
D10*
G36*
X149419492Y-99413833D02*
G01*
X149467024Y-99421772D01*
X149498885Y-99443414D01*
X149519211Y-99479960D01*
X149527050Y-99537908D01*
X149527050Y-99964727D01*
X149519309Y-100020747D01*
X149499142Y-100056287D01*
X149467297Y-100077493D01*
X149419492Y-100085313D01*
X148274741Y-100085313D01*
X148227137Y-100077405D01*
X148195280Y-100055879D01*
X148174996Y-100019601D01*
X148167183Y-99962168D01*
X148167183Y-99537908D01*
X148175022Y-99479960D01*
X148195348Y-99443414D01*
X148227209Y-99421772D01*
X148274741Y-99413833D01*
X148584077Y-99413833D01*
X148584077Y-99617704D01*
X148340889Y-99617704D01*
X148340889Y-99882295D01*
X149353344Y-99882295D01*
X149353344Y-99617704D01*
X148971192Y-99617704D01*
X148971192Y-99768688D01*
X148797486Y-99768688D01*
X148797486Y-99413833D01*
X149419492Y-99413833D01*
G37*
D11*
G36*
X149426393Y-97615634D02*
G01*
X149467304Y-97622785D01*
X149498977Y-97643396D01*
X149519897Y-97674507D01*
X149527050Y-97713653D01*
X149527050Y-98063313D01*
X149519869Y-98102312D01*
X149498977Y-98132718D01*
X149467373Y-98152668D01*
X149426393Y-98159627D01*
X148267840Y-98159627D01*
X148226873Y-98152666D01*
X148195333Y-98132718D01*
X148174381Y-98102305D01*
X148167183Y-98063313D01*
X148167183Y-97713653D01*
X148174353Y-97674513D01*
X148195333Y-97643396D01*
X148226943Y-97622788D01*
X148267840Y-97615634D01*
X148579114Y-97615634D01*
X148579114Y-97737072D01*
X148276370Y-97737072D01*
X148276370Y-98038963D01*
X149417863Y-98038963D01*
X149417863Y-97737072D01*
X149090304Y-97737072D01*
X149090304Y-97615634D01*
X149426393Y-97615634D01*
G37*
G36*
X149527050Y-96971450D02*
G01*
X149527050Y-97405248D01*
X148167183Y-97405248D01*
X148167183Y-97284585D01*
X149417863Y-97284585D01*
X149417863Y-96971450D01*
X149527050Y-96971450D01*
G37*
G36*
X149527050Y-96240646D02*
G01*
X149527050Y-96373407D01*
X148875964Y-96686542D01*
X149527050Y-96686542D01*
X149527050Y-96807205D01*
X148167183Y-96807205D01*
X148167183Y-96686542D01*
X148780504Y-96686542D01*
X148167183Y-96402022D01*
X148167183Y-96271044D01*
X148174938Y-96271044D01*
X148824783Y-96578131D01*
X149527050Y-96240646D01*
G37*
G36*
X149349972Y-95048056D02*
G01*
X149408082Y-95071579D01*
X149457955Y-95110593D01*
X149496069Y-95161345D01*
X149519062Y-95219991D01*
X149527050Y-95288873D01*
X149527050Y-95599450D01*
X148167183Y-95599450D01*
X148167183Y-95311362D01*
X148276370Y-95311362D01*
X148276370Y-95478786D01*
X149417863Y-95478786D01*
X149417863Y-95318341D01*
X149413085Y-95273064D01*
X149399556Y-95235600D01*
X149377616Y-95204270D01*
X149348205Y-95180361D01*
X149312086Y-95165671D01*
X149267267Y-95160455D01*
X148425260Y-95160455D01*
X148382576Y-95165396D01*
X148347196Y-95179464D01*
X148317470Y-95202564D01*
X148294935Y-95232788D01*
X148281191Y-95268528D01*
X148276370Y-95311362D01*
X148167183Y-95311362D01*
X148167183Y-95288873D01*
X148175204Y-95219384D01*
X148198227Y-95160613D01*
X148236278Y-95110127D01*
X148286117Y-95071390D01*
X148344228Y-95048011D01*
X148413085Y-95039870D01*
X149281148Y-95039870D01*
X149349972Y-95048056D01*
G37*
G36*
X149527050Y-94700136D02*
G01*
X149527050Y-94820722D01*
X148167183Y-94820722D01*
X148167183Y-94700136D01*
X149527050Y-94700136D01*
G37*
G36*
X149467335Y-93907689D02*
G01*
X149498977Y-93927999D01*
X149519882Y-93958726D01*
X149527050Y-93997792D01*
X149527050Y-94377773D01*
X149519869Y-94416771D01*
X149498977Y-94447177D01*
X149467373Y-94467128D01*
X149426393Y-94474086D01*
X148267840Y-94474086D01*
X148226873Y-94467125D01*
X148195333Y-94447177D01*
X148174381Y-94416765D01*
X148167183Y-94377773D01*
X148167183Y-94353423D01*
X148276370Y-94353423D01*
X149417863Y-94353423D01*
X149417863Y-94021211D01*
X148276370Y-94021211D01*
X148276370Y-94353423D01*
X148167183Y-94353423D01*
X148167183Y-93997792D01*
X148174368Y-93958732D01*
X148195333Y-93927999D01*
X148226911Y-93907692D01*
X148267840Y-93900625D01*
X149426393Y-93900625D01*
X149467335Y-93907689D01*
G37*
G36*
X149527050Y-92284042D02*
G01*
X149527050Y-92410677D01*
X148797099Y-92663170D01*
X148772671Y-92646652D01*
X148772671Y-92431537D01*
X148276370Y-92431537D01*
X148276370Y-92741182D01*
X149527050Y-92741182D01*
X149527050Y-92861846D01*
X148167183Y-92861846D01*
X148167183Y-92407187D01*
X148174381Y-92368195D01*
X148195333Y-92337782D01*
X148226873Y-92317834D01*
X148267840Y-92310873D01*
X148776238Y-92310873D01*
X148819568Y-92318812D01*
X148849451Y-92340992D01*
X148869145Y-92379735D01*
X148876895Y-92442781D01*
X148875576Y-92481012D01*
X148874258Y-92517381D01*
X149527050Y-92284042D01*
G37*
G36*
X149527050Y-91567584D02*
G01*
X149527050Y-91691582D01*
X148968323Y-91872965D01*
X149527050Y-92054270D01*
X149527050Y-92174856D01*
X149520070Y-92174856D01*
X148831064Y-91932831D01*
X148167183Y-92160975D01*
X148167183Y-92034341D01*
X148683337Y-91871181D01*
X148167183Y-91702051D01*
X148167183Y-91581465D01*
X148175016Y-91581465D01*
X148824085Y-91806972D01*
X149527050Y-91567584D01*
G37*
G36*
X148276370Y-89819714D02*
G01*
X148276370Y-90029712D01*
X149527050Y-90029712D01*
X149527050Y-90150297D01*
X148276370Y-90150297D01*
X148276370Y-90362001D01*
X148167183Y-90362001D01*
X148167183Y-89819714D01*
X148276370Y-89819714D01*
G37*
G36*
X149527050Y-89142030D02*
G01*
X149527050Y-89266028D01*
X148968323Y-89447410D01*
X149527050Y-89628716D01*
X149527050Y-89749301D01*
X149520070Y-89749301D01*
X148831064Y-89507277D01*
X148167183Y-89735420D01*
X148167183Y-89608786D01*
X148683337Y-89445627D01*
X148167183Y-89276497D01*
X148167183Y-89155911D01*
X148175016Y-89155911D01*
X148824085Y-89381418D01*
X149527050Y-89142030D01*
G37*
G36*
X149527050Y-87493425D02*
G01*
X149527050Y-87620060D01*
X148797099Y-87872553D01*
X148772671Y-87856035D01*
X148772671Y-87640920D01*
X148276370Y-87640920D01*
X148276370Y-87950565D01*
X149527050Y-87950565D01*
X149527050Y-88071229D01*
X148167183Y-88071229D01*
X148167183Y-87616570D01*
X148174381Y-87577578D01*
X148195333Y-87547165D01*
X148226873Y-87527217D01*
X148267840Y-87520256D01*
X148776238Y-87520256D01*
X148819568Y-87528195D01*
X148849451Y-87550375D01*
X148869145Y-87589118D01*
X148876895Y-87652164D01*
X148875576Y-87690395D01*
X148874258Y-87726764D01*
X149527050Y-87493425D01*
G37*
G36*
X149426393Y-86783869D02*
G01*
X149467405Y-86790739D01*
X149498977Y-86810390D01*
X149519853Y-86840412D01*
X149527050Y-86879330D01*
X149527050Y-87221157D01*
X149519884Y-87260237D01*
X149498977Y-87291027D01*
X149467342Y-87311277D01*
X149426393Y-87318324D01*
X149090304Y-87318324D01*
X149090304Y-87197738D01*
X149417863Y-87197738D01*
X149417863Y-86904455D01*
X149097749Y-86904455D01*
X148643633Y-87279318D01*
X148593747Y-87308763D01*
X148540108Y-87318324D01*
X148267840Y-87318324D01*
X148226904Y-87311275D01*
X148195333Y-87291027D01*
X148174366Y-87260230D01*
X148167183Y-87221157D01*
X148167183Y-86879330D01*
X148174397Y-86840419D01*
X148195333Y-86810390D01*
X148226841Y-86790742D01*
X148267840Y-86783869D01*
X148579114Y-86783869D01*
X148579114Y-86904455D01*
X148276370Y-86904455D01*
X148276370Y-87197738D01*
X148561743Y-87197738D01*
X149015859Y-86821169D01*
X149064197Y-86793107D01*
X149117678Y-86783869D01*
X149426393Y-86783869D01*
G37*
G36*
X148276370Y-86103471D02*
G01*
X148276370Y-86313468D01*
X149527050Y-86313468D01*
X149527050Y-86434054D01*
X148276370Y-86434054D01*
X148276370Y-86645758D01*
X148167183Y-86645758D01*
X148167183Y-86103471D01*
X148276370Y-86103471D01*
G37*
D10*
G36*
X149419492Y-84721950D02*
G01*
X149467163Y-84729829D01*
X149499015Y-84751249D01*
X149519261Y-84787281D01*
X149527050Y-84844242D01*
X149527050Y-85260670D01*
X149519309Y-85316690D01*
X149499142Y-85352230D01*
X149467297Y-85373436D01*
X149419492Y-85381256D01*
X149090304Y-85381256D01*
X149090304Y-85181727D01*
X149353344Y-85181727D01*
X149353344Y-84920626D01*
X149011827Y-84920626D01*
X148840680Y-85169630D01*
X148798107Y-85169630D01*
X148628821Y-84920626D01*
X148340889Y-84920626D01*
X148340889Y-85181727D01*
X148589040Y-85181727D01*
X148589040Y-85381256D01*
X148274741Y-85381256D01*
X148227137Y-85373348D01*
X148195280Y-85351822D01*
X148174996Y-85315544D01*
X148167183Y-85258111D01*
X148167183Y-84844242D01*
X148174972Y-84787281D01*
X148195218Y-84751249D01*
X148227070Y-84729829D01*
X148274741Y-84721950D01*
X148609667Y-84721950D01*
X148660811Y-84729640D01*
X148702400Y-84751812D01*
X148736845Y-84789649D01*
X148819820Y-84915430D01*
X148901089Y-84787866D01*
X148933348Y-84751295D01*
X148973966Y-84729590D01*
X149025707Y-84721950D01*
X149419492Y-84721950D01*
G37*
G36*
X148167183Y-83887776D02*
G01*
X149527050Y-84148102D01*
X149527050Y-84350190D01*
X148167183Y-84609585D01*
X148167183Y-84405713D01*
X149098292Y-84253876D01*
X149214612Y-84248680D01*
X149098292Y-84243485D01*
X148167183Y-84090795D01*
X148167183Y-83887776D01*
G37*
G36*
X149419492Y-83113934D02*
G01*
X149467163Y-83121812D01*
X149499015Y-83143232D01*
X149519261Y-83179264D01*
X149527050Y-83236226D01*
X149527050Y-83652653D01*
X149519309Y-83708674D01*
X149499142Y-83744213D01*
X149467297Y-83765419D01*
X149419492Y-83773239D01*
X149090304Y-83773239D01*
X149090304Y-83573711D01*
X149353344Y-83573711D01*
X149353344Y-83312609D01*
X149011827Y-83312609D01*
X148840680Y-83561613D01*
X148798107Y-83561613D01*
X148628821Y-83312609D01*
X148340889Y-83312609D01*
X148340889Y-83573711D01*
X148589040Y-83573711D01*
X148589040Y-83773239D01*
X148274741Y-83773239D01*
X148227137Y-83765332D01*
X148195280Y-83743805D01*
X148174996Y-83707527D01*
X148167183Y-83650094D01*
X148167183Y-83236226D01*
X148174972Y-83179264D01*
X148195218Y-83143232D01*
X148227070Y-83121812D01*
X148274741Y-83113934D01*
X148609667Y-83113934D01*
X148660811Y-83121623D01*
X148702400Y-83143795D01*
X148736845Y-83181632D01*
X148819820Y-83307414D01*
X148901089Y-83179849D01*
X148933348Y-83143278D01*
X148973966Y-83121574D01*
X149025707Y-83113934D01*
X149419492Y-83113934D01*
G37*
D13*
X148112500Y-98500000D02*
X149887500Y-98500000D01*
X148112500Y-96000000D02*
X149887500Y-96000000D01*
X148112500Y-93500000D02*
X149887500Y-93500000D01*
X148112500Y-91000000D02*
X149887500Y-91000000D01*
X148112500Y-88500000D02*
X149887500Y-88500000D01*
X148112500Y-85750000D02*
X149887500Y-85750000D01*
X148112500Y-82750000D02*
X149887500Y-82750000D01*
X148112500Y-82750000D02*
X149887500Y-82750000D01*
X148112500Y-82750000D02*
X149887500Y-82750000D01*
X148112500Y-101000000D02*
X148112500Y-82750000D01*
X148112500Y-82750000D02*
X149887500Y-82750000D01*
X149887500Y-82750000D02*
X149887500Y-101000000D01*
X149887500Y-101000000D02*
X148112500Y-101000000D01*
D10*
G36*
X107932069Y-102919492D02*
G01*
X107924159Y-102967090D01*
X107902623Y-102998947D01*
X107866323Y-103019235D01*
X107808847Y-103027050D01*
X107401957Y-103027050D01*
X107345937Y-103019309D01*
X107310397Y-102999142D01*
X107289191Y-102967297D01*
X107281371Y-102919492D01*
X107281371Y-102585341D01*
X107480900Y-102585341D01*
X107480900Y-102853344D01*
X107732541Y-102853344D01*
X107732541Y-102327264D01*
X107281371Y-102327264D01*
X107303085Y-101667183D01*
X107922531Y-101667183D01*
X107922531Y-101845852D01*
X107491369Y-101845852D01*
X107478341Y-102153559D01*
X107808847Y-102153559D01*
X107866323Y-102161374D01*
X107902623Y-102181661D01*
X107924159Y-102213518D01*
X107932069Y-102261117D01*
X107932069Y-102919492D01*
G37*
G36*
X108765468Y-101667183D02*
G01*
X108505142Y-103027050D01*
X108303055Y-103027050D01*
X108043660Y-101667183D01*
X108247531Y-101667183D01*
X108399368Y-102598292D01*
X108404564Y-102714612D01*
X108409759Y-102598292D01*
X108562450Y-101667183D01*
X108765468Y-101667183D01*
G37*
G36*
X112336166Y-102919492D02*
G01*
X112328227Y-102967024D01*
X112306585Y-102998885D01*
X112270039Y-103019211D01*
X112212091Y-103027050D01*
X111785272Y-103027050D01*
X111729252Y-103019309D01*
X111693712Y-102999142D01*
X111672506Y-102967297D01*
X111664686Y-102919492D01*
X111664686Y-101774741D01*
X111672594Y-101727137D01*
X111694120Y-101695280D01*
X111730398Y-101674996D01*
X111787831Y-101667183D01*
X112212091Y-101667183D01*
X112270039Y-101675022D01*
X112306585Y-101695348D01*
X112328227Y-101727209D01*
X112336166Y-101774741D01*
X112336166Y-102084077D01*
X112132295Y-102084077D01*
X112132295Y-101840889D01*
X111867704Y-101840889D01*
X111867704Y-102853344D01*
X112132295Y-102853344D01*
X112132295Y-102471192D01*
X111981311Y-102471192D01*
X111981311Y-102297486D01*
X112336166Y-102297486D01*
X112336166Y-102919492D01*
G37*
G36*
X116528049Y-102919492D02*
G01*
X116520170Y-102967163D01*
X116498750Y-102999015D01*
X116462718Y-103019261D01*
X116405757Y-103027050D01*
X115989329Y-103027050D01*
X115933309Y-103019309D01*
X115897769Y-102999142D01*
X115876563Y-102967297D01*
X115868743Y-102919492D01*
X115868743Y-102590304D01*
X116068272Y-102590304D01*
X116068272Y-102853344D01*
X116329373Y-102853344D01*
X116329373Y-102511827D01*
X116080369Y-102340680D01*
X116080369Y-102298107D01*
X116329373Y-102128821D01*
X116329373Y-101840889D01*
X116068272Y-101840889D01*
X116068272Y-102089040D01*
X115868743Y-102089040D01*
X115868743Y-101774741D01*
X115876651Y-101727137D01*
X115898177Y-101695280D01*
X115934455Y-101674996D01*
X115991888Y-101667183D01*
X116405757Y-101667183D01*
X116462718Y-101674972D01*
X116498750Y-101695218D01*
X116520170Y-101727070D01*
X116528049Y-101774741D01*
X116528049Y-102109667D01*
X116520359Y-102160811D01*
X116498187Y-102202400D01*
X116460350Y-102236845D01*
X116334569Y-102319820D01*
X116462133Y-102401089D01*
X116498704Y-102433348D01*
X116520409Y-102473966D01*
X116528049Y-102525707D01*
X116528049Y-102919492D01*
G37*
G36*
X117362223Y-101667183D02*
G01*
X117101897Y-103027050D01*
X116899809Y-103027050D01*
X116640414Y-101667183D01*
X116844286Y-101667183D01*
X116996123Y-102598292D01*
X117001319Y-102714612D01*
X117006514Y-102598292D01*
X117159204Y-101667183D01*
X117362223Y-101667183D01*
G37*
G36*
X118136065Y-102919492D02*
G01*
X118128187Y-102967163D01*
X118106767Y-102999015D01*
X118070735Y-103019261D01*
X118013773Y-103027050D01*
X117597346Y-103027050D01*
X117541325Y-103019309D01*
X117505786Y-102999142D01*
X117484580Y-102967297D01*
X117476760Y-102919492D01*
X117476760Y-102590304D01*
X117676289Y-102590304D01*
X117676289Y-102853344D01*
X117937390Y-102853344D01*
X117937390Y-102511827D01*
X117688386Y-102340680D01*
X117688386Y-102298107D01*
X117937390Y-102128821D01*
X117937390Y-101840889D01*
X117676289Y-101840889D01*
X117676289Y-102089040D01*
X117476760Y-102089040D01*
X117476760Y-101774741D01*
X117484667Y-101727137D01*
X117506194Y-101695280D01*
X117542472Y-101674996D01*
X117599905Y-101667183D01*
X118013773Y-101667183D01*
X118070735Y-101674972D01*
X118106767Y-101695218D01*
X118128187Y-101727070D01*
X118136065Y-101774741D01*
X118136065Y-102109667D01*
X118128376Y-102160811D01*
X118106204Y-102202400D01*
X118068367Y-102236845D01*
X117942585Y-102319820D01*
X118070150Y-102401089D01*
X118106721Y-102433348D01*
X118128425Y-102473966D01*
X118136065Y-102525707D01*
X118136065Y-102919492D01*
G37*
D11*
G36*
X120703627Y-103027050D02*
G01*
X120583894Y-103027050D01*
X120536203Y-102729269D01*
X120266339Y-102729269D01*
X120218647Y-103027050D01*
X120102404Y-103027050D01*
X120102404Y-103023560D01*
X120174399Y-102620082D01*
X120282003Y-102620082D01*
X120520538Y-102620082D01*
X120401736Y-101884160D01*
X120282003Y-102620082D01*
X120174399Y-102620082D01*
X120344429Y-101667183D01*
X120463308Y-101667183D01*
X120703627Y-103027050D01*
G37*
G36*
X121372083Y-103027050D02*
G01*
X120833286Y-103027050D01*
X120833286Y-102962530D01*
X121248861Y-102099353D01*
X121248861Y-101776370D01*
X120972095Y-101776370D01*
X120972095Y-102079114D01*
X120850656Y-102079114D01*
X120850656Y-101767840D01*
X120857617Y-101726873D01*
X120877565Y-101695333D01*
X120907978Y-101674381D01*
X120946970Y-101667183D01*
X121273986Y-101667183D01*
X121312978Y-101674381D01*
X121343391Y-101695333D01*
X121363339Y-101726873D01*
X121370299Y-101767840D01*
X121370299Y-102051197D01*
X121363000Y-102104188D01*
X121338195Y-102170076D01*
X120979074Y-102917863D01*
X121372083Y-102917863D01*
X121372083Y-103027050D01*
G37*
G36*
X123164543Y-103027050D02*
G01*
X123044810Y-103027050D01*
X122997119Y-102729269D01*
X122727255Y-102729269D01*
X122679563Y-103027050D01*
X122563320Y-103027050D01*
X122563320Y-103023560D01*
X122635315Y-102620082D01*
X122742919Y-102620082D01*
X122981454Y-102620082D01*
X122862652Y-101884160D01*
X122742919Y-102620082D01*
X122635315Y-102620082D01*
X122805345Y-101667183D01*
X122924224Y-101667183D01*
X123164543Y-103027050D01*
G37*
G36*
X123823517Y-101674353D02*
G01*
X123854635Y-101695333D01*
X123875242Y-101726943D01*
X123882396Y-101767840D01*
X123882396Y-102926393D01*
X123875245Y-102967304D01*
X123854635Y-102998977D01*
X123823523Y-103019897D01*
X123784377Y-103027050D01*
X123424326Y-103027050D01*
X123385327Y-103019869D01*
X123354921Y-102998977D01*
X123334970Y-102967373D01*
X123328012Y-102926393D01*
X123328012Y-102917863D01*
X123448675Y-102917863D01*
X123761811Y-102917863D01*
X123761811Y-101776370D01*
X123448675Y-101776370D01*
X123448675Y-102917863D01*
X123328012Y-102917863D01*
X123328012Y-101767840D01*
X123334973Y-101726873D01*
X123354921Y-101695333D01*
X123385334Y-101674381D01*
X123424326Y-101667183D01*
X123784377Y-101667183D01*
X123823517Y-101674353D01*
G37*
G36*
X125754486Y-103027050D02*
G01*
X125634753Y-103027050D01*
X125587062Y-102729269D01*
X125317198Y-102729269D01*
X125269506Y-103027050D01*
X125153263Y-103027050D01*
X125153263Y-103023560D01*
X125225258Y-102620082D01*
X125332862Y-102620082D01*
X125571397Y-102620082D01*
X125452595Y-101884160D01*
X125332862Y-102620082D01*
X125225258Y-102620082D01*
X125395288Y-101667183D01*
X125514167Y-101667183D01*
X125754486Y-103027050D01*
G37*
G36*
X126053352Y-103027050D02*
G01*
X125931836Y-103027050D01*
X125931836Y-102084077D01*
X125878949Y-102084077D01*
X125878949Y-102081595D01*
X125955333Y-101667183D01*
X126053352Y-101667183D01*
X126053352Y-103027050D01*
G37*
G36*
X126801294Y-102926393D02*
G01*
X126794336Y-102967373D01*
X126774385Y-102998977D01*
X126744043Y-103019866D01*
X126705058Y-103027050D01*
X126370985Y-103027050D01*
X126332068Y-103019853D01*
X126302046Y-102998977D01*
X126282454Y-102967411D01*
X126275602Y-102926393D01*
X126275602Y-102590304D01*
X126396188Y-102590304D01*
X126396188Y-102917863D01*
X126680709Y-102917863D01*
X126680709Y-102282597D01*
X126279015Y-102282597D01*
X126294679Y-101667183D01*
X126790903Y-101667183D01*
X126790903Y-101776370D01*
X126412628Y-101776370D01*
X126397894Y-102173411D01*
X126705058Y-102173411D01*
X126744183Y-102180212D01*
X126774385Y-102199777D01*
X126794389Y-102229457D01*
X126801294Y-102267708D01*
X126801294Y-102926393D01*
G37*
G36*
X128589696Y-101674381D02*
G01*
X128620109Y-101695333D01*
X128640057Y-101726873D01*
X128647018Y-101767840D01*
X128647018Y-102211719D01*
X128642275Y-102233498D01*
X128627262Y-102253721D01*
X128598473Y-102273292D01*
X128503013Y-102312375D01*
X128605375Y-102355802D01*
X128631571Y-102371254D01*
X128645774Y-102389981D01*
X128650507Y-102413032D01*
X128650507Y-102926393D01*
X128643549Y-102967373D01*
X128623598Y-102998977D01*
X128593192Y-103019869D01*
X128554194Y-103027050D01*
X128106514Y-103027050D01*
X128106514Y-102917863D01*
X128227178Y-102917863D01*
X128529069Y-102917863D01*
X128529069Y-102446997D01*
X128406699Y-102366969D01*
X128227178Y-102366969D01*
X128227178Y-102917863D01*
X128106514Y-102917863D01*
X128106514Y-102262745D01*
X128227178Y-102262745D01*
X128404993Y-102262745D01*
X128525579Y-102181864D01*
X128525579Y-101776370D01*
X128227178Y-101776370D01*
X128227178Y-102262745D01*
X128106514Y-102262745D01*
X128106514Y-101667183D01*
X128550704Y-101667183D01*
X128589696Y-101674381D01*
G37*
G36*
X129403179Y-102926393D02*
G01*
X129396221Y-102967373D01*
X129376271Y-102998977D01*
X129345864Y-103019869D01*
X129306866Y-103027050D01*
X128957206Y-103027050D01*
X128918208Y-103019869D01*
X128887801Y-102998977D01*
X128867851Y-102967373D01*
X128860893Y-102926393D01*
X128860893Y-102585341D01*
X128981556Y-102585341D01*
X128981556Y-102917863D01*
X129281663Y-102917863D01*
X129281663Y-102503374D01*
X129042275Y-102323775D01*
X129042275Y-102296866D01*
X129279957Y-102119903D01*
X129279957Y-101776370D01*
X128983262Y-101776370D01*
X128983262Y-102079114D01*
X128862676Y-102079114D01*
X128862676Y-101767840D01*
X128869637Y-101726873D01*
X128889585Y-101695333D01*
X128919998Y-101674381D01*
X128958990Y-101667183D01*
X129305082Y-101667183D01*
X129344075Y-101674381D01*
X129374487Y-101695333D01*
X129394435Y-101726873D01*
X129401396Y-101767840D01*
X129401396Y-102094778D01*
X129395462Y-102135457D01*
X129378375Y-102168669D01*
X129349362Y-102196287D01*
X129187986Y-102309894D01*
X129351145Y-102423578D01*
X129379965Y-102450715D01*
X129397141Y-102484404D01*
X129403179Y-102526793D01*
X129403179Y-102926393D01*
G37*
G36*
X131124437Y-101674381D02*
G01*
X131154850Y-101695333D01*
X131174798Y-101726873D01*
X131181759Y-101767840D01*
X131181759Y-102211719D01*
X131177016Y-102233498D01*
X131162003Y-102253721D01*
X131133214Y-102273292D01*
X131037754Y-102312375D01*
X131140116Y-102355802D01*
X131166312Y-102371254D01*
X131180515Y-102389981D01*
X131185248Y-102413032D01*
X131185248Y-102926393D01*
X131178290Y-102967373D01*
X131158339Y-102998977D01*
X131127933Y-103019869D01*
X131088935Y-103027050D01*
X130641255Y-103027050D01*
X130641255Y-102917863D01*
X130761919Y-102917863D01*
X131063810Y-102917863D01*
X131063810Y-102446997D01*
X130941440Y-102366969D01*
X130761919Y-102366969D01*
X130761919Y-102917863D01*
X130641255Y-102917863D01*
X130641255Y-102262745D01*
X130761919Y-102262745D01*
X130939734Y-102262745D01*
X131060320Y-102181864D01*
X131060320Y-101776370D01*
X130761919Y-101776370D01*
X130761919Y-102262745D01*
X130641255Y-102262745D01*
X130641255Y-101667183D01*
X131085445Y-101667183D01*
X131124437Y-101674381D01*
G37*
G36*
X131924893Y-102674675D02*
G01*
X131821677Y-102674675D01*
X131821677Y-103027050D01*
X131707993Y-103027050D01*
X131707993Y-102674675D01*
X131324523Y-102674675D01*
X131324523Y-102612870D01*
X131653323Y-101667183D01*
X131767007Y-101667183D01*
X131767007Y-101672379D01*
X131454647Y-102570452D01*
X131707993Y-102570452D01*
X131707993Y-102074151D01*
X131821677Y-102074151D01*
X131821677Y-102570452D01*
X131924893Y-102570452D01*
X131924893Y-102674675D01*
G37*
G36*
X133599001Y-101674381D02*
G01*
X133629414Y-101695333D01*
X133649362Y-101726873D01*
X133656323Y-101767840D01*
X133656323Y-102211719D01*
X133651580Y-102233498D01*
X133636567Y-102253721D01*
X133607778Y-102273292D01*
X133512318Y-102312375D01*
X133614680Y-102355802D01*
X133640876Y-102371254D01*
X133655079Y-102389981D01*
X133659812Y-102413032D01*
X133659812Y-102926393D01*
X133652854Y-102967373D01*
X133632903Y-102998977D01*
X133602497Y-103019869D01*
X133563499Y-103027050D01*
X133115819Y-103027050D01*
X133115819Y-102917863D01*
X133236483Y-102917863D01*
X133538374Y-102917863D01*
X133538374Y-102446997D01*
X133416004Y-102366969D01*
X133236483Y-102366969D01*
X133236483Y-102917863D01*
X133115819Y-102917863D01*
X133115819Y-102262745D01*
X133236483Y-102262745D01*
X133414298Y-102262745D01*
X133534884Y-102181864D01*
X133534884Y-101776370D01*
X133236483Y-101776370D01*
X133236483Y-102262745D01*
X133115819Y-102262745D01*
X133115819Y-101667183D01*
X133560009Y-101667183D01*
X133599001Y-101674381D01*
G37*
G36*
X134392477Y-102926393D02*
G01*
X134385519Y-102967373D01*
X134365568Y-102998977D01*
X134335226Y-103019866D01*
X134296241Y-103027050D01*
X133962168Y-103027050D01*
X133923251Y-103019853D01*
X133893229Y-102998977D01*
X133873638Y-102967411D01*
X133866786Y-102926393D01*
X133866786Y-102590304D01*
X133987371Y-102590304D01*
X133987371Y-102917863D01*
X134271892Y-102917863D01*
X134271892Y-102282597D01*
X133870198Y-102282597D01*
X133885862Y-101667183D01*
X134382086Y-101667183D01*
X134382086Y-101776370D01*
X134003811Y-101776370D01*
X133989077Y-102173411D01*
X134296241Y-102173411D01*
X134335367Y-102180212D01*
X134365568Y-102199777D01*
X134385572Y-102229457D01*
X134392477Y-102267708D01*
X134392477Y-102926393D01*
G37*
G36*
X136087835Y-101674381D02*
G01*
X136118248Y-101695333D01*
X136138196Y-101726873D01*
X136145157Y-101767840D01*
X136145157Y-102211719D01*
X136140414Y-102233498D01*
X136125401Y-102253721D01*
X136096612Y-102273292D01*
X136001152Y-102312375D01*
X136103514Y-102355802D01*
X136129710Y-102371254D01*
X136143913Y-102389981D01*
X136148646Y-102413032D01*
X136148646Y-102926393D01*
X136141688Y-102967373D01*
X136121737Y-102998977D01*
X136091331Y-103019869D01*
X136052333Y-103027050D01*
X135604653Y-103027050D01*
X135604653Y-102917863D01*
X135725317Y-102917863D01*
X136027208Y-102917863D01*
X136027208Y-102446997D01*
X135904838Y-102366969D01*
X135725317Y-102366969D01*
X135725317Y-102917863D01*
X135604653Y-102917863D01*
X135604653Y-102262745D01*
X135725317Y-102262745D01*
X135903132Y-102262745D01*
X136023718Y-102181864D01*
X136023718Y-101776370D01*
X135725317Y-101776370D01*
X135725317Y-102262745D01*
X135604653Y-102262745D01*
X135604653Y-101667183D01*
X136048843Y-101667183D01*
X136087835Y-101674381D01*
G37*
G36*
X136836937Y-101674397D02*
G01*
X136866965Y-101695333D01*
X136886614Y-101726841D01*
X136893486Y-101767840D01*
X136893486Y-102064225D01*
X136772900Y-102064225D01*
X136772900Y-101776370D01*
X136479695Y-101776370D01*
X136479695Y-102277634D01*
X136801515Y-102277634D01*
X136840446Y-102284796D01*
X136870455Y-102305551D01*
X136890083Y-102336983D01*
X136896976Y-102378290D01*
X136896976Y-102926393D01*
X136890106Y-102967405D01*
X136870455Y-102998977D01*
X136840433Y-103019853D01*
X136801515Y-103027050D01*
X136455345Y-103027050D01*
X136416347Y-103019869D01*
X136385940Y-102998977D01*
X136365990Y-102967373D01*
X136359032Y-102926393D01*
X136359032Y-102917863D01*
X136479695Y-102917863D01*
X136776390Y-102917863D01*
X136776390Y-102381858D01*
X136479695Y-102381858D01*
X136479695Y-102917863D01*
X136359032Y-102917863D01*
X136359032Y-101767840D01*
X136365992Y-101726873D01*
X136385940Y-101695333D01*
X136416353Y-101674381D01*
X136455345Y-101667183D01*
X136798026Y-101667183D01*
X136836937Y-101674397D01*
G37*
G36*
X138642428Y-101674381D02*
G01*
X138672841Y-101695333D01*
X138692789Y-101726873D01*
X138699750Y-101767840D01*
X138699750Y-102211719D01*
X138695007Y-102233498D01*
X138679994Y-102253721D01*
X138651205Y-102273292D01*
X138555745Y-102312375D01*
X138658107Y-102355802D01*
X138684303Y-102371254D01*
X138698506Y-102389981D01*
X138703239Y-102413032D01*
X138703239Y-102926393D01*
X138696281Y-102967373D01*
X138676330Y-102998977D01*
X138645924Y-103019869D01*
X138606926Y-103027050D01*
X138159246Y-103027050D01*
X138159246Y-102917863D01*
X138279910Y-102917863D01*
X138581801Y-102917863D01*
X138581801Y-102446997D01*
X138459431Y-102366969D01*
X138279910Y-102366969D01*
X138279910Y-102917863D01*
X138159246Y-102917863D01*
X138159246Y-102262745D01*
X138279910Y-102262745D01*
X138457725Y-102262745D01*
X138578311Y-102181864D01*
X138578311Y-101776370D01*
X138279910Y-101776370D01*
X138279910Y-102262745D01*
X138159246Y-102262745D01*
X138159246Y-101667183D01*
X138603436Y-101667183D01*
X138642428Y-101674381D01*
G37*
G36*
X139405583Y-101729609D02*
G01*
X139114084Y-103027050D01*
X138995204Y-103027050D01*
X139278018Y-101776370D01*
X138988302Y-101776370D01*
X138988302Y-101974890D01*
X138867717Y-101974890D01*
X138867717Y-101667183D01*
X139405583Y-101667183D01*
X139405583Y-101729609D01*
G37*
G36*
X141081631Y-101674381D02*
G01*
X141112044Y-101695333D01*
X141131992Y-101726873D01*
X141138953Y-101767840D01*
X141138953Y-102211719D01*
X141134210Y-102233498D01*
X141119197Y-102253721D01*
X141090408Y-102273292D01*
X140994948Y-102312375D01*
X141097310Y-102355802D01*
X141123506Y-102371254D01*
X141137709Y-102389981D01*
X141142442Y-102413032D01*
X141142442Y-102926393D01*
X141135484Y-102967373D01*
X141115533Y-102998977D01*
X141085127Y-103019869D01*
X141046129Y-103027050D01*
X140598449Y-103027050D01*
X140598449Y-102917863D01*
X140719113Y-102917863D01*
X141021004Y-102917863D01*
X141021004Y-102446997D01*
X140898634Y-102366969D01*
X140719113Y-102366969D01*
X140719113Y-102917863D01*
X140598449Y-102917863D01*
X140598449Y-102262745D01*
X140719113Y-102262745D01*
X140896928Y-102262745D01*
X141017514Y-102181864D01*
X141017514Y-101776370D01*
X140719113Y-101776370D01*
X140719113Y-102262745D01*
X140598449Y-102262745D01*
X140598449Y-101667183D01*
X141042639Y-101667183D01*
X141081631Y-101674381D01*
G37*
G36*
X141839499Y-101674381D02*
G01*
X141869912Y-101695333D01*
X141889860Y-101726873D01*
X141896821Y-101767840D01*
X141896821Y-102147433D01*
X141891477Y-102184829D01*
X141876519Y-102213294D01*
X141851688Y-102235061D01*
X141724201Y-102314857D01*
X141853472Y-102399849D01*
X141879656Y-102423205D01*
X141894988Y-102451567D01*
X141900310Y-102486624D01*
X141900310Y-102926393D01*
X141893158Y-102967304D01*
X141872548Y-102998977D01*
X141841437Y-103019897D01*
X141802291Y-103027050D01*
X141444798Y-103027050D01*
X141405881Y-103019853D01*
X141375859Y-102998977D01*
X141356268Y-102967411D01*
X141349416Y-102926393D01*
X141349416Y-102486624D01*
X141351896Y-102469253D01*
X141470001Y-102469253D01*
X141470001Y-102917863D01*
X141778871Y-102917863D01*
X141778871Y-102469253D01*
X141624398Y-102367822D01*
X141470001Y-102469253D01*
X141351896Y-102469253D01*
X141354608Y-102450256D01*
X141369255Y-102422001D01*
X141393695Y-102399849D01*
X141525525Y-102314857D01*
X141397107Y-102235061D01*
X141372797Y-102213361D01*
X141358093Y-102184903D01*
X141355149Y-102163950D01*
X141473491Y-102163950D01*
X141624398Y-102264606D01*
X141775382Y-102163950D01*
X141775382Y-101776370D01*
X141473491Y-101776370D01*
X141473491Y-102163950D01*
X141355149Y-102163950D01*
X141352828Y-102147433D01*
X141352828Y-101767840D01*
X141359788Y-101726873D01*
X141379736Y-101695333D01*
X141410149Y-101674381D01*
X141449141Y-101667183D01*
X141800507Y-101667183D01*
X141839499Y-101674381D01*
G37*
G36*
X143587835Y-101674381D02*
G01*
X143618248Y-101695333D01*
X143638196Y-101726873D01*
X143645157Y-101767840D01*
X143645157Y-102211719D01*
X143640414Y-102233498D01*
X143625401Y-102253721D01*
X143596612Y-102273292D01*
X143501152Y-102312375D01*
X143603514Y-102355802D01*
X143629710Y-102371254D01*
X143643913Y-102389981D01*
X143648646Y-102413032D01*
X143648646Y-102926393D01*
X143641688Y-102967373D01*
X143621737Y-102998977D01*
X143591331Y-103019869D01*
X143552333Y-103027050D01*
X143104653Y-103027050D01*
X143104653Y-102917863D01*
X143225317Y-102917863D01*
X143527208Y-102917863D01*
X143527208Y-102446997D01*
X143404838Y-102366969D01*
X143225317Y-102366969D01*
X143225317Y-102917863D01*
X143104653Y-102917863D01*
X143104653Y-102262745D01*
X143225317Y-102262745D01*
X143403132Y-102262745D01*
X143523718Y-102181864D01*
X143523718Y-101776370D01*
X143225317Y-101776370D01*
X143225317Y-102262745D01*
X143104653Y-102262745D01*
X143104653Y-101667183D01*
X143548843Y-101667183D01*
X143587835Y-101674381D01*
G37*
G36*
X144335231Y-101674397D02*
G01*
X144365259Y-101695333D01*
X144384908Y-101726841D01*
X144391780Y-101767840D01*
X144391780Y-102926393D01*
X144384910Y-102967405D01*
X144365259Y-102998977D01*
X144335237Y-103019853D01*
X144296320Y-103027050D01*
X143957129Y-103027050D01*
X143917916Y-103019894D01*
X143886793Y-102998977D01*
X143866183Y-102967304D01*
X143859032Y-102926393D01*
X143859032Y-102634971D01*
X143979695Y-102634971D01*
X143979695Y-102917863D01*
X144271194Y-102917863D01*
X144271194Y-102421562D01*
X143949296Y-102421562D01*
X143910218Y-102414768D01*
X143880279Y-102395273D01*
X143860635Y-102365567D01*
X143853836Y-102327264D01*
X143853836Y-102317338D01*
X143974422Y-102317338D01*
X144271194Y-102317338D01*
X144271194Y-101776370D01*
X143974422Y-101776370D01*
X143974422Y-102317338D01*
X143853836Y-102317338D01*
X143853836Y-101767840D01*
X143860691Y-101726835D01*
X143880279Y-101695333D01*
X143910372Y-101674394D01*
X143949296Y-101667183D01*
X144296320Y-101667183D01*
X144335231Y-101674397D01*
G37*
G36*
X145969977Y-102926393D02*
G01*
X145962826Y-102967304D01*
X145942215Y-102998977D01*
X145911104Y-103019897D01*
X145871958Y-103027050D01*
X145522298Y-103027050D01*
X145483299Y-103019869D01*
X145452893Y-102998977D01*
X145432943Y-102967373D01*
X145425984Y-102926393D01*
X145425984Y-101767840D01*
X145432945Y-101726873D01*
X145452893Y-101695333D01*
X145483306Y-101674381D01*
X145522298Y-101667183D01*
X145871958Y-101667183D01*
X145911098Y-101674353D01*
X145942215Y-101695333D01*
X145962823Y-101726943D01*
X145969977Y-101767840D01*
X145969977Y-102079114D01*
X145848539Y-102079114D01*
X145848539Y-101776370D01*
X145546648Y-101776370D01*
X145546648Y-102917863D01*
X145848539Y-102917863D01*
X145848539Y-102590304D01*
X145969977Y-102590304D01*
X145969977Y-102926393D01*
G37*
G36*
X146315760Y-103027050D02*
G01*
X146194244Y-103027050D01*
X146194244Y-102084077D01*
X146141356Y-102084077D01*
X146141356Y-102081595D01*
X146217740Y-101667183D01*
X146315760Y-101667183D01*
X146315760Y-103027050D01*
G37*
G36*
X147083709Y-102926393D02*
G01*
X147076751Y-102967373D01*
X147056800Y-102998977D01*
X147026394Y-103019869D01*
X146987395Y-103027050D01*
X146637735Y-103027050D01*
X146598737Y-103019869D01*
X146568331Y-102998977D01*
X146548380Y-102967373D01*
X146541422Y-102926393D01*
X146541422Y-102585341D01*
X146662085Y-102585341D01*
X146662085Y-102917863D01*
X146962192Y-102917863D01*
X146962192Y-102503374D01*
X146722805Y-102323775D01*
X146722805Y-102296866D01*
X146960486Y-102119903D01*
X146960486Y-101776370D01*
X146663791Y-101776370D01*
X146663791Y-102079114D01*
X146543205Y-102079114D01*
X146543205Y-101767840D01*
X146550166Y-101726873D01*
X146570114Y-101695333D01*
X146600527Y-101674381D01*
X146639519Y-101667183D01*
X146985612Y-101667183D01*
X147024604Y-101674381D01*
X147055016Y-101695333D01*
X147074964Y-101726873D01*
X147081925Y-101767840D01*
X147081925Y-102094778D01*
X147075991Y-102135457D01*
X147058905Y-102168669D01*
X147029891Y-102196287D01*
X146868516Y-102309894D01*
X147031675Y-102423578D01*
X147060495Y-102450715D01*
X147077671Y-102484404D01*
X147083709Y-102526793D01*
X147083709Y-102926393D01*
G37*
D10*
G36*
X150586166Y-102919492D02*
G01*
X150578227Y-102967024D01*
X150556585Y-102998885D01*
X150520039Y-103019211D01*
X150462091Y-103027050D01*
X150035272Y-103027050D01*
X149979252Y-103019309D01*
X149943712Y-102999142D01*
X149922506Y-102967297D01*
X149914686Y-102919492D01*
X149914686Y-101774741D01*
X149922594Y-101727137D01*
X149944120Y-101695280D01*
X149980398Y-101674996D01*
X150037831Y-101667183D01*
X150462091Y-101667183D01*
X150520039Y-101675022D01*
X150556585Y-101695348D01*
X150578227Y-101727209D01*
X150586166Y-101774741D01*
X150586166Y-102084077D01*
X150382295Y-102084077D01*
X150382295Y-101840889D01*
X150117704Y-101840889D01*
X150117704Y-102853344D01*
X150382295Y-102853344D01*
X150382295Y-102471192D01*
X150231311Y-102471192D01*
X150231311Y-102297486D01*
X150586166Y-102297486D01*
X150586166Y-102919492D01*
G37*
D13*
X109500000Y-101612500D02*
X109500000Y-103387500D01*
X114500000Y-101612500D02*
X114500000Y-103387500D01*
X119500000Y-101612500D02*
X119500000Y-103387500D01*
X122000000Y-101612500D02*
X122000000Y-103387500D01*
X124500000Y-101612500D02*
X124500000Y-103387500D01*
X127500000Y-101612500D02*
X127500000Y-103387500D01*
X130000000Y-101612500D02*
X130000000Y-103387500D01*
X132500000Y-101612500D02*
X132500000Y-103387500D01*
X135000000Y-101612500D02*
X135000000Y-103387500D01*
X137500000Y-101612500D02*
X137500000Y-103387500D01*
X140000000Y-101612500D02*
X140000000Y-103387500D01*
X142500000Y-101612500D02*
X142500000Y-103387500D01*
X145000000Y-101612500D02*
X145000000Y-103387500D01*
X147500000Y-101612500D02*
X147500000Y-103387500D01*
X153000000Y-101612500D02*
X153000000Y-103387500D01*
X153000000Y-101612500D02*
X153000000Y-103387500D01*
X153000000Y-101612500D02*
X153000000Y-103387500D01*
X106500000Y-101612500D02*
X153000000Y-101612500D01*
X153000000Y-101612500D02*
X153000000Y-103387500D01*
X153000000Y-103387500D02*
X106500000Y-103387500D01*
X106500000Y-103387500D02*
X106500000Y-101612500D01*
D10*
G36*
X109586166Y-80531992D02*
G01*
X109578227Y-80579524D01*
X109556585Y-80611385D01*
X109520039Y-80631711D01*
X109462091Y-80639550D01*
X109035272Y-80639550D01*
X108979252Y-80631809D01*
X108943712Y-80611642D01*
X108922506Y-80579797D01*
X108914686Y-80531992D01*
X108914686Y-79387241D01*
X108922594Y-79339637D01*
X108944120Y-79307780D01*
X108980398Y-79287496D01*
X109037831Y-79279683D01*
X109462091Y-79279683D01*
X109520039Y-79287522D01*
X109556585Y-79307848D01*
X109578227Y-79339709D01*
X109586166Y-79387241D01*
X109586166Y-79696577D01*
X109382295Y-79696577D01*
X109382295Y-79453389D01*
X109117704Y-79453389D01*
X109117704Y-80465844D01*
X109382295Y-80465844D01*
X109382295Y-80083692D01*
X109231311Y-80083692D01*
X109231311Y-79909986D01*
X109586166Y-79909986D01*
X109586166Y-80531992D01*
G37*
G36*
X114028049Y-80531992D02*
G01*
X114020170Y-80579663D01*
X113998750Y-80611515D01*
X113962718Y-80631761D01*
X113905757Y-80639550D01*
X113489329Y-80639550D01*
X113433309Y-80631809D01*
X113397769Y-80611642D01*
X113376563Y-80579797D01*
X113368743Y-80531992D01*
X113368743Y-80202804D01*
X113568272Y-80202804D01*
X113568272Y-80465844D01*
X113829373Y-80465844D01*
X113829373Y-80124327D01*
X113580369Y-79953180D01*
X113580369Y-79910607D01*
X113829373Y-79741321D01*
X113829373Y-79453389D01*
X113568272Y-79453389D01*
X113568272Y-79701540D01*
X113368743Y-79701540D01*
X113368743Y-79387241D01*
X113376651Y-79339637D01*
X113398177Y-79307780D01*
X113434455Y-79287496D01*
X113491888Y-79279683D01*
X113905757Y-79279683D01*
X113962718Y-79287472D01*
X113998750Y-79307718D01*
X114020170Y-79339570D01*
X114028049Y-79387241D01*
X114028049Y-79722167D01*
X114020359Y-79773311D01*
X113998187Y-79814900D01*
X113960350Y-79849345D01*
X113834569Y-79932320D01*
X113962133Y-80013589D01*
X113998704Y-80045848D01*
X114020409Y-80086466D01*
X114028049Y-80138207D01*
X114028049Y-80531992D01*
G37*
G36*
X114862223Y-79279683D02*
G01*
X114601897Y-80639550D01*
X114399809Y-80639550D01*
X114140414Y-79279683D01*
X114344286Y-79279683D01*
X114496123Y-80210792D01*
X114501319Y-80327112D01*
X114506514Y-80210792D01*
X114659204Y-79279683D01*
X114862223Y-79279683D01*
G37*
G36*
X115636065Y-80531992D02*
G01*
X115628187Y-80579663D01*
X115606767Y-80611515D01*
X115570735Y-80631761D01*
X115513773Y-80639550D01*
X115097346Y-80639550D01*
X115041325Y-80631809D01*
X115005786Y-80611642D01*
X114984580Y-80579797D01*
X114976760Y-80531992D01*
X114976760Y-80202804D01*
X115176289Y-80202804D01*
X115176289Y-80465844D01*
X115437390Y-80465844D01*
X115437390Y-80124327D01*
X115188386Y-79953180D01*
X115188386Y-79910607D01*
X115437390Y-79741321D01*
X115437390Y-79453389D01*
X115176289Y-79453389D01*
X115176289Y-79701540D01*
X114976760Y-79701540D01*
X114976760Y-79387241D01*
X114984667Y-79339637D01*
X115006194Y-79307780D01*
X115042472Y-79287496D01*
X115099905Y-79279683D01*
X115513773Y-79279683D01*
X115570735Y-79287472D01*
X115606767Y-79307718D01*
X115628187Y-79339570D01*
X115636065Y-79387241D01*
X115636065Y-79722167D01*
X115628376Y-79773311D01*
X115606204Y-79814900D01*
X115568367Y-79849345D01*
X115442585Y-79932320D01*
X115570150Y-80013589D01*
X115606721Y-80045848D01*
X115628425Y-80086466D01*
X115636065Y-80138207D01*
X115636065Y-80531992D01*
G37*
D11*
G36*
X118417645Y-80639550D02*
G01*
X118297912Y-80639550D01*
X118250221Y-80341769D01*
X117980357Y-80341769D01*
X117932665Y-80639550D01*
X117816422Y-80639550D01*
X117816422Y-80636060D01*
X117888417Y-80232582D01*
X117996021Y-80232582D01*
X118234556Y-80232582D01*
X118115754Y-79496660D01*
X117996021Y-80232582D01*
X117888417Y-80232582D01*
X118058447Y-79279683D01*
X118177326Y-79279683D01*
X118417645Y-80639550D01*
G37*
G36*
X119067786Y-79286881D02*
G01*
X119098198Y-79307833D01*
X119118146Y-79339373D01*
X119125107Y-79380340D01*
X119125107Y-79759933D01*
X119119764Y-79797329D01*
X119104806Y-79825794D01*
X119079975Y-79847561D01*
X118952487Y-79927357D01*
X119081758Y-80012349D01*
X119107942Y-80035705D01*
X119123274Y-80064067D01*
X119128597Y-80099124D01*
X119128597Y-80538893D01*
X119121445Y-80579804D01*
X119100835Y-80611477D01*
X119069723Y-80632397D01*
X119030577Y-80639550D01*
X118673085Y-80639550D01*
X118634168Y-80632353D01*
X118604146Y-80611477D01*
X118584554Y-80579911D01*
X118577702Y-80538893D01*
X118577702Y-80099124D01*
X118580182Y-80081753D01*
X118698288Y-80081753D01*
X118698288Y-80530363D01*
X119007158Y-80530363D01*
X119007158Y-80081753D01*
X118852684Y-79980322D01*
X118698288Y-80081753D01*
X118580182Y-80081753D01*
X118582894Y-80062756D01*
X118597541Y-80034501D01*
X118621982Y-80012349D01*
X118753812Y-79927357D01*
X118625394Y-79847561D01*
X118601084Y-79825861D01*
X118586380Y-79797403D01*
X118583435Y-79776450D01*
X118701777Y-79776450D01*
X118852684Y-79877106D01*
X119003668Y-79776450D01*
X119003668Y-79388870D01*
X118701777Y-79388870D01*
X118701777Y-79776450D01*
X118583435Y-79776450D01*
X118581114Y-79759933D01*
X118581114Y-79380340D01*
X118588075Y-79339373D01*
X118608023Y-79307833D01*
X118638436Y-79286881D01*
X118677428Y-79279683D01*
X119028794Y-79279683D01*
X119067786Y-79286881D01*
G37*
G36*
X120918472Y-79286881D02*
G01*
X120948885Y-79307833D01*
X120968833Y-79339373D01*
X120975794Y-79380340D01*
X120975794Y-79824219D01*
X120971051Y-79845998D01*
X120956038Y-79866221D01*
X120927249Y-79885792D01*
X120831789Y-79924875D01*
X120934151Y-79968302D01*
X120960347Y-79983754D01*
X120974550Y-80002481D01*
X120979283Y-80025532D01*
X120979283Y-80538893D01*
X120972325Y-80579873D01*
X120952374Y-80611477D01*
X120921968Y-80632369D01*
X120882970Y-80639550D01*
X120435290Y-80639550D01*
X120435290Y-80530363D01*
X120555954Y-80530363D01*
X120857845Y-80530363D01*
X120857845Y-80059497D01*
X120735475Y-79979469D01*
X120555954Y-79979469D01*
X120555954Y-80530363D01*
X120435290Y-80530363D01*
X120435290Y-79875245D01*
X120555954Y-79875245D01*
X120733769Y-79875245D01*
X120854355Y-79794364D01*
X120854355Y-79388870D01*
X120555954Y-79388870D01*
X120555954Y-79875245D01*
X120435290Y-79875245D01*
X120435290Y-79279683D01*
X120879480Y-79279683D01*
X120918472Y-79286881D01*
G37*
G36*
X121325066Y-80639550D02*
G01*
X121203550Y-80639550D01*
X121203550Y-79696577D01*
X121150662Y-79696577D01*
X121150662Y-79694095D01*
X121227046Y-79279683D01*
X121325066Y-79279683D01*
X121325066Y-80639550D01*
G37*
G36*
X122073008Y-80538893D02*
G01*
X122066049Y-80579873D01*
X122046099Y-80611477D01*
X122015757Y-80632366D01*
X121976772Y-80639550D01*
X121642699Y-80639550D01*
X121603781Y-80632353D01*
X121573759Y-80611477D01*
X121554168Y-80579911D01*
X121547316Y-80538893D01*
X121547316Y-80202804D01*
X121667902Y-80202804D01*
X121667902Y-80530363D01*
X121952422Y-80530363D01*
X121952422Y-79895097D01*
X121550728Y-79895097D01*
X121566392Y-79279683D01*
X122062616Y-79279683D01*
X122062616Y-79388870D01*
X121684342Y-79388870D01*
X121669608Y-79785911D01*
X121976772Y-79785911D01*
X122015897Y-79792712D01*
X122046099Y-79812277D01*
X122066102Y-79841957D01*
X122073008Y-79880208D01*
X122073008Y-80538893D01*
G37*
G36*
X123443907Y-79286881D02*
G01*
X123474320Y-79307833D01*
X123494268Y-79339373D01*
X123501229Y-79380340D01*
X123501229Y-79824219D01*
X123496486Y-79845998D01*
X123481473Y-79866221D01*
X123452684Y-79885792D01*
X123357224Y-79924875D01*
X123459586Y-79968302D01*
X123485782Y-79983754D01*
X123499985Y-80002481D01*
X123504718Y-80025532D01*
X123504718Y-80538893D01*
X123497760Y-80579873D01*
X123477809Y-80611477D01*
X123447403Y-80632369D01*
X123408405Y-80639550D01*
X122960725Y-80639550D01*
X122960725Y-80530363D01*
X123081389Y-80530363D01*
X123383280Y-80530363D01*
X123383280Y-80059497D01*
X123260910Y-79979469D01*
X123081389Y-79979469D01*
X123081389Y-80530363D01*
X122960725Y-80530363D01*
X122960725Y-79875245D01*
X123081389Y-79875245D01*
X123259204Y-79875245D01*
X123379790Y-79794364D01*
X123379790Y-79388870D01*
X123081389Y-79388870D01*
X123081389Y-79875245D01*
X122960725Y-79875245D01*
X122960725Y-79279683D01*
X123404915Y-79279683D01*
X123443907Y-79286881D01*
G37*
G36*
X123850501Y-80639550D02*
G01*
X123728985Y-80639550D01*
X123728985Y-79696577D01*
X123676097Y-79696577D01*
X123676097Y-79694095D01*
X123752481Y-79279683D01*
X123850501Y-79279683D01*
X123850501Y-80639550D01*
G37*
G36*
X124605422Y-80287175D02*
G01*
X124502207Y-80287175D01*
X124502207Y-80639550D01*
X124388523Y-80639550D01*
X124388523Y-80287175D01*
X124005052Y-80287175D01*
X124005052Y-80225370D01*
X124333852Y-79279683D01*
X124447536Y-79279683D01*
X124447536Y-79284879D01*
X124135176Y-80182952D01*
X124388523Y-80182952D01*
X124388523Y-79686651D01*
X124502207Y-79686651D01*
X124502207Y-80182952D01*
X124605422Y-80182952D01*
X124605422Y-80287175D01*
G37*
G36*
X125909166Y-79286881D02*
G01*
X125939579Y-79307833D01*
X125959527Y-79339373D01*
X125966488Y-79380340D01*
X125966488Y-79824219D01*
X125961745Y-79845998D01*
X125946732Y-79866221D01*
X125917943Y-79885792D01*
X125822483Y-79924875D01*
X125924845Y-79968302D01*
X125951041Y-79983754D01*
X125965244Y-80002481D01*
X125969977Y-80025532D01*
X125969977Y-80538893D01*
X125963019Y-80579873D01*
X125943068Y-80611477D01*
X125912662Y-80632369D01*
X125873664Y-80639550D01*
X125425984Y-80639550D01*
X125425984Y-80530363D01*
X125546648Y-80530363D01*
X125848539Y-80530363D01*
X125848539Y-80059497D01*
X125726169Y-79979469D01*
X125546648Y-79979469D01*
X125546648Y-80530363D01*
X125425984Y-80530363D01*
X125425984Y-79875245D01*
X125546648Y-79875245D01*
X125724463Y-79875245D01*
X125845049Y-79794364D01*
X125845049Y-79388870D01*
X125546648Y-79388870D01*
X125546648Y-79875245D01*
X125425984Y-79875245D01*
X125425984Y-79279683D01*
X125870174Y-79279683D01*
X125909166Y-79286881D01*
G37*
G36*
X126315760Y-80639550D02*
G01*
X126194244Y-80639550D01*
X126194244Y-79696577D01*
X126141356Y-79696577D01*
X126141356Y-79694095D01*
X126217740Y-79279683D01*
X126315760Y-79279683D01*
X126315760Y-80639550D01*
G37*
G36*
X127083709Y-80538893D02*
G01*
X127076751Y-80579873D01*
X127056800Y-80611477D01*
X127026394Y-80632369D01*
X126987395Y-80639550D01*
X126637735Y-80639550D01*
X126598737Y-80632369D01*
X126568331Y-80611477D01*
X126548380Y-80579873D01*
X126541422Y-80538893D01*
X126541422Y-80197841D01*
X126662085Y-80197841D01*
X126662085Y-80530363D01*
X126962192Y-80530363D01*
X126962192Y-80115874D01*
X126722805Y-79936275D01*
X126722805Y-79909366D01*
X126960486Y-79732403D01*
X126960486Y-79388870D01*
X126663791Y-79388870D01*
X126663791Y-79691614D01*
X126543205Y-79691614D01*
X126543205Y-79380340D01*
X126550166Y-79339373D01*
X126570114Y-79307833D01*
X126600527Y-79286881D01*
X126639519Y-79279683D01*
X126985612Y-79279683D01*
X127024604Y-79286881D01*
X127055016Y-79307833D01*
X127074964Y-79339373D01*
X127081925Y-79380340D01*
X127081925Y-79707278D01*
X127075991Y-79747957D01*
X127058905Y-79781169D01*
X127029891Y-79808787D01*
X126868516Y-79922394D01*
X127031675Y-80036078D01*
X127060495Y-80063215D01*
X127077671Y-80096904D01*
X127083709Y-80139293D01*
X127083709Y-80538893D01*
G37*
G36*
X128437083Y-79286881D02*
G01*
X128467496Y-79307833D01*
X128487444Y-79339373D01*
X128494405Y-79380340D01*
X128494405Y-79824219D01*
X128489662Y-79845998D01*
X128474649Y-79866221D01*
X128445860Y-79885792D01*
X128350400Y-79924875D01*
X128452762Y-79968302D01*
X128478958Y-79983754D01*
X128493161Y-80002481D01*
X128497894Y-80025532D01*
X128497894Y-80538893D01*
X128490936Y-80579873D01*
X128470985Y-80611477D01*
X128440579Y-80632369D01*
X128401581Y-80639550D01*
X127953901Y-80639550D01*
X127953901Y-80530363D01*
X128074565Y-80530363D01*
X128376456Y-80530363D01*
X128376456Y-80059497D01*
X128254086Y-79979469D01*
X128074565Y-79979469D01*
X128074565Y-80530363D01*
X127953901Y-80530363D01*
X127953901Y-79875245D01*
X128074565Y-79875245D01*
X128252380Y-79875245D01*
X128372966Y-79794364D01*
X128372966Y-79388870D01*
X128074565Y-79388870D01*
X128074565Y-79875245D01*
X127953901Y-79875245D01*
X127953901Y-79279683D01*
X128398091Y-79279683D01*
X128437083Y-79286881D01*
G37*
G36*
X128843677Y-80639550D02*
G01*
X128722161Y-80639550D01*
X128722161Y-79696577D01*
X128669273Y-79696577D01*
X128669273Y-79694095D01*
X128745657Y-79279683D01*
X128843677Y-79279683D01*
X128843677Y-80639550D01*
G37*
G36*
X129574326Y-80639550D02*
G01*
X129035528Y-80639550D01*
X129035528Y-80575030D01*
X129451103Y-79711853D01*
X129451103Y-79388870D01*
X129174338Y-79388870D01*
X129174338Y-79691614D01*
X129052899Y-79691614D01*
X129052899Y-79380340D01*
X129059860Y-79339373D01*
X129079808Y-79307833D01*
X129110220Y-79286881D01*
X129149212Y-79279683D01*
X129476229Y-79279683D01*
X129515221Y-79286881D01*
X129545633Y-79307833D01*
X129565581Y-79339373D01*
X129572542Y-79380340D01*
X129572542Y-79663697D01*
X129565242Y-79716688D01*
X129540438Y-79782576D01*
X129181317Y-80530363D01*
X129574326Y-80530363D01*
X129574326Y-80639550D01*
G37*
G36*
X131103344Y-79286881D02*
G01*
X131133757Y-79307833D01*
X131153705Y-79339373D01*
X131160666Y-79380340D01*
X131160666Y-79824219D01*
X131155923Y-79845998D01*
X131140910Y-79866221D01*
X131112121Y-79885792D01*
X131016661Y-79924875D01*
X131119023Y-79968302D01*
X131145219Y-79983754D01*
X131159422Y-80002481D01*
X131164155Y-80025532D01*
X131164155Y-80538893D01*
X131157197Y-80579873D01*
X131137246Y-80611477D01*
X131106840Y-80632369D01*
X131067842Y-80639550D01*
X130620162Y-80639550D01*
X130620162Y-80530363D01*
X130740826Y-80530363D01*
X131042717Y-80530363D01*
X131042717Y-80059497D01*
X130920347Y-79979469D01*
X130740826Y-79979469D01*
X130740826Y-80530363D01*
X130620162Y-80530363D01*
X130620162Y-79875245D01*
X130740826Y-79875245D01*
X130918641Y-79875245D01*
X131039227Y-79794364D01*
X131039227Y-79388870D01*
X130740826Y-79388870D01*
X130740826Y-79875245D01*
X130620162Y-79875245D01*
X130620162Y-79279683D01*
X131064352Y-79279683D01*
X131103344Y-79286881D01*
G37*
G36*
X131509938Y-80639550D02*
G01*
X131388422Y-80639550D01*
X131388422Y-79696577D01*
X131335534Y-79696577D01*
X131335534Y-79694095D01*
X131411918Y-79279683D01*
X131509938Y-79279683D01*
X131509938Y-80639550D01*
G37*
G36*
X131870997Y-80639550D02*
G01*
X131749481Y-80639550D01*
X131749481Y-79696577D01*
X131696594Y-79696577D01*
X131696594Y-79694095D01*
X131772978Y-79279683D01*
X131870997Y-79279683D01*
X131870997Y-80639550D01*
G37*
G36*
X133397999Y-79286881D02*
G01*
X133428412Y-79307833D01*
X133448360Y-79339373D01*
X133455321Y-79380340D01*
X133455321Y-79824219D01*
X133450578Y-79845998D01*
X133435565Y-79866221D01*
X133406776Y-79885792D01*
X133311316Y-79924875D01*
X133413678Y-79968302D01*
X133439874Y-79983754D01*
X133454077Y-80002481D01*
X133458810Y-80025532D01*
X133458810Y-80538893D01*
X133451852Y-80579873D01*
X133431901Y-80611477D01*
X133401495Y-80632369D01*
X133362497Y-80639550D01*
X132914817Y-80639550D01*
X132914817Y-80530363D01*
X133035481Y-80530363D01*
X133337372Y-80530363D01*
X133337372Y-80059497D01*
X133215002Y-79979469D01*
X133035481Y-79979469D01*
X133035481Y-80530363D01*
X132914817Y-80530363D01*
X132914817Y-79875245D01*
X133035481Y-79875245D01*
X133213296Y-79875245D01*
X133333882Y-79794364D01*
X133333882Y-79388870D01*
X133035481Y-79388870D01*
X133035481Y-79875245D01*
X132914817Y-79875245D01*
X132914817Y-79279683D01*
X133359007Y-79279683D01*
X133397999Y-79286881D01*
G37*
G36*
X133804593Y-80639550D02*
G01*
X133683077Y-80639550D01*
X133683077Y-79696577D01*
X133630189Y-79696577D01*
X133630189Y-79694095D01*
X133706573Y-79279683D01*
X133804593Y-79279683D01*
X133804593Y-80639550D01*
G37*
G36*
X134525760Y-79286853D02*
G01*
X134556877Y-79307833D01*
X134577485Y-79339443D01*
X134584639Y-79380340D01*
X134584639Y-80538893D01*
X134577487Y-80579804D01*
X134556877Y-80611477D01*
X134525766Y-80632397D01*
X134486620Y-80639550D01*
X134126568Y-80639550D01*
X134087570Y-80632369D01*
X134057164Y-80611477D01*
X134037213Y-80579873D01*
X134030255Y-80538893D01*
X134030255Y-80530363D01*
X134150918Y-80530363D01*
X134464053Y-80530363D01*
X134464053Y-79388870D01*
X134150918Y-79388870D01*
X134150918Y-80530363D01*
X134030255Y-80530363D01*
X134030255Y-79380340D01*
X134037216Y-79339373D01*
X134057164Y-79307833D01*
X134087576Y-79286881D01*
X134126568Y-79279683D01*
X134486620Y-79279683D01*
X134525760Y-79286853D01*
G37*
G36*
X136283874Y-79286881D02*
G01*
X136314287Y-79307833D01*
X136334235Y-79339373D01*
X136341196Y-79380340D01*
X136341196Y-79824219D01*
X136336453Y-79845998D01*
X136321440Y-79866221D01*
X136292651Y-79885792D01*
X136197191Y-79924875D01*
X136299553Y-79968302D01*
X136325749Y-79983754D01*
X136339952Y-80002481D01*
X136344685Y-80025532D01*
X136344685Y-80538893D01*
X136337727Y-80579873D01*
X136317776Y-80611477D01*
X136287370Y-80632369D01*
X136248372Y-80639550D01*
X135800692Y-80639550D01*
X135800692Y-80530363D01*
X135921356Y-80530363D01*
X136223247Y-80530363D01*
X136223247Y-80059497D01*
X136100877Y-79979469D01*
X135921356Y-79979469D01*
X135921356Y-80530363D01*
X135800692Y-80530363D01*
X135800692Y-79875245D01*
X135921356Y-79875245D01*
X136099171Y-79875245D01*
X136219757Y-79794364D01*
X136219757Y-79388870D01*
X135921356Y-79388870D01*
X135921356Y-79875245D01*
X135800692Y-79875245D01*
X135800692Y-79279683D01*
X136244882Y-79279683D01*
X136283874Y-79286881D01*
G37*
G36*
X136690468Y-80639550D02*
G01*
X136568952Y-80639550D01*
X136568952Y-79696577D01*
X136516064Y-79696577D01*
X136516064Y-79694095D01*
X136592448Y-79279683D01*
X136690468Y-79279683D01*
X136690468Y-80639550D01*
G37*
G36*
X138578529Y-79286881D02*
G01*
X138608942Y-79307833D01*
X138628890Y-79339373D01*
X138635851Y-79380340D01*
X138635851Y-79824219D01*
X138631108Y-79845998D01*
X138616095Y-79866221D01*
X138587306Y-79885792D01*
X138491846Y-79924875D01*
X138594208Y-79968302D01*
X138620404Y-79983754D01*
X138634607Y-80002481D01*
X138639340Y-80025532D01*
X138639340Y-80538893D01*
X138632382Y-80579873D01*
X138612431Y-80611477D01*
X138582025Y-80632369D01*
X138543027Y-80639550D01*
X138095347Y-80639550D01*
X138095347Y-80530363D01*
X138216011Y-80530363D01*
X138517902Y-80530363D01*
X138517902Y-80059497D01*
X138395532Y-79979469D01*
X138216011Y-79979469D01*
X138216011Y-80530363D01*
X138095347Y-80530363D01*
X138095347Y-79875245D01*
X138216011Y-79875245D01*
X138393826Y-79875245D01*
X138514412Y-79794364D01*
X138514412Y-79388870D01*
X138216011Y-79388870D01*
X138216011Y-79875245D01*
X138095347Y-79875245D01*
X138095347Y-79279683D01*
X138539537Y-79279683D01*
X138578529Y-79286881D01*
G37*
G36*
X139345230Y-79286853D02*
G01*
X139376348Y-79307833D01*
X139396956Y-79339443D01*
X139404110Y-79380340D01*
X139404110Y-80538893D01*
X139396958Y-80579804D01*
X139376348Y-80611477D01*
X139345237Y-80632397D01*
X139306090Y-80639550D01*
X138946039Y-80639550D01*
X138907041Y-80632369D01*
X138876634Y-80611477D01*
X138856684Y-80579873D01*
X138849726Y-80538893D01*
X138849726Y-80530363D01*
X138970389Y-80530363D01*
X139283524Y-80530363D01*
X139283524Y-79388870D01*
X138970389Y-79388870D01*
X138970389Y-80530363D01*
X138849726Y-80530363D01*
X138849726Y-79380340D01*
X138856686Y-79339373D01*
X138876634Y-79307833D01*
X138907047Y-79286881D01*
X138946039Y-79279683D01*
X139306090Y-79279683D01*
X139345230Y-79286853D01*
G37*
G36*
X141228442Y-80639550D02*
G01*
X141108709Y-80639550D01*
X141061018Y-80341769D01*
X140791154Y-80341769D01*
X140743462Y-80639550D01*
X140627219Y-80639550D01*
X140627219Y-80636060D01*
X140699214Y-80232582D01*
X140806818Y-80232582D01*
X141045353Y-80232582D01*
X140926551Y-79496660D01*
X140806818Y-80232582D01*
X140699214Y-80232582D01*
X140869244Y-79279683D01*
X140988123Y-79279683D01*
X141228442Y-80639550D01*
G37*
G36*
X141883870Y-79342109D02*
G01*
X141592370Y-80639550D01*
X141473491Y-80639550D01*
X141756305Y-79388870D01*
X141466589Y-79388870D01*
X141466589Y-79587390D01*
X141346003Y-79587390D01*
X141346003Y-79279683D01*
X141883870Y-79279683D01*
X141883870Y-79342109D01*
G37*
G36*
X143673849Y-80639550D02*
G01*
X143554116Y-80639550D01*
X143506425Y-80341769D01*
X143236561Y-80341769D01*
X143188869Y-80639550D01*
X143072626Y-80639550D01*
X143072626Y-80636060D01*
X143144621Y-80232582D01*
X143252225Y-80232582D01*
X143490760Y-80232582D01*
X143371958Y-79496660D01*
X143252225Y-80232582D01*
X143144621Y-80232582D01*
X143314651Y-79279683D01*
X143433530Y-79279683D01*
X143673849Y-80639550D01*
G37*
G36*
X144315223Y-79286897D02*
G01*
X144345252Y-79307833D01*
X144364900Y-79339341D01*
X144371773Y-79380340D01*
X144371773Y-79676725D01*
X144251187Y-79676725D01*
X144251187Y-79388870D01*
X143957981Y-79388870D01*
X143957981Y-79890134D01*
X144279802Y-79890134D01*
X144318732Y-79897296D01*
X144348741Y-79918051D01*
X144368369Y-79949483D01*
X144375262Y-79990790D01*
X144375262Y-80538893D01*
X144368393Y-80579905D01*
X144348741Y-80611477D01*
X144318719Y-80632353D01*
X144279802Y-80639550D01*
X143933632Y-80639550D01*
X143894633Y-80632369D01*
X143864227Y-80611477D01*
X143844276Y-80579873D01*
X143837318Y-80538893D01*
X143837318Y-80530363D01*
X143957981Y-80530363D01*
X144254677Y-80530363D01*
X144254677Y-79994358D01*
X143957981Y-79994358D01*
X143957981Y-80530363D01*
X143837318Y-80530363D01*
X143837318Y-79380340D01*
X143844279Y-79339373D01*
X143864227Y-79307833D01*
X143894640Y-79286881D01*
X143933632Y-79279683D01*
X144276312Y-79279683D01*
X144315223Y-79286897D01*
G37*
G36*
X146185016Y-80639550D02*
G01*
X146065283Y-80639550D01*
X146017592Y-80341769D01*
X145747728Y-80341769D01*
X145700036Y-80639550D01*
X145583793Y-80639550D01*
X145583793Y-80636060D01*
X145655788Y-80232582D01*
X145763392Y-80232582D01*
X146001927Y-80232582D01*
X145883125Y-79496660D01*
X145763392Y-80232582D01*
X145655788Y-80232582D01*
X145825818Y-79279683D01*
X145944697Y-79279683D01*
X146185016Y-80639550D01*
G37*
G36*
X146870765Y-80538893D02*
G01*
X146863807Y-80579873D01*
X146843856Y-80611477D01*
X146813514Y-80632366D01*
X146774529Y-80639550D01*
X146440456Y-80639550D01*
X146401539Y-80632353D01*
X146371517Y-80611477D01*
X146351925Y-80579911D01*
X146345073Y-80538893D01*
X146345073Y-80202804D01*
X146465659Y-80202804D01*
X146465659Y-80530363D01*
X146750179Y-80530363D01*
X146750179Y-79895097D01*
X146348485Y-79895097D01*
X146364150Y-79279683D01*
X146860374Y-79279683D01*
X146860374Y-79388870D01*
X146482099Y-79388870D01*
X146467365Y-79785911D01*
X146774529Y-79785911D01*
X146813654Y-79792712D01*
X146843856Y-79812277D01*
X146863859Y-79841957D01*
X146870765Y-79880208D01*
X146870765Y-80538893D01*
G37*
G36*
X148710451Y-80639550D02*
G01*
X148590718Y-80639550D01*
X148543027Y-80341769D01*
X148273163Y-80341769D01*
X148225471Y-80639550D01*
X148109228Y-80639550D01*
X148109228Y-80636060D01*
X148181223Y-80232582D01*
X148288827Y-80232582D01*
X148527362Y-80232582D01*
X148408560Y-79496660D01*
X148288827Y-80232582D01*
X148181223Y-80232582D01*
X148351253Y-79279683D01*
X148470132Y-79279683D01*
X148710451Y-80639550D01*
G37*
G36*
X149403179Y-80287175D02*
G01*
X149299964Y-80287175D01*
X149299964Y-80639550D01*
X149186280Y-80639550D01*
X149186280Y-80287175D01*
X148802810Y-80287175D01*
X148802810Y-80225370D01*
X149131609Y-79279683D01*
X149245293Y-79279683D01*
X149245293Y-79284879D01*
X148932934Y-80182952D01*
X149186280Y-80182952D01*
X149186280Y-79686651D01*
X149299964Y-79686651D01*
X149299964Y-80182952D01*
X149403179Y-80182952D01*
X149403179Y-80287175D01*
G37*
G36*
X151425710Y-80639550D02*
G01*
X151305977Y-80639550D01*
X151258286Y-80341769D01*
X150988422Y-80341769D01*
X150940730Y-80639550D01*
X150824487Y-80639550D01*
X150824487Y-80636060D01*
X150896482Y-80232582D01*
X151004086Y-80232582D01*
X151242621Y-80232582D01*
X151123819Y-79496660D01*
X151004086Y-80232582D01*
X150896482Y-80232582D01*
X151066512Y-79279683D01*
X151185391Y-79279683D01*
X151425710Y-80639550D01*
G37*
G36*
X152131466Y-80538893D02*
G01*
X152124508Y-80579873D01*
X152104557Y-80611477D01*
X152074151Y-80632369D01*
X152035153Y-80639550D01*
X151685493Y-80639550D01*
X151646494Y-80632369D01*
X151616088Y-80611477D01*
X151596137Y-80579873D01*
X151589179Y-80538893D01*
X151589179Y-80197841D01*
X151709842Y-80197841D01*
X151709842Y-80530363D01*
X152009950Y-80530363D01*
X152009950Y-80115874D01*
X151770562Y-79936275D01*
X151770562Y-79909366D01*
X152008244Y-79732403D01*
X152008244Y-79388870D01*
X151711549Y-79388870D01*
X151711549Y-79691614D01*
X151590963Y-79691614D01*
X151590963Y-79380340D01*
X151597924Y-79339373D01*
X151617872Y-79307833D01*
X151648284Y-79286881D01*
X151687276Y-79279683D01*
X152033369Y-79279683D01*
X152072361Y-79286881D01*
X152102774Y-79307833D01*
X152122722Y-79339373D01*
X152129683Y-79380340D01*
X152129683Y-79707278D01*
X152123749Y-79747957D01*
X152106662Y-79781169D01*
X152077648Y-79808787D01*
X151916273Y-79922394D01*
X152079432Y-80036078D01*
X152108252Y-80063215D01*
X152125428Y-80096904D01*
X152131466Y-80139293D01*
X152131466Y-80538893D01*
G37*
D13*
X112000000Y-79225000D02*
X112000000Y-81000000D01*
X117000000Y-79225000D02*
X117000000Y-81000000D01*
X120000000Y-79225000D02*
X120000000Y-81000000D01*
X122500000Y-79225000D02*
X122500000Y-81000000D01*
X125000000Y-79225000D02*
X125000000Y-81000000D01*
X127500000Y-79225000D02*
X127500000Y-81000000D01*
X130000000Y-79225000D02*
X130000000Y-81000000D01*
X132500000Y-79225000D02*
X132500000Y-81000000D01*
X135000000Y-79225000D02*
X135000000Y-81000000D01*
X137500000Y-79225000D02*
X137500000Y-81000000D01*
X140000000Y-79225000D02*
X140000000Y-81000000D01*
X142500000Y-79225000D02*
X142500000Y-81000000D01*
X145000000Y-79225000D02*
X145000000Y-81000000D01*
X147500000Y-79225000D02*
X147500000Y-81000000D01*
X150000000Y-79225000D02*
X150000000Y-81000000D01*
X153000000Y-79225000D02*
X153000000Y-81000000D01*
X153000000Y-79225000D02*
X153000000Y-81000000D01*
X153000000Y-79225000D02*
X153000000Y-81000000D01*
X106500000Y-79225000D02*
X153000000Y-79225000D01*
X153000000Y-79225000D02*
X153000000Y-81000000D01*
X153000000Y-81000000D02*
X106500000Y-81000000D01*
X106500000Y-81000000D02*
X106500000Y-79225000D01*
D12*
G36*
X145651526Y-97003511D02*
G01*
X145504614Y-97003511D01*
X145504614Y-96836632D01*
X145651526Y-96836632D01*
X145651526Y-97003511D01*
G37*
G36*
X146754527Y-97003511D02*
G01*
X146607615Y-97003511D01*
X146607615Y-96836632D01*
X146754527Y-96836632D01*
X146754527Y-97003511D01*
G37*
G36*
X147426786Y-97526111D02*
G01*
X144607346Y-97526111D01*
X144607346Y-97415000D01*
X144718457Y-97415000D01*
X144878314Y-97415000D01*
X144878314Y-96481015D01*
X145079815Y-96481015D01*
X145079815Y-96821001D01*
X144922705Y-96821001D01*
X144922705Y-96917477D01*
X145098927Y-97415000D01*
X145265622Y-97415000D01*
X145089340Y-96926514D01*
X145161846Y-96923647D01*
X145193204Y-96917660D01*
X145218242Y-96901987D01*
X145233396Y-96877767D01*
X145239000Y-96841823D01*
X145239000Y-96807995D01*
X145355015Y-96807995D01*
X145355015Y-97003511D01*
X145355015Y-97330308D01*
X145360933Y-97368507D01*
X145376768Y-97393546D01*
X145402794Y-97409103D01*
X145443187Y-97415000D01*
X145713014Y-97415000D01*
X145753374Y-97409104D01*
X145779382Y-97393551D01*
X145795209Y-97368512D01*
X145801125Y-97330308D01*
X145801125Y-97184434D01*
X145651526Y-97184434D01*
X145651526Y-97301671D01*
X145504614Y-97301671D01*
X145504614Y-97106277D01*
X145758077Y-97106277D01*
X145801125Y-97063290D01*
X145801125Y-96807995D01*
X145912133Y-96807995D01*
X145912133Y-96969562D01*
X145917195Y-96998437D01*
X145932300Y-97023104D01*
X145959272Y-97044788D01*
X146198996Y-97186388D01*
X146198996Y-97297763D01*
X146061732Y-97297763D01*
X146061732Y-97184434D01*
X145912133Y-97184434D01*
X145912133Y-97330308D01*
X145917998Y-97368632D01*
X145933643Y-97393663D01*
X145959245Y-97409147D01*
X145998839Y-97415000D01*
X146261889Y-97415000D01*
X146301483Y-97409147D01*
X146327086Y-97393663D01*
X146342730Y-97368632D01*
X146348595Y-97330308D01*
X146348595Y-97157018D01*
X146343384Y-97126871D01*
X146328003Y-97101782D01*
X146300785Y-97080387D01*
X146061732Y-96940191D01*
X146061732Y-96840540D01*
X146198996Y-96840540D01*
X146198996Y-96946053D01*
X146347252Y-96946053D01*
X146347252Y-96807995D01*
X146458016Y-96807995D01*
X146458016Y-97003511D01*
X146458016Y-97330308D01*
X146463934Y-97368507D01*
X146479768Y-97393546D01*
X146505795Y-97409103D01*
X146546188Y-97415000D01*
X146816015Y-97415000D01*
X146856374Y-97409104D01*
X146882383Y-97393551D01*
X146898210Y-97368512D01*
X146904126Y-97330308D01*
X146904126Y-97184434D01*
X146754527Y-97184434D01*
X146754527Y-97301671D01*
X146607615Y-97301671D01*
X146607615Y-97106277D01*
X146861078Y-97106277D01*
X146904126Y-97063290D01*
X146904126Y-96807995D01*
X146898210Y-96769791D01*
X146882383Y-96744753D01*
X146856374Y-96729199D01*
X146816015Y-96723304D01*
X146981612Y-96723304D01*
X146981612Y-96856172D01*
X147055434Y-96856172D01*
X147055434Y-97330308D01*
X147061301Y-97368627D01*
X147076954Y-97393658D01*
X147102574Y-97409145D01*
X147142201Y-97415000D01*
X147315675Y-97415000D01*
X147315675Y-97282131D01*
X147211139Y-97282131D01*
X147211139Y-96856172D01*
X147311584Y-96856172D01*
X147311584Y-96723304D01*
X147211139Y-96723304D01*
X147211139Y-96535725D01*
X147055434Y-96535725D01*
X147055434Y-96723304D01*
X146981612Y-96723304D01*
X146816015Y-96723304D01*
X146546188Y-96723304D01*
X146505795Y-96729201D01*
X146479768Y-96744757D01*
X146463934Y-96769797D01*
X146458016Y-96807995D01*
X146347252Y-96807995D01*
X146341385Y-96769677D01*
X146325732Y-96744645D01*
X146300112Y-96729158D01*
X146260485Y-96723304D01*
X146000244Y-96723304D01*
X145959884Y-96729199D01*
X145933876Y-96744753D01*
X145918049Y-96769791D01*
X145912133Y-96807995D01*
X145801125Y-96807995D01*
X145795209Y-96769791D01*
X145779382Y-96744753D01*
X145753374Y-96729199D01*
X145713014Y-96723304D01*
X145443187Y-96723304D01*
X145402794Y-96729201D01*
X145376768Y-96744757D01*
X145360933Y-96769797D01*
X145355015Y-96807995D01*
X145239000Y-96807995D01*
X145239000Y-96428930D01*
X145232794Y-96391399D01*
X145215921Y-96366318D01*
X145187532Y-96350373D01*
X145142646Y-96344239D01*
X144718457Y-96344239D01*
X144718457Y-97415000D01*
X144607346Y-97415000D01*
X144607346Y-96233128D01*
X147426786Y-96233128D01*
X147426786Y-97526111D01*
G37*
G36*
X147923480Y-82526111D02*
G01*
X146575176Y-82526111D01*
X146575176Y-81484923D01*
X146686287Y-81484923D01*
X146862509Y-81484923D01*
X146862509Y-82415000D01*
X147021694Y-82415000D01*
X147021694Y-82409504D01*
X147233758Y-82409504D01*
X147233758Y-82415000D01*
X147403873Y-82415000D01*
X147522025Y-82038011D01*
X147639506Y-82415000D01*
X147812369Y-82415000D01*
X147612884Y-81862889D01*
X147800096Y-81350406D01*
X147800096Y-81344239D01*
X147630652Y-81344239D01*
X147523430Y-81693201D01*
X147416818Y-81344239D01*
X147246031Y-81344239D01*
X147433243Y-81866980D01*
X147233758Y-82409504D01*
X147021694Y-82409504D01*
X147021694Y-81484923D01*
X147197915Y-81484923D01*
X147197915Y-81344239D01*
X146686287Y-81344239D01*
X146686287Y-81484923D01*
X146575176Y-81484923D01*
X146575176Y-81233128D01*
X147923480Y-81233128D01*
X147923480Y-82526111D01*
G37*
G36*
X147338013Y-85526111D02*
G01*
X146695693Y-85526111D01*
X146695693Y-85415000D01*
X146806804Y-85415000D01*
X147226902Y-85415000D01*
X147226902Y-85270408D01*
X146966661Y-85270408D01*
X146966661Y-84344239D01*
X146806804Y-84344239D01*
X146806804Y-85415000D01*
X146695693Y-85415000D01*
X146695693Y-84233128D01*
X147338013Y-84233128D01*
X147338013Y-85526111D01*
G37*
G36*
X131836366Y-96974935D02*
G01*
X131836366Y-97282131D01*
X131632118Y-97282131D01*
X131632118Y-96922606D01*
X131757781Y-96922606D01*
X131836366Y-96974935D01*
G37*
G36*
X131832214Y-96738447D02*
G01*
X131755034Y-96793646D01*
X131632118Y-96793646D01*
X131632118Y-96477107D01*
X131832214Y-96477107D01*
X131832214Y-96738447D01*
G37*
G36*
X132502050Y-97278224D02*
G01*
X132282781Y-97278224D01*
X132282781Y-96481015D01*
X132502050Y-96481015D01*
X132502050Y-97278224D01*
G37*
G36*
X133169322Y-97278224D02*
G01*
X132950053Y-97278224D01*
X132950053Y-96481015D01*
X133169322Y-96481015D01*
X133169322Y-97278224D01*
G37*
G36*
X134371790Y-97278224D02*
G01*
X134160703Y-97278224D01*
X134160703Y-96481015D01*
X134371790Y-96481015D01*
X134371790Y-97278224D01*
G37*
G36*
X134639339Y-97526111D02*
G01*
X131361150Y-97526111D01*
X131361150Y-96793646D01*
X131472261Y-96793646D01*
X131472261Y-97282131D01*
X131472261Y-97415000D01*
X131899198Y-97415000D01*
X131944826Y-97408827D01*
X131973602Y-97392823D01*
X131990644Y-97367735D01*
X131996895Y-97330308D01*
X131996895Y-97003817D01*
X131992515Y-96966824D01*
X131980166Y-96937008D01*
X131960014Y-96912714D01*
X131873919Y-96856172D01*
X131957267Y-96801889D01*
X131975792Y-96779138D01*
X131987283Y-96750573D01*
X131991400Y-96714450D01*
X131991400Y-96428930D01*
X132122924Y-96428930D01*
X132122924Y-97278224D01*
X132122924Y-97330308D01*
X132129082Y-97367951D01*
X132145779Y-97393025D01*
X132173763Y-97408904D01*
X132217874Y-97415000D01*
X132564882Y-97415000D01*
X132610138Y-97408846D01*
X132638721Y-97392872D01*
X132655679Y-97367787D01*
X132661907Y-97330308D01*
X132661907Y-96428930D01*
X132790196Y-96428930D01*
X132790196Y-97278224D01*
X132790196Y-97330308D01*
X132796353Y-97367951D01*
X132813051Y-97393025D01*
X132841035Y-97408904D01*
X132885145Y-97415000D01*
X133232153Y-97415000D01*
X133277410Y-97408846D01*
X133305992Y-97392872D01*
X133322950Y-97367787D01*
X133329179Y-97330308D01*
X133329179Y-96484923D01*
X133410328Y-96484923D01*
X133586550Y-96484923D01*
X133586550Y-97415000D01*
X133745735Y-97415000D01*
X133745735Y-96484923D01*
X133921956Y-96484923D01*
X133921956Y-96428930D01*
X134003594Y-96428930D01*
X134003594Y-97278224D01*
X134003594Y-97330308D01*
X134009752Y-97367951D01*
X134026449Y-97393025D01*
X134054433Y-97408904D01*
X134098544Y-97415000D01*
X134431874Y-97415000D01*
X134476759Y-97408865D01*
X134505148Y-97392921D01*
X134522022Y-97367840D01*
X134528228Y-97330308D01*
X134528228Y-96428930D01*
X134522022Y-96391399D01*
X134505148Y-96366318D01*
X134476759Y-96350373D01*
X134431874Y-96344239D01*
X134100559Y-96344239D01*
X134055336Y-96350391D01*
X134026771Y-96366362D01*
X134009821Y-96391446D01*
X134003594Y-96428930D01*
X133921956Y-96428930D01*
X133921956Y-96344239D01*
X133410328Y-96344239D01*
X133410328Y-96484923D01*
X133329179Y-96484923D01*
X133329179Y-96428930D01*
X133322950Y-96391451D01*
X133305992Y-96366367D01*
X133277410Y-96350392D01*
X133232153Y-96344239D01*
X132885145Y-96344239D01*
X132841035Y-96350334D01*
X132813051Y-96366214D01*
X132796353Y-96391288D01*
X132790196Y-96428930D01*
X132661907Y-96428930D01*
X132655679Y-96391451D01*
X132638721Y-96366367D01*
X132610138Y-96350392D01*
X132564882Y-96344239D01*
X132217874Y-96344239D01*
X132173763Y-96350334D01*
X132145779Y-96366214D01*
X132129082Y-96391288D01*
X132122924Y-96428930D01*
X131991400Y-96428930D01*
X131985242Y-96391288D01*
X131968545Y-96366214D01*
X131940561Y-96350334D01*
X131896450Y-96344239D01*
X131472261Y-96344239D01*
X131472261Y-96793646D01*
X131361150Y-96793646D01*
X131361150Y-96233128D01*
X134639339Y-96233128D01*
X134639339Y-97526111D01*
G37*
G36*
X147972817Y-84026111D02*
G01*
X146572978Y-84026111D01*
X146572978Y-83915000D01*
X146684089Y-83915000D01*
X146843946Y-83915000D01*
X146843946Y-82981015D01*
X147045447Y-82981015D01*
X147045447Y-83321001D01*
X146888337Y-83321001D01*
X146888337Y-83417477D01*
X147064559Y-83915000D01*
X147231254Y-83915000D01*
X147229271Y-83909504D01*
X147283095Y-83909504D01*
X147283095Y-83915000D01*
X147453210Y-83915000D01*
X147571363Y-83538011D01*
X147688843Y-83915000D01*
X147861706Y-83915000D01*
X147662221Y-83362889D01*
X147849433Y-82850406D01*
X147849433Y-82844239D01*
X147679990Y-82844239D01*
X147572767Y-83193201D01*
X147466155Y-82844239D01*
X147295368Y-82844239D01*
X147482580Y-83366980D01*
X147283095Y-83909504D01*
X147229271Y-83909504D01*
X147054972Y-83426514D01*
X147127478Y-83423647D01*
X147158836Y-83417660D01*
X147183874Y-83401987D01*
X147199028Y-83377767D01*
X147204632Y-83341823D01*
X147204632Y-82928930D01*
X147198426Y-82891399D01*
X147181553Y-82866318D01*
X147153164Y-82850373D01*
X147108278Y-82844239D01*
X146684089Y-82844239D01*
X146684089Y-83915000D01*
X146572978Y-83915000D01*
X146572978Y-82733128D01*
X147972817Y-82733128D01*
X147972817Y-84026111D01*
G37*
G36*
X125398771Y-91391343D02*
G01*
X125203437Y-91391343D01*
X125203437Y-90981015D01*
X125398771Y-90981015D01*
X125398771Y-91391343D01*
G37*
G36*
X125967429Y-91786039D02*
G01*
X125819235Y-91786039D01*
X125819235Y-91352264D01*
X125967429Y-91352264D01*
X125967429Y-91786039D01*
G37*
G36*
X127289699Y-91503511D02*
G01*
X127142787Y-91503511D01*
X127142787Y-91336632D01*
X127289699Y-91336632D01*
X127289699Y-91503511D01*
G37*
G36*
X128099283Y-92026111D02*
G01*
X124932469Y-92026111D01*
X124932469Y-91391343D01*
X125043580Y-91391343D01*
X125043580Y-91915000D01*
X125203437Y-91915000D01*
X125203437Y-91528119D01*
X125462335Y-91528119D01*
X125507929Y-91521949D01*
X125536688Y-91505946D01*
X125553722Y-91480859D01*
X125559971Y-91443428D01*
X125559971Y-91307995D01*
X125665484Y-91307995D01*
X125665484Y-91786039D01*
X125665484Y-91830308D01*
X125671402Y-91868507D01*
X125687236Y-91893546D01*
X125713263Y-91909103D01*
X125753655Y-91915000D01*
X126033680Y-91915000D01*
X126073307Y-91909145D01*
X126098927Y-91893658D01*
X126114580Y-91868627D01*
X126120447Y-91830308D01*
X126120447Y-91307995D01*
X126114580Y-91269677D01*
X126098927Y-91244645D01*
X126073307Y-91229158D01*
X126033680Y-91223304D01*
X126198299Y-91223304D01*
X126346555Y-91915000D01*
X126481804Y-91915000D01*
X126556237Y-91532027D01*
X126630731Y-91915000D01*
X126767324Y-91915000D01*
X126897428Y-91307995D01*
X126993188Y-91307995D01*
X126993188Y-91503511D01*
X126993188Y-91830308D01*
X126999106Y-91868507D01*
X127014940Y-91893546D01*
X127040967Y-91909103D01*
X127081360Y-91915000D01*
X127351187Y-91915000D01*
X127391546Y-91909104D01*
X127417555Y-91893551D01*
X127433381Y-91868512D01*
X127439297Y-91830308D01*
X127439297Y-91684434D01*
X127289699Y-91684434D01*
X127289699Y-91801671D01*
X127142787Y-91801671D01*
X127142787Y-91606277D01*
X127396250Y-91606277D01*
X127439297Y-91563290D01*
X127439297Y-91307995D01*
X127433381Y-91269791D01*
X127417555Y-91244753D01*
X127391546Y-91229199D01*
X127351187Y-91223304D01*
X127552992Y-91223304D01*
X127552992Y-91915000D01*
X127709430Y-91915000D01*
X127709430Y-91358126D01*
X127833078Y-91352264D01*
X127833078Y-91512487D01*
X127988172Y-91512487D01*
X127988172Y-91304087D01*
X127982355Y-91265652D01*
X127966876Y-91240629D01*
X127941645Y-91225209D01*
X127902748Y-91219396D01*
X127861619Y-91221800D01*
X127805723Y-91230143D01*
X127709430Y-91248705D01*
X127709430Y-91223304D01*
X127552992Y-91223304D01*
X127351187Y-91223304D01*
X127081360Y-91223304D01*
X127040967Y-91229201D01*
X127014940Y-91244757D01*
X126999106Y-91269797D01*
X126993188Y-91307995D01*
X126897428Y-91307995D01*
X126915580Y-91223304D01*
X126765981Y-91223304D01*
X126690815Y-91664895D01*
X126616382Y-91223304D01*
X126497497Y-91223304D01*
X126423064Y-91664895D01*
X126347898Y-91223304D01*
X126198299Y-91223304D01*
X126033680Y-91223304D01*
X125753655Y-91223304D01*
X125713263Y-91229201D01*
X125687236Y-91244757D01*
X125671402Y-91269797D01*
X125665484Y-91307995D01*
X125559971Y-91307995D01*
X125559971Y-90928930D01*
X125553722Y-90891499D01*
X125536688Y-90866411D01*
X125507929Y-90850409D01*
X125462335Y-90844239D01*
X125043580Y-90844239D01*
X125043580Y-91391343D01*
X124932469Y-91391343D01*
X124932469Y-90733128D01*
X128099283Y-90733128D01*
X128099283Y-92026111D01*
G37*
%TO.C,R7*%
D14*
X143346359Y-84620000D02*
X143653641Y-84620000D01*
X143346359Y-85380000D02*
X143653641Y-85380000D01*
%TO.C,Y2*%
X143125000Y-92925000D02*
X143125000Y-91575000D01*
X144875000Y-92925000D02*
X144875000Y-91575000D01*
%TO.C,J4*%
X106305000Y-83145000D02*
X106305000Y-92545000D01*
X108205000Y-83145000D02*
X106305000Y-83145000D01*
X108205000Y-92545000D02*
X106305000Y-92545000D01*
X112105000Y-83145000D02*
X110105000Y-83145000D01*
X112105000Y-92545000D02*
X110105000Y-92545000D01*
%TO.C,C1*%
X143392164Y-96640000D02*
X143607836Y-96640000D01*
X143392164Y-97360000D02*
X143607836Y-97360000D01*
%TO.C,C9*%
X143607836Y-86140000D02*
X143392164Y-86140000D01*
X143607836Y-86860000D02*
X143392164Y-86860000D01*
%TO.C,SW1*%
X141400000Y-97850000D02*
X141400000Y-98240000D01*
X141400000Y-101150000D02*
X141400000Y-100760000D01*
X145600000Y-97850000D02*
X141400000Y-97850000D01*
X145600000Y-98240000D02*
X145600000Y-97850000D01*
X145600000Y-100760000D02*
X145600000Y-101150000D01*
X145600000Y-101150000D02*
X141400000Y-101150000D01*
%TO.C,C11*%
X145640000Y-90892164D02*
X145640000Y-91107836D01*
X146360000Y-90892164D02*
X146360000Y-91107836D01*
%TO.C,D4*%
D13*
X144460000Y-82000000D02*
G75*
G02*
X144360000Y-82000000I-50000J0D01*
G01*
X144360000Y-82000000D02*
G75*
G02*
X144460000Y-82000000I50000J0D01*
G01*
%TO.C,R10*%
D14*
X122477500Y-90237258D02*
X122477500Y-89762742D01*
X123522500Y-90237258D02*
X123522500Y-89762742D01*
%TO.C,D1*%
X120150000Y-88390000D02*
X120150000Y-91050000D01*
X121850000Y-88390000D02*
X120150000Y-88390000D01*
X121850000Y-88390000D02*
X121850000Y-91050000D01*
%TO.C,R6*%
X145620000Y-86653641D02*
X145620000Y-86346359D01*
X146380000Y-86653641D02*
X146380000Y-86346359D01*
%TO.C,F1*%
X108290000Y-97758578D02*
X108290000Y-97241422D01*
X109710000Y-97758578D02*
X109710000Y-97241422D01*
%TO.C,D3*%
D13*
X144460000Y-85000000D02*
G75*
G02*
X144360000Y-85000000I-50000J0D01*
G01*
X144360000Y-85000000D02*
G75*
G02*
X144460000Y-85000000I50000J0D01*
G01*
%TO.C,R3*%
D14*
X136120000Y-96653641D02*
X136120000Y-96346359D01*
X136880000Y-96653641D02*
X136880000Y-96346359D01*
%TO.C,C12*%
X145640000Y-89087836D02*
X145640000Y-88872164D01*
X146360000Y-89087836D02*
X146360000Y-88872164D01*
%TO.C,R9*%
X143346359Y-83120000D02*
X143653641Y-83120000D01*
X143346359Y-83880000D02*
X143653641Y-83880000D01*
%TO.C,C6*%
X132627836Y-82640000D02*
X132412164Y-82640000D01*
X132627836Y-83360000D02*
X132412164Y-83360000D01*
%TO.C,U1*%
X131890000Y-85890000D02*
X132340000Y-85890000D01*
X131890000Y-86340000D02*
X131890000Y-85890000D01*
X131890000Y-93110000D02*
X131890000Y-92660000D01*
X132340000Y-93110000D02*
X131890000Y-93110000D01*
X138660000Y-85890000D02*
X139110000Y-85890000D01*
X139110000Y-85890000D02*
X139110000Y-86340000D01*
X139110000Y-92660000D02*
X139110000Y-93110000D01*
X139110000Y-93110000D02*
X138660000Y-93110000D01*
X139750000Y-92660000D02*
X140090000Y-93130000D01*
X139410000Y-93130000D01*
X139750000Y-92660000D01*
G36*
X140090000Y-93130000D02*
G01*
X139410000Y-93130000D01*
X139750000Y-92660000D01*
X140090000Y-93130000D01*
G37*
%TO.C,C2*%
X111545000Y-96900000D02*
X111545000Y-100820000D01*
X111545000Y-100820000D02*
X113455000Y-100820000D01*
X113455000Y-100820000D02*
X113455000Y-96900000D01*
%TO.C,C8*%
X140127836Y-94140000D02*
X139912164Y-94140000D01*
X140127836Y-94860000D02*
X139912164Y-94860000D01*
%TO.C,C5*%
X125640000Y-94617836D02*
X125640000Y-94402164D01*
X126360000Y-94617836D02*
X126360000Y-94402164D01*
%TO.C,SW2*%
X131950000Y-98950000D02*
X132760000Y-98950000D01*
X133940000Y-98090000D02*
X137060000Y-98090000D01*
X133940000Y-100910000D02*
X137060000Y-100910000D01*
%TO.C,J1*%
X150120000Y-83040000D02*
X151500000Y-83040000D01*
X150120000Y-84420000D02*
X150120000Y-83040000D01*
X150120000Y-85690000D02*
X150120000Y-101040000D01*
X150120000Y-85690000D02*
X152880000Y-85690000D01*
X150120000Y-101040000D02*
X152880000Y-101040000D01*
X152880000Y-85690000D02*
X152880000Y-101040000D01*
%TO.C,R4*%
X130370000Y-84356359D02*
X130370000Y-84663641D01*
X131130000Y-84356359D02*
X131130000Y-84663641D01*
%TO.C,C7*%
X128640000Y-91892164D02*
X128640000Y-92107836D01*
X129360000Y-91892164D02*
X129360000Y-92107836D01*
%TO.C,R5*%
X126620000Y-94663641D02*
X126620000Y-94356359D01*
X127380000Y-94663641D02*
X127380000Y-94356359D01*
%TO.C,R2*%
X109153641Y-81620000D02*
X108846359Y-81620000D01*
X109153641Y-82380000D02*
X108846359Y-82380000D01*
%TO.C,C10*%
X145640000Y-93607836D02*
X145640000Y-93392164D01*
X146360000Y-93607836D02*
X146360000Y-93392164D01*
%TO.C,Y1*%
X145000000Y-88100000D02*
X143150000Y-88100000D01*
X145000000Y-89550000D02*
X145000000Y-88100000D01*
%TO.C,D5*%
D13*
X144460000Y-83500000D02*
G75*
G02*
X144360000Y-83500000I-50000J0D01*
G01*
X144360000Y-83500000D02*
G75*
G02*
X144460000Y-83500000I50000J0D01*
G01*
%TO.C,D2*%
X125460000Y-93000000D02*
G75*
G02*
X125360000Y-93000000I-50000J0D01*
G01*
X125360000Y-93000000D02*
G75*
G02*
X125460000Y-93000000I50000J0D01*
G01*
%TO.C,U2*%
D14*
X119150000Y-93090000D02*
X122910000Y-93090000D01*
X119150000Y-99910000D02*
X122910000Y-99910000D01*
X122910000Y-93090000D02*
X122910000Y-94350000D01*
X122910000Y-99910000D02*
X122910000Y-98650000D01*
X117870000Y-93190000D02*
X117630000Y-92860000D01*
X118110000Y-92860000D01*
X117870000Y-93190000D01*
G36*
X117870000Y-93190000D02*
G01*
X117630000Y-92860000D01*
X118110000Y-92860000D01*
X117870000Y-93190000D01*
G37*
%TO.C,J2*%
X106940000Y-106380000D02*
X106940000Y-105000000D01*
X108320000Y-106380000D02*
X106940000Y-106380000D01*
X109590000Y-103620000D02*
X152880000Y-103620000D01*
X109590000Y-106380000D02*
X109590000Y-103620000D01*
X109590000Y-106380000D02*
X152880000Y-106380000D01*
X152880000Y-106380000D02*
X152880000Y-103620000D01*
%TO.C,J3*%
X106980000Y-78880000D02*
X106980000Y-77500000D01*
X108360000Y-78880000D02*
X106980000Y-78880000D01*
X109630000Y-76120000D02*
X152920000Y-76120000D01*
X109630000Y-78880000D02*
X109630000Y-76120000D01*
X109630000Y-78880000D02*
X152920000Y-78880000D01*
X152920000Y-78880000D02*
X152920000Y-76120000D01*
%TO.C,C4*%
X125545000Y-96532500D02*
X125545000Y-100452500D01*
X127455000Y-96532500D02*
X125545000Y-96532500D01*
X127455000Y-100452500D02*
X127455000Y-96532500D01*
%TO.C,C3*%
X114640000Y-98107836D02*
X114640000Y-97892164D01*
X115360000Y-98107836D02*
X115360000Y-97892164D01*
%TO.C,U3*%
X119952500Y-83390000D02*
X121772500Y-83390000D01*
X119952500Y-83440000D02*
X119952500Y-83390000D01*
X119952500Y-86510000D02*
X119952500Y-86460000D01*
X121772500Y-83390000D02*
X121772500Y-83440000D01*
X121772500Y-86460000D02*
X121772500Y-86510000D01*
X121772500Y-86510000D02*
X119952500Y-86510000D01*
X119412500Y-83440000D02*
X119172500Y-83110000D01*
X119652500Y-83110000D01*
X119412500Y-83440000D01*
G36*
X119412500Y-83440000D02*
G01*
X119172500Y-83110000D01*
X119652500Y-83110000D01*
X119412500Y-83440000D01*
G37*
%TO.C,R8*%
X143346359Y-81620000D02*
X143653641Y-81620000D01*
X143346359Y-82380000D02*
X143653641Y-82380000D01*
%TO.C,R1*%
X113346359Y-81620000D02*
X113653641Y-81620000D01*
X113346359Y-82380000D02*
X113653641Y-82380000D01*
%TD*%
M02*
