%TF.GenerationSoftware,KiCad,Pcbnew,10.0.5*%
%TF.CreationDate,2026-09-13T10:50:35+08:00*%
%TF.ProjectId,stm32c8t6-mini,73746d33-3263-4387-9436-2d6d696e692e,rev?*%
%TF.SameCoordinates,Original*%
%TF.FileFunction,Legend,Bot*%
%TF.FilePolarity,Positive*%
%FSLAX46Y46*%
G04 Gerber Fmt 4.6, Leading zero omitted, Abs format (unit mm)*
G04 Created by KiCad (PCBNEW 10.0.5) date 2026-09-13 10:50:35*
%MOMM*%
%LPD*%
G01*
G04 APERTURE LIST*
%ADD10C,0.300000*%
%ADD11C,0.254000*%
%ADD12C,0.158750*%
%ADD13C,0.100000*%
%ADD14C,0.120000*%
G04 APERTURE END LIST*
D10*
G36*
X142090951Y-93259045D02*
G01*
X142078678Y-93418505D01*
X142165323Y-93438197D01*
X142191060Y-93274158D01*
X142254499Y-93289899D01*
X142314433Y-93311344D01*
X142370945Y-93338393D01*
X142420313Y-93369229D01*
X142257555Y-93504967D01*
X142309304Y-93568623D01*
X142508698Y-93448639D01*
X142551993Y-93509349D01*
X142582704Y-93577049D01*
X142600653Y-93650235D01*
X142606151Y-93731106D01*
X142361053Y-93668915D01*
X142333484Y-93746951D01*
X142583803Y-93834054D01*
X142550767Y-93904534D01*
X142503661Y-93970799D01*
X142445212Y-94030087D01*
X142373418Y-94084739D01*
X142187580Y-93917402D01*
X142112292Y-93981699D01*
X142274591Y-94137678D01*
X142201565Y-94164889D01*
X142130427Y-94183932D01*
X142059573Y-94194968D01*
X141993681Y-94197121D01*
X141957045Y-94196205D01*
X141944589Y-94014763D01*
X141847777Y-94014763D01*
X141858127Y-94187412D01*
X141759666Y-94163965D01*
X141660198Y-94123299D01*
X141786594Y-93983897D01*
X141730082Y-93922348D01*
X141576667Y-94066054D01*
X141526068Y-94020868D01*
X141485076Y-93971441D01*
X141452633Y-93917201D01*
X141429664Y-93860341D01*
X141632904Y-93836802D01*
X141621822Y-93758491D01*
X141413269Y-93763620D01*
X141413269Y-93755377D01*
X141418250Y-93691974D01*
X141433236Y-93629714D01*
X141458279Y-93569919D01*
X141494785Y-93511104D01*
X141725045Y-93629073D01*
X141769283Y-93554518D01*
X141565860Y-93434167D01*
X141649116Y-93370512D01*
X141738600Y-93323342D01*
X141887802Y-93494251D01*
X141936987Y-93445341D01*
X141843747Y-93287622D01*
X141932773Y-93265915D01*
X142037554Y-93258221D01*
X142064756Y-93258221D01*
X142090951Y-93259045D01*
G37*
G36*
X142389525Y-92162381D02*
G01*
X142410329Y-92174790D01*
X142423072Y-92195247D01*
X142427915Y-92227547D01*
X142423125Y-92259043D01*
X142410329Y-92279754D01*
X142389480Y-92292510D01*
X142357023Y-92297339D01*
X142324804Y-92292499D01*
X142304358Y-92279754D01*
X142291911Y-92259087D01*
X142287231Y-92227547D01*
X142291948Y-92195127D01*
X142304267Y-92174790D01*
X142324678Y-92162395D01*
X142357023Y-92157663D01*
X142389525Y-92162381D01*
G37*
G36*
X142081506Y-91879481D02*
G01*
X142111926Y-91899651D01*
X142132905Y-91929159D01*
X142139769Y-91963123D01*
X142132870Y-91999958D01*
X142112383Y-92030259D01*
X142082243Y-92050724D01*
X142046346Y-92057554D01*
X142010783Y-92050680D01*
X141981866Y-92030259D01*
X141962592Y-92000080D01*
X141956038Y-91963123D01*
X141962574Y-91928976D01*
X141982324Y-91899651D01*
X142011454Y-91879531D01*
X142046346Y-91872814D01*
X142081506Y-91879481D01*
G37*
G36*
X141767334Y-91621207D02*
G01*
X141787968Y-91633304D01*
X141800653Y-91653429D01*
X141805553Y-91686518D01*
X141800728Y-91718895D01*
X141787968Y-91739733D01*
X141767245Y-91752525D01*
X141735669Y-91757318D01*
X141703213Y-91752489D01*
X141682363Y-91739733D01*
X141669673Y-91718904D01*
X141664870Y-91686518D01*
X141669747Y-91653420D01*
X141682363Y-91633304D01*
X141703123Y-91621242D01*
X141735669Y-91616634D01*
X141767334Y-91621207D01*
G37*
G36*
X142354354Y-90736125D02*
G01*
X142375158Y-90748534D01*
X142387897Y-90768915D01*
X142392744Y-90801199D01*
X142387915Y-90833656D01*
X142375158Y-90854505D01*
X142354318Y-90867192D01*
X142321852Y-90871999D01*
X142296129Y-90866843D01*
X142272668Y-90850841D01*
X142256373Y-90827659D01*
X142251052Y-90801199D01*
X142256383Y-90774897D01*
X142272668Y-90752106D01*
X142296095Y-90736465D01*
X142321852Y-90731407D01*
X142354354Y-90736125D01*
G37*
G36*
X142602248Y-90620167D02*
G01*
X142632071Y-90640365D01*
X142652564Y-90669910D01*
X142659365Y-90704845D01*
X142652556Y-90739638D01*
X142632071Y-90768867D01*
X142602290Y-90788635D01*
X142568049Y-90795154D01*
X142532926Y-90788592D01*
X142502928Y-90768867D01*
X142482443Y-90739638D01*
X142475634Y-90704845D01*
X142482435Y-90669910D01*
X142502928Y-90640365D01*
X142532968Y-90620210D01*
X142568049Y-90613529D01*
X142602248Y-90620167D01*
G37*
G36*
X142752017Y-90429831D02*
G01*
X142772663Y-90442620D01*
X142785417Y-90463393D01*
X142790249Y-90495834D01*
X142785456Y-90527410D01*
X142772663Y-90548133D01*
X142752026Y-90560852D01*
X142720457Y-90565627D01*
X142694692Y-90560587D01*
X142671272Y-90545019D01*
X142654992Y-90522215D01*
X142649657Y-90495834D01*
X142654467Y-90463384D01*
X142667151Y-90442620D01*
X142688000Y-90429863D01*
X142720457Y-90425034D01*
X142752017Y-90429831D01*
G37*
G36*
X142715602Y-87471314D02*
G01*
X142600280Y-87536833D01*
X142468215Y-87598626D01*
X142328761Y-87652487D01*
X142176955Y-87700658D01*
X142139494Y-87613280D01*
X142277221Y-87584224D01*
X142413077Y-87545136D01*
X142545640Y-87496249D01*
X142673196Y-87438158D01*
X142715602Y-87471314D01*
G37*
G36*
X143398019Y-96131862D02*
G01*
X140978973Y-96131862D01*
X140978973Y-95894578D01*
X142667425Y-95894578D01*
X142672261Y-95926423D01*
X142685194Y-95947426D01*
X142706198Y-95960359D01*
X142738042Y-95965195D01*
X142769871Y-95960355D01*
X142790799Y-95947426D01*
X142803731Y-95926423D01*
X142808567Y-95894578D01*
X142803728Y-95862749D01*
X142790799Y-95841822D01*
X142769871Y-95828893D01*
X142738042Y-95824053D01*
X142706198Y-95828889D01*
X142685194Y-95841822D01*
X142672265Y-95862749D01*
X142667425Y-95894578D01*
X140978973Y-95894578D01*
X140978973Y-95788058D01*
X142468123Y-95788058D01*
X142472905Y-95819100D01*
X142485892Y-95840356D01*
X142506875Y-95853631D01*
X142538740Y-95858583D01*
X142571497Y-95853618D01*
X142593053Y-95840356D01*
X142606460Y-95819049D01*
X142611372Y-95788058D01*
X142606337Y-95755335D01*
X142593053Y-95734660D01*
X142571594Y-95722164D01*
X142538740Y-95717441D01*
X142506843Y-95722146D01*
X142485892Y-95734660D01*
X142473026Y-95755280D01*
X142468123Y-95788058D01*
X140978973Y-95788058D01*
X140978973Y-95668165D01*
X142255174Y-95668165D01*
X142260064Y-95699165D01*
X142273401Y-95720464D01*
X142294957Y-95733726D01*
X142327714Y-95738690D01*
X142358714Y-95733800D01*
X142380013Y-95720464D01*
X142393419Y-95699157D01*
X142398331Y-95668165D01*
X142393314Y-95635365D01*
X142380013Y-95614310D01*
X142358756Y-95601323D01*
X142327714Y-95596541D01*
X142294913Y-95601396D01*
X142273401Y-95614310D01*
X142260169Y-95635356D01*
X142255174Y-95668165D01*
X140978973Y-95668165D01*
X140978973Y-95542136D01*
X142045064Y-95542136D01*
X142050037Y-95573992D01*
X142063382Y-95594984D01*
X142084759Y-95607864D01*
X142116688Y-95612661D01*
X142148517Y-95607821D01*
X142169445Y-95594892D01*
X142182374Y-95573965D01*
X142187213Y-95542136D01*
X142182394Y-95510215D01*
X142169445Y-95488830D01*
X142148529Y-95475488D01*
X142116688Y-95470512D01*
X142084819Y-95475461D01*
X142063382Y-95488830D01*
X142050013Y-95510267D01*
X142045064Y-95542136D01*
X140978973Y-95542136D01*
X140978973Y-95333766D01*
X141225049Y-95333766D01*
X142159736Y-95391285D01*
X142909501Y-95831289D01*
X143049543Y-95464650D01*
X142303809Y-95178428D01*
X142625568Y-95049376D01*
X142753583Y-94988351D01*
X142841723Y-94938001D01*
X142939033Y-94867553D01*
X143014557Y-94796264D01*
X143071342Y-94723953D01*
X143114331Y-94643543D01*
X143139803Y-94559455D01*
X143148370Y-94470154D01*
X143069693Y-94448080D01*
X143045541Y-94545092D01*
X143001366Y-94628973D01*
X142938547Y-94701040D01*
X142856195Y-94762696D01*
X142894113Y-94670372D01*
X142904857Y-94625617D01*
X142908035Y-94590230D01*
X142905471Y-94550479D01*
X142898510Y-94494151D01*
X142811315Y-94522544D01*
X142811315Y-94543060D01*
X142803379Y-94618488D01*
X142779594Y-94690316D01*
X142738954Y-94759996D01*
X142679149Y-94828550D01*
X142584784Y-94904415D01*
X142453298Y-94980043D01*
X142275874Y-95054688D01*
X142148928Y-95097644D01*
X142091043Y-95112940D01*
X141884871Y-95122649D01*
X141264342Y-95152965D01*
X141225049Y-95333766D01*
X140978973Y-95333766D01*
X140978973Y-93737975D01*
X141284309Y-93737975D01*
X141285633Y-93755377D01*
X141292113Y-93840540D01*
X141314988Y-93935289D01*
X141352727Y-94023647D01*
X141404450Y-94104869D01*
X141472195Y-94182107D01*
X141557891Y-94255739D01*
X141643327Y-94313061D01*
X141732830Y-94359521D01*
X141826894Y-94395507D01*
X141924520Y-94421005D01*
X142026763Y-94436504D01*
X142134274Y-94441761D01*
X142241422Y-94436531D01*
X142342234Y-94421182D01*
X142437440Y-94396057D01*
X142529199Y-94360585D01*
X142616046Y-94315262D01*
X142698475Y-94259769D01*
X142780286Y-94188340D01*
X142845277Y-94112342D01*
X142895121Y-94031341D01*
X142931248Y-93943466D01*
X142953256Y-93848536D01*
X142960792Y-93745119D01*
X142953279Y-93641687D01*
X142931291Y-93546247D01*
X142895121Y-93457431D01*
X142845407Y-93375157D01*
X142780757Y-93297262D01*
X142699574Y-93223325D01*
X142616295Y-93164526D01*
X142529076Y-93116713D01*
X142437440Y-93079435D01*
X142342132Y-93052828D01*
X142241335Y-93036600D01*
X142134274Y-93031075D01*
X142026033Y-93036355D01*
X141923809Y-93051877D01*
X141826894Y-93077329D01*
X141733561Y-93113316D01*
X141644048Y-93160082D01*
X141557891Y-93218104D01*
X141472202Y-93291740D01*
X141404456Y-93369008D01*
X141352727Y-93450287D01*
X141315058Y-93538613D01*
X141292148Y-93634008D01*
X141284309Y-93737975D01*
X140978973Y-93737975D01*
X140978973Y-91343693D01*
X141145640Y-91343693D01*
X141493587Y-91686518D01*
X141774324Y-91963123D01*
X142042698Y-92227547D01*
X142284392Y-92465683D01*
X141310870Y-92511571D01*
X141307756Y-92932615D01*
X141647650Y-92807501D01*
X141657817Y-92609390D01*
X143094515Y-92523019D01*
X141877452Y-91536034D01*
X142066038Y-91519364D01*
X142261952Y-91500863D01*
X142477099Y-91484468D01*
X142655427Y-91479339D01*
X142817079Y-91489533D01*
X142953922Y-91518174D01*
X143039260Y-91549150D01*
X143115696Y-91588933D01*
X143184182Y-91637517D01*
X143231352Y-91565160D01*
X143123668Y-91481413D01*
X142999059Y-91411771D01*
X142855279Y-91356424D01*
X142705054Y-91319091D01*
X142533135Y-91295366D01*
X142336598Y-91286998D01*
X142272393Y-91288005D01*
X142206173Y-91291120D01*
X141145640Y-91343693D01*
X140978973Y-91343693D01*
X140978973Y-90234525D01*
X141266723Y-90234525D01*
X141275054Y-90345251D01*
X141299552Y-90448394D01*
X141340088Y-90545385D01*
X141395664Y-90634824D01*
X141455616Y-90704845D01*
X141468314Y-90719675D01*
X141559998Y-90800375D01*
X141561182Y-90801199D01*
X141653828Y-90865703D01*
X141750668Y-90918466D01*
X141850983Y-90959285D01*
X141955352Y-90988402D01*
X142065147Y-91006116D01*
X142181168Y-91012133D01*
X142292354Y-91006810D01*
X142396128Y-90991247D01*
X142493311Y-90965880D01*
X142586559Y-90929419D01*
X142673566Y-90881920D01*
X142754986Y-90822998D01*
X142833139Y-90749644D01*
X142895777Y-90670900D01*
X142944214Y-90586235D01*
X142979037Y-90495096D01*
X143000362Y-90396102D01*
X143007686Y-90287831D01*
X143002180Y-90208552D01*
X142985796Y-90132309D01*
X142958441Y-90059168D01*
X142919392Y-89989061D01*
X142871950Y-89925662D01*
X142817452Y-89869718D01*
X142755509Y-89821060D01*
X142683179Y-89778310D01*
X142667425Y-89853415D01*
X142698944Y-89891097D01*
X142720915Y-89935480D01*
X142733477Y-89985562D01*
X142738042Y-90048046D01*
X142729678Y-90136150D01*
X142704785Y-90219372D01*
X142662754Y-90299188D01*
X142606908Y-90370908D01*
X142532531Y-90440707D01*
X142454822Y-90495834D01*
X142436616Y-90508749D01*
X142301281Y-90581745D01*
X142164957Y-90632946D01*
X142024251Y-90663917D01*
X141880109Y-90674254D01*
X141777125Y-90667532D01*
X141685844Y-90648242D01*
X141601476Y-90615263D01*
X141527575Y-90569382D01*
X141458898Y-90504217D01*
X141410979Y-90429980D01*
X141382241Y-90345784D01*
X141372236Y-90247897D01*
X141382980Y-90171437D01*
X141414826Y-90103458D01*
X141466213Y-90044447D01*
X141543053Y-89989153D01*
X141614605Y-89953644D01*
X141692347Y-89925955D01*
X141773700Y-89907139D01*
X141859409Y-89897470D01*
X141817552Y-90367057D01*
X141974081Y-90396824D01*
X142017037Y-89954806D01*
X142105514Y-90331886D01*
X142275599Y-90320163D01*
X142119070Y-89610607D01*
X141950353Y-89624082D01*
X141803813Y-89652281D01*
X141667145Y-89697262D01*
X141547816Y-89756694D01*
X141459971Y-89818124D01*
X141390517Y-89885646D01*
X141337248Y-89959569D01*
X141298582Y-90041770D01*
X141274901Y-90132792D01*
X141266723Y-90234525D01*
X140978973Y-90234525D01*
X140978973Y-88723089D01*
X141206365Y-88723089D01*
X141232468Y-88820084D01*
X141365642Y-88783356D01*
X141388997Y-88867254D01*
X141418123Y-88943457D01*
X141300978Y-89014532D01*
X141361978Y-89092934D01*
X141468040Y-89030560D01*
X141539298Y-89114824D01*
X141629607Y-89189379D01*
X141565127Y-89312569D01*
X141639407Y-89357540D01*
X141710116Y-89235358D01*
X141787765Y-89268691D01*
X141872049Y-89293793D01*
X141959949Y-89309655D01*
X142052758Y-89316325D01*
X142031417Y-89448948D01*
X142128046Y-89473953D01*
X142148562Y-89314218D01*
X142232841Y-89304179D01*
X142315807Y-89288206D01*
X142397003Y-89266106D01*
X142474809Y-89238197D01*
X142560997Y-89364776D01*
X142646543Y-89303868D01*
X142568049Y-89194508D01*
X142660190Y-89134516D01*
X142737767Y-89073333D01*
X142864255Y-89165840D01*
X142920583Y-89093758D01*
X142808018Y-89004732D01*
X142882756Y-88905172D01*
X142935787Y-88804514D01*
X143058702Y-88833456D01*
X143078303Y-88730050D01*
X142963539Y-88714663D01*
X142974255Y-88650366D01*
X142978377Y-88580848D01*
X142973156Y-88510323D01*
X142958502Y-88444652D01*
X143078394Y-88416076D01*
X143056413Y-88329248D01*
X142920858Y-88369364D01*
X142893326Y-88331365D01*
X142858942Y-88293985D01*
X142776693Y-88229596D01*
X142839891Y-88138372D01*
X142751964Y-88082868D01*
X142691697Y-88184717D01*
X142627675Y-88159071D01*
X142572171Y-88140845D01*
X142530314Y-88241870D01*
X142607595Y-88294290D01*
X142667540Y-88349029D01*
X142712580Y-88406184D01*
X142746104Y-88470214D01*
X142766313Y-88539562D01*
X142773213Y-88615653D01*
X142762426Y-88712171D01*
X142730623Y-88799842D01*
X142678343Y-88878609D01*
X142601846Y-88951517D01*
X142518128Y-89006827D01*
X142429197Y-89045307D01*
X142334822Y-89068148D01*
X142233925Y-89075898D01*
X142123542Y-89068493D01*
X142026654Y-89047322D01*
X141937491Y-89011146D01*
X141859501Y-88960768D01*
X141787651Y-88890365D01*
X141737776Y-88810650D01*
X141707967Y-88720567D01*
X141697568Y-88615653D01*
X141707804Y-88521430D01*
X141737068Y-88441897D01*
X141785037Y-88373852D01*
X141831789Y-88332572D01*
X141885384Y-88303053D01*
X141947168Y-88284805D01*
X142019052Y-88278415D01*
X142057612Y-88181969D01*
X141990293Y-88151836D01*
X141919493Y-88133701D01*
X141919493Y-88031760D01*
X141838709Y-88031760D01*
X141838709Y-88126099D01*
X141751331Y-88134891D01*
X141664686Y-88162094D01*
X141615410Y-88052276D01*
X141541405Y-88087630D01*
X141590772Y-88197540D01*
X141546122Y-88228647D01*
X141504219Y-88265317D01*
X141466518Y-88306163D01*
X141434426Y-88349764D01*
X141309221Y-88297465D01*
X141258022Y-88384477D01*
X141386616Y-88442088D01*
X141365137Y-88506985D01*
X141352636Y-88571323D01*
X141348914Y-88635355D01*
X141354193Y-88694421D01*
X141206365Y-88723089D01*
X140978973Y-88723089D01*
X140978973Y-87790875D01*
X141266448Y-87790875D01*
X141479031Y-87804980D01*
X141700040Y-87809560D01*
X141988684Y-87802605D01*
X142302710Y-87780892D01*
X142624192Y-87745541D01*
X142972973Y-87694247D01*
X142898601Y-87271188D01*
X142430662Y-87390348D01*
X142107987Y-87461514D01*
X141907846Y-87494090D01*
X141705170Y-87518300D01*
X141501152Y-87534036D01*
X141294658Y-87541381D01*
X141286528Y-87613280D01*
X141266448Y-87790875D01*
X140978973Y-87790875D01*
X140978973Y-87104521D01*
X143398019Y-87104521D01*
X143398019Y-96131862D01*
G37*
D11*
G36*
X148580507Y-84721950D02*
G01*
X148532836Y-84729829D01*
X148500984Y-84751249D01*
X148480738Y-84787281D01*
X148472950Y-84844242D01*
X148472950Y-85260670D01*
X148480690Y-85316690D01*
X148500857Y-85352230D01*
X148532702Y-85373436D01*
X148580507Y-85381256D01*
X148909695Y-85381256D01*
X148909695Y-85181727D01*
X148646655Y-85181727D01*
X148646655Y-84920626D01*
X148988172Y-84920626D01*
X149159319Y-85169630D01*
X149201892Y-85169630D01*
X149371178Y-84920626D01*
X149659110Y-84920626D01*
X149659110Y-85181727D01*
X149410959Y-85181727D01*
X149410959Y-85381256D01*
X149725258Y-85381256D01*
X149772862Y-85373348D01*
X149804719Y-85351822D01*
X149825003Y-85315544D01*
X149832816Y-85258111D01*
X149832816Y-84844242D01*
X149825027Y-84787281D01*
X149804781Y-84751249D01*
X149772929Y-84729829D01*
X149725258Y-84721950D01*
X149390332Y-84721950D01*
X149339188Y-84729640D01*
X149297599Y-84751812D01*
X149263154Y-84789649D01*
X149180179Y-84915430D01*
X149098910Y-84787866D01*
X149066651Y-84751295D01*
X149026033Y-84729590D01*
X148974292Y-84721950D01*
X148580507Y-84721950D01*
G37*
G36*
X149832816Y-83887776D02*
G01*
X148472950Y-84148102D01*
X148472950Y-84350190D01*
X149832816Y-84609585D01*
X149832816Y-84405713D01*
X148901707Y-84253876D01*
X148785387Y-84248680D01*
X148901707Y-84243485D01*
X149832816Y-84090795D01*
X149832816Y-83887776D01*
G37*
G36*
X148580507Y-83113934D02*
G01*
X148532836Y-83121812D01*
X148500984Y-83143232D01*
X148480738Y-83179264D01*
X148472950Y-83236226D01*
X148472950Y-83652653D01*
X148480690Y-83708674D01*
X148500857Y-83744213D01*
X148532702Y-83765419D01*
X148580507Y-83773239D01*
X148909695Y-83773239D01*
X148909695Y-83573711D01*
X148646655Y-83573711D01*
X148646655Y-83312609D01*
X148988172Y-83312609D01*
X149159319Y-83561613D01*
X149201892Y-83561613D01*
X149371178Y-83312609D01*
X149659110Y-83312609D01*
X149659110Y-83573711D01*
X149410959Y-83573711D01*
X149410959Y-83773239D01*
X149725258Y-83773239D01*
X149772862Y-83765332D01*
X149804719Y-83743805D01*
X149825003Y-83707527D01*
X149832816Y-83650094D01*
X149832816Y-83236226D01*
X149825027Y-83179264D01*
X149804781Y-83143232D01*
X149772929Y-83121812D01*
X149725258Y-83113934D01*
X149390332Y-83113934D01*
X149339188Y-83121623D01*
X149297599Y-83143795D01*
X149263154Y-83181632D01*
X149180179Y-83307414D01*
X149098910Y-83179849D01*
X149066651Y-83143278D01*
X149026033Y-83121574D01*
X148974292Y-83113934D01*
X148580507Y-83113934D01*
G37*
D12*
G36*
X148472950Y-87493425D02*
G01*
X148472950Y-87620060D01*
X149202900Y-87872553D01*
X149227328Y-87856035D01*
X149227328Y-87640920D01*
X149723629Y-87640920D01*
X149723629Y-87950565D01*
X148472950Y-87950565D01*
X148472950Y-88071229D01*
X149832816Y-88071229D01*
X149832816Y-87616570D01*
X149825618Y-87577578D01*
X149804666Y-87547165D01*
X149773126Y-87527217D01*
X149732159Y-87520256D01*
X149223761Y-87520256D01*
X149180431Y-87528195D01*
X149150548Y-87550375D01*
X149130854Y-87589118D01*
X149123104Y-87652164D01*
X149124423Y-87690395D01*
X149125741Y-87726764D01*
X148472950Y-87493425D01*
G37*
G36*
X148573606Y-86783869D02*
G01*
X148532594Y-86790739D01*
X148501022Y-86810390D01*
X148480146Y-86840412D01*
X148472950Y-86879330D01*
X148472950Y-87221157D01*
X148480115Y-87260237D01*
X148501022Y-87291027D01*
X148532657Y-87311277D01*
X148573606Y-87318324D01*
X148909695Y-87318324D01*
X148909695Y-87197738D01*
X148582136Y-87197738D01*
X148582136Y-86904455D01*
X148902250Y-86904455D01*
X149356366Y-87279318D01*
X149406252Y-87308763D01*
X149459891Y-87318324D01*
X149732159Y-87318324D01*
X149773095Y-87311275D01*
X149804666Y-87291027D01*
X149825633Y-87260230D01*
X149832816Y-87221157D01*
X149832816Y-86879330D01*
X149825602Y-86840419D01*
X149804666Y-86810390D01*
X149773158Y-86790742D01*
X149732159Y-86783869D01*
X149420885Y-86783869D01*
X149420885Y-86904455D01*
X149723629Y-86904455D01*
X149723629Y-87197738D01*
X149438256Y-87197738D01*
X148984140Y-86821169D01*
X148935802Y-86793107D01*
X148882321Y-86783869D01*
X148573606Y-86783869D01*
G37*
G36*
X149723629Y-86103471D02*
G01*
X149723629Y-86313468D01*
X148472950Y-86313468D01*
X148472950Y-86434054D01*
X149723629Y-86434054D01*
X149723629Y-86645758D01*
X149832816Y-86645758D01*
X149832816Y-86103471D01*
X149723629Y-86103471D01*
G37*
G36*
X149723629Y-89819714D02*
G01*
X149723629Y-90029712D01*
X148472950Y-90029712D01*
X148472950Y-90150297D01*
X149723629Y-90150297D01*
X149723629Y-90362001D01*
X149832816Y-90362001D01*
X149832816Y-89819714D01*
X149723629Y-89819714D01*
G37*
G36*
X148472950Y-89142030D02*
G01*
X148472950Y-89266028D01*
X149031676Y-89447410D01*
X148472950Y-89628716D01*
X148472950Y-89749301D01*
X148479929Y-89749301D01*
X149168935Y-89507277D01*
X149832816Y-89735420D01*
X149832816Y-89608786D01*
X149316662Y-89445627D01*
X149832816Y-89276497D01*
X149832816Y-89155911D01*
X149824983Y-89155911D01*
X149175914Y-89381418D01*
X148472950Y-89142030D01*
G37*
G36*
X148472950Y-92284042D02*
G01*
X148472950Y-92410677D01*
X149202900Y-92663170D01*
X149227328Y-92646652D01*
X149227328Y-92431537D01*
X149723629Y-92431537D01*
X149723629Y-92741182D01*
X148472950Y-92741182D01*
X148472950Y-92861846D01*
X149832816Y-92861846D01*
X149832816Y-92407187D01*
X149825618Y-92368195D01*
X149804666Y-92337782D01*
X149773126Y-92317834D01*
X149732159Y-92310873D01*
X149223761Y-92310873D01*
X149180431Y-92318812D01*
X149150548Y-92340992D01*
X149130854Y-92379735D01*
X149123104Y-92442781D01*
X149124423Y-92481012D01*
X149125741Y-92517381D01*
X148472950Y-92284042D01*
G37*
G36*
X148472950Y-91567584D02*
G01*
X148472950Y-91691582D01*
X149031676Y-91872965D01*
X148472950Y-92054270D01*
X148472950Y-92174856D01*
X148479929Y-92174856D01*
X149168935Y-91932831D01*
X149832816Y-92160975D01*
X149832816Y-92034341D01*
X149316662Y-91871181D01*
X149832816Y-91702051D01*
X149832816Y-91581465D01*
X149824983Y-91581465D01*
X149175914Y-91806972D01*
X148472950Y-91567584D01*
G37*
G36*
X149655771Y-95048011D02*
G01*
X149713882Y-95071390D01*
X149763721Y-95110127D01*
X149801772Y-95160613D01*
X149824795Y-95219384D01*
X149832816Y-95288873D01*
X149832816Y-95599450D01*
X148472950Y-95599450D01*
X148472950Y-95318341D01*
X148582136Y-95318341D01*
X148582136Y-95478786D01*
X149723629Y-95478786D01*
X149723629Y-95311362D01*
X149718808Y-95268528D01*
X149705064Y-95232788D01*
X149682529Y-95202564D01*
X149652803Y-95179464D01*
X149617423Y-95165396D01*
X149574739Y-95160455D01*
X148732732Y-95160455D01*
X148687913Y-95165671D01*
X148651794Y-95180361D01*
X148622383Y-95204270D01*
X148600443Y-95235600D01*
X148586914Y-95273064D01*
X148582136Y-95318341D01*
X148472950Y-95318341D01*
X148472950Y-95288873D01*
X148480937Y-95219991D01*
X148503930Y-95161345D01*
X148542044Y-95110593D01*
X148591917Y-95071579D01*
X148650027Y-95048056D01*
X148718851Y-95039870D01*
X149586914Y-95039870D01*
X149655771Y-95048011D01*
G37*
G36*
X148472950Y-94700136D02*
G01*
X148472950Y-94820722D01*
X149832816Y-94820722D01*
X149832816Y-94700136D01*
X148472950Y-94700136D01*
G37*
G36*
X149773088Y-93907692D02*
G01*
X149804666Y-93927999D01*
X149825631Y-93958732D01*
X149832816Y-93997792D01*
X149832816Y-94377773D01*
X149825618Y-94416765D01*
X149804666Y-94447177D01*
X149773126Y-94467125D01*
X149732159Y-94474086D01*
X148573606Y-94474086D01*
X148532626Y-94467128D01*
X148501022Y-94447177D01*
X148480130Y-94416771D01*
X148472950Y-94377773D01*
X148472950Y-94353423D01*
X148582136Y-94353423D01*
X149723629Y-94353423D01*
X149723629Y-94021211D01*
X148582136Y-94021211D01*
X148582136Y-94353423D01*
X148472950Y-94353423D01*
X148472950Y-93997792D01*
X148480117Y-93958726D01*
X148501022Y-93927999D01*
X148532664Y-93907689D01*
X148573606Y-93900625D01*
X149732159Y-93900625D01*
X149773088Y-93907692D01*
G37*
G36*
X148573606Y-97615634D02*
G01*
X148532695Y-97622785D01*
X148501022Y-97643396D01*
X148480102Y-97674507D01*
X148472950Y-97713653D01*
X148472950Y-98063313D01*
X148480130Y-98102312D01*
X148501022Y-98132718D01*
X148532626Y-98152668D01*
X148573606Y-98159627D01*
X149732159Y-98159627D01*
X149773126Y-98152666D01*
X149804666Y-98132718D01*
X149825618Y-98102305D01*
X149832816Y-98063313D01*
X149832816Y-97713653D01*
X149825646Y-97674513D01*
X149804666Y-97643396D01*
X149773056Y-97622788D01*
X149732159Y-97615634D01*
X149420885Y-97615634D01*
X149420885Y-97737072D01*
X149723629Y-97737072D01*
X149723629Y-98038963D01*
X148582136Y-98038963D01*
X148582136Y-97737072D01*
X148909695Y-97737072D01*
X148909695Y-97615634D01*
X148573606Y-97615634D01*
G37*
G36*
X148472950Y-96971450D02*
G01*
X148472950Y-97405248D01*
X149832816Y-97405248D01*
X149832816Y-97284585D01*
X148582136Y-97284585D01*
X148582136Y-96971450D01*
X148472950Y-96971450D01*
G37*
G36*
X148472950Y-96240646D02*
G01*
X148472950Y-96373407D01*
X149124035Y-96686542D01*
X148472950Y-96686542D01*
X148472950Y-96807205D01*
X149832816Y-96807205D01*
X149832816Y-96686542D01*
X149219495Y-96686542D01*
X149832816Y-96402022D01*
X149832816Y-96271044D01*
X149825061Y-96271044D01*
X149175216Y-96578131D01*
X148472950Y-96240646D01*
G37*
D11*
G36*
X148580507Y-99413833D02*
G01*
X148532975Y-99421772D01*
X148501114Y-99443414D01*
X148480788Y-99479960D01*
X148472950Y-99537908D01*
X148472950Y-99964727D01*
X148480690Y-100020747D01*
X148500857Y-100056287D01*
X148532702Y-100077493D01*
X148580507Y-100085313D01*
X149725258Y-100085313D01*
X149772862Y-100077405D01*
X149804719Y-100055879D01*
X149825003Y-100019601D01*
X149832816Y-99962168D01*
X149832816Y-99537908D01*
X149824977Y-99479960D01*
X149804651Y-99443414D01*
X149772790Y-99421772D01*
X149725258Y-99413833D01*
X149415922Y-99413833D01*
X149415922Y-99617704D01*
X149659110Y-99617704D01*
X149659110Y-99882295D01*
X148646655Y-99882295D01*
X148646655Y-99617704D01*
X149028807Y-99617704D01*
X149028807Y-99768688D01*
X149202513Y-99768688D01*
X149202513Y-99413833D01*
X148580507Y-99413833D01*
G37*
D13*
X149887500Y-82750000D02*
X148112500Y-82750000D01*
X149887500Y-82750000D02*
X148112500Y-82750000D01*
X149887500Y-82750000D02*
X148112500Y-82750000D01*
X149887500Y-85750000D02*
X148112500Y-85750000D01*
X149887500Y-88500000D02*
X148112500Y-88500000D01*
X149887500Y-91000000D02*
X148112500Y-91000000D01*
X149887500Y-93500000D02*
X148112500Y-93500000D01*
X149887500Y-96000000D02*
X148112500Y-96000000D01*
X149887500Y-98500000D02*
X148112500Y-98500000D01*
X149887500Y-82750000D02*
X149887500Y-101000000D01*
X149887500Y-101000000D02*
X148112500Y-101000000D01*
X148112500Y-101000000D02*
X148112500Y-82750000D01*
X148112500Y-82750000D02*
X149887500Y-82750000D01*
D11*
G36*
X150586166Y-101968007D02*
G01*
X150578227Y-101920475D01*
X150556585Y-101888614D01*
X150520039Y-101868288D01*
X150462091Y-101860450D01*
X150035272Y-101860450D01*
X149979252Y-101868190D01*
X149943712Y-101888357D01*
X149922506Y-101920202D01*
X149914686Y-101968007D01*
X149914686Y-103112758D01*
X149922594Y-103160362D01*
X149944120Y-103192219D01*
X149980398Y-103212503D01*
X150037831Y-103220316D01*
X150462091Y-103220316D01*
X150520039Y-103212477D01*
X150556585Y-103192151D01*
X150578227Y-103160290D01*
X150586166Y-103112758D01*
X150586166Y-102803422D01*
X150382295Y-102803422D01*
X150382295Y-103046610D01*
X150117704Y-103046610D01*
X150117704Y-102034155D01*
X150382295Y-102034155D01*
X150382295Y-102416307D01*
X150231311Y-102416307D01*
X150231311Y-102590013D01*
X150586166Y-102590013D01*
X150586166Y-101968007D01*
G37*
D12*
G36*
X145969977Y-101961106D02*
G01*
X145962826Y-101920195D01*
X145942215Y-101888522D01*
X145911104Y-101867602D01*
X145871958Y-101860450D01*
X145522298Y-101860450D01*
X145483299Y-101867630D01*
X145452893Y-101888522D01*
X145432943Y-101920126D01*
X145425984Y-101961106D01*
X145425984Y-103119659D01*
X145432945Y-103160626D01*
X145452893Y-103192166D01*
X145483306Y-103213118D01*
X145522298Y-103220316D01*
X145871958Y-103220316D01*
X145911098Y-103213146D01*
X145942215Y-103192166D01*
X145962823Y-103160556D01*
X145969977Y-103119659D01*
X145969977Y-102808385D01*
X145848539Y-102808385D01*
X145848539Y-103111129D01*
X145546648Y-103111129D01*
X145546648Y-101969636D01*
X145848539Y-101969636D01*
X145848539Y-102297195D01*
X145969977Y-102297195D01*
X145969977Y-101961106D01*
G37*
G36*
X146315760Y-101860450D02*
G01*
X146194244Y-101860450D01*
X146194244Y-102803422D01*
X146141356Y-102803422D01*
X146141356Y-102805904D01*
X146217740Y-103220316D01*
X146315760Y-103220316D01*
X146315760Y-101860450D01*
G37*
G36*
X147083709Y-101961106D02*
G01*
X147076751Y-101920126D01*
X147056800Y-101888522D01*
X147026394Y-101867630D01*
X146987395Y-101860450D01*
X146637735Y-101860450D01*
X146598737Y-101867630D01*
X146568331Y-101888522D01*
X146548380Y-101920126D01*
X146541422Y-101961106D01*
X146541422Y-102302158D01*
X146662085Y-102302158D01*
X146662085Y-101969636D01*
X146962192Y-101969636D01*
X146962192Y-102384125D01*
X146722805Y-102563724D01*
X146722805Y-102590633D01*
X146960486Y-102767596D01*
X146960486Y-103111129D01*
X146663791Y-103111129D01*
X146663791Y-102808385D01*
X146543205Y-102808385D01*
X146543205Y-103119659D01*
X146550166Y-103160626D01*
X146570114Y-103192166D01*
X146600527Y-103213118D01*
X146639519Y-103220316D01*
X146985612Y-103220316D01*
X147024604Y-103213118D01*
X147055016Y-103192166D01*
X147074964Y-103160626D01*
X147081925Y-103119659D01*
X147081925Y-102792721D01*
X147075991Y-102752042D01*
X147058905Y-102718830D01*
X147029891Y-102691212D01*
X146868516Y-102577605D01*
X147031675Y-102463921D01*
X147060495Y-102436784D01*
X147077671Y-102403095D01*
X147083709Y-102360706D01*
X147083709Y-101961106D01*
G37*
G36*
X143591331Y-101867630D02*
G01*
X143621737Y-101888522D01*
X143641688Y-101920126D01*
X143648646Y-101961106D01*
X143648646Y-102474467D01*
X143643913Y-102497518D01*
X143629710Y-102516245D01*
X143603514Y-102531697D01*
X143501152Y-102575124D01*
X143596612Y-102614207D01*
X143625401Y-102633778D01*
X143640414Y-102654001D01*
X143645157Y-102675780D01*
X143645157Y-103119659D01*
X143638196Y-103160626D01*
X143618248Y-103192166D01*
X143587835Y-103213118D01*
X143548843Y-103220316D01*
X143104653Y-103220316D01*
X143104653Y-103111129D01*
X143225317Y-103111129D01*
X143523718Y-103111129D01*
X143523718Y-102705635D01*
X143403132Y-102624754D01*
X143225317Y-102624754D01*
X143225317Y-103111129D01*
X143104653Y-103111129D01*
X143104653Y-102520530D01*
X143225317Y-102520530D01*
X143404838Y-102520530D01*
X143527208Y-102440502D01*
X143527208Y-101969636D01*
X143225317Y-101969636D01*
X143225317Y-102520530D01*
X143104653Y-102520530D01*
X143104653Y-101860450D01*
X143552333Y-101860450D01*
X143591331Y-101867630D01*
G37*
G36*
X144335237Y-101867646D02*
G01*
X144365259Y-101888522D01*
X144384910Y-101920094D01*
X144391780Y-101961106D01*
X144391780Y-103119659D01*
X144384908Y-103160658D01*
X144365259Y-103192166D01*
X144335231Y-103213102D01*
X144296320Y-103220316D01*
X143949296Y-103220316D01*
X143910372Y-103213105D01*
X143880279Y-103192166D01*
X143860691Y-103160664D01*
X143853836Y-103119659D01*
X143853836Y-103111129D01*
X143974422Y-103111129D01*
X144271194Y-103111129D01*
X144271194Y-102570161D01*
X143974422Y-102570161D01*
X143974422Y-103111129D01*
X143853836Y-103111129D01*
X143853836Y-102560235D01*
X143860635Y-102521932D01*
X143880279Y-102492226D01*
X143910218Y-102472731D01*
X143949296Y-102465937D01*
X144271194Y-102465937D01*
X144271194Y-101969636D01*
X143979695Y-101969636D01*
X143979695Y-102252528D01*
X143859032Y-102252528D01*
X143859032Y-101961106D01*
X143866183Y-101920195D01*
X143886793Y-101888522D01*
X143917916Y-101867605D01*
X143957129Y-101860450D01*
X144296320Y-101860450D01*
X144335237Y-101867646D01*
G37*
G36*
X141085127Y-101867630D02*
G01*
X141115533Y-101888522D01*
X141135484Y-101920126D01*
X141142442Y-101961106D01*
X141142442Y-102474467D01*
X141137709Y-102497518D01*
X141123506Y-102516245D01*
X141097310Y-102531697D01*
X140994948Y-102575124D01*
X141090408Y-102614207D01*
X141119197Y-102633778D01*
X141134210Y-102654001D01*
X141138953Y-102675780D01*
X141138953Y-103119659D01*
X141131992Y-103160626D01*
X141112044Y-103192166D01*
X141081631Y-103213118D01*
X141042639Y-103220316D01*
X140598449Y-103220316D01*
X140598449Y-103111129D01*
X140719113Y-103111129D01*
X141017514Y-103111129D01*
X141017514Y-102705635D01*
X140896928Y-102624754D01*
X140719113Y-102624754D01*
X140719113Y-103111129D01*
X140598449Y-103111129D01*
X140598449Y-102520530D01*
X140719113Y-102520530D01*
X140898634Y-102520530D01*
X141021004Y-102440502D01*
X141021004Y-101969636D01*
X140719113Y-101969636D01*
X140719113Y-102520530D01*
X140598449Y-102520530D01*
X140598449Y-101860450D01*
X141046129Y-101860450D01*
X141085127Y-101867630D01*
G37*
G36*
X141841437Y-101867602D02*
G01*
X141872548Y-101888522D01*
X141893158Y-101920195D01*
X141900310Y-101961106D01*
X141900310Y-102400875D01*
X141894988Y-102435932D01*
X141879656Y-102464294D01*
X141853472Y-102487650D01*
X141724201Y-102572642D01*
X141851688Y-102652438D01*
X141876519Y-102674205D01*
X141891477Y-102702670D01*
X141896821Y-102740066D01*
X141896821Y-103119659D01*
X141889860Y-103160626D01*
X141869912Y-103192166D01*
X141839499Y-103213118D01*
X141800507Y-103220316D01*
X141449141Y-103220316D01*
X141410149Y-103213118D01*
X141379736Y-103192166D01*
X141359788Y-103160626D01*
X141352828Y-103119659D01*
X141352828Y-102740066D01*
X141355149Y-102723549D01*
X141473491Y-102723549D01*
X141473491Y-103111129D01*
X141775382Y-103111129D01*
X141775382Y-102723549D01*
X141624398Y-102622893D01*
X141473491Y-102723549D01*
X141355149Y-102723549D01*
X141358093Y-102702596D01*
X141372797Y-102674138D01*
X141397107Y-102652438D01*
X141525525Y-102572642D01*
X141393695Y-102487650D01*
X141369255Y-102465498D01*
X141354608Y-102437243D01*
X141351896Y-102418246D01*
X141470001Y-102418246D01*
X141624398Y-102519677D01*
X141778871Y-102418246D01*
X141778871Y-101969636D01*
X141470001Y-101969636D01*
X141470001Y-102418246D01*
X141351896Y-102418246D01*
X141349416Y-102400875D01*
X141349416Y-101961106D01*
X141356268Y-101920088D01*
X141375859Y-101888522D01*
X141405881Y-101867646D01*
X141444798Y-101860450D01*
X141802291Y-101860450D01*
X141841437Y-101867602D01*
G37*
G36*
X138645924Y-101867630D02*
G01*
X138676330Y-101888522D01*
X138696281Y-101920126D01*
X138703239Y-101961106D01*
X138703239Y-102474467D01*
X138698506Y-102497518D01*
X138684303Y-102516245D01*
X138658107Y-102531697D01*
X138555745Y-102575124D01*
X138651205Y-102614207D01*
X138679994Y-102633778D01*
X138695007Y-102654001D01*
X138699750Y-102675780D01*
X138699750Y-103119659D01*
X138692789Y-103160626D01*
X138672841Y-103192166D01*
X138642428Y-103213118D01*
X138603436Y-103220316D01*
X138159246Y-103220316D01*
X138159246Y-103111129D01*
X138279910Y-103111129D01*
X138578311Y-103111129D01*
X138578311Y-102705635D01*
X138457725Y-102624754D01*
X138279910Y-102624754D01*
X138279910Y-103111129D01*
X138159246Y-103111129D01*
X138159246Y-102520530D01*
X138279910Y-102520530D01*
X138459431Y-102520530D01*
X138581801Y-102440502D01*
X138581801Y-101969636D01*
X138279910Y-101969636D01*
X138279910Y-102520530D01*
X138159246Y-102520530D01*
X138159246Y-101860450D01*
X138606926Y-101860450D01*
X138645924Y-101867630D01*
G37*
G36*
X139405583Y-103157890D02*
G01*
X139114084Y-101860450D01*
X138995204Y-101860450D01*
X139278018Y-103111129D01*
X138988302Y-103111129D01*
X138988302Y-102912609D01*
X138867717Y-102912609D01*
X138867717Y-103220316D01*
X139405583Y-103220316D01*
X139405583Y-103157890D01*
G37*
G36*
X136091331Y-101867630D02*
G01*
X136121737Y-101888522D01*
X136141688Y-101920126D01*
X136148646Y-101961106D01*
X136148646Y-102474467D01*
X136143913Y-102497518D01*
X136129710Y-102516245D01*
X136103514Y-102531697D01*
X136001152Y-102575124D01*
X136096612Y-102614207D01*
X136125401Y-102633778D01*
X136140414Y-102654001D01*
X136145157Y-102675780D01*
X136145157Y-103119659D01*
X136138196Y-103160626D01*
X136118248Y-103192166D01*
X136087835Y-103213118D01*
X136048843Y-103220316D01*
X135604653Y-103220316D01*
X135604653Y-103111129D01*
X135725317Y-103111129D01*
X136023718Y-103111129D01*
X136023718Y-102705635D01*
X135903132Y-102624754D01*
X135725317Y-102624754D01*
X135725317Y-103111129D01*
X135604653Y-103111129D01*
X135604653Y-102520530D01*
X135725317Y-102520530D01*
X135904838Y-102520530D01*
X136027208Y-102440502D01*
X136027208Y-101969636D01*
X135725317Y-101969636D01*
X135725317Y-102520530D01*
X135604653Y-102520530D01*
X135604653Y-101860450D01*
X136052333Y-101860450D01*
X136091331Y-101867630D01*
G37*
G36*
X136840433Y-101867646D02*
G01*
X136870455Y-101888522D01*
X136890106Y-101920094D01*
X136896976Y-101961106D01*
X136896976Y-102509209D01*
X136890083Y-102550516D01*
X136870455Y-102581948D01*
X136840446Y-102602703D01*
X136801515Y-102609865D01*
X136479695Y-102609865D01*
X136479695Y-103111129D01*
X136772900Y-103111129D01*
X136772900Y-102823274D01*
X136893486Y-102823274D01*
X136893486Y-103119659D01*
X136886614Y-103160658D01*
X136866965Y-103192166D01*
X136836937Y-103213102D01*
X136798026Y-103220316D01*
X136455345Y-103220316D01*
X136416353Y-103213118D01*
X136385940Y-103192166D01*
X136365992Y-103160626D01*
X136359032Y-103119659D01*
X136359032Y-102505641D01*
X136479695Y-102505641D01*
X136776390Y-102505641D01*
X136776390Y-101969636D01*
X136479695Y-101969636D01*
X136479695Y-102505641D01*
X136359032Y-102505641D01*
X136359032Y-101961106D01*
X136365990Y-101920126D01*
X136385940Y-101888522D01*
X136416347Y-101867630D01*
X136455345Y-101860450D01*
X136801515Y-101860450D01*
X136840433Y-101867646D01*
G37*
G36*
X133602497Y-101867630D02*
G01*
X133632903Y-101888522D01*
X133652854Y-101920126D01*
X133659812Y-101961106D01*
X133659812Y-102474467D01*
X133655079Y-102497518D01*
X133640876Y-102516245D01*
X133614680Y-102531697D01*
X133512318Y-102575124D01*
X133607778Y-102614207D01*
X133636567Y-102633778D01*
X133651580Y-102654001D01*
X133656323Y-102675780D01*
X133656323Y-103119659D01*
X133649362Y-103160626D01*
X133629414Y-103192166D01*
X133599001Y-103213118D01*
X133560009Y-103220316D01*
X133115819Y-103220316D01*
X133115819Y-103111129D01*
X133236483Y-103111129D01*
X133534884Y-103111129D01*
X133534884Y-102705635D01*
X133414298Y-102624754D01*
X133236483Y-102624754D01*
X133236483Y-103111129D01*
X133115819Y-103111129D01*
X133115819Y-102520530D01*
X133236483Y-102520530D01*
X133416004Y-102520530D01*
X133538374Y-102440502D01*
X133538374Y-101969636D01*
X133236483Y-101969636D01*
X133236483Y-102520530D01*
X133115819Y-102520530D01*
X133115819Y-101860450D01*
X133563499Y-101860450D01*
X133602497Y-101867630D01*
G37*
G36*
X134392477Y-101961106D02*
G01*
X134385519Y-101920126D01*
X134365568Y-101888522D01*
X134335226Y-101867633D01*
X134296241Y-101860450D01*
X133962168Y-101860450D01*
X133923251Y-101867646D01*
X133893229Y-101888522D01*
X133873638Y-101920088D01*
X133866786Y-101961106D01*
X133866786Y-102297195D01*
X133987371Y-102297195D01*
X133987371Y-101969636D01*
X134271892Y-101969636D01*
X134271892Y-102604902D01*
X133870198Y-102604902D01*
X133885862Y-103220316D01*
X134382086Y-103220316D01*
X134382086Y-103111129D01*
X134003811Y-103111129D01*
X133989077Y-102714088D01*
X134296241Y-102714088D01*
X134335367Y-102707287D01*
X134365568Y-102687722D01*
X134385572Y-102658042D01*
X134392477Y-102619791D01*
X134392477Y-101961106D01*
G37*
G36*
X131127933Y-101867630D02*
G01*
X131158339Y-101888522D01*
X131178290Y-101920126D01*
X131185248Y-101961106D01*
X131185248Y-102474467D01*
X131180515Y-102497518D01*
X131166312Y-102516245D01*
X131140116Y-102531697D01*
X131037754Y-102575124D01*
X131133214Y-102614207D01*
X131162003Y-102633778D01*
X131177016Y-102654001D01*
X131181759Y-102675780D01*
X131181759Y-103119659D01*
X131174798Y-103160626D01*
X131154850Y-103192166D01*
X131124437Y-103213118D01*
X131085445Y-103220316D01*
X130641255Y-103220316D01*
X130641255Y-103111129D01*
X130761919Y-103111129D01*
X131060320Y-103111129D01*
X131060320Y-102705635D01*
X130939734Y-102624754D01*
X130761919Y-102624754D01*
X130761919Y-103111129D01*
X130641255Y-103111129D01*
X130641255Y-102520530D01*
X130761919Y-102520530D01*
X130941440Y-102520530D01*
X131063810Y-102440502D01*
X131063810Y-101969636D01*
X130761919Y-101969636D01*
X130761919Y-102520530D01*
X130641255Y-102520530D01*
X130641255Y-101860450D01*
X131088935Y-101860450D01*
X131127933Y-101867630D01*
G37*
G36*
X131924893Y-102212824D02*
G01*
X131821677Y-102212824D01*
X131821677Y-101860450D01*
X131707993Y-101860450D01*
X131707993Y-102212824D01*
X131324523Y-102212824D01*
X131324523Y-102274629D01*
X131653323Y-103220316D01*
X131767007Y-103220316D01*
X131767007Y-103215120D01*
X131454647Y-102317047D01*
X131707993Y-102317047D01*
X131707993Y-102813348D01*
X131821677Y-102813348D01*
X131821677Y-102317047D01*
X131924893Y-102317047D01*
X131924893Y-102212824D01*
G37*
G36*
X128593192Y-101867630D02*
G01*
X128623598Y-101888522D01*
X128643549Y-101920126D01*
X128650507Y-101961106D01*
X128650507Y-102474467D01*
X128645774Y-102497518D01*
X128631571Y-102516245D01*
X128605375Y-102531697D01*
X128503013Y-102575124D01*
X128598473Y-102614207D01*
X128627262Y-102633778D01*
X128642275Y-102654001D01*
X128647018Y-102675780D01*
X128647018Y-103119659D01*
X128640057Y-103160626D01*
X128620109Y-103192166D01*
X128589696Y-103213118D01*
X128550704Y-103220316D01*
X128106514Y-103220316D01*
X128106514Y-103111129D01*
X128227178Y-103111129D01*
X128525579Y-103111129D01*
X128525579Y-102705635D01*
X128404993Y-102624754D01*
X128227178Y-102624754D01*
X128227178Y-103111129D01*
X128106514Y-103111129D01*
X128106514Y-102520530D01*
X128227178Y-102520530D01*
X128406699Y-102520530D01*
X128529069Y-102440502D01*
X128529069Y-101969636D01*
X128227178Y-101969636D01*
X128227178Y-102520530D01*
X128106514Y-102520530D01*
X128106514Y-101860450D01*
X128554194Y-101860450D01*
X128593192Y-101867630D01*
G37*
G36*
X129403179Y-101961106D02*
G01*
X129396221Y-101920126D01*
X129376271Y-101888522D01*
X129345864Y-101867630D01*
X129306866Y-101860450D01*
X128957206Y-101860450D01*
X128918208Y-101867630D01*
X128887801Y-101888522D01*
X128867851Y-101920126D01*
X128860893Y-101961106D01*
X128860893Y-102302158D01*
X128981556Y-102302158D01*
X128981556Y-101969636D01*
X129281663Y-101969636D01*
X129281663Y-102384125D01*
X129042275Y-102563724D01*
X129042275Y-102590633D01*
X129279957Y-102767596D01*
X129279957Y-103111129D01*
X128983262Y-103111129D01*
X128983262Y-102808385D01*
X128862676Y-102808385D01*
X128862676Y-103119659D01*
X128869637Y-103160626D01*
X128889585Y-103192166D01*
X128919998Y-103213118D01*
X128958990Y-103220316D01*
X129305082Y-103220316D01*
X129344075Y-103213118D01*
X129374487Y-103192166D01*
X129394435Y-103160626D01*
X129401396Y-103119659D01*
X129401396Y-102792721D01*
X129395462Y-102752042D01*
X129378375Y-102718830D01*
X129349362Y-102691212D01*
X129187986Y-102577605D01*
X129351145Y-102463921D01*
X129379965Y-102436784D01*
X129397141Y-102403095D01*
X129403179Y-102360706D01*
X129403179Y-101961106D01*
G37*
G36*
X125317198Y-102158230D02*
G01*
X125587062Y-102158230D01*
X125634753Y-101860450D01*
X125754486Y-101860450D01*
X125514167Y-103220316D01*
X125395288Y-103220316D01*
X125225258Y-102267417D01*
X125332862Y-102267417D01*
X125452595Y-103003339D01*
X125571397Y-102267417D01*
X125332862Y-102267417D01*
X125225258Y-102267417D01*
X125153263Y-101863939D01*
X125153263Y-101860450D01*
X125269506Y-101860450D01*
X125317198Y-102158230D01*
G37*
G36*
X126053352Y-101860450D02*
G01*
X125931836Y-101860450D01*
X125931836Y-102803422D01*
X125878949Y-102803422D01*
X125878949Y-102805904D01*
X125955333Y-103220316D01*
X126053352Y-103220316D01*
X126053352Y-101860450D01*
G37*
G36*
X126801294Y-101961106D02*
G01*
X126794336Y-101920126D01*
X126774385Y-101888522D01*
X126744043Y-101867633D01*
X126705058Y-101860450D01*
X126370985Y-101860450D01*
X126332068Y-101867646D01*
X126302046Y-101888522D01*
X126282454Y-101920088D01*
X126275602Y-101961106D01*
X126275602Y-102297195D01*
X126396188Y-102297195D01*
X126396188Y-101969636D01*
X126680709Y-101969636D01*
X126680709Y-102604902D01*
X126279015Y-102604902D01*
X126294679Y-103220316D01*
X126790903Y-103220316D01*
X126790903Y-103111129D01*
X126412628Y-103111129D01*
X126397894Y-102714088D01*
X126705058Y-102714088D01*
X126744183Y-102707287D01*
X126774385Y-102687722D01*
X126794389Y-102658042D01*
X126801294Y-102619791D01*
X126801294Y-101961106D01*
G37*
G36*
X122727255Y-102158230D02*
G01*
X122997119Y-102158230D01*
X123044810Y-101860450D01*
X123164543Y-101860450D01*
X122924224Y-103220316D01*
X122805345Y-103220316D01*
X122635315Y-102267417D01*
X122742919Y-102267417D01*
X122862652Y-103003339D01*
X122981454Y-102267417D01*
X122742919Y-102267417D01*
X122635315Y-102267417D01*
X122563320Y-101863939D01*
X122563320Y-101860450D01*
X122679563Y-101860450D01*
X122727255Y-102158230D01*
G37*
G36*
X123823523Y-101867602D02*
G01*
X123854635Y-101888522D01*
X123875245Y-101920195D01*
X123882396Y-101961106D01*
X123882396Y-103119659D01*
X123875242Y-103160556D01*
X123854635Y-103192166D01*
X123823517Y-103213146D01*
X123784377Y-103220316D01*
X123424326Y-103220316D01*
X123385334Y-103213118D01*
X123354921Y-103192166D01*
X123334973Y-103160626D01*
X123328012Y-103119659D01*
X123328012Y-103111129D01*
X123448675Y-103111129D01*
X123761811Y-103111129D01*
X123761811Y-101969636D01*
X123448675Y-101969636D01*
X123448675Y-103111129D01*
X123328012Y-103111129D01*
X123328012Y-101961106D01*
X123334970Y-101920126D01*
X123354921Y-101888522D01*
X123385327Y-101867630D01*
X123424326Y-101860450D01*
X123784377Y-101860450D01*
X123823523Y-101867602D01*
G37*
G36*
X120266339Y-102158230D02*
G01*
X120536203Y-102158230D01*
X120583894Y-101860450D01*
X120703627Y-101860450D01*
X120463308Y-103220316D01*
X120344429Y-103220316D01*
X120174399Y-102267417D01*
X120282003Y-102267417D01*
X120401736Y-103003339D01*
X120520538Y-102267417D01*
X120282003Y-102267417D01*
X120174399Y-102267417D01*
X120102404Y-101863939D01*
X120102404Y-101860450D01*
X120218647Y-101860450D01*
X120266339Y-102158230D01*
G37*
G36*
X121372083Y-101860450D02*
G01*
X120833286Y-101860450D01*
X120833286Y-101924969D01*
X121248861Y-102788146D01*
X121248861Y-103111129D01*
X120972095Y-103111129D01*
X120972095Y-102808385D01*
X120850656Y-102808385D01*
X120850656Y-103119659D01*
X120857617Y-103160626D01*
X120877565Y-103192166D01*
X120907978Y-103213118D01*
X120946970Y-103220316D01*
X121273986Y-103220316D01*
X121312978Y-103213118D01*
X121343391Y-103192166D01*
X121363339Y-103160626D01*
X121370299Y-103119659D01*
X121370299Y-102836302D01*
X121363000Y-102783311D01*
X121338195Y-102717423D01*
X120979074Y-101969636D01*
X121372083Y-101969636D01*
X121372083Y-101860450D01*
G37*
D11*
G36*
X116528049Y-101968007D02*
G01*
X116520170Y-101920336D01*
X116498750Y-101888484D01*
X116462718Y-101868238D01*
X116405757Y-101860450D01*
X115989329Y-101860450D01*
X115933309Y-101868190D01*
X115897769Y-101888357D01*
X115876563Y-101920202D01*
X115868743Y-101968007D01*
X115868743Y-102297195D01*
X116068272Y-102297195D01*
X116068272Y-102034155D01*
X116329373Y-102034155D01*
X116329373Y-102375672D01*
X116080369Y-102546819D01*
X116080369Y-102589392D01*
X116329373Y-102758678D01*
X116329373Y-103046610D01*
X116068272Y-103046610D01*
X116068272Y-102798459D01*
X115868743Y-102798459D01*
X115868743Y-103112758D01*
X115876651Y-103160362D01*
X115898177Y-103192219D01*
X115934455Y-103212503D01*
X115991888Y-103220316D01*
X116405757Y-103220316D01*
X116462718Y-103212527D01*
X116498750Y-103192281D01*
X116520170Y-103160429D01*
X116528049Y-103112758D01*
X116528049Y-102777832D01*
X116520359Y-102726688D01*
X116498187Y-102685099D01*
X116460350Y-102650654D01*
X116334569Y-102567679D01*
X116462133Y-102486410D01*
X116498704Y-102454151D01*
X116520409Y-102413533D01*
X116528049Y-102361792D01*
X116528049Y-101968007D01*
G37*
G36*
X117362223Y-103220316D02*
G01*
X117101897Y-101860450D01*
X116899809Y-101860450D01*
X116640414Y-103220316D01*
X116844286Y-103220316D01*
X116996123Y-102289207D01*
X117001319Y-102172887D01*
X117006514Y-102289207D01*
X117159204Y-103220316D01*
X117362223Y-103220316D01*
G37*
G36*
X118136065Y-101968007D02*
G01*
X118128187Y-101920336D01*
X118106767Y-101888484D01*
X118070735Y-101868238D01*
X118013773Y-101860450D01*
X117597346Y-101860450D01*
X117541325Y-101868190D01*
X117505786Y-101888357D01*
X117484580Y-101920202D01*
X117476760Y-101968007D01*
X117476760Y-102297195D01*
X117676289Y-102297195D01*
X117676289Y-102034155D01*
X117937390Y-102034155D01*
X117937390Y-102375672D01*
X117688386Y-102546819D01*
X117688386Y-102589392D01*
X117937390Y-102758678D01*
X117937390Y-103046610D01*
X117676289Y-103046610D01*
X117676289Y-102798459D01*
X117476760Y-102798459D01*
X117476760Y-103112758D01*
X117484667Y-103160362D01*
X117506194Y-103192219D01*
X117542472Y-103212503D01*
X117599905Y-103220316D01*
X118013773Y-103220316D01*
X118070735Y-103212527D01*
X118106767Y-103192281D01*
X118128187Y-103160429D01*
X118136065Y-103112758D01*
X118136065Y-102777832D01*
X118128376Y-102726688D01*
X118106204Y-102685099D01*
X118068367Y-102650654D01*
X117942585Y-102567679D01*
X118070150Y-102486410D01*
X118106721Y-102454151D01*
X118128425Y-102413533D01*
X118136065Y-102361792D01*
X118136065Y-101968007D01*
G37*
G36*
X112336166Y-101968007D02*
G01*
X112328227Y-101920475D01*
X112306585Y-101888614D01*
X112270039Y-101868288D01*
X112212091Y-101860450D01*
X111785272Y-101860450D01*
X111729252Y-101868190D01*
X111693712Y-101888357D01*
X111672506Y-101920202D01*
X111664686Y-101968007D01*
X111664686Y-103112758D01*
X111672594Y-103160362D01*
X111694120Y-103192219D01*
X111730398Y-103212503D01*
X111787831Y-103220316D01*
X112212091Y-103220316D01*
X112270039Y-103212477D01*
X112306585Y-103192151D01*
X112328227Y-103160290D01*
X112336166Y-103112758D01*
X112336166Y-102803422D01*
X112132295Y-102803422D01*
X112132295Y-103046610D01*
X111867704Y-103046610D01*
X111867704Y-102034155D01*
X112132295Y-102034155D01*
X112132295Y-102416307D01*
X111981311Y-102416307D01*
X111981311Y-102590013D01*
X112336166Y-102590013D01*
X112336166Y-101968007D01*
G37*
G36*
X107932069Y-101968007D02*
G01*
X107924159Y-101920409D01*
X107902623Y-101888552D01*
X107866323Y-101868264D01*
X107808847Y-101860450D01*
X107401957Y-101860450D01*
X107345937Y-101868190D01*
X107310397Y-101888357D01*
X107289191Y-101920202D01*
X107281371Y-101968007D01*
X107281371Y-102302158D01*
X107480900Y-102302158D01*
X107480900Y-102034155D01*
X107732541Y-102034155D01*
X107732541Y-102560235D01*
X107281371Y-102560235D01*
X107303085Y-103220316D01*
X107922531Y-103220316D01*
X107922531Y-103041647D01*
X107491369Y-103041647D01*
X107478341Y-102733940D01*
X107808847Y-102733940D01*
X107866323Y-102726125D01*
X107902623Y-102705838D01*
X107924159Y-102673981D01*
X107932069Y-102626382D01*
X107932069Y-101968007D01*
G37*
G36*
X108765468Y-103220316D02*
G01*
X108505142Y-101860450D01*
X108303055Y-101860450D01*
X108043660Y-103220316D01*
X108247531Y-103220316D01*
X108399368Y-102289207D01*
X108404564Y-102172887D01*
X108409759Y-102289207D01*
X108562450Y-103220316D01*
X108765468Y-103220316D01*
G37*
D13*
X153000000Y-103275000D02*
X153000000Y-101500000D01*
X153000000Y-103275000D02*
X153000000Y-101500000D01*
X153000000Y-103275000D02*
X153000000Y-101500000D01*
X147500000Y-103275000D02*
X147500000Y-101500000D01*
X145000000Y-103275000D02*
X145000000Y-101500000D01*
X142500000Y-103275000D02*
X142500000Y-101500000D01*
X140000000Y-103275000D02*
X140000000Y-101500000D01*
X137500000Y-103275000D02*
X137500000Y-101500000D01*
X135000000Y-103275000D02*
X135000000Y-101500000D01*
X132500000Y-103275000D02*
X132500000Y-101500000D01*
X130000000Y-103275000D02*
X130000000Y-101500000D01*
X127500000Y-103275000D02*
X127500000Y-101500000D01*
X124500000Y-103275000D02*
X124500000Y-101500000D01*
X122000000Y-103275000D02*
X122000000Y-101500000D01*
X119500000Y-103275000D02*
X119500000Y-101500000D01*
X114500000Y-103275000D02*
X114500000Y-101500000D01*
X109500000Y-103275000D02*
X109500000Y-101500000D01*
X153000000Y-103275000D02*
X106500000Y-103275000D01*
X106500000Y-103275000D02*
X106500000Y-101500000D01*
X106500000Y-101500000D02*
X153000000Y-101500000D01*
X153000000Y-101500000D02*
X153000000Y-103275000D01*
D12*
G36*
X150988422Y-79883230D02*
G01*
X151258286Y-79883230D01*
X151305977Y-79585450D01*
X151425710Y-79585450D01*
X151185391Y-80945316D01*
X151066512Y-80945316D01*
X150896482Y-79992417D01*
X151004086Y-79992417D01*
X151123819Y-80728339D01*
X151242621Y-79992417D01*
X151004086Y-79992417D01*
X150896482Y-79992417D01*
X150824487Y-79588939D01*
X150824487Y-79585450D01*
X150940730Y-79585450D01*
X150988422Y-79883230D01*
G37*
G36*
X152131466Y-79686106D02*
G01*
X152124508Y-79645126D01*
X152104557Y-79613522D01*
X152074151Y-79592630D01*
X152035153Y-79585450D01*
X151685493Y-79585450D01*
X151646494Y-79592630D01*
X151616088Y-79613522D01*
X151596137Y-79645126D01*
X151589179Y-79686106D01*
X151589179Y-80027158D01*
X151709842Y-80027158D01*
X151709842Y-79694636D01*
X152009950Y-79694636D01*
X152009950Y-80109125D01*
X151770562Y-80288724D01*
X151770562Y-80315633D01*
X152008244Y-80492596D01*
X152008244Y-80836129D01*
X151711549Y-80836129D01*
X151711549Y-80533385D01*
X151590963Y-80533385D01*
X151590963Y-80844659D01*
X151597924Y-80885626D01*
X151617872Y-80917166D01*
X151648284Y-80938118D01*
X151687276Y-80945316D01*
X152033369Y-80945316D01*
X152072361Y-80938118D01*
X152102774Y-80917166D01*
X152122722Y-80885626D01*
X152129683Y-80844659D01*
X152129683Y-80517721D01*
X152123749Y-80477042D01*
X152106662Y-80443830D01*
X152077648Y-80416212D01*
X151916273Y-80302605D01*
X152079432Y-80188921D01*
X152108252Y-80161784D01*
X152125428Y-80128095D01*
X152131466Y-80085706D01*
X152131466Y-79686106D01*
G37*
G36*
X148273163Y-79883230D02*
G01*
X148543027Y-79883230D01*
X148590718Y-79585450D01*
X148710451Y-79585450D01*
X148470132Y-80945316D01*
X148351253Y-80945316D01*
X148181223Y-79992417D01*
X148288827Y-79992417D01*
X148408560Y-80728339D01*
X148527362Y-79992417D01*
X148288827Y-79992417D01*
X148181223Y-79992417D01*
X148109228Y-79588939D01*
X148109228Y-79585450D01*
X148225471Y-79585450D01*
X148273163Y-79883230D01*
G37*
G36*
X149403179Y-79937824D02*
G01*
X149299964Y-79937824D01*
X149299964Y-79585450D01*
X149186280Y-79585450D01*
X149186280Y-79937824D01*
X148802810Y-79937824D01*
X148802810Y-79999629D01*
X149131609Y-80945316D01*
X149245293Y-80945316D01*
X149245293Y-80940120D01*
X148932934Y-80042047D01*
X149186280Y-80042047D01*
X149186280Y-80538348D01*
X149299964Y-80538348D01*
X149299964Y-80042047D01*
X149403179Y-80042047D01*
X149403179Y-79937824D01*
G37*
G36*
X145747728Y-79883230D02*
G01*
X146017592Y-79883230D01*
X146065283Y-79585450D01*
X146185016Y-79585450D01*
X145944697Y-80945316D01*
X145825818Y-80945316D01*
X145655788Y-79992417D01*
X145763392Y-79992417D01*
X145883125Y-80728339D01*
X146001927Y-79992417D01*
X145763392Y-79992417D01*
X145655788Y-79992417D01*
X145583793Y-79588939D01*
X145583793Y-79585450D01*
X145700036Y-79585450D01*
X145747728Y-79883230D01*
G37*
G36*
X146870765Y-79686106D02*
G01*
X146863807Y-79645126D01*
X146843856Y-79613522D01*
X146813514Y-79592633D01*
X146774529Y-79585450D01*
X146440456Y-79585450D01*
X146401539Y-79592646D01*
X146371517Y-79613522D01*
X146351925Y-79645088D01*
X146345073Y-79686106D01*
X146345073Y-80022195D01*
X146465659Y-80022195D01*
X146465659Y-79694636D01*
X146750179Y-79694636D01*
X146750179Y-80329902D01*
X146348485Y-80329902D01*
X146364150Y-80945316D01*
X146860374Y-80945316D01*
X146860374Y-80836129D01*
X146482099Y-80836129D01*
X146467365Y-80439088D01*
X146774529Y-80439088D01*
X146813654Y-80432287D01*
X146843856Y-80412722D01*
X146863859Y-80383042D01*
X146870765Y-80344791D01*
X146870765Y-79686106D01*
G37*
G36*
X143236561Y-79883230D02*
G01*
X143506425Y-79883230D01*
X143554116Y-79585450D01*
X143673849Y-79585450D01*
X143433530Y-80945316D01*
X143314651Y-80945316D01*
X143144621Y-79992417D01*
X143252225Y-79992417D01*
X143371958Y-80728339D01*
X143490760Y-79992417D01*
X143252225Y-79992417D01*
X143144621Y-79992417D01*
X143072626Y-79588939D01*
X143072626Y-79585450D01*
X143188869Y-79585450D01*
X143236561Y-79883230D01*
G37*
G36*
X144318719Y-79592646D02*
G01*
X144348741Y-79613522D01*
X144368393Y-79645094D01*
X144375262Y-79686106D01*
X144375262Y-80234209D01*
X144368369Y-80275516D01*
X144348741Y-80306948D01*
X144318732Y-80327703D01*
X144279802Y-80334865D01*
X143957981Y-80334865D01*
X143957981Y-80836129D01*
X144251187Y-80836129D01*
X144251187Y-80548274D01*
X144371773Y-80548274D01*
X144371773Y-80844659D01*
X144364900Y-80885658D01*
X144345252Y-80917166D01*
X144315223Y-80938102D01*
X144276312Y-80945316D01*
X143933632Y-80945316D01*
X143894640Y-80938118D01*
X143864227Y-80917166D01*
X143844279Y-80885626D01*
X143837318Y-80844659D01*
X143837318Y-80230641D01*
X143957981Y-80230641D01*
X144254677Y-80230641D01*
X144254677Y-79694636D01*
X143957981Y-79694636D01*
X143957981Y-80230641D01*
X143837318Y-80230641D01*
X143837318Y-79686106D01*
X143844276Y-79645126D01*
X143864227Y-79613522D01*
X143894633Y-79592630D01*
X143933632Y-79585450D01*
X144279802Y-79585450D01*
X144318719Y-79592646D01*
G37*
G36*
X140791154Y-79883230D02*
G01*
X141061018Y-79883230D01*
X141108709Y-79585450D01*
X141228442Y-79585450D01*
X140988123Y-80945316D01*
X140869244Y-80945316D01*
X140699214Y-79992417D01*
X140806818Y-79992417D01*
X140926551Y-80728339D01*
X141045353Y-79992417D01*
X140806818Y-79992417D01*
X140699214Y-79992417D01*
X140627219Y-79588939D01*
X140627219Y-79585450D01*
X140743462Y-79585450D01*
X140791154Y-79883230D01*
G37*
G36*
X141883870Y-80882890D02*
G01*
X141592370Y-79585450D01*
X141473491Y-79585450D01*
X141756305Y-80836129D01*
X141466589Y-80836129D01*
X141466589Y-80637609D01*
X141346003Y-80637609D01*
X141346003Y-80945316D01*
X141883870Y-80945316D01*
X141883870Y-80882890D01*
G37*
G36*
X138582025Y-79592630D02*
G01*
X138612431Y-79613522D01*
X138632382Y-79645126D01*
X138639340Y-79686106D01*
X138639340Y-80199467D01*
X138634607Y-80222518D01*
X138620404Y-80241245D01*
X138594208Y-80256697D01*
X138491846Y-80300124D01*
X138587306Y-80339207D01*
X138616095Y-80358778D01*
X138631108Y-80379001D01*
X138635851Y-80400780D01*
X138635851Y-80844659D01*
X138628890Y-80885626D01*
X138608942Y-80917166D01*
X138578529Y-80938118D01*
X138539537Y-80945316D01*
X138095347Y-80945316D01*
X138095347Y-80836129D01*
X138216011Y-80836129D01*
X138514412Y-80836129D01*
X138514412Y-80430635D01*
X138393826Y-80349754D01*
X138216011Y-80349754D01*
X138216011Y-80836129D01*
X138095347Y-80836129D01*
X138095347Y-80245530D01*
X138216011Y-80245530D01*
X138395532Y-80245530D01*
X138517902Y-80165502D01*
X138517902Y-79694636D01*
X138216011Y-79694636D01*
X138216011Y-80245530D01*
X138095347Y-80245530D01*
X138095347Y-79585450D01*
X138543027Y-79585450D01*
X138582025Y-79592630D01*
G37*
G36*
X139345237Y-79592602D02*
G01*
X139376348Y-79613522D01*
X139396958Y-79645195D01*
X139404110Y-79686106D01*
X139404110Y-80844659D01*
X139396956Y-80885556D01*
X139376348Y-80917166D01*
X139345230Y-80938146D01*
X139306090Y-80945316D01*
X138946039Y-80945316D01*
X138907047Y-80938118D01*
X138876634Y-80917166D01*
X138856686Y-80885626D01*
X138849726Y-80844659D01*
X138849726Y-80836129D01*
X138970389Y-80836129D01*
X139283524Y-80836129D01*
X139283524Y-79694636D01*
X138970389Y-79694636D01*
X138970389Y-80836129D01*
X138849726Y-80836129D01*
X138849726Y-79686106D01*
X138856684Y-79645126D01*
X138876634Y-79613522D01*
X138907041Y-79592630D01*
X138946039Y-79585450D01*
X139306090Y-79585450D01*
X139345237Y-79592602D01*
G37*
G36*
X136287370Y-79592630D02*
G01*
X136317776Y-79613522D01*
X136337727Y-79645126D01*
X136344685Y-79686106D01*
X136344685Y-80199467D01*
X136339952Y-80222518D01*
X136325749Y-80241245D01*
X136299553Y-80256697D01*
X136197191Y-80300124D01*
X136292651Y-80339207D01*
X136321440Y-80358778D01*
X136336453Y-80379001D01*
X136341196Y-80400780D01*
X136341196Y-80844659D01*
X136334235Y-80885626D01*
X136314287Y-80917166D01*
X136283874Y-80938118D01*
X136244882Y-80945316D01*
X135800692Y-80945316D01*
X135800692Y-80836129D01*
X135921356Y-80836129D01*
X136219757Y-80836129D01*
X136219757Y-80430635D01*
X136099171Y-80349754D01*
X135921356Y-80349754D01*
X135921356Y-80836129D01*
X135800692Y-80836129D01*
X135800692Y-80245530D01*
X135921356Y-80245530D01*
X136100877Y-80245530D01*
X136223247Y-80165502D01*
X136223247Y-79694636D01*
X135921356Y-79694636D01*
X135921356Y-80245530D01*
X135800692Y-80245530D01*
X135800692Y-79585450D01*
X136248372Y-79585450D01*
X136287370Y-79592630D01*
G37*
G36*
X136690468Y-79585450D02*
G01*
X136568952Y-79585450D01*
X136568952Y-80528422D01*
X136516064Y-80528422D01*
X136516064Y-80530904D01*
X136592448Y-80945316D01*
X136690468Y-80945316D01*
X136690468Y-79585450D01*
G37*
G36*
X133401495Y-79592630D02*
G01*
X133431901Y-79613522D01*
X133451852Y-79645126D01*
X133458810Y-79686106D01*
X133458810Y-80199467D01*
X133454077Y-80222518D01*
X133439874Y-80241245D01*
X133413678Y-80256697D01*
X133311316Y-80300124D01*
X133406776Y-80339207D01*
X133435565Y-80358778D01*
X133450578Y-80379001D01*
X133455321Y-80400780D01*
X133455321Y-80844659D01*
X133448360Y-80885626D01*
X133428412Y-80917166D01*
X133397999Y-80938118D01*
X133359007Y-80945316D01*
X132914817Y-80945316D01*
X132914817Y-80836129D01*
X133035481Y-80836129D01*
X133333882Y-80836129D01*
X133333882Y-80430635D01*
X133213296Y-80349754D01*
X133035481Y-80349754D01*
X133035481Y-80836129D01*
X132914817Y-80836129D01*
X132914817Y-80245530D01*
X133035481Y-80245530D01*
X133215002Y-80245530D01*
X133337372Y-80165502D01*
X133337372Y-79694636D01*
X133035481Y-79694636D01*
X133035481Y-80245530D01*
X132914817Y-80245530D01*
X132914817Y-79585450D01*
X133362497Y-79585450D01*
X133401495Y-79592630D01*
G37*
G36*
X133804593Y-79585450D02*
G01*
X133683077Y-79585450D01*
X133683077Y-80528422D01*
X133630189Y-80528422D01*
X133630189Y-80530904D01*
X133706573Y-80945316D01*
X133804593Y-80945316D01*
X133804593Y-79585450D01*
G37*
G36*
X134525766Y-79592602D02*
G01*
X134556877Y-79613522D01*
X134577487Y-79645195D01*
X134584639Y-79686106D01*
X134584639Y-80844659D01*
X134577485Y-80885556D01*
X134556877Y-80917166D01*
X134525760Y-80938146D01*
X134486620Y-80945316D01*
X134126568Y-80945316D01*
X134087576Y-80938118D01*
X134057164Y-80917166D01*
X134037216Y-80885626D01*
X134030255Y-80844659D01*
X134030255Y-80836129D01*
X134150918Y-80836129D01*
X134464053Y-80836129D01*
X134464053Y-79694636D01*
X134150918Y-79694636D01*
X134150918Y-80836129D01*
X134030255Y-80836129D01*
X134030255Y-79686106D01*
X134037213Y-79645126D01*
X134057164Y-79613522D01*
X134087570Y-79592630D01*
X134126568Y-79585450D01*
X134486620Y-79585450D01*
X134525766Y-79592602D01*
G37*
G36*
X131106840Y-79592630D02*
G01*
X131137246Y-79613522D01*
X131157197Y-79645126D01*
X131164155Y-79686106D01*
X131164155Y-80199467D01*
X131159422Y-80222518D01*
X131145219Y-80241245D01*
X131119023Y-80256697D01*
X131016661Y-80300124D01*
X131112121Y-80339207D01*
X131140910Y-80358778D01*
X131155923Y-80379001D01*
X131160666Y-80400780D01*
X131160666Y-80844659D01*
X131153705Y-80885626D01*
X131133757Y-80917166D01*
X131103344Y-80938118D01*
X131064352Y-80945316D01*
X130620162Y-80945316D01*
X130620162Y-80836129D01*
X130740826Y-80836129D01*
X131039227Y-80836129D01*
X131039227Y-80430635D01*
X130918641Y-80349754D01*
X130740826Y-80349754D01*
X130740826Y-80836129D01*
X130620162Y-80836129D01*
X130620162Y-80245530D01*
X130740826Y-80245530D01*
X130920347Y-80245530D01*
X131042717Y-80165502D01*
X131042717Y-79694636D01*
X130740826Y-79694636D01*
X130740826Y-80245530D01*
X130620162Y-80245530D01*
X130620162Y-79585450D01*
X131067842Y-79585450D01*
X131106840Y-79592630D01*
G37*
G36*
X131509938Y-79585450D02*
G01*
X131388422Y-79585450D01*
X131388422Y-80528422D01*
X131335534Y-80528422D01*
X131335534Y-80530904D01*
X131411918Y-80945316D01*
X131509938Y-80945316D01*
X131509938Y-79585450D01*
G37*
G36*
X131870997Y-79585450D02*
G01*
X131749481Y-79585450D01*
X131749481Y-80528422D01*
X131696594Y-80528422D01*
X131696594Y-80530904D01*
X131772978Y-80945316D01*
X131870997Y-80945316D01*
X131870997Y-79585450D01*
G37*
G36*
X128440579Y-79592630D02*
G01*
X128470985Y-79613522D01*
X128490936Y-79645126D01*
X128497894Y-79686106D01*
X128497894Y-80199467D01*
X128493161Y-80222518D01*
X128478958Y-80241245D01*
X128452762Y-80256697D01*
X128350400Y-80300124D01*
X128445860Y-80339207D01*
X128474649Y-80358778D01*
X128489662Y-80379001D01*
X128494405Y-80400780D01*
X128494405Y-80844659D01*
X128487444Y-80885626D01*
X128467496Y-80917166D01*
X128437083Y-80938118D01*
X128398091Y-80945316D01*
X127953901Y-80945316D01*
X127953901Y-80836129D01*
X128074565Y-80836129D01*
X128372966Y-80836129D01*
X128372966Y-80430635D01*
X128252380Y-80349754D01*
X128074565Y-80349754D01*
X128074565Y-80836129D01*
X127953901Y-80836129D01*
X127953901Y-80245530D01*
X128074565Y-80245530D01*
X128254086Y-80245530D01*
X128376456Y-80165502D01*
X128376456Y-79694636D01*
X128074565Y-79694636D01*
X128074565Y-80245530D01*
X127953901Y-80245530D01*
X127953901Y-79585450D01*
X128401581Y-79585450D01*
X128440579Y-79592630D01*
G37*
G36*
X128843677Y-79585450D02*
G01*
X128722161Y-79585450D01*
X128722161Y-80528422D01*
X128669273Y-80528422D01*
X128669273Y-80530904D01*
X128745657Y-80945316D01*
X128843677Y-80945316D01*
X128843677Y-79585450D01*
G37*
G36*
X129574326Y-79585450D02*
G01*
X129035528Y-79585450D01*
X129035528Y-79649969D01*
X129451103Y-80513146D01*
X129451103Y-80836129D01*
X129174338Y-80836129D01*
X129174338Y-80533385D01*
X129052899Y-80533385D01*
X129052899Y-80844659D01*
X129059860Y-80885626D01*
X129079808Y-80917166D01*
X129110220Y-80938118D01*
X129149212Y-80945316D01*
X129476229Y-80945316D01*
X129515221Y-80938118D01*
X129545633Y-80917166D01*
X129565581Y-80885626D01*
X129572542Y-80844659D01*
X129572542Y-80561302D01*
X129565242Y-80508311D01*
X129540438Y-80442423D01*
X129181317Y-79694636D01*
X129574326Y-79694636D01*
X129574326Y-79585450D01*
G37*
G36*
X125912662Y-79592630D02*
G01*
X125943068Y-79613522D01*
X125963019Y-79645126D01*
X125969977Y-79686106D01*
X125969977Y-80199467D01*
X125965244Y-80222518D01*
X125951041Y-80241245D01*
X125924845Y-80256697D01*
X125822483Y-80300124D01*
X125917943Y-80339207D01*
X125946732Y-80358778D01*
X125961745Y-80379001D01*
X125966488Y-80400780D01*
X125966488Y-80844659D01*
X125959527Y-80885626D01*
X125939579Y-80917166D01*
X125909166Y-80938118D01*
X125870174Y-80945316D01*
X125425984Y-80945316D01*
X125425984Y-80836129D01*
X125546648Y-80836129D01*
X125845049Y-80836129D01*
X125845049Y-80430635D01*
X125724463Y-80349754D01*
X125546648Y-80349754D01*
X125546648Y-80836129D01*
X125425984Y-80836129D01*
X125425984Y-80245530D01*
X125546648Y-80245530D01*
X125726169Y-80245530D01*
X125848539Y-80165502D01*
X125848539Y-79694636D01*
X125546648Y-79694636D01*
X125546648Y-80245530D01*
X125425984Y-80245530D01*
X125425984Y-79585450D01*
X125873664Y-79585450D01*
X125912662Y-79592630D01*
G37*
G36*
X126315760Y-79585450D02*
G01*
X126194244Y-79585450D01*
X126194244Y-80528422D01*
X126141356Y-80528422D01*
X126141356Y-80530904D01*
X126217740Y-80945316D01*
X126315760Y-80945316D01*
X126315760Y-79585450D01*
G37*
G36*
X127083709Y-79686106D02*
G01*
X127076751Y-79645126D01*
X127056800Y-79613522D01*
X127026394Y-79592630D01*
X126987395Y-79585450D01*
X126637735Y-79585450D01*
X126598737Y-79592630D01*
X126568331Y-79613522D01*
X126548380Y-79645126D01*
X126541422Y-79686106D01*
X126541422Y-80027158D01*
X126662085Y-80027158D01*
X126662085Y-79694636D01*
X126962192Y-79694636D01*
X126962192Y-80109125D01*
X126722805Y-80288724D01*
X126722805Y-80315633D01*
X126960486Y-80492596D01*
X126960486Y-80836129D01*
X126663791Y-80836129D01*
X126663791Y-80533385D01*
X126543205Y-80533385D01*
X126543205Y-80844659D01*
X126550166Y-80885626D01*
X126570114Y-80917166D01*
X126600527Y-80938118D01*
X126639519Y-80945316D01*
X126985612Y-80945316D01*
X127024604Y-80938118D01*
X127055016Y-80917166D01*
X127074964Y-80885626D01*
X127081925Y-80844659D01*
X127081925Y-80517721D01*
X127075991Y-80477042D01*
X127058905Y-80443830D01*
X127029891Y-80416212D01*
X126868516Y-80302605D01*
X127031675Y-80188921D01*
X127060495Y-80161784D01*
X127077671Y-80128095D01*
X127083709Y-80085706D01*
X127083709Y-79686106D01*
G37*
G36*
X123447403Y-79592630D02*
G01*
X123477809Y-79613522D01*
X123497760Y-79645126D01*
X123504718Y-79686106D01*
X123504718Y-80199467D01*
X123499985Y-80222518D01*
X123485782Y-80241245D01*
X123459586Y-80256697D01*
X123357224Y-80300124D01*
X123452684Y-80339207D01*
X123481473Y-80358778D01*
X123496486Y-80379001D01*
X123501229Y-80400780D01*
X123501229Y-80844659D01*
X123494268Y-80885626D01*
X123474320Y-80917166D01*
X123443907Y-80938118D01*
X123404915Y-80945316D01*
X122960725Y-80945316D01*
X122960725Y-80836129D01*
X123081389Y-80836129D01*
X123379790Y-80836129D01*
X123379790Y-80430635D01*
X123259204Y-80349754D01*
X123081389Y-80349754D01*
X123081389Y-80836129D01*
X122960725Y-80836129D01*
X122960725Y-80245530D01*
X123081389Y-80245530D01*
X123260910Y-80245530D01*
X123383280Y-80165502D01*
X123383280Y-79694636D01*
X123081389Y-79694636D01*
X123081389Y-80245530D01*
X122960725Y-80245530D01*
X122960725Y-79585450D01*
X123408405Y-79585450D01*
X123447403Y-79592630D01*
G37*
G36*
X123850501Y-79585450D02*
G01*
X123728985Y-79585450D01*
X123728985Y-80528422D01*
X123676097Y-80528422D01*
X123676097Y-80530904D01*
X123752481Y-80945316D01*
X123850501Y-80945316D01*
X123850501Y-79585450D01*
G37*
G36*
X124605422Y-79937824D02*
G01*
X124502207Y-79937824D01*
X124502207Y-79585450D01*
X124388523Y-79585450D01*
X124388523Y-79937824D01*
X124005052Y-79937824D01*
X124005052Y-79999629D01*
X124333852Y-80945316D01*
X124447536Y-80945316D01*
X124447536Y-80940120D01*
X124135176Y-80042047D01*
X124388523Y-80042047D01*
X124388523Y-80538348D01*
X124502207Y-80538348D01*
X124502207Y-80042047D01*
X124605422Y-80042047D01*
X124605422Y-79937824D01*
G37*
G36*
X120921968Y-79592630D02*
G01*
X120952374Y-79613522D01*
X120972325Y-79645126D01*
X120979283Y-79686106D01*
X120979283Y-80199467D01*
X120974550Y-80222518D01*
X120960347Y-80241245D01*
X120934151Y-80256697D01*
X120831789Y-80300124D01*
X120927249Y-80339207D01*
X120956038Y-80358778D01*
X120971051Y-80379001D01*
X120975794Y-80400780D01*
X120975794Y-80844659D01*
X120968833Y-80885626D01*
X120948885Y-80917166D01*
X120918472Y-80938118D01*
X120879480Y-80945316D01*
X120435290Y-80945316D01*
X120435290Y-80836129D01*
X120555954Y-80836129D01*
X120854355Y-80836129D01*
X120854355Y-80430635D01*
X120733769Y-80349754D01*
X120555954Y-80349754D01*
X120555954Y-80836129D01*
X120435290Y-80836129D01*
X120435290Y-80245530D01*
X120555954Y-80245530D01*
X120735475Y-80245530D01*
X120857845Y-80165502D01*
X120857845Y-79694636D01*
X120555954Y-79694636D01*
X120555954Y-80245530D01*
X120435290Y-80245530D01*
X120435290Y-79585450D01*
X120882970Y-79585450D01*
X120921968Y-79592630D01*
G37*
G36*
X121325066Y-79585450D02*
G01*
X121203550Y-79585450D01*
X121203550Y-80528422D01*
X121150662Y-80528422D01*
X121150662Y-80530904D01*
X121227046Y-80945316D01*
X121325066Y-80945316D01*
X121325066Y-79585450D01*
G37*
G36*
X122073008Y-79686106D02*
G01*
X122066049Y-79645126D01*
X122046099Y-79613522D01*
X122015757Y-79592633D01*
X121976772Y-79585450D01*
X121642699Y-79585450D01*
X121603781Y-79592646D01*
X121573759Y-79613522D01*
X121554168Y-79645088D01*
X121547316Y-79686106D01*
X121547316Y-80022195D01*
X121667902Y-80022195D01*
X121667902Y-79694636D01*
X121952422Y-79694636D01*
X121952422Y-80329902D01*
X121550728Y-80329902D01*
X121566392Y-80945316D01*
X122062616Y-80945316D01*
X122062616Y-80836129D01*
X121684342Y-80836129D01*
X121669608Y-80439088D01*
X121976772Y-80439088D01*
X122015897Y-80432287D01*
X122046099Y-80412722D01*
X122066102Y-80383042D01*
X122073008Y-80344791D01*
X122073008Y-79686106D01*
G37*
G36*
X117980357Y-79883230D02*
G01*
X118250221Y-79883230D01*
X118297912Y-79585450D01*
X118417645Y-79585450D01*
X118177326Y-80945316D01*
X118058447Y-80945316D01*
X117888417Y-79992417D01*
X117996021Y-79992417D01*
X118115754Y-80728339D01*
X118234556Y-79992417D01*
X117996021Y-79992417D01*
X117888417Y-79992417D01*
X117816422Y-79588939D01*
X117816422Y-79585450D01*
X117932665Y-79585450D01*
X117980357Y-79883230D01*
G37*
G36*
X119069723Y-79592602D02*
G01*
X119100835Y-79613522D01*
X119121445Y-79645195D01*
X119128597Y-79686106D01*
X119128597Y-80125875D01*
X119123274Y-80160932D01*
X119107942Y-80189294D01*
X119081758Y-80212650D01*
X118952487Y-80297642D01*
X119079975Y-80377438D01*
X119104806Y-80399205D01*
X119119764Y-80427670D01*
X119125107Y-80465066D01*
X119125107Y-80844659D01*
X119118146Y-80885626D01*
X119098198Y-80917166D01*
X119067786Y-80938118D01*
X119028794Y-80945316D01*
X118677428Y-80945316D01*
X118638436Y-80938118D01*
X118608023Y-80917166D01*
X118588075Y-80885626D01*
X118581114Y-80844659D01*
X118581114Y-80465066D01*
X118583435Y-80448549D01*
X118701777Y-80448549D01*
X118701777Y-80836129D01*
X119003668Y-80836129D01*
X119003668Y-80448549D01*
X118852684Y-80347893D01*
X118701777Y-80448549D01*
X118583435Y-80448549D01*
X118586380Y-80427596D01*
X118601084Y-80399138D01*
X118625394Y-80377438D01*
X118753812Y-80297642D01*
X118621982Y-80212650D01*
X118597541Y-80190498D01*
X118582894Y-80162243D01*
X118580182Y-80143246D01*
X118698288Y-80143246D01*
X118852684Y-80244677D01*
X119007158Y-80143246D01*
X119007158Y-79694636D01*
X118698288Y-79694636D01*
X118698288Y-80143246D01*
X118580182Y-80143246D01*
X118577702Y-80125875D01*
X118577702Y-79686106D01*
X118584554Y-79645088D01*
X118604146Y-79613522D01*
X118634168Y-79592646D01*
X118673085Y-79585450D01*
X119030577Y-79585450D01*
X119069723Y-79592602D01*
G37*
D11*
G36*
X114028049Y-79693007D02*
G01*
X114020170Y-79645336D01*
X113998750Y-79613484D01*
X113962718Y-79593238D01*
X113905757Y-79585450D01*
X113489329Y-79585450D01*
X113433309Y-79593190D01*
X113397769Y-79613357D01*
X113376563Y-79645202D01*
X113368743Y-79693007D01*
X113368743Y-80022195D01*
X113568272Y-80022195D01*
X113568272Y-79759155D01*
X113829373Y-79759155D01*
X113829373Y-80100672D01*
X113580369Y-80271819D01*
X113580369Y-80314392D01*
X113829373Y-80483678D01*
X113829373Y-80771610D01*
X113568272Y-80771610D01*
X113568272Y-80523459D01*
X113368743Y-80523459D01*
X113368743Y-80837758D01*
X113376651Y-80885362D01*
X113398177Y-80917219D01*
X113434455Y-80937503D01*
X113491888Y-80945316D01*
X113905757Y-80945316D01*
X113962718Y-80937527D01*
X113998750Y-80917281D01*
X114020170Y-80885429D01*
X114028049Y-80837758D01*
X114028049Y-80502832D01*
X114020359Y-80451688D01*
X113998187Y-80410099D01*
X113960350Y-80375654D01*
X113834569Y-80292679D01*
X113962133Y-80211410D01*
X113998704Y-80179151D01*
X114020409Y-80138533D01*
X114028049Y-80086792D01*
X114028049Y-79693007D01*
G37*
G36*
X114862223Y-80945316D02*
G01*
X114601897Y-79585450D01*
X114399809Y-79585450D01*
X114140414Y-80945316D01*
X114344286Y-80945316D01*
X114496123Y-80014207D01*
X114501319Y-79897887D01*
X114506514Y-80014207D01*
X114659204Y-80945316D01*
X114862223Y-80945316D01*
G37*
G36*
X115636065Y-79693007D02*
G01*
X115628187Y-79645336D01*
X115606767Y-79613484D01*
X115570735Y-79593238D01*
X115513773Y-79585450D01*
X115097346Y-79585450D01*
X115041325Y-79593190D01*
X115005786Y-79613357D01*
X114984580Y-79645202D01*
X114976760Y-79693007D01*
X114976760Y-80022195D01*
X115176289Y-80022195D01*
X115176289Y-79759155D01*
X115437390Y-79759155D01*
X115437390Y-80100672D01*
X115188386Y-80271819D01*
X115188386Y-80314392D01*
X115437390Y-80483678D01*
X115437390Y-80771610D01*
X115176289Y-80771610D01*
X115176289Y-80523459D01*
X114976760Y-80523459D01*
X114976760Y-80837758D01*
X114984667Y-80885362D01*
X115006194Y-80917219D01*
X115042472Y-80937503D01*
X115099905Y-80945316D01*
X115513773Y-80945316D01*
X115570735Y-80937527D01*
X115606767Y-80917281D01*
X115628187Y-80885429D01*
X115636065Y-80837758D01*
X115636065Y-80502832D01*
X115628376Y-80451688D01*
X115606204Y-80410099D01*
X115568367Y-80375654D01*
X115442585Y-80292679D01*
X115570150Y-80211410D01*
X115606721Y-80179151D01*
X115628425Y-80138533D01*
X115636065Y-80086792D01*
X115636065Y-79693007D01*
G37*
G36*
X109586166Y-79693007D02*
G01*
X109578227Y-79645475D01*
X109556585Y-79613614D01*
X109520039Y-79593288D01*
X109462091Y-79585450D01*
X109035272Y-79585450D01*
X108979252Y-79593190D01*
X108943712Y-79613357D01*
X108922506Y-79645202D01*
X108914686Y-79693007D01*
X108914686Y-80837758D01*
X108922594Y-80885362D01*
X108944120Y-80917219D01*
X108980398Y-80937503D01*
X109037831Y-80945316D01*
X109462091Y-80945316D01*
X109520039Y-80937477D01*
X109556585Y-80917151D01*
X109578227Y-80885290D01*
X109586166Y-80837758D01*
X109586166Y-80528422D01*
X109382295Y-80528422D01*
X109382295Y-80771610D01*
X109117704Y-80771610D01*
X109117704Y-79759155D01*
X109382295Y-79759155D01*
X109382295Y-80141307D01*
X109231311Y-80141307D01*
X109231311Y-80315013D01*
X109586166Y-80315013D01*
X109586166Y-79693007D01*
G37*
D13*
X153000000Y-81000000D02*
X153000000Y-79225000D01*
X153000000Y-81000000D02*
X153000000Y-79225000D01*
X153000000Y-81000000D02*
X153000000Y-79225000D01*
X150000000Y-81000000D02*
X150000000Y-79225000D01*
X147500000Y-81000000D02*
X147500000Y-79225000D01*
X145000000Y-81000000D02*
X145000000Y-79225000D01*
X142500000Y-81000000D02*
X142500000Y-79225000D01*
X140000000Y-81000000D02*
X140000000Y-79225000D01*
X137500000Y-81000000D02*
X137500000Y-79225000D01*
X135000000Y-81000000D02*
X135000000Y-79225000D01*
X132500000Y-81000000D02*
X132500000Y-79225000D01*
X130000000Y-81000000D02*
X130000000Y-79225000D01*
X127500000Y-81000000D02*
X127500000Y-79225000D01*
X125000000Y-81000000D02*
X125000000Y-79225000D01*
X122500000Y-81000000D02*
X122500000Y-79225000D01*
X120000000Y-81000000D02*
X120000000Y-79225000D01*
X117000000Y-81000000D02*
X117000000Y-79225000D01*
X112000000Y-81000000D02*
X112000000Y-79225000D01*
X153000000Y-81000000D02*
X106500000Y-81000000D01*
X106500000Y-81000000D02*
X106500000Y-79225000D01*
X106500000Y-79225000D02*
X153000000Y-79225000D01*
X153000000Y-79225000D02*
X153000000Y-81000000D01*
%TO.C,C6*%
D14*
X134811898Y-90000000D02*
G75*
G02*
X127751898Y-90000000I-3530000J0D01*
G01*
X127751898Y-90000000D02*
G75*
G02*
X134811898Y-90000000I3530000J0D01*
G01*
%TD*%
M02*
