%TF.GenerationSoftware,KiCad,Pcbnew,10.0.5*%
%TF.CreationDate,2026-09-20T16:01:36+08:00*%
%TF.ProjectId,stm32c8t6-mini,73746d33-3263-4387-9436-2d6d696e692e,v1.3*%
%TF.SameCoordinates,Original*%
%TF.FileFunction,Copper,L1,Top*%
%TF.FilePolarity,Positive*%
%FSLAX46Y46*%
G04 Gerber Fmt 4.6, Leading zero omitted, Abs format (unit mm)*
G04 Created by KiCad (PCBNEW 10.0.5) date 2026-09-20 16:01:36*
%MOMM*%
%LPD*%
G01*
G04 APERTURE LIST*
G04 Aperture macros list*
%AMRoundRect*
0 Rectangle with rounded corners*
0 $1 Rounding radius*
0 $2 $3 $4 $5 $6 $7 $8 $9 X,Y pos of 4 corners*
0 Add a 4 corners polygon primitive as box body*
4,1,4,$2,$3,$4,$5,$6,$7,$8,$9,$2,$3,0*
0 Add four circle primitives for the rounded corners*
1,1,$1+$1,$2,$3*
1,1,$1+$1,$4,$5*
1,1,$1+$1,$6,$7*
1,1,$1+$1,$8,$9*
0 Add four rect primitives between the rounded corners*
20,1,$1+$1,$2,$3,$4,$5,0*
20,1,$1+$1,$4,$5,$6,$7,0*
20,1,$1+$1,$6,$7,$8,$9,0*
20,1,$1+$1,$8,$9,$2,$3,0*%
G04 Aperture macros list end*
%TA.AperFunction,SMDPad,CuDef*%
%ADD10RoundRect,0.135000X-0.135000X-0.185000X0.135000X-0.185000X0.135000X0.185000X-0.135000X0.185000X0*%
%TD*%
%TA.AperFunction,SMDPad,CuDef*%
%ADD11R,1.800000X1.000000*%
%TD*%
%TA.AperFunction,SMDPad,CuDef*%
%ADD12RoundRect,0.150000X-0.575000X0.150000X-0.575000X-0.150000X0.575000X-0.150000X0.575000X0.150000X0*%
%TD*%
%TA.AperFunction,SMDPad,CuDef*%
%ADD13RoundRect,0.075000X-0.650000X0.075000X-0.650000X-0.075000X0.650000X-0.075000X0.650000X0.075000X0*%
%TD*%
%TA.AperFunction,ComponentPad*%
%ADD14O,2.100000X1.000000*%
%TD*%
%TA.AperFunction,ComponentPad*%
%ADD15O,1.600000X1.000000*%
%TD*%
%TA.AperFunction,SMDPad,CuDef*%
%ADD16RoundRect,0.140000X-0.140000X-0.170000X0.140000X-0.170000X0.140000X0.170000X-0.140000X0.170000X0*%
%TD*%
%TA.AperFunction,SMDPad,CuDef*%
%ADD17RoundRect,0.140000X0.140000X0.170000X-0.140000X0.170000X-0.140000X-0.170000X0.140000X-0.170000X0*%
%TD*%
%TA.AperFunction,SMDPad,CuDef*%
%ADD18RoundRect,0.250000X0.275000X0.750000X-0.275000X0.750000X-0.275000X-0.750000X0.275000X-0.750000X0*%
%TD*%
%TA.AperFunction,SMDPad,CuDef*%
%ADD19RoundRect,0.140000X-0.170000X0.140000X-0.170000X-0.140000X0.170000X-0.140000X0.170000X0.140000X0*%
%TD*%
%TA.AperFunction,SMDPad,CuDef*%
%ADD20RoundRect,0.147500X-0.147500X-0.172500X0.147500X-0.172500X0.147500X0.172500X-0.147500X0.172500X0*%
%TD*%
%TA.AperFunction,SMDPad,CuDef*%
%ADD21RoundRect,0.200000X0.275000X-0.200000X0.275000X0.200000X-0.275000X0.200000X-0.275000X-0.200000X0*%
%TD*%
%TA.AperFunction,SMDPad,CuDef*%
%ADD22RoundRect,0.112500X-0.112500X0.187500X-0.112500X-0.187500X0.112500X-0.187500X0.112500X0.187500X0*%
%TD*%
%TA.AperFunction,SMDPad,CuDef*%
%ADD23RoundRect,0.135000X0.185000X-0.135000X0.185000X0.135000X-0.185000X0.135000X-0.185000X-0.135000X0*%
%TD*%
%TA.AperFunction,SMDPad,CuDef*%
%ADD24RoundRect,0.243750X0.456250X-0.243750X0.456250X0.243750X-0.456250X0.243750X-0.456250X-0.243750X0*%
%TD*%
%TA.AperFunction,SMDPad,CuDef*%
%ADD25RoundRect,0.140000X0.170000X-0.140000X0.170000X0.140000X-0.170000X0.140000X-0.170000X-0.140000X0*%
%TD*%
%TA.AperFunction,SMDPad,CuDef*%
%ADD26RoundRect,0.075000X0.662500X0.075000X-0.662500X0.075000X-0.662500X-0.075000X0.662500X-0.075000X0*%
%TD*%
%TA.AperFunction,SMDPad,CuDef*%
%ADD27RoundRect,0.075000X0.075000X0.662500X-0.075000X0.662500X-0.075000X-0.662500X0.075000X-0.662500X0*%
%TD*%
%TA.AperFunction,SMDPad,CuDef*%
%ADD28RoundRect,0.250000X0.445000X-0.457500X0.445000X0.457500X-0.445000X0.457500X-0.445000X-0.457500X0*%
%TD*%
%TA.AperFunction,SMDPad,CuDef*%
%ADD29RoundRect,0.125000X-0.475000X-0.125000X0.475000X-0.125000X0.475000X0.125000X-0.475000X0.125000X0*%
%TD*%
%TA.AperFunction,SMDPad,CuDef*%
%ADD30RoundRect,0.175000X-0.175000X-0.175000X0.175000X-0.175000X0.175000X0.175000X-0.175000X0.175000X0*%
%TD*%
%TA.AperFunction,ComponentPad*%
%ADD31R,1.700000X1.700000*%
%TD*%
%TA.AperFunction,ComponentPad*%
%ADD32C,1.700000*%
%TD*%
%TA.AperFunction,SMDPad,CuDef*%
%ADD33RoundRect,0.135000X-0.185000X0.135000X-0.185000X-0.135000X0.185000X-0.135000X0.185000X0.135000X0*%
%TD*%
%TA.AperFunction,SMDPad,CuDef*%
%ADD34RoundRect,0.135000X0.135000X0.185000X-0.135000X0.185000X-0.135000X-0.185000X0.135000X-0.185000X0*%
%TD*%
%TA.AperFunction,SMDPad,CuDef*%
%ADD35R,0.600000X0.500000*%
%TD*%
%TA.AperFunction,SMDPad,CuDef*%
%ADD36RoundRect,0.375000X-0.625000X-0.375000X0.625000X-0.375000X0.625000X0.375000X-0.625000X0.375000X0*%
%TD*%
%TA.AperFunction,SMDPad,CuDef*%
%ADD37RoundRect,0.500000X-0.500000X-1.400000X0.500000X-1.400000X0.500000X1.400000X-0.500000X1.400000X0*%
%TD*%
%TA.AperFunction,SMDPad,CuDef*%
%ADD38RoundRect,0.250000X-0.445000X0.457500X-0.445000X-0.457500X0.445000X-0.457500X0.445000X0.457500X0*%
%TD*%
%TA.AperFunction,SMDPad,CuDef*%
%ADD39RoundRect,0.150000X-0.512500X-0.150000X0.512500X-0.150000X0.512500X0.150000X-0.512500X0.150000X0*%
%TD*%
%TA.AperFunction,ViaPad*%
%ADD40C,0.600000*%
%TD*%
%TA.AperFunction,Conductor*%
%ADD41C,0.200000*%
%TD*%
%TA.AperFunction,Conductor*%
%ADD42C,0.400000*%
%TD*%
%TA.AperFunction,Conductor*%
%ADD43C,0.300000*%
%TD*%
%TA.AperFunction,Conductor*%
%ADD44C,0.500000*%
%TD*%
%TA.AperFunction,Conductor*%
%ADD45C,1.000000*%
%TD*%
G04 APERTURE END LIST*
D10*
%TO.P,R7,1*%
%TO.N,/PA1*%
X142990000Y-85000000D03*
%TO.P,R7,2*%
%TO.N,Net-(D3-K)*%
X144010000Y-85000000D03*
%TD*%
D11*
%TO.P,Y2,1,1_1*%
%TO.N,Net-(U1-PC15)*%
X144000000Y-91000000D03*
%TO.P,Y2,2,2_2*%
%TO.N,Net-(U1-PC14)*%
X144000000Y-93500000D03*
%TD*%
D12*
%TO.P,J4,A1,GND_A1*%
%TO.N,GND*%
X114250000Y-84595000D03*
%TO.P,J4,A4,VBUS_A4*%
%TO.N,VBUS*%
X114250000Y-85395000D03*
D13*
%TO.P,J4,A5,CC1_A5*%
%TO.N,Net-(J4-CC1)*%
X114250000Y-86595000D03*
%TO.P,J4,A6,D+_A6*%
%TO.N,/USB_P*%
X114250000Y-87595000D03*
%TO.P,J4,A7,D-_A7*%
%TO.N,/USB_N*%
X114250000Y-88095000D03*
%TO.P,J4,A8,SBU1_A8*%
%TO.N,unconnected-(J4-SBU1-PadA8)*%
X114250000Y-89095000D03*
D12*
%TO.P,J4,A9,VBUS_A9*%
%TO.N,VBUS*%
X114250000Y-90295000D03*
%TO.P,J4,A12,GND_A12*%
%TO.N,GND*%
X114250000Y-91095000D03*
%TO.P,J4,B1,GND_B1*%
X114250000Y-91095000D03*
%TO.P,J4,B4,VBUS_B4*%
%TO.N,VBUS*%
X114250000Y-90295000D03*
D13*
%TO.P,J4,B5,CC2_B5*%
%TO.N,Net-(J4-CC2)*%
X114250000Y-89595000D03*
%TO.P,J4,B6,D+_B6*%
%TO.N,/USB_P*%
X114250000Y-88595000D03*
%TO.P,J4,B7,D-_B7*%
%TO.N,/USB_N*%
X114250000Y-87095000D03*
%TO.P,J4,B8,SBU2_B8*%
%TO.N,unconnected-(J4-SBU2-PadB8)*%
X114250000Y-86095000D03*
D12*
%TO.P,J4,B9,VBUS_B9*%
%TO.N,VBUS*%
X114250000Y-85395000D03*
%TO.P,J4,B12,GND_B12*%
%TO.N,GND*%
X114250000Y-84595000D03*
D14*
%TO.P,J4,SH,SHIELD_SH*%
X113335000Y-83525000D03*
D15*
X109155000Y-83525000D03*
D14*
X113335000Y-92165000D03*
D15*
X109155000Y-92165000D03*
%TD*%
D16*
%TO.P,C1,1*%
%TO.N,GND*%
X143020000Y-97000000D03*
%TO.P,C1,2*%
%TO.N,/nRST*%
X143980000Y-97000000D03*
%TD*%
D17*
%TO.P,C9,1*%
%TO.N,GND*%
X143980000Y-86500000D03*
%TO.P,C9,2*%
%TO.N,+3.3V*%
X143020000Y-86500000D03*
%TD*%
D18*
%TO.P,SW1,1,1_1*%
%TO.N,/nRST*%
X145725000Y-99500000D03*
%TO.P,SW1,2,2_2*%
%TO.N,GND*%
X141275000Y-99500000D03*
%TD*%
D19*
%TO.P,C11,1*%
%TO.N,GND*%
X146000000Y-90520000D03*
%TO.P,C11,2*%
%TO.N,Net-(U1-PC15)*%
X146000000Y-91480000D03*
%TD*%
D20*
%TO.P,D4,1,K_1*%
%TO.N,Net-(D4-K)*%
X145015000Y-82000000D03*
%TO.P,D4,2,A_2*%
%TO.N,+3.3V*%
X145985000Y-82000000D03*
%TD*%
D21*
%TO.P,R10,1*%
%TO.N,Net-(D1-K)*%
X123000000Y-90825000D03*
%TO.P,R10,2*%
%TO.N,/BAT+*%
X123000000Y-89175000D03*
%TD*%
D22*
%TO.P,D1,1,K_1*%
%TO.N,Net-(D1-K)*%
X121000000Y-88950000D03*
%TO.P,D1,2,A_2*%
%TO.N,+3.3V*%
X121000000Y-91050000D03*
%TD*%
D23*
%TO.P,R6,1*%
%TO.N,/nRST*%
X146000000Y-87010000D03*
%TO.P,R6,2*%
%TO.N,+3.3V*%
X146000000Y-85990000D03*
%TD*%
D24*
%TO.P,F1,1*%
%TO.N,+5V*%
X109000000Y-98437500D03*
%TO.P,F1,2*%
%TO.N,VBUS*%
X109000000Y-96562500D03*
%TD*%
D20*
%TO.P,D3,1,K_1*%
%TO.N,Net-(D3-K)*%
X145015000Y-85000000D03*
%TO.P,D3,2,A_2*%
%TO.N,+3.3V*%
X145985000Y-85000000D03*
%TD*%
D23*
%TO.P,R3,1*%
%TO.N,Net-(SW2-B)*%
X136500000Y-97010000D03*
%TO.P,R3,2*%
%TO.N,Net-(U1-BOOT0)*%
X136500000Y-95990000D03*
%TD*%
D25*
%TO.P,C12,1*%
%TO.N,GND*%
X146000000Y-89460000D03*
%TO.P,C12,2*%
%TO.N,+3.3V*%
X146000000Y-88500000D03*
%TD*%
D10*
%TO.P,R9,1*%
%TO.N,/UART1_RX*%
X142990000Y-83500000D03*
%TO.P,R9,2*%
%TO.N,Net-(D5-K)*%
X144010000Y-83500000D03*
%TD*%
D17*
%TO.P,C6,1*%
%TO.N,GND*%
X133000000Y-83000000D03*
%TO.P,C6,2*%
%TO.N,+3.3V*%
X132040000Y-83000000D03*
%TD*%
D26*
%TO.P,U1,1,VBAT_1*%
%TO.N,/BAT+*%
X139662500Y-92250000D03*
%TO.P,U1,2,PC13_2*%
%TO.N,/PC13*%
X139662500Y-91750000D03*
%TO.P,U1,3,PC14_3*%
%TO.N,Net-(U1-PC14)*%
X139662500Y-91250000D03*
%TO.P,U1,4,PC15_4*%
%TO.N,Net-(U1-PC15)*%
X139662500Y-90750000D03*
%TO.P,U1,5,PD0_5*%
%TO.N,Net-(U1-PD0)*%
X139662500Y-90250000D03*
%TO.P,U1,6,PD1_6*%
%TO.N,unconnected-(U1-PD1-Pad6)*%
X139662500Y-89750000D03*
%TO.P,U1,7,NRST_7*%
%TO.N,/nRST*%
X139662500Y-89250000D03*
%TO.P,U1,8,VSSA_8*%
%TO.N,GND*%
X139662500Y-88750000D03*
%TO.P,U1,9,VDDA_9*%
%TO.N,+3.3V*%
X139662500Y-88250000D03*
%TO.P,U1,10,PA0_10*%
%TO.N,/PA0*%
X139662500Y-87750000D03*
%TO.P,U1,11,PA1_11*%
%TO.N,/PA1*%
X139662500Y-87250000D03*
%TO.P,U1,12,PA2_12*%
%TO.N,/PA2*%
X139662500Y-86750000D03*
D27*
%TO.P,U1,13,PA3_13*%
%TO.N,/PA3*%
X138250000Y-85337500D03*
%TO.P,U1,14,PA4_14*%
%TO.N,/PA4*%
X137750000Y-85337500D03*
%TO.P,U1,15,PA5_15*%
%TO.N,/PA5*%
X137250000Y-85337500D03*
%TO.P,U1,16,PA6_16*%
%TO.N,/PA6*%
X136750000Y-85337500D03*
%TO.P,U1,17,PA7_17*%
%TO.N,/PA7*%
X136250000Y-85337500D03*
%TO.P,U1,18,PB0_18*%
%TO.N,/PB0*%
X135750000Y-85337500D03*
%TO.P,U1,19,PB1_19*%
%TO.N,/PB1*%
X135250000Y-85337500D03*
%TO.P,U1,20,PB2_20*%
%TO.N,Net-(U1-PB2)*%
X134750000Y-85337500D03*
%TO.P,U1,21,PB10_21*%
%TO.N,/PB10*%
X134250000Y-85337500D03*
%TO.P,U1,22,PB11_22*%
%TO.N,/PB11*%
X133750000Y-85337500D03*
%TO.P,U1,23,VSS_23*%
%TO.N,GND*%
X133250000Y-85337500D03*
%TO.P,U1,24,VDD_24*%
%TO.N,+3.3V*%
X132750000Y-85337500D03*
D26*
%TO.P,U1,25,PB12_25*%
%TO.N,/PB12*%
X131337500Y-86750000D03*
%TO.P,U1,26,PB13_26*%
%TO.N,/PB13*%
X131337500Y-87250000D03*
%TO.P,U1,27,PB14_27*%
%TO.N,/PB14*%
X131337500Y-87750000D03*
%TO.P,U1,28,PB15_28*%
%TO.N,/PB15*%
X131337500Y-88250000D03*
%TO.P,U1,29,PA8_29*%
%TO.N,/PA8*%
X131337500Y-88750000D03*
%TO.P,U1,30,PA9_30*%
%TO.N,/UART1_TX*%
X131337500Y-89250000D03*
%TO.P,U1,31,PA10_31*%
%TO.N,/UART1_RX*%
X131337500Y-89750000D03*
%TO.P,U1,32,PA11_32*%
%TO.N,/USB_DN*%
X131337500Y-90250000D03*
%TO.P,U1,33,PA12_33*%
%TO.N,/USB_DP*%
X131337500Y-90750000D03*
%TO.P,U1,34,PA13_34*%
%TO.N,/SW_DIO*%
X131337500Y-91250000D03*
%TO.P,U1,35,VSS_35*%
%TO.N,GND*%
X131337500Y-91750000D03*
%TO.P,U1,36,VDD_36*%
%TO.N,+3.3V*%
X131337500Y-92250000D03*
D27*
%TO.P,U1,37,PA14_37*%
%TO.N,/SW_CLK*%
X132750000Y-93662500D03*
%TO.P,U1,38,PA15_38*%
%TO.N,/PA15*%
X133250000Y-93662500D03*
%TO.P,U1,39,PB3_39*%
%TO.N,/PB3*%
X133750000Y-93662500D03*
%TO.P,U1,40,PB4_40*%
%TO.N,/PB4*%
X134250000Y-93662500D03*
%TO.P,U1,41,PB5_41*%
%TO.N,/PB5*%
X134750000Y-93662500D03*
%TO.P,U1,42,PB6_42*%
%TO.N,/PB6*%
X135250000Y-93662500D03*
%TO.P,U1,43,PB7_43*%
%TO.N,/PB7*%
X135750000Y-93662500D03*
%TO.P,U1,44,BOOT0_44*%
%TO.N,Net-(U1-BOOT0)*%
X136250000Y-93662500D03*
%TO.P,U1,45,PB8_45*%
%TO.N,/PB8*%
X136750000Y-93662500D03*
%TO.P,U1,46,PB9_46*%
%TO.N,/PB9*%
X137250000Y-93662500D03*
%TO.P,U1,47,VSS_47*%
%TO.N,GND*%
X137750000Y-93662500D03*
%TO.P,U1,48,VDD_48*%
%TO.N,+3.3V*%
X138250000Y-93662500D03*
%TD*%
D28*
%TO.P,C2,1*%
%TO.N,+5V*%
X112500000Y-99852500D03*
%TO.P,C2,2*%
%TO.N,GND*%
X112500000Y-97147500D03*
%TD*%
D17*
%TO.P,C8,1*%
%TO.N,GND*%
X140500000Y-94500000D03*
%TO.P,C8,2*%
%TO.N,+3.3V*%
X139540000Y-94500000D03*
%TD*%
D25*
%TO.P,C5,1*%
%TO.N,+3.3V*%
X126000000Y-94990000D03*
%TO.P,C5,2*%
%TO.N,GND*%
X126000000Y-94030000D03*
%TD*%
D29*
%TO.P,SW2,1,A_1*%
%TO.N,GND*%
X132550000Y-99500000D03*
%TO.P,SW2,2,B_2*%
%TO.N,Net-(SW2-B)*%
X138450000Y-99500000D03*
D30*
%TO.P,SW2,3,C_3*%
%TO.N,+3.3V*%
X133350000Y-98500000D03*
X133350000Y-100500000D03*
X137650000Y-98500000D03*
X137650000Y-100500000D03*
%TD*%
D31*
%TO.P,J1,1,Pin_1_1*%
%TO.N,+3.3V*%
X151500000Y-84420000D03*
D32*
%TO.P,J1,2,Pin_2_2*%
%TO.N,/nRST*%
X151500000Y-86960000D03*
%TO.P,J1,3,Pin_3_3*%
%TO.N,/UART1_TX*%
X151500000Y-89500000D03*
%TO.P,J1,4,Pin_4_4*%
%TO.N,/UART1_RX*%
X151500000Y-92040000D03*
%TO.P,J1,5,Pin_5_5*%
%TO.N,/SW_DIO*%
X151500000Y-94580000D03*
%TO.P,J1,6,Pin_6_6*%
%TO.N,/SW_CLK*%
X151500000Y-97120000D03*
%TO.P,J1,7,Pin_7_7*%
%TO.N,GND*%
X151500000Y-99660000D03*
%TD*%
D33*
%TO.P,R4,1*%
%TO.N,GND*%
X130750000Y-84000000D03*
%TO.P,R4,2*%
%TO.N,Net-(U1-PB2)*%
X130750000Y-85020000D03*
%TD*%
D19*
%TO.P,C7,1*%
%TO.N,GND*%
X129000000Y-91520000D03*
%TO.P,C7,2*%
%TO.N,+3.3V*%
X129000000Y-92480000D03*
%TD*%
D23*
%TO.P,R5,1*%
%TO.N,+3.3V*%
X127000000Y-95020000D03*
%TO.P,R5,2*%
%TO.N,Net-(D2-A)*%
X127000000Y-94000000D03*
%TD*%
D34*
%TO.P,R2,1*%
%TO.N,Net-(J4-CC2)*%
X109510000Y-82000000D03*
%TO.P,R2,2*%
%TO.N,GND*%
X108490000Y-82000000D03*
%TD*%
D25*
%TO.P,C10,1*%
%TO.N,GND*%
X146000000Y-93980000D03*
%TO.P,C10,2*%
%TO.N,Net-(U1-PC14)*%
X146000000Y-93020000D03*
%TD*%
D35*
%TO.P,Y1,1,Tri-State_1*%
%TO.N,unconnected-(Y1-Tri-State-Pad1)*%
X144550000Y-88500000D03*
%TO.P,Y1,2,GND_2*%
%TO.N,GND*%
X143450000Y-88500000D03*
%TO.P,Y1,3,OUT_3*%
%TO.N,Net-(U1-PD0)*%
X143450000Y-89300000D03*
%TO.P,Y1,4,VDD_4*%
%TO.N,+3.3V*%
X144550000Y-89300000D03*
%TD*%
D20*
%TO.P,D5,1,K_1*%
%TO.N,Net-(D5-K)*%
X145015000Y-83500000D03*
%TO.P,D5,2,A_2*%
%TO.N,+3.3V*%
X145985000Y-83500000D03*
%TD*%
%TO.P,D2,1,K_1*%
%TO.N,GND*%
X126015000Y-93000000D03*
%TO.P,D2,2,A_2*%
%TO.N,Net-(D2-A)*%
X126985000Y-93000000D03*
%TD*%
D36*
%TO.P,U2,1,ADJ_1*%
%TO.N,GND*%
X117850000Y-94200000D03*
%TO.P,U2,2,VO_2*%
%TO.N,+3.3V*%
X117850000Y-96500000D03*
D37*
X124150000Y-96500000D03*
D36*
%TO.P,U2,3,VI_3*%
%TO.N,+5V*%
X117850000Y-98800000D03*
%TD*%
D31*
%TO.P,J2,1,Pin_1_1*%
%TO.N,+5V*%
X108320000Y-105000000D03*
D32*
%TO.P,J2,2,Pin_2_2*%
%TO.N,GND*%
X110860000Y-105000000D03*
%TO.P,J2,3,Pin_3_3*%
X113400000Y-105000000D03*
%TO.P,J2,4,Pin_4_4*%
%TO.N,+3.3V*%
X115940000Y-105000000D03*
%TO.P,J2,5,Pin_5_5*%
X118480000Y-105000000D03*
%TO.P,J2,6,Pin_6_6*%
%TO.N,/PA2*%
X121020000Y-105000000D03*
%TO.P,J2,7,Pin_7_7*%
%TO.N,/PA0*%
X123560000Y-105000000D03*
%TO.P,J2,8,Pin_8_8*%
%TO.N,/PA15*%
X126100000Y-105000000D03*
%TO.P,J2,9,Pin_9_9*%
%TO.N,/PB3*%
X128640000Y-105000000D03*
%TO.P,J2,10,Pin_10_10*%
%TO.N,/PB4*%
X131180000Y-105000000D03*
%TO.P,J2,11,Pin_11_11*%
%TO.N,/PB5*%
X133720000Y-105000000D03*
%TO.P,J2,12,Pin_12_12*%
%TO.N,/PB6*%
X136260000Y-105000000D03*
%TO.P,J2,13,Pin_13_13*%
%TO.N,/PB7*%
X138800000Y-105000000D03*
%TO.P,J2,14,Pin_14_14*%
%TO.N,/PB8*%
X141340000Y-105000000D03*
%TO.P,J2,15,Pin_15_15*%
%TO.N,/PB9*%
X143880000Y-105000000D03*
%TO.P,J2,16,Pin_16_16*%
%TO.N,/PC13*%
X146420000Y-105000000D03*
%TO.P,J2,17,Pin_17_17*%
%TO.N,GND*%
X148960000Y-105000000D03*
%TO.P,J2,18,Pin_18_18*%
X151500000Y-105000000D03*
%TD*%
D31*
%TO.P,J3,1,Pin_1_1*%
%TO.N,GND*%
X108360000Y-77500000D03*
D32*
%TO.P,J3,2,Pin_2_2*%
X110900000Y-77500000D03*
%TO.P,J3,3,Pin_3_3*%
%TO.N,+3.3V*%
X113440000Y-77500000D03*
%TO.P,J3,4,Pin_4_4*%
X115980000Y-77500000D03*
%TO.P,J3,5,Pin_5_5*%
%TO.N,/PA8*%
X118520000Y-77500000D03*
%TO.P,J3,6,Pin_6_6*%
%TO.N,/PB15*%
X121060000Y-77500000D03*
%TO.P,J3,7,Pin_7_7*%
%TO.N,/PB14*%
X123600000Y-77500000D03*
%TO.P,J3,8,Pin_8_8*%
%TO.N,/PB13*%
X126140000Y-77500000D03*
%TO.P,J3,9,Pin_9_9*%
%TO.N,/PB12*%
X128680000Y-77500000D03*
%TO.P,J3,10,Pin_10_10*%
%TO.N,/PB11*%
X131220000Y-77500000D03*
%TO.P,J3,11,Pin_11_11*%
%TO.N,/PB10*%
X133760000Y-77500000D03*
%TO.P,J3,12,Pin_12_12*%
%TO.N,/PB1*%
X136300000Y-77500000D03*
%TO.P,J3,13,Pin_13_13*%
%TO.N,/PB0*%
X138840000Y-77500000D03*
%TO.P,J3,14,Pin_14_14*%
%TO.N,/PA7*%
X141380000Y-77500000D03*
%TO.P,J3,15,Pin_15_15*%
%TO.N,/PA6*%
X143920000Y-77500000D03*
%TO.P,J3,16,Pin_16_16*%
%TO.N,/PA5*%
X146460000Y-77500000D03*
%TO.P,J3,17,Pin_17_17*%
%TO.N,/PA4*%
X149000000Y-77500000D03*
%TO.P,J3,18,Pin_18_18*%
%TO.N,/PA3*%
X151540000Y-77500000D03*
%TD*%
D38*
%TO.P,C4,1*%
%TO.N,+3.3V*%
X126500000Y-97500000D03*
%TO.P,C4,2*%
%TO.N,GND*%
X126500000Y-100205000D03*
%TD*%
D25*
%TO.P,C3,1*%
%TO.N,+5V*%
X115000000Y-98480000D03*
%TO.P,C3,2*%
%TO.N,GND*%
X115000000Y-97520000D03*
%TD*%
D39*
%TO.P,U3,1,I/O1_1*%
%TO.N,/USB_N*%
X119725000Y-84000000D03*
%TO.P,U3,2,GND_2*%
%TO.N,GND*%
X119725000Y-84950000D03*
%TO.P,U3,3,I/O2_3*%
%TO.N,/USB_P*%
X119725000Y-85900000D03*
%TO.P,U3,4,I/O2_4*%
%TO.N,/USB_DP*%
X122000000Y-85900000D03*
%TO.P,U3,5,VBUS_5*%
%TO.N,VBUS*%
X122000000Y-84950000D03*
%TO.P,U3,6,I/O1_6*%
%TO.N,/USB_DN*%
X122000000Y-84000000D03*
%TD*%
D10*
%TO.P,R8,1*%
%TO.N,/UART1_TX*%
X142990000Y-82000000D03*
%TO.P,R8,2*%
%TO.N,Net-(D4-K)*%
X144010000Y-82000000D03*
%TD*%
%TO.P,R1,1*%
%TO.N,Net-(J4-CC1)*%
X112990000Y-82000000D03*
%TO.P,R1,2*%
%TO.N,GND*%
X114010000Y-82000000D03*
%TD*%
D40*
%TO.N,GND*%
X123500000Y-101000000D03*
X115500000Y-94500000D03*
X116000000Y-101000000D03*
X152500000Y-81500000D03*
X140500000Y-96000000D03*
X125000000Y-82500000D03*
X134500000Y-87500000D03*
X143500000Y-100000000D03*
X112000000Y-93500000D03*
X123500000Y-99500000D03*
X127500000Y-87500000D03*
X149500000Y-82000000D03*
X133500000Y-88000000D03*
X137500000Y-102000000D03*
X130000000Y-102500000D03*
X124500000Y-99500000D03*
X122500000Y-99500000D03*
X113000000Y-93500000D03*
X117500000Y-82500000D03*
X135000000Y-102000000D03*
X135500000Y-88100000D03*
X120000000Y-94000000D03*
X120000000Y-102000000D03*
X133000000Y-82000000D03*
X117500000Y-79500000D03*
X130100000Y-80000000D03*
X120000000Y-103000000D03*
X136000000Y-91500000D03*
X138250000Y-95250000D03*
X124000000Y-93500000D03*
X124500000Y-102000000D03*
X140000000Y-85000000D03*
X111000000Y-96000000D03*
X145000000Y-86500000D03*
X147250000Y-90500000D03*
X135000000Y-80000000D03*
X111000000Y-97000000D03*
X115000000Y-95500000D03*
X121000000Y-82500000D03*
X145000000Y-79000000D03*
X149000000Y-98750000D03*
X141500000Y-97000000D03*
X119500000Y-88000000D03*
X122500000Y-101000000D03*
X118500000Y-92500000D03*
X147750000Y-97000000D03*
X145000000Y-102000000D03*
X114500000Y-101000000D03*
X125000000Y-92000000D03*
X130750000Y-82000000D03*
X137000000Y-91500000D03*
X110500000Y-101000000D03*
X109500000Y-101000000D03*
X124500000Y-101000000D03*
X140000000Y-82500000D03*
X149000000Y-102000000D03*
X123000000Y-92000000D03*
X142500000Y-88500000D03*
X146000000Y-95000000D03*
%TO.N,Net-(J4-CC1)*%
X112375000Y-86375000D03*
X111500000Y-82000000D03*
%TO.N,Net-(J4-CC2)*%
X110500000Y-82000000D03*
X111934313Y-88000000D03*
%TO.N,+3.3V*%
X119500000Y-91500000D03*
X147250000Y-88500000D03*
X119000000Y-90000000D03*
X132000000Y-81000000D03*
X147500000Y-86000000D03*
%TO.N,/BAT+*%
X140934313Y-92565687D03*
X123500000Y-88500000D03*
%TO.N,Net-(SW2-B)*%
X135500000Y-97950000D03*
X135500000Y-99500000D03*
%TO.N,/UART1_RX*%
X137500000Y-89500000D03*
X141600000Y-85000000D03*
%TO.N,/PA0*%
X137306148Y-87739106D03*
%TO.N,/PA2*%
X137000000Y-87000000D03*
%TO.N,/UART1_TX*%
X136500000Y-88900000D03*
X141500000Y-83500000D03*
%TO.N,/SW_DIO*%
X134000000Y-91000000D03*
%TO.N,/SW_CLK*%
X134000000Y-92000000D03*
%TO.N,/PA15*%
X131500000Y-94500000D03*
%TO.N,/PB3*%
X132000000Y-95500000D03*
%TO.N,/PB4*%
X133000000Y-96000000D03*
%TO.N,/PB5*%
X134000000Y-96000000D03*
%TO.N,/PB6*%
X135150000Y-96000000D03*
%TO.N,/PB7*%
X135100000Y-97000000D03*
%TO.N,/PB8*%
X137500000Y-97000000D03*
%TO.N,/PB9*%
X138500000Y-97000000D03*
%TD*%
%TO.N,/PA1*%
D41*
X140740000Y-87250000D02*
X139662500Y-87250000D01*
X142990000Y-85000000D02*
X140740000Y-87250000D01*
%TO.N,Net-(D3-K)*%
X145015000Y-85000000D02*
X144010000Y-85000000D01*
%TO.N,Net-(U1-PC15)*%
X144500000Y-91000000D02*
X144980000Y-91480000D01*
X144980000Y-91480000D02*
X146000000Y-91480000D01*
X139662500Y-90750000D02*
X143750000Y-90750000D01*
X144000000Y-91000000D02*
X144500000Y-91000000D01*
X143750000Y-90750000D02*
X144000000Y-91000000D01*
X143250000Y-90750000D02*
X143500000Y-91000000D01*
%TO.N,Net-(U1-PC14)*%
X139662500Y-91250000D02*
X141750000Y-91250000D01*
X144000000Y-93500000D02*
X145520000Y-93500000D01*
X141750000Y-91250000D02*
X144000000Y-93500000D01*
X145520000Y-93500000D02*
X146000000Y-93020000D01*
%TO.N,GND*%
D42*
X113975500Y-83970000D02*
X113505500Y-83500000D01*
D41*
X136818513Y-88100000D02*
X137057619Y-88339106D01*
X146000000Y-90520000D02*
X147230000Y-90520000D01*
X114250000Y-91095000D02*
X115095000Y-91095000D01*
X140500000Y-94500000D02*
X140500000Y-96000000D01*
X114250000Y-84595000D02*
X115405000Y-84595000D01*
X126000000Y-94030000D02*
X126000000Y-93015000D01*
X129840000Y-91500000D02*
X129820000Y-91520000D01*
X120387499Y-84950000D02*
X119725000Y-84950000D01*
X130000000Y-91500000D02*
X129840000Y-91500000D01*
X137750000Y-88750000D02*
X139662500Y-88750000D01*
X133000000Y-83000000D02*
X133000000Y-82000000D01*
X126000000Y-93015000D02*
X126015000Y-93000000D01*
X129500000Y-99500000D02*
X128795000Y-100205000D01*
X135500000Y-88100000D02*
X136818513Y-88100000D01*
D42*
X113975500Y-84200000D02*
X113975500Y-83970000D01*
D41*
X151500000Y-104500000D02*
X151500000Y-105000000D01*
X147230000Y-90520000D02*
X147250000Y-90500000D01*
X131337500Y-91750000D02*
X131287500Y-91700000D01*
X137057619Y-88339106D02*
X137339106Y-88339106D01*
X121000000Y-84337499D02*
X120387499Y-84950000D01*
D43*
X138250000Y-95250000D02*
X137750000Y-94750000D01*
D41*
X114475500Y-91045000D02*
X114475500Y-91170000D01*
X131287500Y-91700000D02*
X130200000Y-91700000D01*
X113010000Y-83200000D02*
X113335000Y-83525000D01*
X129820000Y-91520000D02*
X129000000Y-91520000D01*
D42*
X113975500Y-91045000D02*
X113505500Y-91515000D01*
D41*
X133250000Y-85337500D02*
X133250000Y-83250000D01*
X121000000Y-82500000D02*
X121000000Y-84337499D01*
X142500000Y-88500000D02*
X143450000Y-88500000D01*
D42*
X113505500Y-91515000D02*
X113505500Y-92140000D01*
D41*
X133250000Y-83250000D02*
X133000000Y-83000000D01*
X128795000Y-100205000D02*
X126500000Y-100205000D01*
X137339106Y-88339106D02*
X137750000Y-88750000D01*
X145000000Y-86500000D02*
X143980000Y-86500000D01*
X130200000Y-91700000D02*
X130000000Y-91500000D01*
D43*
X137750000Y-94750000D02*
X137750000Y-93662500D01*
D41*
X132550000Y-99500000D02*
X129500000Y-99500000D01*
X130750000Y-82000000D02*
X130750000Y-83740000D01*
%TO.N,VBUS*%
X120500000Y-87000000D02*
X120000000Y-87000000D01*
D43*
X113845500Y-85500000D02*
X113715500Y-85370000D01*
D42*
X116770000Y-91730000D02*
X116770000Y-90270000D01*
D43*
X111820000Y-85680000D02*
X113240001Y-85680000D01*
X111000000Y-86500000D02*
X111000000Y-94500000D01*
D41*
X121337501Y-84950000D02*
X120687500Y-85600001D01*
X116770000Y-89230000D02*
X116770000Y-90270000D01*
D42*
X110500000Y-94500000D02*
X111000000Y-94500000D01*
D43*
X113975500Y-90270000D02*
X114475500Y-90270000D01*
X113240001Y-85680000D02*
X113525001Y-85395000D01*
D41*
X119000000Y-87000000D02*
X116770000Y-89230000D01*
D43*
X111000000Y-86500000D02*
X111820000Y-85680000D01*
D42*
X114000000Y-94500000D02*
X116770000Y-91730000D01*
D41*
X120687500Y-86812500D02*
X120500000Y-87000000D01*
D43*
X113525001Y-85395000D02*
X114250000Y-85395000D01*
D41*
X120687500Y-85600001D02*
X120687500Y-86812500D01*
D44*
X109000000Y-96562500D02*
X109000000Y-96000000D01*
D42*
X114475500Y-90270000D02*
X116770000Y-90270000D01*
X109000000Y-96000000D02*
X110500000Y-94500000D01*
X111000000Y-94500000D02*
X114000000Y-94500000D01*
D41*
X120000000Y-87000000D02*
X119000000Y-87000000D01*
X122000000Y-84950000D02*
X121337501Y-84950000D01*
%TO.N,Net-(J4-CC1)*%
X112990000Y-82000000D02*
X111500000Y-82000000D01*
X112375000Y-86375000D02*
X112570000Y-86570000D01*
X112570000Y-86570000D02*
X113975500Y-86570000D01*
%TO.N,/USB_P*%
X118461397Y-85900000D02*
X116791397Y-87570000D01*
X119725000Y-85900000D02*
X118461397Y-85900000D01*
X115275000Y-88327410D02*
X115007410Y-88595000D01*
X115007410Y-87595000D02*
X115275000Y-87862590D01*
X114250000Y-87595000D02*
X115007410Y-87595000D01*
X116791397Y-87570000D02*
X114475500Y-87570000D01*
X115007410Y-88595000D02*
X114250000Y-88595000D01*
X115275000Y-87862590D02*
X115275000Y-88327410D01*
%TO.N,/USB_N*%
X116655000Y-87070000D02*
X118762500Y-84962500D01*
X118762500Y-84962500D02*
X118762500Y-84609448D01*
X114250000Y-88045000D02*
X113442590Y-88045000D01*
X113225000Y-87362590D02*
X113442590Y-87145000D01*
X114475500Y-87070000D02*
X116655000Y-87070000D01*
X114250000Y-87145000D02*
X114250000Y-87095000D01*
X118762500Y-84609448D02*
X119021948Y-84350000D01*
X113442590Y-88045000D02*
X113225000Y-87827410D01*
X113225000Y-87827410D02*
X113225000Y-87362590D01*
X113442590Y-87145000D02*
X114250000Y-87145000D01*
X114250000Y-88095000D02*
X114250000Y-88045000D01*
X119021948Y-84350000D02*
X119375000Y-84350000D01*
X119375000Y-84350000D02*
X119725000Y-84000000D01*
%TO.N,Net-(J4-CC2)*%
X114250000Y-89595000D02*
X113095000Y-89595000D01*
X111934313Y-88434313D02*
X111934313Y-88000000D01*
X110500000Y-82000000D02*
X109510000Y-82000000D01*
X113095000Y-89595000D02*
X111934313Y-88434313D01*
%TO.N,/nRST*%
X139662500Y-89250000D02*
X139662500Y-89200000D01*
X138892590Y-89250000D02*
X138500000Y-89642590D01*
X139000000Y-93000000D02*
X140500000Y-93000000D01*
X139662500Y-89250000D02*
X140750000Y-89250000D01*
X146000000Y-87010000D02*
X146000000Y-87500000D01*
X143980000Y-97000000D02*
X143980000Y-97755000D01*
X149000000Y-87500000D02*
X149540000Y-86960000D01*
X138500000Y-92500000D02*
X139000000Y-93000000D01*
X150960000Y-87500000D02*
X151500000Y-86960000D01*
X146000000Y-87500000D02*
X147000000Y-87500000D01*
X149540000Y-86960000D02*
X151500000Y-86960000D01*
X138500000Y-89642590D02*
X138500000Y-92500000D01*
X147500000Y-87500000D02*
X149000000Y-87500000D01*
X142500000Y-87500000D02*
X146000000Y-87500000D01*
X143990000Y-96490000D02*
X143980000Y-96500000D01*
X143980000Y-96500000D02*
X143980000Y-97000000D01*
X147000000Y-87500000D02*
X147500000Y-87500000D01*
X140500000Y-93000000D02*
X143990000Y-96490000D01*
X139662500Y-89250000D02*
X138892590Y-89250000D01*
X143980000Y-97755000D02*
X145725000Y-99500000D01*
X140750000Y-89250000D02*
X142500000Y-87500000D01*
%TO.N,+3.3V*%
D43*
X139540000Y-96960000D02*
X138000000Y-98500000D01*
D45*
X121500000Y-96500000D02*
X124150000Y-96500000D01*
D42*
X147500000Y-86000000D02*
X147500000Y-85000000D01*
X145985000Y-85975000D02*
X146000000Y-85990000D01*
D43*
X133000000Y-98500000D02*
X133350000Y-98500000D01*
D41*
X143020000Y-86500000D02*
X143630000Y-85890000D01*
D43*
X129730000Y-92250000D02*
X131337500Y-92250000D01*
D44*
X121000000Y-99000000D02*
X118480000Y-101520000D01*
D41*
X142500000Y-86500000D02*
X143020000Y-86500000D01*
X139662500Y-88250000D02*
X140750000Y-88250000D01*
X133350000Y-100500000D02*
X137650000Y-100500000D01*
D42*
X132000000Y-81000000D02*
X132000000Y-82980000D01*
D41*
X133450000Y-100400000D02*
X133450000Y-98600000D01*
D43*
X129000000Y-94000000D02*
X129000000Y-92480000D01*
X127000000Y-95020000D02*
X127980000Y-95020000D01*
D42*
X147000000Y-85000000D02*
X150920000Y-85000000D01*
D44*
X120900000Y-91050000D02*
X121000000Y-91150000D01*
X119500000Y-90500000D02*
X119500000Y-91000000D01*
D45*
X125150000Y-97500000D02*
X126500000Y-97500000D01*
D41*
X143630000Y-85890000D02*
X145900000Y-85890000D01*
D44*
X119500000Y-91500000D02*
X119500000Y-91000000D01*
X118480000Y-105000000D02*
X115940000Y-105000000D01*
X120850000Y-91000000D02*
X120900000Y-91050000D01*
D42*
X147000000Y-85000000D02*
X145985000Y-85000000D01*
X132040000Y-83020000D02*
X132040000Y-84677500D01*
X145985000Y-85000000D02*
X145985000Y-82000000D01*
D41*
X131337500Y-92200000D02*
X131337500Y-92250000D01*
X133350000Y-98500000D02*
X133450000Y-98600000D01*
X145200000Y-89300000D02*
X146000000Y-88500000D01*
D43*
X126500000Y-97500000D02*
X132000000Y-97500000D01*
D41*
X140750000Y-88250000D02*
X142500000Y-86500000D01*
D43*
X139540000Y-94500000D02*
X139540000Y-96960000D01*
X138702500Y-93662500D02*
X139540000Y-94500000D01*
D41*
X147250000Y-88500000D02*
X146000000Y-88500000D01*
D43*
X132000000Y-97500000D02*
X133000000Y-98500000D01*
D45*
X126500000Y-97500000D02*
X126500000Y-95520000D01*
D42*
X145985000Y-85000000D02*
X145985000Y-85975000D01*
D44*
X121800000Y-96500000D02*
X121000000Y-96500000D01*
X126030000Y-95020000D02*
X126000000Y-94990000D01*
X127000000Y-95020000D02*
X126030000Y-95020000D01*
X121000000Y-96500000D02*
X121000000Y-99000000D01*
D43*
X127980000Y-95020000D02*
X129000000Y-94000000D01*
D44*
X119500000Y-91000000D02*
X120850000Y-91000000D01*
D43*
X133450000Y-98600000D02*
X137550000Y-98600000D01*
D42*
X132000000Y-82980000D02*
X132040000Y-83020000D01*
D41*
X144550000Y-89300000D02*
X145200000Y-89300000D01*
D42*
X132040000Y-84677500D02*
X132700000Y-85337500D01*
D44*
X118480000Y-101520000D02*
X118480000Y-105000000D01*
X119000000Y-90000000D02*
X119500000Y-90500000D01*
D43*
X129500000Y-92480000D02*
X129730000Y-92250000D01*
D41*
X145900000Y-85890000D02*
X146000000Y-85990000D01*
D43*
X129000000Y-92480000D02*
X129500000Y-92480000D01*
D45*
X117850000Y-96500000D02*
X121500000Y-96500000D01*
D41*
X121000000Y-91050000D02*
X120900000Y-91050000D01*
X133350000Y-100500000D02*
X133450000Y-100400000D01*
X150920000Y-85000000D02*
X151500000Y-84420000D01*
X137550000Y-98600000D02*
X137650000Y-98500000D01*
D43*
X138000000Y-98500000D02*
X137650000Y-98500000D01*
X138250000Y-93662500D02*
X138702500Y-93662500D01*
D44*
X121000000Y-91150000D02*
X121500000Y-91650000D01*
X121500000Y-91650000D02*
X121500000Y-96500000D01*
%TO.N,Net-(D4-K)*%
D41*
X144010000Y-82000000D02*
X145015000Y-82000000D01*
%TO.N,Net-(D1-K)*%
X121000000Y-88950000D02*
X121125000Y-88950000D01*
D43*
X121125000Y-88950000D02*
X123000000Y-90825000D01*
%TO.N,/BAT+*%
D41*
X140934313Y-92565687D02*
X140868626Y-92500000D01*
X140500000Y-92500000D02*
X140250000Y-92250000D01*
X140250000Y-92250000D02*
X139662500Y-92250000D01*
D43*
X123500000Y-88500000D02*
X123500000Y-88675000D01*
D41*
X140868626Y-92500000D02*
X140500000Y-92500000D01*
D43*
X123500000Y-88675000D02*
X123000000Y-89175000D01*
%TO.N,+5V*%
D44*
X112500000Y-99852500D02*
X113627500Y-99852500D01*
X111352500Y-99852500D02*
X112500000Y-99852500D01*
X109000000Y-98437500D02*
X109000000Y-99000000D01*
X115000000Y-98480000D02*
X115480000Y-98480000D01*
X115800000Y-98800000D02*
X117850000Y-98800000D01*
X113627500Y-99852500D02*
X115000000Y-98480000D01*
X109000000Y-98437500D02*
X109937500Y-98437500D01*
X109937500Y-98437500D02*
X111352500Y-99852500D01*
X109000000Y-99000000D02*
X108320000Y-99680000D01*
X115480000Y-98480000D02*
X115800000Y-98800000D01*
X108320000Y-99680000D02*
X108320000Y-105000000D01*
%TO.N,Net-(SW2-B)*%
D41*
X138450000Y-99500000D02*
X135500000Y-99500000D01*
X136440000Y-97010000D02*
X135500000Y-97950000D01*
X136500000Y-97010000D02*
X136440000Y-97010000D01*
%TO.N,Net-(U1-BOOT0)*%
X136250000Y-95740000D02*
X136500000Y-95990000D01*
X136250000Y-93662500D02*
X136250000Y-95740000D01*
%TO.N,/UART1_RX*%
X133750000Y-89750000D02*
X131337500Y-89750000D01*
X137500000Y-89500000D02*
X134000000Y-89500000D01*
X134000000Y-89500000D02*
X133750000Y-89750000D01*
X141600000Y-85000000D02*
X141600000Y-84890000D01*
X141600000Y-84890000D02*
X142990000Y-83500000D01*
%TO.N,Net-(D5-K)*%
X145015000Y-83500000D02*
X144010000Y-83500000D01*
%TO.N,/PC13*%
X145000000Y-96000000D02*
X147500000Y-98500000D01*
X146420000Y-104097372D02*
X146420000Y-105000000D01*
X147500000Y-103017372D02*
X146420000Y-104097372D01*
X141465687Y-91965687D02*
X142000000Y-92500000D01*
X144250000Y-96000000D02*
X145000000Y-96000000D01*
X147500000Y-98500000D02*
X147500000Y-103017372D01*
X142000000Y-93750000D02*
X144250000Y-96000000D01*
X140750000Y-91750000D02*
X140965687Y-91965687D01*
X139662500Y-91750000D02*
X140750000Y-91750000D01*
X142000000Y-92500000D02*
X142000000Y-93750000D01*
X140965687Y-91965687D02*
X141465687Y-91965687D01*
%TO.N,Net-(U1-PD0)*%
X141732843Y-89300000D02*
X143450000Y-89300000D01*
X140832843Y-90200000D02*
X141732843Y-89300000D01*
X139662500Y-90250000D02*
X139712500Y-90200000D01*
X139712500Y-90200000D02*
X140832843Y-90200000D01*
%TO.N,/PA0*%
X137739106Y-87739106D02*
X137750000Y-87750000D01*
X137306148Y-87739106D02*
X137739106Y-87739106D01*
X137750000Y-87750000D02*
X139662500Y-87750000D01*
%TO.N,/PA2*%
X137250000Y-86750000D02*
X137000000Y-87000000D01*
X139662500Y-86750000D02*
X137250000Y-86750000D01*
%TO.N,/PA3*%
X148565686Y-80500000D02*
X151000000Y-80500000D01*
X138250000Y-85337500D02*
X138250000Y-83000000D01*
X151540000Y-79960000D02*
X151540000Y-78000000D01*
X151000000Y-80500000D02*
X151540000Y-79960000D01*
X138250000Y-83000000D02*
X140450000Y-80800000D01*
X140450000Y-80800000D02*
X148265686Y-80800000D01*
X148265686Y-80800000D02*
X148565686Y-80500000D01*
%TO.N,/PA4*%
X137750000Y-85337500D02*
X137750000Y-82887058D01*
X148100000Y-80400000D02*
X149000000Y-79500000D01*
X140237058Y-80400000D02*
X148100000Y-80400000D01*
X137750000Y-82887058D02*
X140237058Y-80400000D01*
X149000000Y-79500000D02*
X149000000Y-78000000D01*
%TO.N,/PA5*%
X146000000Y-80000000D02*
X146460000Y-79540000D01*
X137250000Y-82821372D02*
X140071372Y-80000000D01*
X140071372Y-80000000D02*
X146000000Y-80000000D01*
X137250000Y-85337500D02*
X137250000Y-82821372D01*
X146460000Y-79540000D02*
X146460000Y-78000000D01*
%TO.N,/PA6*%
X136750000Y-82755686D02*
X140005686Y-79500000D01*
X136750000Y-85337500D02*
X136750000Y-82755686D01*
X142420000Y-79500000D02*
X143920000Y-78000000D01*
X140005686Y-79500000D02*
X142420000Y-79500000D01*
%TO.N,/PA7*%
X136250000Y-82690000D02*
X140940000Y-78000000D01*
X136250000Y-85337500D02*
X136250000Y-82690000D01*
X140940000Y-78000000D02*
X141380000Y-78000000D01*
%TO.N,/PB0*%
X135750000Y-81090000D02*
X138840000Y-78000000D01*
X135750000Y-85337500D02*
X135750000Y-81090000D01*
%TO.N,/PB1*%
X136500000Y-79500000D02*
X136500000Y-78200000D01*
X135250000Y-80750000D02*
X136500000Y-79500000D01*
X135250000Y-85337500D02*
X135250000Y-80750000D01*
X136500000Y-78200000D02*
X136300000Y-78000000D01*
%TO.N,Net-(U1-PB2)*%
X131162590Y-85020000D02*
X130750000Y-85020000D01*
X134482410Y-86375000D02*
X132517590Y-86375000D01*
X134750000Y-86107410D02*
X134482410Y-86375000D01*
X132517590Y-86375000D02*
X131162590Y-85020000D01*
X134750000Y-85337500D02*
X134750000Y-86107410D01*
%TO.N,/PB10*%
X134200000Y-84517590D02*
X134500000Y-84217590D01*
X134250000Y-85337500D02*
X134200000Y-85287500D01*
X134500000Y-81967157D02*
X133500000Y-80967157D01*
X133500000Y-78260000D02*
X133760000Y-78000000D01*
X134200000Y-85287500D02*
X134200000Y-84517590D01*
X134500000Y-84217590D02*
X134500000Y-81967157D01*
X133500000Y-80967157D02*
X133500000Y-78260000D01*
%TO.N,/PB11*%
X134000000Y-82032842D02*
X131220000Y-79252843D01*
X133750000Y-84250000D02*
X134000000Y-84000000D01*
X131220000Y-79252843D02*
X131220000Y-78000000D01*
X133750000Y-85337500D02*
X133750000Y-84250000D01*
X134000000Y-84000000D02*
X134000000Y-82032842D01*
%TO.N,/PB12*%
X130750000Y-86750000D02*
X129500000Y-85500000D01*
X128680000Y-78320000D02*
X128680000Y-78000000D01*
X129500000Y-85500000D02*
X129500000Y-79140000D01*
X131337500Y-86750000D02*
X130750000Y-86750000D01*
X129500000Y-79140000D02*
X128680000Y-78320000D01*
%TO.N,/PB13*%
X129000000Y-80500000D02*
X126500000Y-78000000D01*
X130567590Y-87250000D02*
X129000000Y-85682410D01*
X129000000Y-85682410D02*
X129000000Y-80500000D01*
X131337500Y-87250000D02*
X130567590Y-87250000D01*
X126500000Y-78000000D02*
X126140000Y-78000000D01*
%TO.N,/PB14*%
X127250000Y-79500000D02*
X124990000Y-79500000D01*
X123600000Y-78110000D02*
X123600000Y-78000000D01*
X128600000Y-85848095D02*
X128600000Y-80850000D01*
X131337500Y-87750000D02*
X130501905Y-87750000D01*
X128600000Y-80850000D02*
X127250000Y-79500000D01*
X130501905Y-87750000D02*
X128600000Y-85848095D01*
X124990000Y-79500000D02*
X123600000Y-78110000D01*
%TO.N,/PB15*%
X121060000Y-78560000D02*
X121060000Y-78000000D01*
X131337500Y-88250000D02*
X130436220Y-88250000D01*
X126900000Y-79900000D02*
X124824314Y-79900000D01*
X128200000Y-86013780D02*
X128200000Y-81200000D01*
X128200000Y-81200000D02*
X126900000Y-79900000D01*
X124824314Y-79900000D02*
X124424314Y-79500000D01*
X124424314Y-79500000D02*
X122000000Y-79500000D01*
X122000000Y-79500000D02*
X121060000Y-78560000D01*
X130436220Y-88250000D02*
X128200000Y-86013780D01*
%TO.N,/PA8*%
X127800000Y-86179465D02*
X127800000Y-81431372D01*
X124358628Y-80000000D02*
X120000000Y-80000000D01*
X118520000Y-78520000D02*
X118520000Y-78000000D01*
X130370535Y-88750000D02*
X127800000Y-86179465D01*
X120000000Y-80000000D02*
X118520000Y-78520000D01*
X127800000Y-81431372D02*
X126668628Y-80300000D01*
X124658628Y-80300000D02*
X124358628Y-80000000D01*
X131337500Y-88750000D02*
X130370535Y-88750000D01*
X126668628Y-80300000D02*
X124658628Y-80300000D01*
%TO.N,/UART1_TX*%
X142990000Y-82010000D02*
X141500000Y-83500000D01*
X133834314Y-89100000D02*
X133684315Y-89250000D01*
X136300000Y-89100000D02*
X133834314Y-89100000D01*
X142990000Y-82000000D02*
X142990000Y-82010000D01*
X133684315Y-89250000D02*
X131337500Y-89250000D01*
X136500000Y-88900000D02*
X136300000Y-89100000D01*
%TO.N,/USB_DN*%
X122703052Y-84350000D02*
X122962500Y-84609448D01*
X122000000Y-84000000D02*
X122350000Y-84350000D01*
X122350000Y-84350000D02*
X122703052Y-84350000D01*
X122525000Y-84000000D02*
X122000000Y-84000000D01*
X131312500Y-90275000D02*
X131337500Y-90250000D01*
X122962500Y-84609448D02*
X122962500Y-84962500D01*
X122962500Y-84962500D02*
X128275000Y-90275000D01*
X128275000Y-90275000D02*
X131312500Y-90275000D01*
%TO.N,/USB_DP*%
X123263603Y-85900000D02*
X128088603Y-90725000D01*
X122000000Y-85900000D02*
X123263603Y-85900000D01*
X128088603Y-90725000D02*
X131312500Y-90725000D01*
X131312500Y-90725000D02*
X131337500Y-90750000D01*
%TO.N,/SW_DIO*%
X133000000Y-91000000D02*
X132750000Y-91250000D01*
X134000000Y-91000000D02*
X133000000Y-91000000D01*
X132750000Y-91250000D02*
X131337500Y-91250000D01*
%TO.N,/SW_CLK*%
X133000000Y-92000000D02*
X132750000Y-92250000D01*
X132750000Y-92250000D02*
X132750000Y-93662500D01*
X134000000Y-92000000D02*
X133000000Y-92000000D01*
%TO.N,/PA15*%
X131700000Y-94700000D02*
X131500000Y-94500000D01*
X133250000Y-94432410D02*
X132982410Y-94700000D01*
X132982410Y-94700000D02*
X131700000Y-94700000D01*
X133250000Y-93662500D02*
X133250000Y-94432410D01*
%TO.N,/PB3*%
X133750000Y-93662500D02*
X133750000Y-94498095D01*
X133148095Y-95100000D02*
X132400000Y-95100000D01*
X133750000Y-94498095D02*
X133148095Y-95100000D01*
X132400000Y-95100000D02*
X132000000Y-95500000D01*
%TO.N,/PB4*%
X134250000Y-93662500D02*
X134250000Y-94750000D01*
X134250000Y-94750000D02*
X133000000Y-96000000D01*
%TO.N,/PB5*%
X134750000Y-95250000D02*
X134750000Y-93662500D01*
X134000000Y-96000000D02*
X134750000Y-95250000D01*
%TO.N,/PB6*%
X135150000Y-96000000D02*
X135250000Y-95900000D01*
X135250000Y-95900000D02*
X135250000Y-93662500D01*
%TO.N,/PB7*%
X135100000Y-97000000D02*
X135750000Y-96350000D01*
X135750000Y-96350000D02*
X135750000Y-93662500D01*
%TO.N,/PB8*%
X137500000Y-97000000D02*
X137500000Y-96000000D01*
X136750000Y-95250000D02*
X136750000Y-93662500D01*
X137500000Y-96000000D02*
X136750000Y-95250000D01*
%TO.N,/PB9*%
X137250000Y-93662500D02*
X137250000Y-95184314D01*
X137250000Y-95184314D02*
X138500000Y-96434314D01*
X138500000Y-96434314D02*
X138500000Y-97000000D01*
%TO.N,Net-(D2-A)*%
X127000000Y-93015000D02*
X126985000Y-93000000D01*
X127000000Y-94000000D02*
X127000000Y-93015000D01*
%TD*%
%TA.AperFunction,Conductor*%
%TO.N,GND*%
G36*
X115283508Y-99360371D02*
G01*
X115318836Y-99380696D01*
X115321585Y-99382952D01*
X115444498Y-99465080D01*
X115444511Y-99465087D01*
X115581082Y-99521656D01*
X115581087Y-99521658D01*
X115581091Y-99521658D01*
X115581092Y-99521659D01*
X115726079Y-99550500D01*
X115726082Y-99550500D01*
X115873917Y-99550500D01*
X116357058Y-99550500D01*
X116424097Y-99570185D01*
X116468146Y-99619406D01*
X116482969Y-99649295D01*
X116602277Y-99797721D01*
X116602278Y-99797722D01*
X116750704Y-99917030D01*
X116750707Y-99917032D01*
X116921302Y-100001639D01*
X116921303Y-100001639D01*
X116921307Y-100001641D01*
X117106111Y-100047600D01*
X117148877Y-100050500D01*
X118551122Y-100050499D01*
X118582816Y-100048350D01*
X118651032Y-100063454D01*
X118700254Y-100113042D01*
X118714854Y-100181369D01*
X118690195Y-100246743D01*
X118678884Y-100259747D01*
X117897048Y-101041583D01*
X117891426Y-101049998D01*
X117857683Y-101100500D01*
X117857682Y-101100501D01*
X117814919Y-101164499D01*
X117814912Y-101164511D01*
X117758343Y-101301082D01*
X117758340Y-101301092D01*
X117729500Y-101446079D01*
X117729500Y-103812779D01*
X117709815Y-103879818D01*
X117678385Y-103913097D01*
X117600211Y-103969893D01*
X117600205Y-103969898D01*
X117449892Y-104120211D01*
X117393097Y-104198385D01*
X117337767Y-104241051D01*
X117292779Y-104249500D01*
X117127221Y-104249500D01*
X117060182Y-104229815D01*
X117026903Y-104198385D01*
X116970107Y-104120211D01*
X116819786Y-103969890D01*
X116647820Y-103844951D01*
X116458414Y-103748444D01*
X116458413Y-103748443D01*
X116458412Y-103748443D01*
X116256243Y-103682754D01*
X116256241Y-103682753D01*
X116256240Y-103682753D01*
X116094957Y-103657208D01*
X116046287Y-103649500D01*
X115833713Y-103649500D01*
X115785042Y-103657208D01*
X115623760Y-103682753D01*
X115421585Y-103748444D01*
X115232179Y-103844951D01*
X115060213Y-103969890D01*
X114909890Y-104120213D01*
X114784949Y-104292182D01*
X114780202Y-104301499D01*
X114732227Y-104352293D01*
X114664405Y-104369087D01*
X114598271Y-104346548D01*
X114559234Y-104301495D01*
X114554626Y-104292452D01*
X114515270Y-104238282D01*
X114515269Y-104238282D01*
X113882962Y-104870590D01*
X113865925Y-104807007D01*
X113800099Y-104692993D01*
X113707007Y-104599901D01*
X113592993Y-104534075D01*
X113529409Y-104517037D01*
X114161716Y-103884728D01*
X114107550Y-103845375D01*
X113918217Y-103748904D01*
X113716129Y-103683242D01*
X113506246Y-103650000D01*
X113293754Y-103650000D01*
X113083872Y-103683242D01*
X113083869Y-103683242D01*
X112881782Y-103748904D01*
X112692439Y-103845380D01*
X112638282Y-103884727D01*
X112638282Y-103884728D01*
X113270591Y-104517037D01*
X113207007Y-104534075D01*
X113092993Y-104599901D01*
X112999901Y-104692993D01*
X112934075Y-104807007D01*
X112917037Y-104870591D01*
X112284728Y-104238282D01*
X112284727Y-104238282D01*
X112245380Y-104292440D01*
X112240483Y-104302051D01*
X112192506Y-104352845D01*
X112124684Y-104369638D01*
X112058550Y-104347098D01*
X112019516Y-104302048D01*
X112014626Y-104292452D01*
X111975270Y-104238282D01*
X111975269Y-104238282D01*
X111342962Y-104870590D01*
X111325925Y-104807007D01*
X111260099Y-104692993D01*
X111167007Y-104599901D01*
X111052993Y-104534075D01*
X110989409Y-104517037D01*
X111621716Y-103884728D01*
X111567550Y-103845375D01*
X111378217Y-103748904D01*
X111176129Y-103683242D01*
X110966246Y-103650000D01*
X110753754Y-103650000D01*
X110543872Y-103683242D01*
X110543869Y-103683242D01*
X110341782Y-103748904D01*
X110152439Y-103845380D01*
X110098282Y-103884727D01*
X110098282Y-103884728D01*
X110730591Y-104517037D01*
X110667007Y-104534075D01*
X110552993Y-104599901D01*
X110459901Y-104692993D01*
X110394075Y-104807007D01*
X110377037Y-104870591D01*
X109706818Y-104200372D01*
X109673333Y-104139049D01*
X109673330Y-104139036D01*
X109670499Y-104126015D01*
X109670499Y-104102128D01*
X109664091Y-104042517D01*
X109635540Y-103965967D01*
X109613798Y-103907673D01*
X109613793Y-103907664D01*
X109527547Y-103792455D01*
X109527544Y-103792452D01*
X109412335Y-103706206D01*
X109412328Y-103706202D01*
X109277482Y-103655908D01*
X109277483Y-103655908D01*
X109217883Y-103649501D01*
X109217881Y-103649500D01*
X109217873Y-103649500D01*
X109217865Y-103649500D01*
X109194500Y-103649500D01*
X109127461Y-103629815D01*
X109081706Y-103577011D01*
X109070500Y-103525500D01*
X109070500Y-100042229D01*
X109090185Y-99975190D01*
X109106819Y-99954548D01*
X109337746Y-99723621D01*
X109582951Y-99478416D01*
X109606574Y-99443060D01*
X109660183Y-99398255D01*
X109670655Y-99394249D01*
X109719907Y-99377929D01*
X109789730Y-99375528D01*
X109846587Y-99407955D01*
X110874080Y-100435448D01*
X110874084Y-100435451D01*
X110996998Y-100517580D01*
X110997011Y-100517587D01*
X111133582Y-100574156D01*
X111133587Y-100574158D01*
X111133591Y-100574158D01*
X111133592Y-100574159D01*
X111278579Y-100603000D01*
X111278582Y-100603000D01*
X111284736Y-100603000D01*
X111351775Y-100622685D01*
X111390273Y-100661901D01*
X111462288Y-100778656D01*
X111586344Y-100902712D01*
X111735666Y-100994814D01*
X111902203Y-101049999D01*
X112004991Y-101060500D01*
X112995008Y-101060499D01*
X112995016Y-101060498D01*
X112995019Y-101060498D01*
X113051302Y-101054748D01*
X113097797Y-101049999D01*
X113264334Y-100994814D01*
X113413656Y-100902712D01*
X113537712Y-100778656D01*
X113610226Y-100661090D01*
X113662174Y-100614366D01*
X113695608Y-100605021D01*
X113695443Y-100604189D01*
X113802360Y-100582920D01*
X113846413Y-100574158D01*
X113982995Y-100517584D01*
X114032229Y-100484686D01*
X114105916Y-100435452D01*
X115152496Y-99388870D01*
X115213817Y-99355387D01*
X115283508Y-99360371D01*
G37*
%TD.AperFunction*%
%TA.AperFunction,Conductor*%
G36*
X140693039Y-94519685D02*
G01*
X140738794Y-94572489D01*
X140750000Y-94624000D01*
X140750000Y-95304503D01*
X140896195Y-95262031D01*
X141035374Y-95179721D01*
X141035383Y-95179714D01*
X141149714Y-95065383D01*
X141149721Y-95065374D01*
X141232031Y-94926195D01*
X141232032Y-94926193D01*
X141251185Y-94860266D01*
X141288791Y-94801379D01*
X141352263Y-94772172D01*
X141421450Y-94781917D01*
X141457943Y-94807178D01*
X142680831Y-96030066D01*
X142714316Y-96091389D01*
X142709332Y-96161081D01*
X142667460Y-96217014D01*
X142627745Y-96236823D01*
X142623809Y-96237966D01*
X142623804Y-96237968D01*
X142484625Y-96320278D01*
X142484616Y-96320285D01*
X142370285Y-96434616D01*
X142370278Y-96434625D01*
X142287968Y-96573804D01*
X142287966Y-96573809D01*
X142242855Y-96729081D01*
X142242854Y-96729087D01*
X142241209Y-96749999D01*
X142241210Y-96750000D01*
X142896000Y-96750000D01*
X142963039Y-96769685D01*
X143008794Y-96822489D01*
X143020000Y-96874000D01*
X143020000Y-97000000D01*
X143075500Y-97000000D01*
X143142539Y-97019685D01*
X143188294Y-97072489D01*
X143199500Y-97124000D01*
X143199500Y-97234697D01*
X143202356Y-97270991D01*
X143202357Y-97270997D01*
X143247503Y-97426389D01*
X143247505Y-97426393D01*
X143247506Y-97426395D01*
X143252732Y-97435233D01*
X143270000Y-97498352D01*
X143270000Y-97804504D01*
X143280727Y-97812559D01*
X143312515Y-97812650D01*
X143371185Y-97850591D01*
X143397016Y-97899431D01*
X143420423Y-97986785D01*
X143430428Y-98004113D01*
X143431099Y-98005276D01*
X143499477Y-98123712D01*
X143499481Y-98123717D01*
X143618349Y-98242585D01*
X143618355Y-98242590D01*
X144663181Y-99287417D01*
X144696666Y-99348740D01*
X144699500Y-99375098D01*
X144699500Y-100300001D01*
X144699501Y-100300019D01*
X144710000Y-100402796D01*
X144710001Y-100402799D01*
X144765185Y-100569331D01*
X144765187Y-100569336D01*
X144785951Y-100603000D01*
X144857288Y-100718656D01*
X144981344Y-100842712D01*
X145130666Y-100934814D01*
X145297203Y-100989999D01*
X145399991Y-101000500D01*
X146050008Y-101000499D01*
X146050016Y-101000498D01*
X146050019Y-101000498D01*
X146106302Y-100994748D01*
X146152797Y-100989999D01*
X146319334Y-100934814D01*
X146468656Y-100842712D01*
X146592712Y-100718656D01*
X146669961Y-100593413D01*
X146721909Y-100546689D01*
X146790871Y-100535466D01*
X146854953Y-100563309D01*
X146893810Y-100621378D01*
X146899500Y-100658510D01*
X146899500Y-102717274D01*
X146879815Y-102784313D01*
X146863181Y-102804955D01*
X146051283Y-103616853D01*
X145949455Y-103718679D01*
X145905659Y-103745524D01*
X145906095Y-103746576D01*
X145901589Y-103748442D01*
X145712182Y-103844949D01*
X145540213Y-103969890D01*
X145389890Y-104120213D01*
X145264949Y-104292182D01*
X145260484Y-104300946D01*
X145212509Y-104351742D01*
X145144688Y-104368536D01*
X145078553Y-104345998D01*
X145039516Y-104300946D01*
X145035050Y-104292182D01*
X144910109Y-104120213D01*
X144759786Y-103969890D01*
X144587820Y-103844951D01*
X144398414Y-103748444D01*
X144398413Y-103748443D01*
X144398412Y-103748443D01*
X144196243Y-103682754D01*
X144196241Y-103682753D01*
X144196240Y-103682753D01*
X144034957Y-103657208D01*
X143986287Y-103649500D01*
X143773713Y-103649500D01*
X143725042Y-103657208D01*
X143563760Y-103682753D01*
X143361585Y-103748444D01*
X143172179Y-103844951D01*
X143000213Y-103969890D01*
X142849890Y-104120213D01*
X142724949Y-104292182D01*
X142720484Y-104300946D01*
X142672509Y-104351742D01*
X142604688Y-104368536D01*
X142538553Y-104345998D01*
X142499516Y-104300946D01*
X142495050Y-104292182D01*
X142370109Y-104120213D01*
X142219786Y-103969890D01*
X142047820Y-103844951D01*
X141858414Y-103748444D01*
X141858413Y-103748443D01*
X141858412Y-103748443D01*
X141656243Y-103682754D01*
X141656241Y-103682753D01*
X141656240Y-103682753D01*
X141494957Y-103657208D01*
X141446287Y-103649500D01*
X141233713Y-103649500D01*
X141185042Y-103657208D01*
X141023760Y-103682753D01*
X140821585Y-103748444D01*
X140632179Y-103844951D01*
X140460213Y-103969890D01*
X140309890Y-104120213D01*
X140184949Y-104292182D01*
X140180484Y-104300946D01*
X140132509Y-104351742D01*
X140064688Y-104368536D01*
X139998553Y-104345998D01*
X139959516Y-104300946D01*
X139955050Y-104292182D01*
X139830109Y-104120213D01*
X139679786Y-103969890D01*
X139507820Y-103844951D01*
X139318414Y-103748444D01*
X139318413Y-103748443D01*
X139318412Y-103748443D01*
X139116243Y-103682754D01*
X139116241Y-103682753D01*
X139116240Y-103682753D01*
X138954957Y-103657208D01*
X138906287Y-103649500D01*
X138693713Y-103649500D01*
X138645042Y-103657208D01*
X138483760Y-103682753D01*
X138281585Y-103748444D01*
X138092179Y-103844951D01*
X137920213Y-103969890D01*
X137769890Y-104120213D01*
X137644949Y-104292182D01*
X137640484Y-104300946D01*
X137592509Y-104351742D01*
X137524688Y-104368536D01*
X137458553Y-104345998D01*
X137419516Y-104300946D01*
X137415050Y-104292182D01*
X137290109Y-104120213D01*
X137139786Y-103969890D01*
X136967820Y-103844951D01*
X136778414Y-103748444D01*
X136778413Y-103748443D01*
X136778412Y-103748443D01*
X136576243Y-103682754D01*
X136576241Y-103682753D01*
X136576240Y-103682753D01*
X136414957Y-103657208D01*
X136366287Y-103649500D01*
X136153713Y-103649500D01*
X136105042Y-103657208D01*
X135943760Y-103682753D01*
X135741585Y-103748444D01*
X135552179Y-103844951D01*
X135380213Y-103969890D01*
X135229890Y-104120213D01*
X135104949Y-104292182D01*
X135100484Y-104300946D01*
X135052509Y-104351742D01*
X134984688Y-104368536D01*
X134918553Y-104345998D01*
X134879516Y-104300946D01*
X134875050Y-104292182D01*
X134750109Y-104120213D01*
X134599786Y-103969890D01*
X134427820Y-103844951D01*
X134238414Y-103748444D01*
X134238413Y-103748443D01*
X134238412Y-103748443D01*
X134036243Y-103682754D01*
X134036241Y-103682753D01*
X134036240Y-103682753D01*
X133874957Y-103657208D01*
X133826287Y-103649500D01*
X133613713Y-103649500D01*
X133565042Y-103657208D01*
X133403760Y-103682753D01*
X133201585Y-103748444D01*
X133012179Y-103844951D01*
X132840213Y-103969890D01*
X132689890Y-104120213D01*
X132564949Y-104292182D01*
X132560484Y-104300946D01*
X132512509Y-104351742D01*
X132444688Y-104368536D01*
X132378553Y-104345998D01*
X132339516Y-104300946D01*
X132335050Y-104292182D01*
X132210109Y-104120213D01*
X132059786Y-103969890D01*
X131887820Y-103844951D01*
X131698414Y-103748444D01*
X131698413Y-103748443D01*
X131698412Y-103748443D01*
X131496243Y-103682754D01*
X131496241Y-103682753D01*
X131496240Y-103682753D01*
X131334957Y-103657208D01*
X131286287Y-103649500D01*
X131073713Y-103649500D01*
X131025042Y-103657208D01*
X130863760Y-103682753D01*
X130661585Y-103748444D01*
X130472179Y-103844951D01*
X130300213Y-103969890D01*
X130149890Y-104120213D01*
X130024949Y-104292182D01*
X130020484Y-104300946D01*
X129972509Y-104351742D01*
X129904688Y-104368536D01*
X129838553Y-104345998D01*
X129799516Y-104300946D01*
X129795050Y-104292182D01*
X129670109Y-104120213D01*
X129519786Y-103969890D01*
X129347820Y-103844951D01*
X129158414Y-103748444D01*
X129158413Y-103748443D01*
X129158412Y-103748443D01*
X128956243Y-103682754D01*
X128956241Y-103682753D01*
X128956240Y-103682753D01*
X128794957Y-103657208D01*
X128746287Y-103649500D01*
X128533713Y-103649500D01*
X128485042Y-103657208D01*
X128323760Y-103682753D01*
X128121585Y-103748444D01*
X127932179Y-103844951D01*
X127760213Y-103969890D01*
X127609890Y-104120213D01*
X127484949Y-104292182D01*
X127480484Y-104300946D01*
X127432509Y-104351742D01*
X127364688Y-104368536D01*
X127298553Y-104345998D01*
X127259516Y-104300946D01*
X127255050Y-104292182D01*
X127130109Y-104120213D01*
X126979786Y-103969890D01*
X126807820Y-103844951D01*
X126618414Y-103748444D01*
X126618413Y-103748443D01*
X126618412Y-103748443D01*
X126416243Y-103682754D01*
X126416241Y-103682753D01*
X126416240Y-103682753D01*
X126254957Y-103657208D01*
X126206287Y-103649500D01*
X125993713Y-103649500D01*
X125945042Y-103657208D01*
X125783760Y-103682753D01*
X125581585Y-103748444D01*
X125392179Y-103844951D01*
X125220213Y-103969890D01*
X125069890Y-104120213D01*
X124944949Y-104292182D01*
X124940484Y-104300946D01*
X124892509Y-104351742D01*
X124824688Y-104368536D01*
X124758553Y-104345998D01*
X124719516Y-104300946D01*
X124715050Y-104292182D01*
X124590109Y-104120213D01*
X124439786Y-103969890D01*
X124267820Y-103844951D01*
X124078414Y-103748444D01*
X124078413Y-103748443D01*
X124078412Y-103748443D01*
X123876243Y-103682754D01*
X123876241Y-103682753D01*
X123876240Y-103682753D01*
X123714957Y-103657208D01*
X123666287Y-103649500D01*
X123453713Y-103649500D01*
X123405042Y-103657208D01*
X123243760Y-103682753D01*
X123041585Y-103748444D01*
X122852179Y-103844951D01*
X122680213Y-103969890D01*
X122529890Y-104120213D01*
X122404949Y-104292182D01*
X122400484Y-104300946D01*
X122352509Y-104351742D01*
X122284688Y-104368536D01*
X122218553Y-104345998D01*
X122179516Y-104300946D01*
X122175050Y-104292182D01*
X122050109Y-104120213D01*
X121899786Y-103969890D01*
X121727820Y-103844951D01*
X121538414Y-103748444D01*
X121538413Y-103748443D01*
X121538412Y-103748443D01*
X121336243Y-103682754D01*
X121336241Y-103682753D01*
X121336240Y-103682753D01*
X121174957Y-103657208D01*
X121126287Y-103649500D01*
X120913713Y-103649500D01*
X120865042Y-103657208D01*
X120703760Y-103682753D01*
X120501585Y-103748444D01*
X120312179Y-103844951D01*
X120140213Y-103969890D01*
X119989890Y-104120213D01*
X119864949Y-104292182D01*
X119860484Y-104300946D01*
X119812509Y-104351742D01*
X119744688Y-104368536D01*
X119678553Y-104345998D01*
X119639516Y-104300946D01*
X119635050Y-104292182D01*
X119510109Y-104120213D01*
X119359794Y-103969898D01*
X119359788Y-103969893D01*
X119281615Y-103913097D01*
X119238949Y-103857767D01*
X119230500Y-103812779D01*
X119230500Y-101882229D01*
X119250185Y-101815190D01*
X119266819Y-101794548D01*
X120348882Y-100712486D01*
X125305001Y-100712486D01*
X125315494Y-100815197D01*
X125370641Y-100981619D01*
X125370643Y-100981624D01*
X125462684Y-101130845D01*
X125586654Y-101254815D01*
X125735875Y-101346856D01*
X125735880Y-101346858D01*
X125902302Y-101402005D01*
X125902309Y-101402006D01*
X126005019Y-101412499D01*
X126249999Y-101412499D01*
X126750000Y-101412499D01*
X126994972Y-101412499D01*
X126994986Y-101412498D01*
X127097697Y-101402005D01*
X127264119Y-101346858D01*
X127264124Y-101346856D01*
X127413345Y-101254815D01*
X127537315Y-101130845D01*
X127629356Y-100981624D01*
X127629358Y-100981619D01*
X127684505Y-100815197D01*
X127684506Y-100815190D01*
X127694999Y-100712486D01*
X127695000Y-100712473D01*
X127695000Y-100455000D01*
X126750000Y-100455000D01*
X126750000Y-101412499D01*
X126249999Y-101412499D01*
X126250000Y-101412498D01*
X126250000Y-100455000D01*
X125305001Y-100455000D01*
X125305001Y-100712486D01*
X120348882Y-100712486D01*
X120745411Y-100315957D01*
X121363855Y-99697513D01*
X125305000Y-99697513D01*
X125305000Y-99955000D01*
X126250000Y-99955000D01*
X126750000Y-99955000D01*
X127694999Y-99955000D01*
X127694999Y-99697528D01*
X127694998Y-99697513D01*
X127684505Y-99594802D01*
X127629358Y-99428380D01*
X127629356Y-99428375D01*
X127537315Y-99279154D01*
X127413345Y-99155184D01*
X127264124Y-99063143D01*
X127264119Y-99063141D01*
X127097697Y-99007994D01*
X127097690Y-99007993D01*
X126994986Y-98997500D01*
X126750000Y-98997500D01*
X126750000Y-99955000D01*
X126250000Y-99955000D01*
X126250000Y-98997500D01*
X126005029Y-98997500D01*
X126005012Y-98997501D01*
X125902302Y-99007994D01*
X125735880Y-99063141D01*
X125735875Y-99063143D01*
X125586654Y-99155184D01*
X125462684Y-99279154D01*
X125370643Y-99428375D01*
X125370641Y-99428380D01*
X125315494Y-99594802D01*
X125315493Y-99594809D01*
X125305000Y-99697513D01*
X121363855Y-99697513D01*
X121454685Y-99606683D01*
X121582948Y-99478419D01*
X121582951Y-99478416D01*
X121665084Y-99355495D01*
X121721658Y-99218913D01*
X121740416Y-99124614D01*
X121750500Y-99073920D01*
X121750500Y-97624500D01*
X121770185Y-97557461D01*
X121822989Y-97511706D01*
X121874500Y-97500500D01*
X122525501Y-97500500D01*
X122592540Y-97520185D01*
X122638295Y-97572989D01*
X122649501Y-97624500D01*
X122649501Y-97958034D01*
X122660113Y-98077415D01*
X122716089Y-98273045D01*
X122716090Y-98273048D01*
X122716091Y-98273049D01*
X122810302Y-98453407D01*
X122810304Y-98453409D01*
X122938890Y-98611109D01*
X122979843Y-98644501D01*
X123096593Y-98739698D01*
X123276951Y-98833909D01*
X123472582Y-98889886D01*
X123591963Y-98900500D01*
X124708036Y-98900499D01*
X124827418Y-98889886D01*
X125023049Y-98833909D01*
X125203407Y-98739698D01*
X125361109Y-98611109D01*
X125402894Y-98559863D01*
X125460513Y-98520347D01*
X125530351Y-98518255D01*
X125579933Y-98546678D01*
X125580681Y-98545734D01*
X125586341Y-98550209D01*
X125586344Y-98550212D01*
X125735666Y-98642314D01*
X125902203Y-98697499D01*
X126004991Y-98708000D01*
X126995008Y-98707999D01*
X126995016Y-98707998D01*
X126995019Y-98707998D01*
X127051302Y-98702248D01*
X127097797Y-98697499D01*
X127264334Y-98642314D01*
X127413656Y-98550212D01*
X127537712Y-98426156D01*
X127629814Y-98276834D01*
X127643512Y-98235493D01*
X127683285Y-98178051D01*
X127747801Y-98151228D01*
X127761218Y-98150500D01*
X131679192Y-98150500D01*
X131746231Y-98170185D01*
X131766873Y-98186819D01*
X132118373Y-98538319D01*
X132151858Y-98599642D01*
X132146874Y-98669334D01*
X132105002Y-98725267D01*
X132039538Y-98749684D01*
X132030692Y-98750000D01*
X132011881Y-98750000D01*
X131976452Y-98752788D01*
X131976446Y-98752789D01*
X131824814Y-98796843D01*
X131824811Y-98796844D01*
X131688891Y-98877226D01*
X131688883Y-98877232D01*
X131577232Y-98988883D01*
X131577226Y-98988891D01*
X131496845Y-99124808D01*
X131496843Y-99124814D01*
X131460474Y-99249999D01*
X131460474Y-99250000D01*
X132426000Y-99250000D01*
X132493039Y-99269685D01*
X132538794Y-99322489D01*
X132550000Y-99374000D01*
X132550000Y-99626000D01*
X132530315Y-99693039D01*
X132477511Y-99738794D01*
X132426000Y-99750000D01*
X131460474Y-99750000D01*
X131496843Y-99875185D01*
X131496845Y-99875191D01*
X131577226Y-100011108D01*
X131577232Y-100011116D01*
X131688883Y-100122767D01*
X131688891Y-100122773D01*
X131824811Y-100203155D01*
X131824814Y-100203156D01*
X131976446Y-100247210D01*
X131976452Y-100247211D01*
X132011881Y-100249999D01*
X132011894Y-100250000D01*
X132375500Y-100250000D01*
X132442539Y-100269685D01*
X132488294Y-100322489D01*
X132499500Y-100374000D01*
X132499500Y-100729594D01*
X132505685Y-100797657D01*
X132505686Y-100797662D01*
X132505687Y-100797664D01*
X132554485Y-100954263D01*
X132554488Y-100954272D01*
X132639348Y-101094648D01*
X132639351Y-101094652D01*
X132755347Y-101210648D01*
X132755351Y-101210651D01*
X132895727Y-101295511D01*
X132895736Y-101295514D01*
X132913637Y-101301092D01*
X133052343Y-101344315D01*
X133120406Y-101350500D01*
X133120409Y-101350500D01*
X133579591Y-101350500D01*
X133579594Y-101350500D01*
X133647657Y-101344315D01*
X133804270Y-101295512D01*
X133871592Y-101254815D01*
X133944648Y-101210651D01*
X133944647Y-101210651D01*
X133944653Y-101210648D01*
X134018482Y-101136819D01*
X134079805Y-101103334D01*
X134106163Y-101100500D01*
X136893837Y-101100500D01*
X136960876Y-101120185D01*
X136981518Y-101136819D01*
X137055347Y-101210648D01*
X137055351Y-101210651D01*
X137195727Y-101295511D01*
X137195736Y-101295514D01*
X137213637Y-101301092D01*
X137352343Y-101344315D01*
X137420406Y-101350500D01*
X137420409Y-101350500D01*
X137879591Y-101350500D01*
X137879594Y-101350500D01*
X137947657Y-101344315D01*
X138104270Y-101295512D01*
X138171592Y-101254815D01*
X138244648Y-101210651D01*
X138244647Y-101210651D01*
X138244653Y-101210648D01*
X138360648Y-101094653D01*
X138417869Y-100999998D01*
X138445511Y-100954272D01*
X138445514Y-100954263D01*
X138451717Y-100934358D01*
X138494315Y-100797657D01*
X138500500Y-100729594D01*
X138500500Y-100374499D01*
X138520185Y-100307460D01*
X138528810Y-100299986D01*
X140250001Y-100299986D01*
X140260494Y-100402697D01*
X140315641Y-100569119D01*
X140315643Y-100569124D01*
X140407684Y-100718345D01*
X140531654Y-100842315D01*
X140680875Y-100934356D01*
X140680880Y-100934358D01*
X140847302Y-100989505D01*
X140847309Y-100989506D01*
X140950019Y-100999999D01*
X141525000Y-100999999D01*
X141599972Y-100999999D01*
X141599986Y-100999998D01*
X141702697Y-100989505D01*
X141869119Y-100934358D01*
X141869124Y-100934356D01*
X142018345Y-100842315D01*
X142142315Y-100718345D01*
X142234356Y-100569124D01*
X142234358Y-100569119D01*
X142289505Y-100402697D01*
X142289506Y-100402690D01*
X142299999Y-100299986D01*
X142300000Y-100299973D01*
X142300000Y-99750000D01*
X141525000Y-99750000D01*
X141525000Y-100999999D01*
X140950019Y-100999999D01*
X141024999Y-100999998D01*
X141025000Y-100999998D01*
X141025000Y-99750000D01*
X140250001Y-99750000D01*
X140250001Y-100299986D01*
X138528810Y-100299986D01*
X138572989Y-100261705D01*
X138624500Y-100250499D01*
X138988150Y-100250499D01*
X138988162Y-100250499D01*
X139023627Y-100247709D01*
X139175390Y-100203618D01*
X139311420Y-100123170D01*
X139423170Y-100011420D01*
X139503618Y-99875390D01*
X139547709Y-99723627D01*
X139550500Y-99688163D01*
X139550499Y-99311838D01*
X139547709Y-99276373D01*
X139503618Y-99124610D01*
X139451804Y-99036998D01*
X139423172Y-98988583D01*
X139423165Y-98988574D01*
X139311425Y-98876834D01*
X139311416Y-98876827D01*
X139187588Y-98803596D01*
X139175391Y-98796382D01*
X139175385Y-98796380D01*
X139023633Y-98752292D01*
X139023620Y-98752290D01*
X138988170Y-98749500D01*
X138988163Y-98749500D01*
X138969807Y-98749500D01*
X138902768Y-98729815D01*
X138876944Y-98700013D01*
X140250000Y-98700013D01*
X140250000Y-99250000D01*
X141025000Y-99250000D01*
X141525000Y-99250000D01*
X142299999Y-99250000D01*
X142299999Y-98700028D01*
X142299998Y-98700013D01*
X142289505Y-98597302D01*
X142234358Y-98430880D01*
X142234356Y-98430875D01*
X142142315Y-98281654D01*
X142018345Y-98157684D01*
X141869124Y-98065643D01*
X141869119Y-98065641D01*
X141702697Y-98010494D01*
X141702690Y-98010493D01*
X141599986Y-98000000D01*
X141525000Y-98000000D01*
X141525000Y-99250000D01*
X141025000Y-99250000D01*
X141025000Y-98000000D01*
X141024999Y-97999999D01*
X140950028Y-98000000D01*
X140950011Y-98000001D01*
X140847302Y-98010494D01*
X140680880Y-98065641D01*
X140680875Y-98065643D01*
X140531654Y-98157684D01*
X140407684Y-98281654D01*
X140315643Y-98430875D01*
X140315641Y-98430880D01*
X140260494Y-98597302D01*
X140260493Y-98597309D01*
X140250000Y-98700013D01*
X138876944Y-98700013D01*
X138857013Y-98677011D01*
X138847069Y-98607853D01*
X138876094Y-98544297D01*
X138882126Y-98537819D01*
X139370446Y-98049500D01*
X140045277Y-97374669D01*
X140116465Y-97268127D01*
X140123974Y-97250000D01*
X142241210Y-97250000D01*
X142242854Y-97270910D01*
X142287968Y-97426195D01*
X142370278Y-97565374D01*
X142370285Y-97565383D01*
X142484616Y-97679714D01*
X142484625Y-97679721D01*
X142623804Y-97762031D01*
X142770000Y-97804504D01*
X142770000Y-97250000D01*
X142241210Y-97250000D01*
X140123974Y-97250000D01*
X140130809Y-97233497D01*
X140165501Y-97149744D01*
X140175296Y-97100501D01*
X140190500Y-97024069D01*
X140190500Y-95411138D01*
X140210185Y-95344099D01*
X140240048Y-95311977D01*
X140250000Y-95304504D01*
X140250000Y-94998352D01*
X140267267Y-94935233D01*
X140272494Y-94926395D01*
X140280018Y-94900500D01*
X140317642Y-94770997D01*
X140317643Y-94770991D01*
X140320499Y-94734697D01*
X140320500Y-94734690D01*
X140320500Y-94624000D01*
X140340185Y-94556961D01*
X140392989Y-94511206D01*
X140444500Y-94500000D01*
X140626000Y-94500000D01*
X140693039Y-94519685D01*
G37*
%TD.AperFunction*%
%TA.AperFunction,Conductor*%
G36*
X123041710Y-86543208D02*
G01*
X123086088Y-86571720D01*
X127603742Y-91089374D01*
X127603752Y-91089385D01*
X127608082Y-91093715D01*
X127608083Y-91093716D01*
X127719887Y-91205520D01*
X127719889Y-91205521D01*
X127719893Y-91205524D01*
X127846825Y-91278807D01*
X127856819Y-91284577D01*
X127968622Y-91314534D01*
X128009545Y-91325500D01*
X128009546Y-91325500D01*
X129985855Y-91325500D01*
X130052894Y-91345185D01*
X130098649Y-91397989D01*
X130108794Y-91433315D01*
X130112217Y-91459315D01*
X130101451Y-91528350D01*
X130055072Y-91580606D01*
X129989278Y-91599500D01*
X129665929Y-91599500D01*
X129558746Y-91620821D01*
X129553880Y-91621789D01*
X129543637Y-91623826D01*
X129540255Y-91624499D01*
X129421872Y-91673535D01*
X129394104Y-91692088D01*
X129327426Y-91712963D01*
X129290627Y-91708061D01*
X129270993Y-91702357D01*
X129270986Y-91702356D01*
X129234697Y-91699500D01*
X129234690Y-91699500D01*
X128765310Y-91699500D01*
X128765302Y-91699500D01*
X128729008Y-91702356D01*
X128729002Y-91702357D01*
X128573610Y-91747503D01*
X128573605Y-91747506D01*
X128564766Y-91752732D01*
X128501648Y-91770000D01*
X128195496Y-91770000D01*
X128237968Y-91916194D01*
X128249911Y-91936389D01*
X128267092Y-92004113D01*
X128249911Y-92062628D01*
X128237506Y-92083604D01*
X128237504Y-92083609D01*
X128192357Y-92239002D01*
X128192356Y-92239008D01*
X128189500Y-92275302D01*
X128189500Y-92684697D01*
X128192356Y-92720991D01*
X128192357Y-92720997D01*
X128237504Y-92876390D01*
X128237505Y-92876393D01*
X128319881Y-93015684D01*
X128323480Y-93020324D01*
X128349014Y-93085361D01*
X128349500Y-93096324D01*
X128349500Y-93679191D01*
X128329815Y-93746230D01*
X128313181Y-93766872D01*
X128032180Y-94047873D01*
X127970857Y-94081358D01*
X127901165Y-94076374D01*
X127845232Y-94034502D01*
X127820815Y-93969038D01*
X127820499Y-93960192D01*
X127820499Y-93800830D01*
X127820498Y-93800808D01*
X127819695Y-93790602D01*
X127817665Y-93764796D01*
X127772869Y-93610607D01*
X127745077Y-93563613D01*
X127736733Y-93549504D01*
X127719550Y-93481780D01*
X127729665Y-93437133D01*
X127731926Y-93431904D01*
X127731931Y-93431897D01*
X127777609Y-93274675D01*
X127780500Y-93237940D01*
X127780500Y-92762060D01*
X127777609Y-92725325D01*
X127776352Y-92720997D01*
X127731933Y-92568107D01*
X127731931Y-92568104D01*
X127731931Y-92568103D01*
X127648590Y-92427180D01*
X127648588Y-92427178D01*
X127648585Y-92427174D01*
X127532825Y-92311414D01*
X127532817Y-92311408D01*
X127435261Y-92253714D01*
X127391897Y-92228069D01*
X127391896Y-92228068D01*
X127391895Y-92228068D01*
X127391892Y-92228066D01*
X127234679Y-92182391D01*
X127234673Y-92182390D01*
X127197947Y-92179500D01*
X127197940Y-92179500D01*
X126772060Y-92179500D01*
X126772052Y-92179500D01*
X126735326Y-92182390D01*
X126735320Y-92182391D01*
X126578103Y-92228068D01*
X126578102Y-92228068D01*
X126562625Y-92237221D01*
X126494900Y-92254400D01*
X126436392Y-92237220D01*
X126421704Y-92228534D01*
X126421691Y-92228529D01*
X126265001Y-92183005D01*
X126265000Y-92183006D01*
X126265000Y-92488641D01*
X126247734Y-92551759D01*
X126238067Y-92568104D01*
X126192391Y-92725320D01*
X126192390Y-92725326D01*
X126189500Y-92762052D01*
X126189500Y-93237947D01*
X126192390Y-93274673D01*
X126192391Y-93274679D01*
X126238067Y-93431892D01*
X126238068Y-93431896D01*
X126247731Y-93448234D01*
X126265000Y-93511357D01*
X126265000Y-93512651D01*
X126247732Y-93575773D01*
X126227130Y-93610607D01*
X126227130Y-93610608D01*
X126182335Y-93764791D01*
X126182334Y-93764797D01*
X126179500Y-93800811D01*
X126179500Y-93906000D01*
X126159815Y-93973039D01*
X126107011Y-94018794D01*
X126055500Y-94030000D01*
X126000000Y-94030000D01*
X126000000Y-94085500D01*
X125980315Y-94152539D01*
X125927511Y-94198294D01*
X125876000Y-94209500D01*
X125765302Y-94209500D01*
X125729008Y-94212356D01*
X125729002Y-94212357D01*
X125573610Y-94257503D01*
X125573605Y-94257506D01*
X125564766Y-94262732D01*
X125501648Y-94280000D01*
X125270481Y-94280000D01*
X125209556Y-94262110D01*
X125208980Y-94263214D01*
X125203410Y-94260304D01*
X125203407Y-94260302D01*
X125023049Y-94166091D01*
X125023048Y-94166090D01*
X125023045Y-94166089D01*
X124904598Y-94132198D01*
X124827418Y-94110114D01*
X124827415Y-94110113D01*
X124827413Y-94110113D01*
X124761102Y-94104217D01*
X124708037Y-94099500D01*
X124708032Y-94099500D01*
X123591971Y-94099500D01*
X123591965Y-94099500D01*
X123591964Y-94099501D01*
X123580727Y-94100500D01*
X123472584Y-94110113D01*
X123276954Y-94166089D01*
X123215301Y-94198294D01*
X123096593Y-94260302D01*
X123096591Y-94260303D01*
X123096590Y-94260304D01*
X122938890Y-94388890D01*
X122810304Y-94546590D01*
X122810302Y-94546593D01*
X122792243Y-94581165D01*
X122716089Y-94726954D01*
X122687263Y-94827700D01*
X122666433Y-94900500D01*
X122660114Y-94922583D01*
X122660113Y-94922586D01*
X122658989Y-94935230D01*
X122650045Y-95035840D01*
X122649500Y-95041966D01*
X122649500Y-95375500D01*
X122629815Y-95442539D01*
X122577011Y-95488294D01*
X122525500Y-95499500D01*
X122374500Y-95499500D01*
X122307461Y-95479815D01*
X122261706Y-95427011D01*
X122250500Y-95375500D01*
X122250500Y-93780000D01*
X125195496Y-93780000D01*
X125750000Y-93780000D01*
X125750000Y-93250000D01*
X125220954Y-93250000D01*
X125222889Y-93274597D01*
X125268529Y-93431692D01*
X125268532Y-93431699D01*
X125275683Y-93443791D01*
X125292864Y-93511515D01*
X125275683Y-93570030D01*
X125237969Y-93633802D01*
X125195496Y-93780000D01*
X122250500Y-93780000D01*
X122250500Y-92750000D01*
X125220953Y-92750000D01*
X125765000Y-92750000D01*
X125765000Y-92183006D01*
X125764998Y-92183005D01*
X125608307Y-92228528D01*
X125608304Y-92228530D01*
X125467491Y-92311806D01*
X125467483Y-92311812D01*
X125351812Y-92427483D01*
X125351806Y-92427491D01*
X125268531Y-92568302D01*
X125268529Y-92568307D01*
X125222890Y-92725396D01*
X125222888Y-92725408D01*
X125220953Y-92750000D01*
X122250500Y-92750000D01*
X122250500Y-91776562D01*
X122270185Y-91709523D01*
X122322989Y-91663768D01*
X122392147Y-91653824D01*
X122427996Y-91666641D01*
X122428555Y-91665400D01*
X122435389Y-91668475D01*
X122435394Y-91668478D01*
X122597804Y-91719086D01*
X122668384Y-91725500D01*
X122668387Y-91725500D01*
X123331613Y-91725500D01*
X123331616Y-91725500D01*
X123402196Y-91719086D01*
X123564606Y-91668478D01*
X123710185Y-91580472D01*
X123830472Y-91460185D01*
X123918478Y-91314606D01*
X123969086Y-91152196D01*
X123975500Y-91081616D01*
X123975500Y-90568384D01*
X123969086Y-90497804D01*
X123918478Y-90335394D01*
X123830472Y-90189815D01*
X123830470Y-90189813D01*
X123830469Y-90189811D01*
X123728339Y-90087681D01*
X123694854Y-90026358D01*
X123699838Y-89956666D01*
X123728339Y-89912319D01*
X123830468Y-89810189D01*
X123830469Y-89810188D01*
X123830472Y-89810185D01*
X123918478Y-89664606D01*
X123969086Y-89502196D01*
X123975500Y-89431616D01*
X123975500Y-89207941D01*
X123995185Y-89140902D01*
X124011819Y-89120260D01*
X124121786Y-89010292D01*
X124121789Y-89010289D01*
X124209394Y-88879179D01*
X124269737Y-88733497D01*
X124300500Y-88578842D01*
X124300500Y-88421158D01*
X124300500Y-88421155D01*
X124300499Y-88421153D01*
X124297577Y-88406465D01*
X124269737Y-88266503D01*
X124266978Y-88259841D01*
X124209397Y-88120827D01*
X124209390Y-88120814D01*
X124121789Y-87989711D01*
X124121786Y-87989707D01*
X124010292Y-87878213D01*
X124010288Y-87878210D01*
X123879185Y-87790609D01*
X123879172Y-87790602D01*
X123733501Y-87730264D01*
X123733489Y-87730261D01*
X123578845Y-87699500D01*
X123578842Y-87699500D01*
X123421158Y-87699500D01*
X123421155Y-87699500D01*
X123266510Y-87730261D01*
X123266498Y-87730264D01*
X123120827Y-87790602D01*
X123120814Y-87790609D01*
X122989711Y-87878210D01*
X122989707Y-87878213D01*
X122878213Y-87989707D01*
X122878210Y-87989711D01*
X122790609Y-88120814D01*
X122790604Y-88120824D01*
X122757926Y-88199716D01*
X122714085Y-88254119D01*
X122654587Y-88275753D01*
X122642860Y-88276819D01*
X122597807Y-88280913D01*
X122435393Y-88331522D01*
X122289811Y-88419530D01*
X122169530Y-88539811D01*
X122081520Y-88685397D01*
X122070991Y-88719188D01*
X122032254Y-88777336D01*
X121968229Y-88805310D01*
X121899243Y-88794228D01*
X121864925Y-88769979D01*
X121729707Y-88634761D01*
X121698312Y-88581675D01*
X121679555Y-88517113D01*
X121600715Y-88383802D01*
X121600713Y-88383800D01*
X121600710Y-88383796D01*
X121491203Y-88274289D01*
X121491194Y-88274282D01*
X121385131Y-88211557D01*
X121357887Y-88195445D01*
X121209156Y-88152235D01*
X121209153Y-88152234D01*
X121209151Y-88152234D01*
X121178395Y-88149814D01*
X121174405Y-88149500D01*
X121174404Y-88149500D01*
X120825606Y-88149500D01*
X120825584Y-88149501D01*
X120790847Y-88152234D01*
X120790844Y-88152235D01*
X120642113Y-88195445D01*
X120642111Y-88195445D01*
X120642111Y-88195446D01*
X120508805Y-88274282D01*
X120508796Y-88274289D01*
X120399289Y-88383796D01*
X120399282Y-88383805D01*
X120325336Y-88508843D01*
X120320445Y-88517113D01*
X120294562Y-88606204D01*
X120277234Y-88665847D01*
X120277234Y-88665849D01*
X120274500Y-88700589D01*
X120274500Y-89199393D01*
X120274501Y-89199415D01*
X120277234Y-89234152D01*
X120277234Y-89234155D01*
X120277235Y-89234156D01*
X120320445Y-89382887D01*
X120333227Y-89404500D01*
X120399282Y-89516194D01*
X120399289Y-89516203D01*
X120508796Y-89625710D01*
X120508805Y-89625717D01*
X120528357Y-89637280D01*
X120642113Y-89704555D01*
X120790844Y-89747765D01*
X120825595Y-89750500D01*
X120954190Y-89750499D01*
X121021230Y-89770183D01*
X121041872Y-89786818D01*
X121295086Y-90040032D01*
X121328571Y-90101355D01*
X121323587Y-90171047D01*
X121281715Y-90226980D01*
X121216251Y-90251397D01*
X121197679Y-90251331D01*
X121174417Y-90249500D01*
X121174405Y-90249500D01*
X120923921Y-90249500D01*
X120923918Y-90249500D01*
X120291428Y-90249500D01*
X120224389Y-90229815D01*
X120178634Y-90177011D01*
X120176867Y-90172952D01*
X120165087Y-90144511D01*
X120165085Y-90144508D01*
X120165084Y-90144505D01*
X120121520Y-90079306D01*
X120121520Y-90079305D01*
X120082950Y-90021581D01*
X120082947Y-90021578D01*
X119746071Y-89684703D01*
X119719191Y-89644475D01*
X119709394Y-89620821D01*
X119684496Y-89583558D01*
X119621789Y-89489710D01*
X119510292Y-89378213D01*
X119510288Y-89378210D01*
X119379185Y-89290609D01*
X119379172Y-89290602D01*
X119233501Y-89230264D01*
X119233489Y-89230261D01*
X119078845Y-89199500D01*
X119078842Y-89199500D01*
X118921158Y-89199500D01*
X118921155Y-89199500D01*
X118766510Y-89230261D01*
X118766498Y-89230264D01*
X118620827Y-89290602D01*
X118620814Y-89290609D01*
X118489711Y-89378210D01*
X118489707Y-89378213D01*
X118378213Y-89489707D01*
X118378210Y-89489711D01*
X118290609Y-89620814D01*
X118290602Y-89620827D01*
X118230264Y-89766498D01*
X118230261Y-89766510D01*
X118199500Y-89921153D01*
X118199500Y-90078846D01*
X118230261Y-90233489D01*
X118230264Y-90233501D01*
X118290602Y-90379172D01*
X118290609Y-90379185D01*
X118378210Y-90510288D01*
X118378213Y-90510292D01*
X118489710Y-90621789D01*
X118610288Y-90702356D01*
X118620821Y-90709394D01*
X118644475Y-90719191D01*
X118684703Y-90746071D01*
X118713181Y-90774549D01*
X118746666Y-90835872D01*
X118749500Y-90862230D01*
X118749500Y-91195396D01*
X118740062Y-91242844D01*
X118730263Y-91266503D01*
X118730262Y-91266506D01*
X118730260Y-91266511D01*
X118699500Y-91421153D01*
X118699500Y-91578846D01*
X118730261Y-91733489D01*
X118730264Y-91733501D01*
X118790602Y-91879172D01*
X118790609Y-91879185D01*
X118878210Y-92010288D01*
X118878213Y-92010292D01*
X118989707Y-92121786D01*
X118989711Y-92121789D01*
X119120814Y-92209390D01*
X119120827Y-92209397D01*
X119250431Y-92263080D01*
X119266503Y-92269737D01*
X119421153Y-92300499D01*
X119421156Y-92300500D01*
X119421158Y-92300500D01*
X119578844Y-92300500D01*
X119578845Y-92300499D01*
X119733497Y-92269737D01*
X119879179Y-92209394D01*
X120010289Y-92121789D01*
X120121789Y-92010289D01*
X120209394Y-91879179D01*
X120230987Y-91827047D01*
X120274827Y-91772644D01*
X120341121Y-91750579D01*
X120345548Y-91750500D01*
X120487770Y-91750500D01*
X120554809Y-91770185D01*
X120575451Y-91786819D01*
X120713181Y-91924549D01*
X120746666Y-91985872D01*
X120749500Y-92012230D01*
X120749500Y-95375500D01*
X120729815Y-95442539D01*
X120677011Y-95488294D01*
X120625500Y-95499500D01*
X119137924Y-95499500D01*
X119070885Y-95479815D01*
X119060251Y-95472158D01*
X119028112Y-95446324D01*
X118988196Y-95388985D01*
X118985616Y-95319163D01*
X119021194Y-95259030D01*
X119028115Y-95253033D01*
X119097366Y-95197367D01*
X119097367Y-95197366D01*
X119216607Y-95049025D01*
X119216609Y-95049022D01*
X119301168Y-94878523D01*
X119347102Y-94693824D01*
X119350000Y-94651096D01*
X119350000Y-94450000D01*
X116350000Y-94450000D01*
X116350000Y-94651096D01*
X116352897Y-94693824D01*
X116398831Y-94878523D01*
X116483390Y-95049022D01*
X116483392Y-95049025D01*
X116602630Y-95197364D01*
X116671884Y-95253031D01*
X116711803Y-95310375D01*
X116714383Y-95380197D01*
X116678805Y-95440329D01*
X116671885Y-95446326D01*
X116602276Y-95502280D01*
X116482969Y-95650704D01*
X116482967Y-95650707D01*
X116398360Y-95821302D01*
X116352400Y-96006107D01*
X116349500Y-96048879D01*
X116349500Y-96951122D01*
X116349501Y-96951125D01*
X116352399Y-96993886D01*
X116352399Y-96993887D01*
X116398360Y-97178696D01*
X116482967Y-97349292D01*
X116482969Y-97349295D01*
X116602277Y-97497721D01*
X116602278Y-97497722D01*
X116671486Y-97553353D01*
X116711405Y-97610696D01*
X116713985Y-97680518D01*
X116678406Y-97740651D01*
X116671486Y-97746647D01*
X116602278Y-97802277D01*
X116602277Y-97802278D01*
X116482969Y-97950704D01*
X116468146Y-97980594D01*
X116420725Y-98031907D01*
X116357058Y-98049500D01*
X116162230Y-98049500D01*
X116095191Y-98029815D01*
X116074553Y-98013185D01*
X115958416Y-97897048D01*
X115958415Y-97897047D01*
X115958414Y-97897046D01*
X115884729Y-97847812D01*
X115884729Y-97847813D01*
X115858558Y-97830326D01*
X115828288Y-97801676D01*
X115804505Y-97770000D01*
X115751723Y-97770000D01*
X115704274Y-97760562D01*
X115698913Y-97758342D01*
X115698908Y-97758341D01*
X115698907Y-97758340D01*
X115553920Y-97729500D01*
X115553918Y-97729500D01*
X115382066Y-97729500D01*
X115347471Y-97724576D01*
X115310287Y-97713773D01*
X115270994Y-97702357D01*
X115270991Y-97702356D01*
X115234697Y-97699500D01*
X115234690Y-97699500D01*
X114765310Y-97699500D01*
X114765302Y-97699500D01*
X114729008Y-97702356D01*
X114729002Y-97702357D01*
X114573610Y-97747503D01*
X114573605Y-97747506D01*
X114564766Y-97752732D01*
X114501648Y-97770000D01*
X114195496Y-97770000D01*
X114237968Y-97916194D01*
X114249911Y-97936389D01*
X114267092Y-98004113D01*
X114249911Y-98062628D01*
X114237506Y-98083604D01*
X114237504Y-98083607D01*
X114206452Y-98190489D01*
X114175057Y-98243574D01*
X113602681Y-98815951D01*
X113541358Y-98849436D01*
X113471667Y-98844452D01*
X113427319Y-98815951D01*
X113413657Y-98802289D01*
X113413656Y-98802288D01*
X113289083Y-98725451D01*
X113264336Y-98710187D01*
X113264331Y-98710185D01*
X113233634Y-98700013D01*
X113097797Y-98655001D01*
X113097795Y-98655000D01*
X112995010Y-98644500D01*
X112004998Y-98644500D01*
X112004980Y-98644501D01*
X111902203Y-98655000D01*
X111902200Y-98655001D01*
X111735668Y-98710185D01*
X111735663Y-98710187D01*
X111666595Y-98752789D01*
X111586344Y-98802288D01*
X111586343Y-98802289D01*
X111562679Y-98825953D01*
X111501355Y-98859437D01*
X111431663Y-98854451D01*
X111387318Y-98825951D01*
X110415921Y-97854552D01*
X110415914Y-97854546D01*
X110335125Y-97800565D01*
X110335026Y-97800500D01*
X110292995Y-97772416D01*
X110292994Y-97772415D01*
X110292992Y-97772414D01*
X110156417Y-97715843D01*
X110156407Y-97715840D01*
X110036588Y-97692006D01*
X110020195Y-97683431D01*
X110002091Y-97679621D01*
X109976393Y-97660518D01*
X109974677Y-97659621D01*
X109974303Y-97658965D01*
X109973099Y-97658070D01*
X109970015Y-97654986D01*
X111305001Y-97654986D01*
X111315494Y-97757697D01*
X111370641Y-97924119D01*
X111370643Y-97924124D01*
X111462684Y-98073345D01*
X111586654Y-98197315D01*
X111735875Y-98289356D01*
X111735880Y-98289358D01*
X111902302Y-98344505D01*
X111902309Y-98344506D01*
X112005019Y-98354999D01*
X112249999Y-98354999D01*
X112750000Y-98354999D01*
X112994972Y-98354999D01*
X112994986Y-98354998D01*
X113097697Y-98344505D01*
X113264119Y-98289358D01*
X113264124Y-98289356D01*
X113413345Y-98197315D01*
X113537315Y-98073345D01*
X113629356Y-97924124D01*
X113629358Y-97924119D01*
X113684505Y-97757697D01*
X113684506Y-97757690D01*
X113694999Y-97654986D01*
X113695000Y-97654973D01*
X113695000Y-97397500D01*
X112750000Y-97397500D01*
X112750000Y-98354999D01*
X112249999Y-98354999D01*
X112250000Y-98354998D01*
X112250000Y-97397500D01*
X111305001Y-97397500D01*
X111305001Y-97654986D01*
X109970015Y-97654986D01*
X109921004Y-97605975D01*
X109921003Y-97605974D01*
X109920301Y-97605541D01*
X109919921Y-97605118D01*
X109915336Y-97601493D01*
X109915955Y-97600709D01*
X109873575Y-97553598D01*
X109862349Y-97484636D01*
X109890188Y-97420552D01*
X109915455Y-97398657D01*
X109915336Y-97398507D01*
X109918687Y-97395856D01*
X109920299Y-97394459D01*
X109921003Y-97394026D01*
X110044026Y-97271003D01*
X110044645Y-97270000D01*
X114195496Y-97270000D01*
X114750000Y-97270000D01*
X115250000Y-97270000D01*
X115804504Y-97270000D01*
X115762031Y-97123804D01*
X115679721Y-96984625D01*
X115679714Y-96984616D01*
X115565383Y-96870285D01*
X115565374Y-96870278D01*
X115426195Y-96787968D01*
X115426190Y-96787966D01*
X115270918Y-96742855D01*
X115270912Y-96742854D01*
X115250000Y-96741209D01*
X115250000Y-97270000D01*
X114750000Y-97270000D01*
X114750000Y-96741210D01*
X114749999Y-96741209D01*
X114729087Y-96742854D01*
X114729081Y-96742855D01*
X114573809Y-96787966D01*
X114573804Y-96787968D01*
X114434625Y-96870278D01*
X114434616Y-96870285D01*
X114320285Y-96984616D01*
X114320278Y-96984625D01*
X114237968Y-97123804D01*
X114195496Y-97270000D01*
X110044645Y-97270000D01*
X110135362Y-97122925D01*
X110190087Y-96957775D01*
X110200500Y-96855848D01*
X110200500Y-96640013D01*
X111305000Y-96640013D01*
X111305000Y-96897500D01*
X112250000Y-96897500D01*
X112750000Y-96897500D01*
X113694999Y-96897500D01*
X113694999Y-96640028D01*
X113694998Y-96640013D01*
X113684505Y-96537302D01*
X113629358Y-96370880D01*
X113629356Y-96370875D01*
X113537315Y-96221654D01*
X113413345Y-96097684D01*
X113264124Y-96005643D01*
X113264119Y-96005641D01*
X113097697Y-95950494D01*
X113097690Y-95950493D01*
X112994986Y-95940000D01*
X112750000Y-95940000D01*
X112750000Y-96897500D01*
X112250000Y-96897500D01*
X112250000Y-95940000D01*
X112005029Y-95940000D01*
X112005012Y-95940001D01*
X111902302Y-95950494D01*
X111735880Y-96005641D01*
X111735875Y-96005643D01*
X111586654Y-96097684D01*
X111462684Y-96221654D01*
X111370643Y-96370875D01*
X111370641Y-96370880D01*
X111315494Y-96537302D01*
X111315493Y-96537309D01*
X111305000Y-96640013D01*
X110200500Y-96640013D01*
X110200500Y-96269152D01*
X110190087Y-96167225D01*
X110135362Y-96002075D01*
X110135360Y-96002071D01*
X110130836Y-95994736D01*
X110112397Y-95927343D01*
X110133321Y-95860680D01*
X110148690Y-95841965D01*
X110753837Y-95236819D01*
X110815160Y-95203334D01*
X110841518Y-95200500D01*
X114068996Y-95200500D01*
X114160040Y-95182389D01*
X114204328Y-95173580D01*
X114268069Y-95147177D01*
X114331807Y-95120777D01*
X114331808Y-95120776D01*
X114331811Y-95120775D01*
X114446543Y-95044114D01*
X116286753Y-93203904D01*
X116348076Y-93170419D01*
X116417768Y-93175403D01*
X116473701Y-93217275D01*
X116498118Y-93282739D01*
X116485522Y-93346679D01*
X116398831Y-93521476D01*
X116352897Y-93706175D01*
X116350000Y-93748903D01*
X116350000Y-93950000D01*
X117600000Y-93950000D01*
X118100000Y-93950000D01*
X119350000Y-93950000D01*
X119350000Y-93748903D01*
X119347102Y-93706175D01*
X119301168Y-93521476D01*
X119216609Y-93350977D01*
X119216607Y-93350974D01*
X119097367Y-93202633D01*
X119097366Y-93202632D01*
X118949025Y-93083392D01*
X118949022Y-93083390D01*
X118778523Y-92998831D01*
X118593824Y-92952897D01*
X118551097Y-92950000D01*
X118100000Y-92950000D01*
X118100000Y-93950000D01*
X117600000Y-93950000D01*
X117600000Y-92950000D01*
X117148903Y-92950000D01*
X117106175Y-92952897D01*
X116921476Y-92998831D01*
X116746679Y-93085522D01*
X116677874Y-93097674D01*
X116613422Y-93070697D01*
X116573787Y-93013158D01*
X116571551Y-92943324D01*
X116603904Y-92886753D01*
X117314112Y-92176545D01*
X117314114Y-92176543D01*
X117390775Y-92061811D01*
X117405927Y-92025232D01*
X117443578Y-91934332D01*
X117443580Y-91934328D01*
X117455718Y-91873307D01*
X117470500Y-91798996D01*
X117470500Y-90201004D01*
X117443581Y-90065677D01*
X117443580Y-90065676D01*
X117443580Y-90065672D01*
X117424005Y-90018414D01*
X117390776Y-89938190D01*
X117387905Y-89932819D01*
X117389205Y-89932123D01*
X117370520Y-89872438D01*
X117370500Y-89870230D01*
X117370500Y-89530097D01*
X117390185Y-89463058D01*
X117406819Y-89442416D01*
X119212416Y-87636819D01*
X119273739Y-87603334D01*
X119300097Y-87600500D01*
X119920943Y-87600500D01*
X120413331Y-87600500D01*
X120413347Y-87600501D01*
X120420943Y-87600501D01*
X120579054Y-87600501D01*
X120579057Y-87600501D01*
X120731785Y-87559577D01*
X120792082Y-87524764D01*
X120868716Y-87480520D01*
X120980520Y-87368716D01*
X120980520Y-87368714D01*
X120990724Y-87358511D01*
X120990728Y-87358506D01*
X121046006Y-87303228D01*
X121046011Y-87303224D01*
X121056214Y-87293020D01*
X121056216Y-87293020D01*
X121168020Y-87181216D01*
X121226196Y-87080451D01*
X121247077Y-87044285D01*
X121288001Y-86891557D01*
X121288001Y-86824111D01*
X121307686Y-86757072D01*
X121360490Y-86711317D01*
X121419347Y-86700925D01*
X121419368Y-86700404D01*
X121421768Y-86700498D01*
X121421772Y-86700497D01*
X121421806Y-86700500D01*
X121421814Y-86700500D01*
X122578186Y-86700500D01*
X122578194Y-86700500D01*
X122615069Y-86697598D01*
X122615071Y-86697597D01*
X122615073Y-86697597D01*
X122712002Y-86669436D01*
X122772898Y-86651744D01*
X122914365Y-86568081D01*
X122914370Y-86568075D01*
X122920531Y-86563298D01*
X122922206Y-86565457D01*
X122972017Y-86538242D01*
X123041710Y-86543208D01*
G37*
%TD.AperFunction*%
%TA.AperFunction,Conductor*%
G36*
X138752296Y-94832257D02*
G01*
X138795490Y-94887175D01*
X138799452Y-94898675D01*
X138807504Y-94926390D01*
X138807505Y-94926393D01*
X138807506Y-94926395D01*
X138857120Y-95010288D01*
X138872232Y-95035840D01*
X138889500Y-95098961D01*
X138889500Y-95675217D01*
X138869815Y-95742256D01*
X138817011Y-95788011D01*
X138747853Y-95797955D01*
X138684297Y-95768930D01*
X138677819Y-95762898D01*
X138024923Y-95110002D01*
X137991438Y-95048679D01*
X137996422Y-94978987D01*
X138038294Y-94923054D01*
X138103758Y-94898637D01*
X138128786Y-94899381D01*
X138137280Y-94900500D01*
X138137287Y-94900500D01*
X138362713Y-94900500D01*
X138362720Y-94900500D01*
X138475236Y-94885687D01*
X138615233Y-94827698D01*
X138615243Y-94827689D01*
X138618368Y-94825887D01*
X138621357Y-94825161D01*
X138622742Y-94824588D01*
X138622831Y-94824803D01*
X138686267Y-94809410D01*
X138752296Y-94832257D01*
G37*
%TD.AperFunction*%
%TA.AperFunction,Conductor*%
G36*
X113585000Y-93165000D02*
G01*
X113983492Y-93165000D01*
X113983492Y-93164999D01*
X114033024Y-93155147D01*
X114102615Y-93161374D01*
X114157793Y-93204236D01*
X114181038Y-93270126D01*
X114164971Y-93338123D01*
X114144897Y-93364445D01*
X113746162Y-93763181D01*
X113684839Y-93796666D01*
X113658481Y-93799500D01*
X111774500Y-93799500D01*
X111707461Y-93779815D01*
X111661706Y-93727011D01*
X111650500Y-93675500D01*
X111650500Y-92662592D01*
X111670185Y-92595553D01*
X111722989Y-92549798D01*
X111792147Y-92539854D01*
X111855703Y-92568879D01*
X111889062Y-92615140D01*
X111898812Y-92638680D01*
X111898814Y-92638684D01*
X112008248Y-92802462D01*
X112008251Y-92802466D01*
X112147533Y-92941748D01*
X112147537Y-92941751D01*
X112311315Y-93051185D01*
X112311328Y-93051192D01*
X112493306Y-93126569D01*
X112493318Y-93126572D01*
X112686504Y-93164999D01*
X112686508Y-93165000D01*
X113085000Y-93165000D01*
X113085000Y-92465000D01*
X113585000Y-92465000D01*
X113585000Y-93165000D01*
G37*
%TD.AperFunction*%
%TA.AperFunction,Conductor*%
G36*
X136987273Y-90120185D02*
G01*
X136989125Y-90121398D01*
X137120814Y-90209390D01*
X137120827Y-90209397D01*
X137266498Y-90269735D01*
X137266503Y-90269737D01*
X137371418Y-90290606D01*
X137421153Y-90300499D01*
X137421156Y-90300500D01*
X137421158Y-90300500D01*
X137578844Y-90300500D01*
X137578845Y-90300499D01*
X137733497Y-90269737D01*
X137733509Y-90269731D01*
X137739324Y-90267969D01*
X137740158Y-90270720D01*
X137797359Y-90264497D01*
X137859878Y-90295691D01*
X137895608Y-90355734D01*
X137899500Y-90386555D01*
X137899500Y-92413330D01*
X137899499Y-92413348D01*
X137899499Y-92424848D01*
X137879814Y-92491887D01*
X137850985Y-92523224D01*
X137825486Y-92542790D01*
X137760317Y-92567984D01*
X137691872Y-92553946D01*
X137674515Y-92542790D01*
X137615233Y-92497302D01*
X137475236Y-92439313D01*
X137464733Y-92437930D01*
X137362727Y-92424500D01*
X137362720Y-92424500D01*
X137137280Y-92424500D01*
X137137272Y-92424500D01*
X137050393Y-92435938D01*
X137024764Y-92439313D01*
X137024762Y-92439313D01*
X137016708Y-92440374D01*
X137016316Y-92437399D01*
X136983684Y-92437399D01*
X136983292Y-92440374D01*
X136975237Y-92439313D01*
X136975236Y-92439313D01*
X136946271Y-92435499D01*
X136862727Y-92424500D01*
X136862720Y-92424500D01*
X136637280Y-92424500D01*
X136637272Y-92424500D01*
X136550393Y-92435938D01*
X136524764Y-92439313D01*
X136524762Y-92439313D01*
X136516708Y-92440374D01*
X136516316Y-92437399D01*
X136483684Y-92437399D01*
X136483292Y-92440374D01*
X136475237Y-92439313D01*
X136475236Y-92439313D01*
X136446271Y-92435499D01*
X136362727Y-92424500D01*
X136362720Y-92424500D01*
X136137280Y-92424500D01*
X136137272Y-92424500D01*
X136050393Y-92435938D01*
X136024764Y-92439313D01*
X136024762Y-92439313D01*
X136016708Y-92440374D01*
X136016316Y-92437399D01*
X135983684Y-92437399D01*
X135983292Y-92440374D01*
X135975237Y-92439313D01*
X135975236Y-92439313D01*
X135946271Y-92435499D01*
X135862727Y-92424500D01*
X135862720Y-92424500D01*
X135637280Y-92424500D01*
X135637272Y-92424500D01*
X135550393Y-92435938D01*
X135524764Y-92439313D01*
X135524762Y-92439313D01*
X135516708Y-92440374D01*
X135516316Y-92437399D01*
X135483684Y-92437399D01*
X135483292Y-92440374D01*
X135475237Y-92439313D01*
X135475236Y-92439313D01*
X135446271Y-92435499D01*
X135362727Y-92424500D01*
X135362720Y-92424500D01*
X135137280Y-92424500D01*
X135137272Y-92424500D01*
X135050393Y-92435938D01*
X135024764Y-92439313D01*
X135024762Y-92439313D01*
X135016708Y-92440374D01*
X135016316Y-92437399D01*
X134983684Y-92437399D01*
X134983292Y-92440374D01*
X134975237Y-92439313D01*
X134975236Y-92439313D01*
X134910092Y-92430736D01*
X134859737Y-92424107D01*
X134795841Y-92395840D01*
X134757370Y-92337516D01*
X134756539Y-92267651D01*
X134761357Y-92253727D01*
X134769737Y-92233497D01*
X134800500Y-92078842D01*
X134800500Y-91921158D01*
X134800500Y-91921155D01*
X134800499Y-91921153D01*
X134771238Y-91774049D01*
X134769737Y-91766503D01*
X134752753Y-91725500D01*
X134709396Y-91620825D01*
X134709394Y-91620822D01*
X134709394Y-91620821D01*
X134674694Y-91568889D01*
X134653816Y-91502215D01*
X134672300Y-91434835D01*
X134674676Y-91431136D01*
X134709394Y-91379179D01*
X134769737Y-91233497D01*
X134800500Y-91078842D01*
X134800500Y-90921158D01*
X134800500Y-90921155D01*
X134800499Y-90921153D01*
X134793298Y-90884951D01*
X134769737Y-90766503D01*
X134754050Y-90728630D01*
X134709397Y-90620827D01*
X134709390Y-90620814D01*
X134621789Y-90489711D01*
X134621786Y-90489707D01*
X134510292Y-90378213D01*
X134510288Y-90378210D01*
X134434548Y-90327602D01*
X134389743Y-90273990D01*
X134381036Y-90204665D01*
X134411190Y-90141637D01*
X134470634Y-90104918D01*
X134503439Y-90100500D01*
X136920234Y-90100500D01*
X136987273Y-90120185D01*
G37*
%TD.AperFunction*%
%TA.AperFunction,Conductor*%
G36*
X116012539Y-90990185D02*
G01*
X116058294Y-91042989D01*
X116069500Y-91094500D01*
X116069500Y-91388481D01*
X116049815Y-91455520D01*
X116033181Y-91476162D01*
X115059551Y-92449791D01*
X114998228Y-92483276D01*
X114928536Y-92478292D01*
X114876018Y-92440776D01*
X114854864Y-92415000D01*
X114051988Y-92415000D01*
X114069205Y-92405060D01*
X114125060Y-92349205D01*
X114164556Y-92280796D01*
X114185000Y-92204496D01*
X114185000Y-92125504D01*
X114164556Y-92049204D01*
X114125060Y-91980795D01*
X114069205Y-91924940D01*
X114051988Y-91915000D01*
X114869389Y-91915000D01*
X114894190Y-91898106D01*
X114922574Y-91892487D01*
X114927488Y-91892100D01*
X114927495Y-91892099D01*
X115085193Y-91846283D01*
X115085196Y-91846282D01*
X115226552Y-91762685D01*
X115226561Y-91762678D01*
X115342678Y-91646561D01*
X115342685Y-91646552D01*
X115426281Y-91505198D01*
X115472100Y-91347486D01*
X115472295Y-91345001D01*
X115472295Y-91345000D01*
X114374000Y-91345000D01*
X114306961Y-91325315D01*
X114261206Y-91272511D01*
X114250000Y-91221000D01*
X114250000Y-91219500D01*
X114269685Y-91152461D01*
X114322489Y-91106706D01*
X114374000Y-91095500D01*
X114890686Y-91095500D01*
X114890694Y-91095500D01*
X114927569Y-91092598D01*
X114927571Y-91092597D01*
X114927573Y-91092597D01*
X114974917Y-91078842D01*
X115085398Y-91046744D01*
X115185121Y-90987767D01*
X115248242Y-90970500D01*
X115945500Y-90970500D01*
X116012539Y-90990185D01*
G37*
%TD.AperFunction*%
%TA.AperFunction,Conductor*%
G36*
X138381185Y-88370185D02*
G01*
X138426940Y-88422989D01*
X138437085Y-88458313D01*
X138439313Y-88475236D01*
X138444210Y-88487060D01*
X138511357Y-88683981D01*
X138512603Y-88712949D01*
X138516730Y-88741647D01*
X138514087Y-88747433D01*
X138514361Y-88753786D01*
X138499750Y-88778826D01*
X138487705Y-88805203D01*
X138481673Y-88811681D01*
X138412070Y-88881284D01*
X138412068Y-88881286D01*
X138353529Y-88939825D01*
X138300397Y-88992957D01*
X138239074Y-89026441D01*
X138169382Y-89021457D01*
X138125035Y-88992956D01*
X138010292Y-88878213D01*
X138010288Y-88878210D01*
X137879185Y-88790609D01*
X137879172Y-88790602D01*
X137733501Y-88730264D01*
X137733491Y-88730261D01*
X137642321Y-88712126D01*
X137580410Y-88679741D01*
X137545836Y-88619025D01*
X137549577Y-88549255D01*
X137590443Y-88492584D01*
X137619054Y-88475950D01*
X137685327Y-88448500D01*
X137728687Y-88419528D01*
X137800719Y-88371398D01*
X137867397Y-88350520D01*
X137869610Y-88350500D01*
X138314146Y-88350500D01*
X138381185Y-88370185D01*
G37*
%TD.AperFunction*%
%TA.AperFunction,Conductor*%
G36*
X143393039Y-88269685D02*
G01*
X143438794Y-88322489D01*
X143450000Y-88374000D01*
X143450000Y-88425500D01*
X143430315Y-88492539D01*
X143377511Y-88538294D01*
X143326001Y-88549500D01*
X143102130Y-88549500D01*
X143102123Y-88549501D01*
X143042516Y-88555908D01*
X142907671Y-88606202D01*
X142907668Y-88606204D01*
X142816080Y-88674767D01*
X142750615Y-88699184D01*
X142741769Y-88699500D01*
X142449098Y-88699500D01*
X142382059Y-88679815D01*
X142336304Y-88627011D01*
X142326360Y-88557853D01*
X142355385Y-88494297D01*
X142361417Y-88487819D01*
X142459529Y-88389707D01*
X142562918Y-88286317D01*
X142624239Y-88252834D01*
X142650597Y-88250000D01*
X143326000Y-88250000D01*
X143393039Y-88269685D01*
G37*
%TD.AperFunction*%
%TA.AperFunction,Conductor*%
G36*
X136024763Y-86560686D02*
G01*
X136024764Y-86560687D01*
X136137280Y-86575500D01*
X136137283Y-86575500D01*
X136140261Y-86575892D01*
X136204157Y-86604158D01*
X136242629Y-86662482D01*
X136243461Y-86732347D01*
X136238639Y-86746279D01*
X136230264Y-86766499D01*
X136230261Y-86766510D01*
X136199500Y-86921153D01*
X136199500Y-87078846D01*
X136230261Y-87233489D01*
X136230264Y-87233501D01*
X136290602Y-87379172D01*
X136290609Y-87379185D01*
X136378210Y-87510288D01*
X136378213Y-87510292D01*
X136469329Y-87601408D01*
X136502814Y-87662731D01*
X136505648Y-87689089D01*
X136505648Y-87817952D01*
X136532261Y-87951744D01*
X136526034Y-88021335D01*
X136483171Y-88076513D01*
X136427019Y-88097743D01*
X136427132Y-88098311D01*
X136423723Y-88098989D01*
X136422803Y-88099337D01*
X136421160Y-88099498D01*
X136266510Y-88130261D01*
X136266498Y-88130264D01*
X136120827Y-88190602D01*
X136120814Y-88190609D01*
X135989711Y-88278210D01*
X135989707Y-88278213D01*
X135878213Y-88389707D01*
X135878207Y-88389715D01*
X135841675Y-88444390D01*
X135788063Y-88489196D01*
X135738573Y-88499500D01*
X133920980Y-88499500D01*
X133920963Y-88499499D01*
X133755255Y-88499499D01*
X133636637Y-88531284D01*
X133636636Y-88531284D01*
X133604327Y-88539941D01*
X133602643Y-88540365D01*
X133602538Y-88540418D01*
X133602528Y-88540423D01*
X133541741Y-88575519D01*
X133541740Y-88575519D01*
X133465604Y-88619475D01*
X133459871Y-88623875D01*
X133394702Y-88649070D01*
X133384383Y-88649500D01*
X132685854Y-88649500D01*
X132618815Y-88629815D01*
X132573060Y-88577011D01*
X132562915Y-88541687D01*
X132559626Y-88516707D01*
X132562689Y-88516303D01*
X132562689Y-88483698D01*
X132559626Y-88483295D01*
X132564748Y-88444390D01*
X132575500Y-88362720D01*
X132575500Y-88137280D01*
X132560687Y-88024764D01*
X132560686Y-88024763D01*
X132559626Y-88016705D01*
X132562689Y-88016301D01*
X132562689Y-87983698D01*
X132559626Y-87983295D01*
X132573460Y-87878213D01*
X132575500Y-87862720D01*
X132575500Y-87637280D01*
X132560687Y-87524764D01*
X132560686Y-87524763D01*
X132559626Y-87516705D01*
X132562689Y-87516301D01*
X132562689Y-87483698D01*
X132559626Y-87483295D01*
X132560687Y-87475236D01*
X132575500Y-87362720D01*
X132575500Y-87137280D01*
X132572657Y-87115685D01*
X132583422Y-87046651D01*
X132629802Y-86994395D01*
X132695596Y-86975500D01*
X134395741Y-86975500D01*
X134395757Y-86975501D01*
X134403353Y-86975501D01*
X134561464Y-86975501D01*
X134561467Y-86975501D01*
X134714195Y-86934577D01*
X134764314Y-86905639D01*
X134851126Y-86855520D01*
X134962930Y-86743716D01*
X134962931Y-86743713D01*
X135094827Y-86611816D01*
X135156148Y-86578334D01*
X135182506Y-86575500D01*
X135362713Y-86575500D01*
X135362720Y-86575500D01*
X135475236Y-86560687D01*
X135475236Y-86560686D01*
X135483295Y-86559626D01*
X135483698Y-86562689D01*
X135516302Y-86562689D01*
X135516705Y-86559626D01*
X135524763Y-86560686D01*
X135524764Y-86560687D01*
X135637280Y-86575500D01*
X135637287Y-86575500D01*
X135862713Y-86575500D01*
X135862720Y-86575500D01*
X135975236Y-86560687D01*
X135975236Y-86560686D01*
X135983295Y-86559626D01*
X135983698Y-86562689D01*
X136016302Y-86562689D01*
X136016705Y-86559626D01*
X136024763Y-86560686D01*
G37*
%TD.AperFunction*%
%TA.AperFunction,Conductor*%
G36*
X145166817Y-86510185D02*
G01*
X145212572Y-86562989D01*
X145222516Y-86632147D01*
X145218854Y-86649095D01*
X145182335Y-86774791D01*
X145182334Y-86774797D01*
X145181514Y-86785228D01*
X145156631Y-86850516D01*
X145100400Y-86891988D01*
X145057896Y-86899500D01*
X144881168Y-86899500D01*
X144814129Y-86879815D01*
X144768374Y-86827011D01*
X144757550Y-86765772D01*
X144758791Y-86750001D01*
X144758790Y-86750000D01*
X144104000Y-86750000D01*
X144036961Y-86730315D01*
X143991206Y-86677511D01*
X143980000Y-86626000D01*
X143980000Y-86614500D01*
X143999685Y-86547461D01*
X144052489Y-86501706D01*
X144104000Y-86490500D01*
X145099778Y-86490500D01*
X145166817Y-86510185D01*
G37*
%TD.AperFunction*%
%TA.AperFunction,Conductor*%
G36*
X142215533Y-81420185D02*
G01*
X142261288Y-81472989D01*
X142271232Y-81542147D01*
X142267570Y-81559095D01*
X142222335Y-81714791D01*
X142222334Y-81714797D01*
X142219500Y-81750811D01*
X142219500Y-81879902D01*
X142199815Y-81946941D01*
X142183181Y-81967583D01*
X141485339Y-82665425D01*
X141424016Y-82698910D01*
X141421850Y-82699361D01*
X141266508Y-82730261D01*
X141266498Y-82730264D01*
X141120827Y-82790602D01*
X141120814Y-82790609D01*
X140989711Y-82878210D01*
X140989707Y-82878213D01*
X140878213Y-82989707D01*
X140878210Y-82989711D01*
X140790609Y-83120814D01*
X140790602Y-83120827D01*
X140730264Y-83266498D01*
X140730261Y-83266510D01*
X140699500Y-83421153D01*
X140699500Y-83578846D01*
X140730261Y-83733489D01*
X140730264Y-83733501D01*
X140790602Y-83879172D01*
X140790609Y-83879185D01*
X140878210Y-84010288D01*
X140878213Y-84010292D01*
X140989710Y-84121789D01*
X141078042Y-84180810D01*
X141122847Y-84234422D01*
X141131554Y-84303747D01*
X141101400Y-84366774D01*
X141093983Y-84373868D01*
X141094018Y-84373903D01*
X140978213Y-84489707D01*
X140978210Y-84489711D01*
X140890609Y-84620814D01*
X140890602Y-84620827D01*
X140830264Y-84766498D01*
X140830261Y-84766510D01*
X140799500Y-84921153D01*
X140799500Y-85078846D01*
X140830261Y-85233489D01*
X140830264Y-85233501D01*
X140890602Y-85379172D01*
X140890609Y-85379185D01*
X140978210Y-85510288D01*
X140978213Y-85510292D01*
X141089707Y-85621786D01*
X141089711Y-85621789D01*
X141221405Y-85709785D01*
X141266210Y-85763397D01*
X141274917Y-85832722D01*
X141244762Y-85895750D01*
X141240195Y-85900568D01*
X140891993Y-86248770D01*
X140830670Y-86282255D01*
X140760978Y-86277271D01*
X140728826Y-86259465D01*
X140615233Y-86172302D01*
X140615230Y-86172300D01*
X140524731Y-86134814D01*
X140475236Y-86114313D01*
X140461171Y-86112461D01*
X140362727Y-86099500D01*
X140362720Y-86099500D01*
X139024500Y-86099500D01*
X138957461Y-86079815D01*
X138911706Y-86027011D01*
X138900500Y-85975500D01*
X138900500Y-84637286D01*
X138900499Y-84637272D01*
X138895250Y-84597401D01*
X138885687Y-84524764D01*
X138871166Y-84489707D01*
X138859939Y-84462601D01*
X138850500Y-84415149D01*
X138850500Y-83300097D01*
X138870185Y-83233058D01*
X138886819Y-83212416D01*
X140662416Y-81436819D01*
X140723739Y-81403334D01*
X140750097Y-81400500D01*
X142148494Y-81400500D01*
X142215533Y-81420185D01*
G37*
%TD.AperFunction*%
%TA.AperFunction,Conductor*%
G36*
X132905703Y-81788226D02*
G01*
X132912181Y-81794258D01*
X133213681Y-82095758D01*
X133247166Y-82157081D01*
X133250000Y-82183439D01*
X133250000Y-83850485D01*
X133253305Y-83897631D01*
X133239566Y-83933095D01*
X133233826Y-83943039D01*
X133232067Y-83946086D01*
X133223623Y-83960712D01*
X133190422Y-84018215D01*
X133187314Y-84025721D01*
X133185463Y-84024954D01*
X133179159Y-84035293D01*
X133171389Y-84056842D01*
X133161317Y-84064554D01*
X133154712Y-84075387D01*
X133134102Y-84085393D01*
X133115915Y-84099321D01*
X133093839Y-84104943D01*
X133091859Y-84105905D01*
X133090638Y-84105758D01*
X133087504Y-84106557D01*
X133017270Y-84115804D01*
X132983527Y-84113593D01*
X132983293Y-84115374D01*
X132975236Y-84114313D01*
X132955451Y-84111708D01*
X132862727Y-84099500D01*
X132858670Y-84099235D01*
X132858763Y-84097815D01*
X132797461Y-84079815D01*
X132751706Y-84027011D01*
X132740500Y-83975500D01*
X132740500Y-83873596D01*
X132741592Y-83869876D01*
X132740727Y-83866099D01*
X132750000Y-83840384D01*
X132750000Y-83498352D01*
X132767269Y-83435229D01*
X132772494Y-83426395D01*
X132817643Y-83270993D01*
X132820500Y-83234690D01*
X132820500Y-82765310D01*
X132817643Y-82729007D01*
X132811945Y-82709396D01*
X132772495Y-82573608D01*
X132772492Y-82573600D01*
X132767266Y-82564763D01*
X132750000Y-82501645D01*
X132750000Y-82195467D01*
X132708256Y-82139536D01*
X132700500Y-82096369D01*
X132700500Y-81881939D01*
X132720185Y-81814900D01*
X132772989Y-81769145D01*
X132842147Y-81759201D01*
X132905703Y-81788226D01*
G37*
%TD.AperFunction*%
%TA.AperFunction,Conductor*%
G36*
X130021444Y-78153999D02*
G01*
X130060486Y-78199056D01*
X130064951Y-78207820D01*
X130189890Y-78379786D01*
X130340213Y-78530109D01*
X130512184Y-78655051D01*
X130512184Y-78655052D01*
X130551793Y-78675233D01*
X130602590Y-78723206D01*
X130619500Y-78785718D01*
X130619500Y-79166173D01*
X130619499Y-79166191D01*
X130619499Y-79331897D01*
X130619498Y-79331897D01*
X130619499Y-79331900D01*
X130643358Y-79420943D01*
X130660424Y-79484630D01*
X130680544Y-79519478D01*
X130680545Y-79519481D01*
X130739475Y-79621552D01*
X130739481Y-79621560D01*
X130858349Y-79740428D01*
X130858355Y-79740433D01*
X131405240Y-80287318D01*
X131438725Y-80348641D01*
X131433741Y-80418333D01*
X131405242Y-80462679D01*
X131378210Y-80489711D01*
X131290609Y-80620814D01*
X131290602Y-80620827D01*
X131230264Y-80766498D01*
X131230261Y-80766510D01*
X131199500Y-80921153D01*
X131199500Y-81078846D01*
X131230261Y-81233489D01*
X131230264Y-81233501D01*
X131290061Y-81377864D01*
X131299500Y-81425316D01*
X131299500Y-82583514D01*
X131294576Y-82618109D01*
X131262357Y-82729002D01*
X131262356Y-82729008D01*
X131259500Y-82765302D01*
X131259500Y-83132867D01*
X131239815Y-83199906D01*
X131187011Y-83245661D01*
X131117853Y-83255605D01*
X131100906Y-83251944D01*
X131035127Y-83232833D01*
X131000000Y-83230068D01*
X131000000Y-83876000D01*
X130980315Y-83943039D01*
X130927511Y-83988794D01*
X130876000Y-84000000D01*
X130624000Y-84000000D01*
X130556961Y-83980315D01*
X130511206Y-83927511D01*
X130500000Y-83876000D01*
X130500000Y-83230068D01*
X130499999Y-83230068D01*
X130464869Y-83232834D01*
X130464868Y-83232834D01*
X130310811Y-83277592D01*
X130310810Y-83277592D01*
X130287620Y-83291307D01*
X130219896Y-83308488D01*
X130153634Y-83286328D01*
X130109871Y-83231862D01*
X130100500Y-83184574D01*
X130100500Y-79060945D01*
X130100500Y-79060943D01*
X130065070Y-78928716D01*
X130065070Y-78928714D01*
X130059578Y-78908218D01*
X130059577Y-78908216D01*
X130059577Y-78908215D01*
X130026255Y-78850500D01*
X129980520Y-78771284D01*
X129868716Y-78659480D01*
X129868715Y-78659479D01*
X129864385Y-78655149D01*
X129864374Y-78655139D01*
X129734040Y-78524805D01*
X129700555Y-78463482D01*
X129705539Y-78393790D01*
X129721398Y-78364246D01*
X129835051Y-78207816D01*
X129839514Y-78199054D01*
X129887488Y-78148259D01*
X129955308Y-78131463D01*
X130021444Y-78153999D01*
G37*
%TD.AperFunction*%
%TA.AperFunction,Conductor*%
G36*
X135101444Y-78153999D02*
G01*
X135140486Y-78199056D01*
X135144951Y-78207820D01*
X135269890Y-78379786D01*
X135420213Y-78530109D01*
X135592179Y-78655048D01*
X135592181Y-78655049D01*
X135592184Y-78655051D01*
X135781588Y-78751557D01*
X135813820Y-78762029D01*
X135871492Y-78801463D01*
X135898691Y-78865822D01*
X135899500Y-78879959D01*
X135899500Y-79199902D01*
X135879815Y-79266941D01*
X135863181Y-79287583D01*
X134769481Y-80381282D01*
X134769480Y-80381284D01*
X134726409Y-80455886D01*
X134690423Y-80518215D01*
X134649499Y-80670943D01*
X134649499Y-80670945D01*
X134649499Y-80839046D01*
X134649500Y-80839059D01*
X134649500Y-80968059D01*
X134629815Y-81035098D01*
X134577011Y-81080853D01*
X134507853Y-81090797D01*
X134444297Y-81061772D01*
X134437819Y-81055740D01*
X134136819Y-80754740D01*
X134103334Y-80693417D01*
X134100500Y-80667059D01*
X134100500Y-78899455D01*
X134120185Y-78832416D01*
X134172989Y-78786661D01*
X134186183Y-78781524D01*
X134278407Y-78751559D01*
X134278409Y-78751557D01*
X134278412Y-78751557D01*
X134467816Y-78655051D01*
X134522572Y-78615269D01*
X134639786Y-78530109D01*
X134639788Y-78530106D01*
X134639792Y-78530104D01*
X134790104Y-78379792D01*
X134790106Y-78379788D01*
X134790109Y-78379786D01*
X134915048Y-78207820D01*
X134915047Y-78207820D01*
X134915051Y-78207816D01*
X134919514Y-78199054D01*
X134967488Y-78148259D01*
X135035308Y-78131463D01*
X135101444Y-78153999D01*
G37*
%TD.AperFunction*%
%TA.AperFunction,Conductor*%
G36*
X145261444Y-78153999D02*
G01*
X145300486Y-78199056D01*
X145304951Y-78207820D01*
X145429890Y-78379786D01*
X145580213Y-78530109D01*
X145752184Y-78655051D01*
X145752184Y-78655052D01*
X145791793Y-78675233D01*
X145842590Y-78723206D01*
X145859500Y-78785718D01*
X145859500Y-79239903D01*
X145839815Y-79306942D01*
X145823181Y-79327584D01*
X145787584Y-79363181D01*
X145726261Y-79396666D01*
X145699903Y-79399500D01*
X143669097Y-79399500D01*
X143602058Y-79379815D01*
X143556303Y-79327011D01*
X143546359Y-79257853D01*
X143575384Y-79194297D01*
X143581416Y-79187819D01*
X143882416Y-78886819D01*
X143943739Y-78853334D01*
X143970097Y-78850500D01*
X144026286Y-78850500D01*
X144026287Y-78850500D01*
X144236243Y-78817246D01*
X144438412Y-78751557D01*
X144627816Y-78655051D01*
X144682572Y-78615269D01*
X144799786Y-78530109D01*
X144799788Y-78530106D01*
X144799792Y-78530104D01*
X144950104Y-78379792D01*
X144950106Y-78379788D01*
X144950109Y-78379786D01*
X145075048Y-78207820D01*
X145075047Y-78207820D01*
X145075051Y-78207816D01*
X145079514Y-78199054D01*
X145127488Y-78148259D01*
X145195308Y-78131463D01*
X145261444Y-78153999D01*
G37*
%TD.AperFunction*%
%TA.AperFunction,Conductor*%
G36*
X153442539Y-75520185D02*
G01*
X153488294Y-75572989D01*
X153499500Y-75624500D01*
X153499500Y-106875500D01*
X153479815Y-106942539D01*
X153427011Y-106988294D01*
X153375500Y-106999500D01*
X106624500Y-106999500D01*
X106557461Y-106979815D01*
X106511706Y-106927011D01*
X106500500Y-106875500D01*
X106500500Y-104102135D01*
X106969500Y-104102135D01*
X106969500Y-105897870D01*
X106969501Y-105897876D01*
X106975908Y-105957483D01*
X107026202Y-106092328D01*
X107026206Y-106092335D01*
X107112452Y-106207544D01*
X107112455Y-106207547D01*
X107227664Y-106293793D01*
X107227671Y-106293797D01*
X107362517Y-106344091D01*
X107362516Y-106344091D01*
X107369444Y-106344835D01*
X107422127Y-106350500D01*
X109217872Y-106350499D01*
X109277483Y-106344091D01*
X109412331Y-106293796D01*
X109527546Y-106207546D01*
X109613796Y-106092331D01*
X109664091Y-105957483D01*
X109670500Y-105897873D01*
X109670499Y-105873979D01*
X109673330Y-105860963D01*
X109683940Y-105841525D01*
X109690179Y-105820275D01*
X109706803Y-105799643D01*
X109706808Y-105799636D01*
X109706811Y-105799634D01*
X109706818Y-105799626D01*
X110377037Y-105129408D01*
X110394075Y-105192993D01*
X110459901Y-105307007D01*
X110552993Y-105400099D01*
X110667007Y-105465925D01*
X110730590Y-105482962D01*
X110098282Y-106115269D01*
X110098282Y-106115270D01*
X110152449Y-106154624D01*
X110341782Y-106251095D01*
X110543870Y-106316757D01*
X110753754Y-106350000D01*
X110966246Y-106350000D01*
X111176127Y-106316757D01*
X111176130Y-106316757D01*
X111378217Y-106251095D01*
X111567554Y-106154622D01*
X111621716Y-106115270D01*
X111621717Y-106115270D01*
X110989408Y-105482962D01*
X111052993Y-105465925D01*
X111167007Y-105400099D01*
X111260099Y-105307007D01*
X111325925Y-105192993D01*
X111342962Y-105129408D01*
X111975270Y-105761717D01*
X111975270Y-105761716D01*
X112014622Y-105707554D01*
X112019514Y-105697954D01*
X112067488Y-105647157D01*
X112135308Y-105630361D01*
X112201444Y-105652897D01*
X112240486Y-105697954D01*
X112245375Y-105707550D01*
X112284728Y-105761716D01*
X112917037Y-105129408D01*
X112934075Y-105192993D01*
X112999901Y-105307007D01*
X113092993Y-105400099D01*
X113207007Y-105465925D01*
X113270590Y-105482962D01*
X112638282Y-106115269D01*
X112638282Y-106115270D01*
X112692449Y-106154624D01*
X112881782Y-106251095D01*
X113083870Y-106316757D01*
X113293754Y-106350000D01*
X113506246Y-106350000D01*
X113716127Y-106316757D01*
X113716130Y-106316757D01*
X113918217Y-106251095D01*
X114107554Y-106154622D01*
X114161716Y-106115270D01*
X114161717Y-106115270D01*
X113529408Y-105482962D01*
X113592993Y-105465925D01*
X113707007Y-105400099D01*
X113800099Y-105307007D01*
X113865925Y-105192993D01*
X113882962Y-105129408D01*
X114515270Y-105761717D01*
X114515270Y-105761716D01*
X114554622Y-105707555D01*
X114559232Y-105698507D01*
X114607205Y-105647709D01*
X114675025Y-105630912D01*
X114741161Y-105653447D01*
X114780204Y-105698504D01*
X114784949Y-105707817D01*
X114909890Y-105879786D01*
X115060213Y-106030109D01*
X115232179Y-106155048D01*
X115232181Y-106155049D01*
X115232184Y-106155051D01*
X115421588Y-106251557D01*
X115623757Y-106317246D01*
X115833713Y-106350500D01*
X115833714Y-106350500D01*
X116046286Y-106350500D01*
X116046287Y-106350500D01*
X116256243Y-106317246D01*
X116458412Y-106251557D01*
X116647816Y-106155051D01*
X116734138Y-106092335D01*
X116819786Y-106030109D01*
X116819788Y-106030106D01*
X116819792Y-106030104D01*
X116970104Y-105879792D01*
X116983784Y-105860963D01*
X117026903Y-105801615D01*
X117082233Y-105758949D01*
X117127221Y-105750500D01*
X117292779Y-105750500D01*
X117359818Y-105770185D01*
X117393097Y-105801615D01*
X117449892Y-105879788D01*
X117600213Y-106030109D01*
X117772179Y-106155048D01*
X117772181Y-106155049D01*
X117772184Y-106155051D01*
X117961588Y-106251557D01*
X118163757Y-106317246D01*
X118373713Y-106350500D01*
X118373714Y-106350500D01*
X118586286Y-106350500D01*
X118586287Y-106350500D01*
X118796243Y-106317246D01*
X118998412Y-106251557D01*
X119187816Y-106155051D01*
X119274138Y-106092335D01*
X119359786Y-106030109D01*
X119359788Y-106030106D01*
X119359792Y-106030104D01*
X119510104Y-105879792D01*
X119510106Y-105879788D01*
X119510109Y-105879786D01*
X119635048Y-105707820D01*
X119635047Y-105707820D01*
X119635051Y-105707816D01*
X119639514Y-105699054D01*
X119687488Y-105648259D01*
X119755308Y-105631463D01*
X119821444Y-105653999D01*
X119860486Y-105699056D01*
X119864951Y-105707820D01*
X119989890Y-105879786D01*
X120140213Y-106030109D01*
X120312179Y-106155048D01*
X120312181Y-106155049D01*
X120312184Y-106155051D01*
X120501588Y-106251557D01*
X120703757Y-106317246D01*
X120913713Y-106350500D01*
X120913714Y-106350500D01*
X121126286Y-106350500D01*
X121126287Y-106350500D01*
X121336243Y-106317246D01*
X121538412Y-106251557D01*
X121727816Y-106155051D01*
X121814138Y-106092335D01*
X121899786Y-106030109D01*
X121899788Y-106030106D01*
X121899792Y-106030104D01*
X122050104Y-105879792D01*
X122050106Y-105879788D01*
X122050109Y-105879786D01*
X122175048Y-105707820D01*
X122175047Y-105707820D01*
X122175051Y-105707816D01*
X122179514Y-105699054D01*
X122227488Y-105648259D01*
X122295308Y-105631463D01*
X122361444Y-105653999D01*
X122400486Y-105699056D01*
X122404951Y-105707820D01*
X122529890Y-105879786D01*
X122680213Y-106030109D01*
X122852179Y-106155048D01*
X122852181Y-106155049D01*
X122852184Y-106155051D01*
X123041588Y-106251557D01*
X123243757Y-106317246D01*
X123453713Y-106350500D01*
X123453714Y-106350500D01*
X123666286Y-106350500D01*
X123666287Y-106350500D01*
X123876243Y-106317246D01*
X124078412Y-106251557D01*
X124267816Y-106155051D01*
X124354138Y-106092335D01*
X124439786Y-106030109D01*
X124439788Y-106030106D01*
X124439792Y-106030104D01*
X124590104Y-105879792D01*
X124590106Y-105879788D01*
X124590109Y-105879786D01*
X124715048Y-105707820D01*
X124715047Y-105707820D01*
X124715051Y-105707816D01*
X124719514Y-105699054D01*
X124767488Y-105648259D01*
X124835308Y-105631463D01*
X124901444Y-105653999D01*
X124940486Y-105699056D01*
X124944951Y-105707820D01*
X125069890Y-105879786D01*
X125220213Y-106030109D01*
X125392179Y-106155048D01*
X125392181Y-106155049D01*
X125392184Y-106155051D01*
X125581588Y-106251557D01*
X125783757Y-106317246D01*
X125993713Y-106350500D01*
X125993714Y-106350500D01*
X126206286Y-106350500D01*
X126206287Y-106350500D01*
X126416243Y-106317246D01*
X126618412Y-106251557D01*
X126807816Y-106155051D01*
X126894138Y-106092335D01*
X126979786Y-106030109D01*
X126979788Y-106030106D01*
X126979792Y-106030104D01*
X127130104Y-105879792D01*
X127130106Y-105879788D01*
X127130109Y-105879786D01*
X127255048Y-105707820D01*
X127255047Y-105707820D01*
X127255051Y-105707816D01*
X127259514Y-105699054D01*
X127307488Y-105648259D01*
X127375308Y-105631463D01*
X127441444Y-105653999D01*
X127480486Y-105699056D01*
X127484951Y-105707820D01*
X127609890Y-105879786D01*
X127760213Y-106030109D01*
X127932179Y-106155048D01*
X127932181Y-106155049D01*
X127932184Y-106155051D01*
X128121588Y-106251557D01*
X128323757Y-106317246D01*
X128533713Y-106350500D01*
X128533714Y-106350500D01*
X128746286Y-106350500D01*
X128746287Y-106350500D01*
X128956243Y-106317246D01*
X129158412Y-106251557D01*
X129347816Y-106155051D01*
X129434138Y-106092335D01*
X129519786Y-106030109D01*
X129519788Y-106030106D01*
X129519792Y-106030104D01*
X129670104Y-105879792D01*
X129670106Y-105879788D01*
X129670109Y-105879786D01*
X129795048Y-105707820D01*
X129795047Y-105707820D01*
X129795051Y-105707816D01*
X129799514Y-105699054D01*
X129847488Y-105648259D01*
X129915308Y-105631463D01*
X129981444Y-105653999D01*
X130020486Y-105699056D01*
X130024951Y-105707820D01*
X130149890Y-105879786D01*
X130300213Y-106030109D01*
X130472179Y-106155048D01*
X130472181Y-106155049D01*
X130472184Y-106155051D01*
X130661588Y-106251557D01*
X130863757Y-106317246D01*
X131073713Y-106350500D01*
X131073714Y-106350500D01*
X131286286Y-106350500D01*
X131286287Y-106350500D01*
X131496243Y-106317246D01*
X131698412Y-106251557D01*
X131887816Y-106155051D01*
X131974138Y-106092335D01*
X132059786Y-106030109D01*
X132059788Y-106030106D01*
X132059792Y-106030104D01*
X132210104Y-105879792D01*
X132210106Y-105879788D01*
X132210109Y-105879786D01*
X132335048Y-105707820D01*
X132335047Y-105707820D01*
X132335051Y-105707816D01*
X132339514Y-105699054D01*
X132387488Y-105648259D01*
X132455308Y-105631463D01*
X132521444Y-105653999D01*
X132560486Y-105699056D01*
X132564951Y-105707820D01*
X132689890Y-105879786D01*
X132840213Y-106030109D01*
X133012179Y-106155048D01*
X133012181Y-106155049D01*
X133012184Y-106155051D01*
X133201588Y-106251557D01*
X133403757Y-106317246D01*
X133613713Y-106350500D01*
X133613714Y-106350500D01*
X133826286Y-106350500D01*
X133826287Y-106350500D01*
X134036243Y-106317246D01*
X134238412Y-106251557D01*
X134427816Y-106155051D01*
X134514138Y-106092335D01*
X134599786Y-106030109D01*
X134599788Y-106030106D01*
X134599792Y-106030104D01*
X134750104Y-105879792D01*
X134750106Y-105879788D01*
X134750109Y-105879786D01*
X134875048Y-105707820D01*
X134875047Y-105707820D01*
X134875051Y-105707816D01*
X134879514Y-105699054D01*
X134927488Y-105648259D01*
X134995308Y-105631463D01*
X135061444Y-105653999D01*
X135100486Y-105699056D01*
X135104951Y-105707820D01*
X135229890Y-105879786D01*
X135380213Y-106030109D01*
X135552179Y-106155048D01*
X135552181Y-106155049D01*
X135552184Y-106155051D01*
X135741588Y-106251557D01*
X135943757Y-106317246D01*
X136153713Y-106350500D01*
X136153714Y-106350500D01*
X136366286Y-106350500D01*
X136366287Y-106350500D01*
X136576243Y-106317246D01*
X136778412Y-106251557D01*
X136967816Y-106155051D01*
X137054138Y-106092335D01*
X137139786Y-106030109D01*
X137139788Y-106030106D01*
X137139792Y-106030104D01*
X137290104Y-105879792D01*
X137290106Y-105879788D01*
X137290109Y-105879786D01*
X137415048Y-105707820D01*
X137415047Y-105707820D01*
X137415051Y-105707816D01*
X137419514Y-105699054D01*
X137467488Y-105648259D01*
X137535308Y-105631463D01*
X137601444Y-105653999D01*
X137640486Y-105699056D01*
X137644951Y-105707820D01*
X137769890Y-105879786D01*
X137920213Y-106030109D01*
X138092179Y-106155048D01*
X138092181Y-106155049D01*
X138092184Y-106155051D01*
X138281588Y-106251557D01*
X138483757Y-106317246D01*
X138693713Y-106350500D01*
X138693714Y-106350500D01*
X138906286Y-106350500D01*
X138906287Y-106350500D01*
X139116243Y-106317246D01*
X139318412Y-106251557D01*
X139507816Y-106155051D01*
X139594138Y-106092335D01*
X139679786Y-106030109D01*
X139679788Y-106030106D01*
X139679792Y-106030104D01*
X139830104Y-105879792D01*
X139830106Y-105879788D01*
X139830109Y-105879786D01*
X139955048Y-105707820D01*
X139955047Y-105707820D01*
X139955051Y-105707816D01*
X139959514Y-105699054D01*
X140007488Y-105648259D01*
X140075308Y-105631463D01*
X140141444Y-105653999D01*
X140180486Y-105699056D01*
X140184951Y-105707820D01*
X140309890Y-105879786D01*
X140460213Y-106030109D01*
X140632179Y-106155048D01*
X140632181Y-106155049D01*
X140632184Y-106155051D01*
X140821588Y-106251557D01*
X141023757Y-106317246D01*
X141233713Y-106350500D01*
X141233714Y-106350500D01*
X141446286Y-106350500D01*
X141446287Y-106350500D01*
X141656243Y-106317246D01*
X141858412Y-106251557D01*
X142047816Y-106155051D01*
X142134138Y-106092335D01*
X142219786Y-106030109D01*
X142219788Y-106030106D01*
X142219792Y-106030104D01*
X142370104Y-105879792D01*
X142370106Y-105879788D01*
X142370109Y-105879786D01*
X142495048Y-105707820D01*
X142495047Y-105707820D01*
X142495051Y-105707816D01*
X142499514Y-105699054D01*
X142547488Y-105648259D01*
X142615308Y-105631463D01*
X142681444Y-105653999D01*
X142720486Y-105699056D01*
X142724951Y-105707820D01*
X142849890Y-105879786D01*
X143000213Y-106030109D01*
X143172179Y-106155048D01*
X143172181Y-106155049D01*
X143172184Y-106155051D01*
X143361588Y-106251557D01*
X143563757Y-106317246D01*
X143773713Y-106350500D01*
X143773714Y-106350500D01*
X143986286Y-106350500D01*
X143986287Y-106350500D01*
X144196243Y-106317246D01*
X144398412Y-106251557D01*
X144587816Y-106155051D01*
X144674138Y-106092335D01*
X144759786Y-106030109D01*
X144759788Y-106030106D01*
X144759792Y-106030104D01*
X144910104Y-105879792D01*
X144910106Y-105879788D01*
X144910109Y-105879786D01*
X145035048Y-105707820D01*
X145035047Y-105707820D01*
X145035051Y-105707816D01*
X145039514Y-105699054D01*
X145087488Y-105648259D01*
X145155308Y-105631463D01*
X145221444Y-105653999D01*
X145260486Y-105699056D01*
X145264951Y-105707820D01*
X145389890Y-105879786D01*
X145540213Y-106030109D01*
X145712179Y-106155048D01*
X145712181Y-106155049D01*
X145712184Y-106155051D01*
X145901588Y-106251557D01*
X146103757Y-106317246D01*
X146313713Y-106350500D01*
X146313714Y-106350500D01*
X146526286Y-106350500D01*
X146526287Y-106350500D01*
X146736243Y-106317246D01*
X146938412Y-106251557D01*
X147127816Y-106155051D01*
X147214138Y-106092335D01*
X147299786Y-106030109D01*
X147299788Y-106030106D01*
X147299792Y-106030104D01*
X147450104Y-105879792D01*
X147450106Y-105879788D01*
X147450109Y-105879786D01*
X147517515Y-105787007D01*
X147575051Y-105707816D01*
X147579793Y-105698508D01*
X147627763Y-105647711D01*
X147695583Y-105630911D01*
X147761719Y-105653445D01*
X147800763Y-105698500D01*
X147805373Y-105707547D01*
X147844728Y-105761716D01*
X148477037Y-105129408D01*
X148494075Y-105192993D01*
X148559901Y-105307007D01*
X148652993Y-105400099D01*
X148767007Y-105465925D01*
X148830590Y-105482962D01*
X148198282Y-106115269D01*
X148198282Y-106115270D01*
X148252449Y-106154624D01*
X148441782Y-106251095D01*
X148643870Y-106316757D01*
X148853754Y-106350000D01*
X149066246Y-106350000D01*
X149276127Y-106316757D01*
X149276130Y-106316757D01*
X149478217Y-106251095D01*
X149667554Y-106154622D01*
X149721716Y-106115270D01*
X149721717Y-106115270D01*
X149089408Y-105482962D01*
X149152993Y-105465925D01*
X149267007Y-105400099D01*
X149360099Y-105307007D01*
X149425925Y-105192993D01*
X149442962Y-105129408D01*
X150075270Y-105761717D01*
X150075270Y-105761716D01*
X150114622Y-105707554D01*
X150119514Y-105697954D01*
X150167488Y-105647157D01*
X150235308Y-105630361D01*
X150301444Y-105652897D01*
X150340486Y-105697954D01*
X150345375Y-105707550D01*
X150384728Y-105761716D01*
X151017037Y-105129408D01*
X151034075Y-105192993D01*
X151099901Y-105307007D01*
X151192993Y-105400099D01*
X151307007Y-105465925D01*
X151370590Y-105482962D01*
X150738282Y-106115269D01*
X150738282Y-106115270D01*
X150792449Y-106154624D01*
X150981782Y-106251095D01*
X151183870Y-106316757D01*
X151393754Y-106350000D01*
X151606246Y-106350000D01*
X151816127Y-106316757D01*
X151816130Y-106316757D01*
X152018217Y-106251095D01*
X152207554Y-106154622D01*
X152261716Y-106115270D01*
X152261717Y-106115270D01*
X151629408Y-105482962D01*
X151692993Y-105465925D01*
X151807007Y-105400099D01*
X151900099Y-105307007D01*
X151965925Y-105192993D01*
X151982962Y-105129409D01*
X152615270Y-105761717D01*
X152615270Y-105761716D01*
X152654622Y-105707554D01*
X152751095Y-105518217D01*
X152816757Y-105316130D01*
X152816757Y-105316127D01*
X152850000Y-105106246D01*
X152850000Y-104893753D01*
X152816757Y-104683872D01*
X152816757Y-104683869D01*
X152751095Y-104481782D01*
X152654624Y-104292449D01*
X152615270Y-104238282D01*
X152615269Y-104238282D01*
X151982962Y-104870590D01*
X151965925Y-104807007D01*
X151900099Y-104692993D01*
X151807007Y-104599901D01*
X151692993Y-104534075D01*
X151629409Y-104517037D01*
X152261716Y-103884728D01*
X152207550Y-103845375D01*
X152018217Y-103748904D01*
X151816129Y-103683242D01*
X151606246Y-103650000D01*
X151393754Y-103650000D01*
X151183872Y-103683242D01*
X151183869Y-103683242D01*
X150981782Y-103748904D01*
X150792439Y-103845380D01*
X150738282Y-103884727D01*
X150738282Y-103884728D01*
X151370591Y-104517037D01*
X151307007Y-104534075D01*
X151192993Y-104599901D01*
X151099901Y-104692993D01*
X151034075Y-104807007D01*
X151017037Y-104870591D01*
X150384728Y-104238282D01*
X150384727Y-104238282D01*
X150345380Y-104292440D01*
X150340483Y-104302051D01*
X150292506Y-104352845D01*
X150224684Y-104369638D01*
X150158550Y-104347098D01*
X150119516Y-104302048D01*
X150114626Y-104292452D01*
X150075270Y-104238282D01*
X150075269Y-104238282D01*
X149442962Y-104870590D01*
X149425925Y-104807007D01*
X149360099Y-104692993D01*
X149267007Y-104599901D01*
X149152993Y-104534075D01*
X149089409Y-104517037D01*
X149721716Y-103884728D01*
X149667550Y-103845375D01*
X149478217Y-103748904D01*
X149276129Y-103683242D01*
X149066246Y-103650000D01*
X148853754Y-103650000D01*
X148643872Y-103683242D01*
X148643869Y-103683242D01*
X148441782Y-103748904D01*
X148252439Y-103845380D01*
X148198282Y-103884727D01*
X148198282Y-103884728D01*
X148830591Y-104517037D01*
X148767007Y-104534075D01*
X148652993Y-104599901D01*
X148559901Y-104692993D01*
X148494075Y-104807007D01*
X148477037Y-104870591D01*
X147844728Y-104238282D01*
X147844727Y-104238282D01*
X147805380Y-104292440D01*
X147805376Y-104292446D01*
X147800760Y-104301505D01*
X147752781Y-104352297D01*
X147684959Y-104369087D01*
X147618826Y-104346543D01*
X147579794Y-104301493D01*
X147575051Y-104292184D01*
X147575049Y-104292181D01*
X147575048Y-104292179D01*
X147450109Y-104120213D01*
X147435932Y-104106036D01*
X147431593Y-104098090D01*
X147424346Y-104092665D01*
X147415111Y-104067905D01*
X147402447Y-104044713D01*
X147403092Y-104035683D01*
X147399929Y-104027201D01*
X147405545Y-104001380D01*
X147407431Y-103975021D01*
X147413249Y-103965967D01*
X147414781Y-103958928D01*
X147435932Y-103930674D01*
X147490646Y-103875960D01*
X147980520Y-103386088D01*
X148059577Y-103249156D01*
X148100501Y-103096429D01*
X148100501Y-102938314D01*
X148100501Y-102930719D01*
X148100500Y-102930701D01*
X148100500Y-98589059D01*
X148100501Y-98589046D01*
X148100501Y-98420945D01*
X148100501Y-98420943D01*
X148059577Y-98268215D01*
X148059575Y-98268212D01*
X148059575Y-98268210D01*
X148059574Y-98268209D01*
X148030037Y-98217050D01*
X148030035Y-98217048D01*
X148018642Y-98197315D01*
X147980520Y-98131284D01*
X147868716Y-98019480D01*
X147868715Y-98019479D01*
X147864385Y-98015149D01*
X147864374Y-98015139D01*
X145487590Y-95638355D01*
X145487588Y-95638352D01*
X145368717Y-95519481D01*
X145368716Y-95519480D01*
X145269853Y-95462402D01*
X145269852Y-95462401D01*
X145231783Y-95440422D01*
X145159888Y-95421158D01*
X145079057Y-95399499D01*
X144920943Y-95399499D01*
X144913347Y-95399499D01*
X144913331Y-95399500D01*
X144550098Y-95399500D01*
X144483059Y-95379815D01*
X144462417Y-95363181D01*
X143811416Y-94712180D01*
X143777931Y-94650857D01*
X143782915Y-94581165D01*
X143824787Y-94525232D01*
X143890251Y-94500815D01*
X143899097Y-94500499D01*
X144947871Y-94500499D01*
X144947872Y-94500499D01*
X145007483Y-94494091D01*
X145015891Y-94490955D01*
X145150641Y-94440697D01*
X145151388Y-94442700D01*
X145207928Y-94430390D01*
X145273397Y-94454795D01*
X145305837Y-94490955D01*
X145320278Y-94515374D01*
X145320285Y-94515383D01*
X145434616Y-94629714D01*
X145434625Y-94629721D01*
X145573804Y-94712031D01*
X145729089Y-94757145D01*
X145750000Y-94758789D01*
X146250000Y-94758789D01*
X146270910Y-94757145D01*
X146426195Y-94712031D01*
X146565374Y-94629721D01*
X146565383Y-94629714D01*
X146679714Y-94515383D01*
X146679721Y-94515374D01*
X146762031Y-94376195D01*
X146804504Y-94230000D01*
X146250000Y-94230000D01*
X146250000Y-94758789D01*
X145750000Y-94758789D01*
X145750000Y-94132198D01*
X145769685Y-94065159D01*
X145812002Y-94024810D01*
X145821233Y-94019481D01*
X145839113Y-94009157D01*
X145860843Y-93996613D01*
X145922842Y-93980000D01*
X146000000Y-93980000D01*
X146000000Y-93924500D01*
X146019685Y-93857461D01*
X146072489Y-93811706D01*
X146124000Y-93800500D01*
X146234682Y-93800500D01*
X146234690Y-93800500D01*
X146270993Y-93797643D01*
X146270995Y-93797642D01*
X146270997Y-93797642D01*
X146426389Y-93752496D01*
X146426389Y-93752495D01*
X146426395Y-93752494D01*
X146435233Y-93747267D01*
X146498352Y-93730000D01*
X146804504Y-93730000D01*
X146762031Y-93583803D01*
X146750090Y-93563613D01*
X146732906Y-93495889D01*
X146750089Y-93437369D01*
X146762494Y-93416395D01*
X146807643Y-93260993D01*
X146810500Y-93224690D01*
X146810500Y-92815310D01*
X146807643Y-92779007D01*
X146802721Y-92762067D01*
X146762495Y-92623609D01*
X146762494Y-92623606D01*
X146762494Y-92623605D01*
X146680117Y-92484313D01*
X146680115Y-92484311D01*
X146680112Y-92484307D01*
X146565692Y-92369887D01*
X146565684Y-92369881D01*
X146543450Y-92356732D01*
X146495767Y-92305663D01*
X146483263Y-92236922D01*
X146509908Y-92172332D01*
X146543450Y-92143268D01*
X146545633Y-92141976D01*
X146565687Y-92130117D01*
X146680117Y-92015687D01*
X146762494Y-91876395D01*
X146807643Y-91720993D01*
X146810500Y-91684690D01*
X146810500Y-91275310D01*
X146807643Y-91239007D01*
X146806043Y-91233501D01*
X146771988Y-91116282D01*
X146762494Y-91083605D01*
X146750089Y-91062630D01*
X146732906Y-90994909D01*
X146750091Y-90936384D01*
X146762032Y-90916194D01*
X146804504Y-90770000D01*
X146498352Y-90770000D01*
X146435233Y-90752732D01*
X146426395Y-90747506D01*
X146426393Y-90747505D01*
X146426389Y-90747503D01*
X146270997Y-90702357D01*
X146270991Y-90702356D01*
X146234697Y-90699500D01*
X146234690Y-90699500D01*
X146124000Y-90699500D01*
X146056961Y-90679815D01*
X146011206Y-90627011D01*
X146000000Y-90575500D01*
X146000000Y-90520000D01*
X145874000Y-90520000D01*
X145806961Y-90500315D01*
X145761206Y-90447511D01*
X145750000Y-90396000D01*
X145750000Y-90270000D01*
X146250000Y-90270000D01*
X146804504Y-90270000D01*
X146762032Y-90123806D01*
X146720229Y-90053122D01*
X146703046Y-89985398D01*
X146720229Y-89926878D01*
X146762032Y-89856193D01*
X146804504Y-89710000D01*
X146250000Y-89710000D01*
X146250000Y-90270000D01*
X145750000Y-90270000D01*
X145750000Y-89650597D01*
X145769685Y-89583558D01*
X145786319Y-89562915D01*
X145852917Y-89496318D01*
X145914241Y-89462834D01*
X145940598Y-89460000D01*
X146000000Y-89460000D01*
X146000000Y-89404500D01*
X146019685Y-89337461D01*
X146072489Y-89291706D01*
X146124000Y-89280500D01*
X146234682Y-89280500D01*
X146234690Y-89280500D01*
X146270993Y-89277643D01*
X146270995Y-89277642D01*
X146270997Y-89277642D01*
X146426389Y-89232496D01*
X146426389Y-89232495D01*
X146426395Y-89232494D01*
X146435233Y-89227267D01*
X146498352Y-89210000D01*
X146847619Y-89210000D01*
X146895071Y-89219439D01*
X147016498Y-89269735D01*
X147016503Y-89269737D01*
X147126948Y-89291706D01*
X147171153Y-89300499D01*
X147171156Y-89300500D01*
X147171158Y-89300500D01*
X147328844Y-89300500D01*
X147328845Y-89300499D01*
X147483497Y-89269737D01*
X147604928Y-89219439D01*
X147629172Y-89209397D01*
X147629172Y-89209396D01*
X147629179Y-89209394D01*
X147760289Y-89121789D01*
X147871789Y-89010289D01*
X147959394Y-88879179D01*
X148019737Y-88733497D01*
X148050500Y-88578842D01*
X148050500Y-88421158D01*
X148050500Y-88421155D01*
X148050499Y-88421153D01*
X148047577Y-88406465D01*
X148019737Y-88266503D01*
X148019732Y-88266492D01*
X148017969Y-88260676D01*
X148020720Y-88259841D01*
X148014497Y-88202641D01*
X148045691Y-88140122D01*
X148105734Y-88104392D01*
X148136555Y-88100500D01*
X148913331Y-88100500D01*
X148913347Y-88100501D01*
X148920943Y-88100501D01*
X149079054Y-88100501D01*
X149079057Y-88100501D01*
X149231785Y-88059577D01*
X149292082Y-88024764D01*
X149368716Y-87980520D01*
X149480520Y-87868716D01*
X149480520Y-87868714D01*
X149490721Y-87858514D01*
X149490724Y-87858509D01*
X149752417Y-87596816D01*
X149813739Y-87563334D01*
X149840097Y-87560500D01*
X150214281Y-87560500D01*
X150281320Y-87580185D01*
X150324765Y-87628205D01*
X150344945Y-87667811D01*
X150367969Y-87699500D01*
X150431431Y-87786848D01*
X150438491Y-87797720D01*
X150479481Y-87868716D01*
X150591284Y-87980519D01*
X150662279Y-88021508D01*
X150673145Y-88028564D01*
X150792184Y-88115051D01*
X150792186Y-88115052D01*
X150800946Y-88119516D01*
X150851742Y-88167491D01*
X150868536Y-88235312D01*
X150845998Y-88301447D01*
X150800946Y-88340484D01*
X150792182Y-88344949D01*
X150620213Y-88469890D01*
X150469890Y-88620213D01*
X150344951Y-88792179D01*
X150248444Y-88981585D01*
X150248443Y-88981587D01*
X150248443Y-88981588D01*
X150243042Y-88998212D01*
X150182753Y-89183760D01*
X150149500Y-89393713D01*
X150149500Y-89606287D01*
X150153348Y-89630582D01*
X150181794Y-89810185D01*
X150182754Y-89816243D01*
X150245012Y-90007853D01*
X150248444Y-90018414D01*
X150344951Y-90207820D01*
X150469890Y-90379786D01*
X150620213Y-90530109D01*
X150792182Y-90655050D01*
X150800946Y-90659516D01*
X150851742Y-90707491D01*
X150868536Y-90775312D01*
X150845998Y-90841447D01*
X150800946Y-90880484D01*
X150792182Y-90884949D01*
X150620213Y-91009890D01*
X150469890Y-91160213D01*
X150344951Y-91332179D01*
X150248444Y-91521585D01*
X150182753Y-91723760D01*
X150150689Y-91926206D01*
X150149500Y-91933713D01*
X150149500Y-92146287D01*
X150155218Y-92182390D01*
X150175653Y-92311414D01*
X150182754Y-92356243D01*
X150248375Y-92558204D01*
X150248444Y-92558414D01*
X150344951Y-92747820D01*
X150469890Y-92919786D01*
X150620213Y-93070109D01*
X150792182Y-93195050D01*
X150800946Y-93199516D01*
X150851742Y-93247491D01*
X150868536Y-93315312D01*
X150845998Y-93381447D01*
X150800946Y-93420484D01*
X150792182Y-93424949D01*
X150620213Y-93549890D01*
X150469890Y-93700213D01*
X150344951Y-93872179D01*
X150248444Y-94061585D01*
X150248443Y-94061587D01*
X150248443Y-94061588D01*
X150236125Y-94099500D01*
X150182753Y-94263760D01*
X150158852Y-94414669D01*
X150149500Y-94473713D01*
X150149500Y-94686287D01*
X150153601Y-94712180D01*
X150181317Y-94887175D01*
X150182754Y-94896243D01*
X150237711Y-95065383D01*
X150248444Y-95098414D01*
X150344951Y-95287820D01*
X150469890Y-95459786D01*
X150620213Y-95610109D01*
X150792182Y-95735050D01*
X150800946Y-95739516D01*
X150851742Y-95787491D01*
X150868536Y-95855312D01*
X150845998Y-95921447D01*
X150800946Y-95960484D01*
X150792182Y-95964949D01*
X150620213Y-96089890D01*
X150469890Y-96240213D01*
X150344951Y-96412179D01*
X150248444Y-96601585D01*
X150182753Y-96803760D01*
X150154107Y-96984625D01*
X150149500Y-97013713D01*
X150149500Y-97226287D01*
X150156581Y-97270993D01*
X150182593Y-97435230D01*
X150182754Y-97436243D01*
X150239437Y-97610696D01*
X150248444Y-97638414D01*
X150344951Y-97827820D01*
X150469890Y-97999786D01*
X150620213Y-98150109D01*
X150792179Y-98275048D01*
X150792181Y-98275049D01*
X150792184Y-98275051D01*
X150801493Y-98279794D01*
X150852290Y-98327766D01*
X150869087Y-98395587D01*
X150846552Y-98461722D01*
X150801505Y-98500760D01*
X150792446Y-98505376D01*
X150792440Y-98505380D01*
X150738282Y-98544727D01*
X150738282Y-98544728D01*
X151370591Y-99177037D01*
X151307007Y-99194075D01*
X151192993Y-99259901D01*
X151099901Y-99352993D01*
X151034075Y-99467007D01*
X151017037Y-99530591D01*
X150384728Y-98898282D01*
X150384727Y-98898282D01*
X150345380Y-98952439D01*
X150248904Y-99141782D01*
X150183242Y-99343869D01*
X150183242Y-99343872D01*
X150150000Y-99553753D01*
X150150000Y-99766246D01*
X150183242Y-99976127D01*
X150183242Y-99976130D01*
X150248904Y-100178217D01*
X150345375Y-100367550D01*
X150384728Y-100421716D01*
X151017037Y-99789408D01*
X151034075Y-99852993D01*
X151099901Y-99967007D01*
X151192993Y-100060099D01*
X151307007Y-100125925D01*
X151370590Y-100142962D01*
X150738282Y-100775269D01*
X150738282Y-100775270D01*
X150792449Y-100814624D01*
X150981782Y-100911095D01*
X151183870Y-100976757D01*
X151393754Y-101010000D01*
X151606246Y-101010000D01*
X151816127Y-100976757D01*
X151816130Y-100976757D01*
X152018217Y-100911095D01*
X152207554Y-100814622D01*
X152261716Y-100775270D01*
X152261717Y-100775270D01*
X151629408Y-100142962D01*
X151692993Y-100125925D01*
X151807007Y-100060099D01*
X151900099Y-99967007D01*
X151965925Y-99852993D01*
X151982962Y-99789409D01*
X152615270Y-100421717D01*
X152615270Y-100421716D01*
X152654622Y-100367554D01*
X152751095Y-100178217D01*
X152816757Y-99976130D01*
X152816757Y-99976127D01*
X152850000Y-99766246D01*
X152850000Y-99553753D01*
X152816757Y-99343872D01*
X152816757Y-99343869D01*
X152751095Y-99141782D01*
X152654624Y-98952449D01*
X152615270Y-98898282D01*
X152615269Y-98898282D01*
X151982962Y-99530590D01*
X151965925Y-99467007D01*
X151900099Y-99352993D01*
X151807007Y-99259901D01*
X151692993Y-99194075D01*
X151629409Y-99177037D01*
X152261716Y-98544728D01*
X152207547Y-98505373D01*
X152207547Y-98505372D01*
X152198500Y-98500763D01*
X152147706Y-98452788D01*
X152130912Y-98384966D01*
X152153451Y-98318832D01*
X152198508Y-98279793D01*
X152207816Y-98275051D01*
X152314811Y-98197315D01*
X152379786Y-98150109D01*
X152379788Y-98150106D01*
X152379792Y-98150104D01*
X152530104Y-97999792D01*
X152530106Y-97999788D01*
X152530109Y-97999786D01*
X152655048Y-97827820D01*
X152655047Y-97827820D01*
X152655051Y-97827816D01*
X152751557Y-97638412D01*
X152817246Y-97436243D01*
X152850500Y-97226287D01*
X152850500Y-97013713D01*
X152817246Y-96803757D01*
X152751557Y-96601588D01*
X152655051Y-96412184D01*
X152655049Y-96412181D01*
X152655048Y-96412179D01*
X152530109Y-96240213D01*
X152379786Y-96089890D01*
X152207820Y-95964951D01*
X152207115Y-95964591D01*
X152199054Y-95960485D01*
X152148259Y-95912512D01*
X152131463Y-95844692D01*
X152153999Y-95778556D01*
X152199054Y-95739515D01*
X152207816Y-95735051D01*
X152290171Y-95675217D01*
X152379786Y-95610109D01*
X152379788Y-95610106D01*
X152379792Y-95610104D01*
X152530104Y-95459792D01*
X152530106Y-95459788D01*
X152530109Y-95459786D01*
X152655048Y-95287820D01*
X152655047Y-95287820D01*
X152655051Y-95287816D01*
X152751557Y-95098412D01*
X152817246Y-94896243D01*
X152850500Y-94686287D01*
X152850500Y-94473713D01*
X152817246Y-94263757D01*
X152751557Y-94061588D01*
X152655051Y-93872184D01*
X152655049Y-93872181D01*
X152655048Y-93872179D01*
X152530109Y-93700213D01*
X152379786Y-93549890D01*
X152207820Y-93424951D01*
X152207115Y-93424591D01*
X152199054Y-93420485D01*
X152148259Y-93372512D01*
X152131463Y-93304692D01*
X152153999Y-93238556D01*
X152199054Y-93199515D01*
X152207816Y-93195051D01*
X152331072Y-93105501D01*
X152379786Y-93070109D01*
X152379788Y-93070106D01*
X152379792Y-93070104D01*
X152530104Y-92919792D01*
X152530106Y-92919788D01*
X152530109Y-92919786D01*
X152655048Y-92747820D01*
X152655047Y-92747820D01*
X152655051Y-92747816D01*
X152751557Y-92558412D01*
X152817246Y-92356243D01*
X152850500Y-92146287D01*
X152850500Y-91933713D01*
X152817246Y-91723757D01*
X152751557Y-91521588D01*
X152655051Y-91332184D01*
X152655049Y-91332181D01*
X152655048Y-91332179D01*
X152530109Y-91160213D01*
X152379786Y-91009890D01*
X152207820Y-90884951D01*
X152207115Y-90884591D01*
X152199054Y-90880485D01*
X152148259Y-90832512D01*
X152131463Y-90764692D01*
X152153999Y-90698556D01*
X152199054Y-90659515D01*
X152207816Y-90655051D01*
X152307705Y-90582478D01*
X152379786Y-90530109D01*
X152379788Y-90530106D01*
X152379792Y-90530104D01*
X152530104Y-90379792D01*
X152530106Y-90379788D01*
X152530109Y-90379786D01*
X152653902Y-90209397D01*
X152655051Y-90207816D01*
X152751557Y-90018412D01*
X152817246Y-89816243D01*
X152850500Y-89606287D01*
X152850500Y-89393713D01*
X152817246Y-89183757D01*
X152751557Y-88981588D01*
X152655051Y-88792184D01*
X152655049Y-88792181D01*
X152655048Y-88792179D01*
X152530109Y-88620213D01*
X152379786Y-88469890D01*
X152207820Y-88344951D01*
X152207115Y-88344591D01*
X152199054Y-88340485D01*
X152148259Y-88292512D01*
X152131463Y-88224692D01*
X152153999Y-88158556D01*
X152199054Y-88119515D01*
X152207816Y-88115051D01*
X152231639Y-88097743D01*
X152379786Y-87990109D01*
X152379788Y-87990106D01*
X152379792Y-87990104D01*
X152530104Y-87839792D01*
X152530106Y-87839788D01*
X152530109Y-87839786D01*
X152655048Y-87667820D01*
X152655047Y-87667820D01*
X152655051Y-87667816D01*
X152751557Y-87478412D01*
X152817246Y-87276243D01*
X152850500Y-87066287D01*
X152850500Y-86853713D01*
X152817246Y-86643757D01*
X152751557Y-86441588D01*
X152655051Y-86252184D01*
X152655049Y-86252181D01*
X152655048Y-86252179D01*
X152530109Y-86080213D01*
X152416569Y-85966673D01*
X152383084Y-85905350D01*
X152388068Y-85835658D01*
X152429940Y-85779725D01*
X152460915Y-85762810D01*
X152592331Y-85713796D01*
X152707546Y-85627546D01*
X152793796Y-85512331D01*
X152844091Y-85377483D01*
X152850500Y-85317873D01*
X152850499Y-83522128D01*
X152844091Y-83462517D01*
X152840943Y-83454078D01*
X152793797Y-83327671D01*
X152793793Y-83327664D01*
X152707547Y-83212455D01*
X152707544Y-83212452D01*
X152592335Y-83126206D01*
X152592328Y-83126202D01*
X152457482Y-83075908D01*
X152457483Y-83075908D01*
X152397883Y-83069501D01*
X152397881Y-83069500D01*
X152397873Y-83069500D01*
X152397864Y-83069500D01*
X150602129Y-83069500D01*
X150602123Y-83069501D01*
X150542516Y-83075908D01*
X150407671Y-83126202D01*
X150407664Y-83126206D01*
X150292455Y-83212452D01*
X150292452Y-83212455D01*
X150206206Y-83327664D01*
X150206202Y-83327671D01*
X150155908Y-83462517D01*
X150152294Y-83496136D01*
X150149501Y-83522123D01*
X150149500Y-83522135D01*
X150149500Y-84175500D01*
X150129815Y-84242539D01*
X150077011Y-84288294D01*
X150025500Y-84299500D01*
X146809500Y-84299500D01*
X146742461Y-84279815D01*
X146696706Y-84227011D01*
X146685500Y-84175500D01*
X146685500Y-84044330D01*
X146702768Y-83981209D01*
X146703297Y-83980315D01*
X146731931Y-83931897D01*
X146731932Y-83931893D01*
X146731933Y-83931892D01*
X146777608Y-83774679D01*
X146777609Y-83774673D01*
X146778018Y-83769478D01*
X146780500Y-83737940D01*
X146780500Y-83262060D01*
X146777609Y-83225325D01*
X146770949Y-83202402D01*
X146734199Y-83075909D01*
X146731931Y-83068103D01*
X146731929Y-83068100D01*
X146731927Y-83068094D01*
X146702768Y-83018788D01*
X146685500Y-82955668D01*
X146685500Y-82544330D01*
X146702768Y-82481209D01*
X146731931Y-82431897D01*
X146731932Y-82431893D01*
X146731933Y-82431892D01*
X146777608Y-82274679D01*
X146777609Y-82274673D01*
X146779615Y-82249180D01*
X146780500Y-82237940D01*
X146780500Y-81762060D01*
X146777609Y-81725325D01*
X146774572Y-81714871D01*
X146729755Y-81560611D01*
X146732648Y-81559770D01*
X146725815Y-81504401D01*
X146756106Y-81441438D01*
X146815628Y-81404848D01*
X146848175Y-81400500D01*
X148179017Y-81400500D01*
X148179033Y-81400501D01*
X148186629Y-81400501D01*
X148344740Y-81400501D01*
X148344743Y-81400501D01*
X148497471Y-81359577D01*
X148584073Y-81309577D01*
X148584621Y-81309261D01*
X148634395Y-81280524D01*
X148634394Y-81280524D01*
X148634402Y-81280520D01*
X148746206Y-81168716D01*
X148746206Y-81168715D01*
X148756415Y-81158507D01*
X148756418Y-81158502D01*
X148778104Y-81136817D01*
X148839428Y-81103333D01*
X148865783Y-81100500D01*
X150913331Y-81100500D01*
X150913347Y-81100501D01*
X150920943Y-81100501D01*
X151079054Y-81100501D01*
X151079057Y-81100501D01*
X151231785Y-81059577D01*
X151316021Y-81010943D01*
X151368716Y-80980520D01*
X151480520Y-80868716D01*
X151480520Y-80868714D01*
X151490724Y-80858511D01*
X151490728Y-80858506D01*
X151898506Y-80450728D01*
X151898511Y-80450724D01*
X151908714Y-80440520D01*
X151908716Y-80440520D01*
X152020520Y-80328716D01*
X152082742Y-80220943D01*
X152099577Y-80191785D01*
X152140500Y-80039058D01*
X152140500Y-79880943D01*
X152140500Y-78785718D01*
X152160185Y-78718679D01*
X152208207Y-78675233D01*
X152247815Y-78655052D01*
X152247815Y-78655051D01*
X152247816Y-78655051D01*
X152341910Y-78586688D01*
X152419786Y-78530109D01*
X152419788Y-78530106D01*
X152419792Y-78530104D01*
X152570104Y-78379792D01*
X152570106Y-78379788D01*
X152570109Y-78379786D01*
X152695048Y-78207820D01*
X152695047Y-78207820D01*
X152695051Y-78207816D01*
X152791557Y-78018412D01*
X152857246Y-77816243D01*
X152890500Y-77606287D01*
X152890500Y-77393713D01*
X152857246Y-77183757D01*
X152791557Y-76981588D01*
X152695051Y-76792184D01*
X152695049Y-76792181D01*
X152695048Y-76792179D01*
X152570109Y-76620213D01*
X152419786Y-76469890D01*
X152247820Y-76344951D01*
X152058414Y-76248444D01*
X152058413Y-76248443D01*
X152058412Y-76248443D01*
X151856243Y-76182754D01*
X151856241Y-76182753D01*
X151856240Y-76182753D01*
X151694957Y-76157208D01*
X151646287Y-76149500D01*
X151433713Y-76149500D01*
X151385042Y-76157208D01*
X151223760Y-76182753D01*
X151021585Y-76248444D01*
X150832179Y-76344951D01*
X150660213Y-76469890D01*
X150509890Y-76620213D01*
X150384949Y-76792182D01*
X150380484Y-76800946D01*
X150332509Y-76851742D01*
X150264688Y-76868536D01*
X150198553Y-76845998D01*
X150159516Y-76800946D01*
X150155050Y-76792182D01*
X150030109Y-76620213D01*
X149879786Y-76469890D01*
X149707820Y-76344951D01*
X149518414Y-76248444D01*
X149518413Y-76248443D01*
X149518412Y-76248443D01*
X149316243Y-76182754D01*
X149316241Y-76182753D01*
X149316240Y-76182753D01*
X149154957Y-76157208D01*
X149106287Y-76149500D01*
X148893713Y-76149500D01*
X148845042Y-76157208D01*
X148683760Y-76182753D01*
X148481585Y-76248444D01*
X148292179Y-76344951D01*
X148120213Y-76469890D01*
X147969890Y-76620213D01*
X147844949Y-76792182D01*
X147840484Y-76800946D01*
X147792509Y-76851742D01*
X147724688Y-76868536D01*
X147658553Y-76845998D01*
X147619516Y-76800946D01*
X147615050Y-76792182D01*
X147490109Y-76620213D01*
X147339786Y-76469890D01*
X147167820Y-76344951D01*
X146978414Y-76248444D01*
X146978413Y-76248443D01*
X146978412Y-76248443D01*
X146776243Y-76182754D01*
X146776241Y-76182753D01*
X146776240Y-76182753D01*
X146614957Y-76157208D01*
X146566287Y-76149500D01*
X146353713Y-76149500D01*
X146305042Y-76157208D01*
X146143760Y-76182753D01*
X145941585Y-76248444D01*
X145752179Y-76344951D01*
X145580213Y-76469890D01*
X145429890Y-76620213D01*
X145304949Y-76792182D01*
X145300484Y-76800946D01*
X145252509Y-76851742D01*
X145184688Y-76868536D01*
X145118553Y-76845998D01*
X145079516Y-76800946D01*
X145075050Y-76792182D01*
X144950109Y-76620213D01*
X144799786Y-76469890D01*
X144627820Y-76344951D01*
X144438414Y-76248444D01*
X144438413Y-76248443D01*
X144438412Y-76248443D01*
X144236243Y-76182754D01*
X144236241Y-76182753D01*
X144236240Y-76182753D01*
X144074957Y-76157208D01*
X144026287Y-76149500D01*
X143813713Y-76149500D01*
X143765042Y-76157208D01*
X143603760Y-76182753D01*
X143401585Y-76248444D01*
X143212179Y-76344951D01*
X143040213Y-76469890D01*
X142889890Y-76620213D01*
X142764949Y-76792182D01*
X142760484Y-76800946D01*
X142712509Y-76851742D01*
X142644688Y-76868536D01*
X142578553Y-76845998D01*
X142539516Y-76800946D01*
X142535050Y-76792182D01*
X142410109Y-76620213D01*
X142259786Y-76469890D01*
X142087820Y-76344951D01*
X141898414Y-76248444D01*
X141898413Y-76248443D01*
X141898412Y-76248443D01*
X141696243Y-76182754D01*
X141696241Y-76182753D01*
X141696240Y-76182753D01*
X141534957Y-76157208D01*
X141486287Y-76149500D01*
X141273713Y-76149500D01*
X141225042Y-76157208D01*
X141063760Y-76182753D01*
X140861585Y-76248444D01*
X140672179Y-76344951D01*
X140500213Y-76469890D01*
X140349890Y-76620213D01*
X140224949Y-76792182D01*
X140220484Y-76800946D01*
X140172509Y-76851742D01*
X140104688Y-76868536D01*
X140038553Y-76845998D01*
X139999516Y-76800946D01*
X139995050Y-76792182D01*
X139870109Y-76620213D01*
X139719786Y-76469890D01*
X139547820Y-76344951D01*
X139358414Y-76248444D01*
X139358413Y-76248443D01*
X139358412Y-76248443D01*
X139156243Y-76182754D01*
X139156241Y-76182753D01*
X139156240Y-76182753D01*
X138994957Y-76157208D01*
X138946287Y-76149500D01*
X138733713Y-76149500D01*
X138685042Y-76157208D01*
X138523760Y-76182753D01*
X138321585Y-76248444D01*
X138132179Y-76344951D01*
X137960213Y-76469890D01*
X137809890Y-76620213D01*
X137684949Y-76792182D01*
X137680484Y-76800946D01*
X137632509Y-76851742D01*
X137564688Y-76868536D01*
X137498553Y-76845998D01*
X137459516Y-76800946D01*
X137455050Y-76792182D01*
X137330109Y-76620213D01*
X137179786Y-76469890D01*
X137007820Y-76344951D01*
X136818414Y-76248444D01*
X136818413Y-76248443D01*
X136818412Y-76248443D01*
X136616243Y-76182754D01*
X136616241Y-76182753D01*
X136616240Y-76182753D01*
X136454957Y-76157208D01*
X136406287Y-76149500D01*
X136193713Y-76149500D01*
X136145042Y-76157208D01*
X135983760Y-76182753D01*
X135781585Y-76248444D01*
X135592179Y-76344951D01*
X135420213Y-76469890D01*
X135269890Y-76620213D01*
X135144949Y-76792182D01*
X135140484Y-76800946D01*
X135092509Y-76851742D01*
X135024688Y-76868536D01*
X134958553Y-76845998D01*
X134919516Y-76800946D01*
X134915050Y-76792182D01*
X134790109Y-76620213D01*
X134639786Y-76469890D01*
X134467820Y-76344951D01*
X134278414Y-76248444D01*
X134278413Y-76248443D01*
X134278412Y-76248443D01*
X134076243Y-76182754D01*
X134076241Y-76182753D01*
X134076240Y-76182753D01*
X133914957Y-76157208D01*
X133866287Y-76149500D01*
X133653713Y-76149500D01*
X133605042Y-76157208D01*
X133443760Y-76182753D01*
X133241585Y-76248444D01*
X133052179Y-76344951D01*
X132880213Y-76469890D01*
X132729890Y-76620213D01*
X132604949Y-76792182D01*
X132600484Y-76800946D01*
X132552509Y-76851742D01*
X132484688Y-76868536D01*
X132418553Y-76845998D01*
X132379516Y-76800946D01*
X132375050Y-76792182D01*
X132250109Y-76620213D01*
X132099786Y-76469890D01*
X131927820Y-76344951D01*
X131738414Y-76248444D01*
X131738413Y-76248443D01*
X131738412Y-76248443D01*
X131536243Y-76182754D01*
X131536241Y-76182753D01*
X131536240Y-76182753D01*
X131374957Y-76157208D01*
X131326287Y-76149500D01*
X131113713Y-76149500D01*
X131065042Y-76157208D01*
X130903760Y-76182753D01*
X130701585Y-76248444D01*
X130512179Y-76344951D01*
X130340213Y-76469890D01*
X130189890Y-76620213D01*
X130064949Y-76792182D01*
X130060484Y-76800946D01*
X130012509Y-76851742D01*
X129944688Y-76868536D01*
X129878553Y-76845998D01*
X129839516Y-76800946D01*
X129835050Y-76792182D01*
X129710109Y-76620213D01*
X129559786Y-76469890D01*
X129387820Y-76344951D01*
X129198414Y-76248444D01*
X129198413Y-76248443D01*
X129198412Y-76248443D01*
X128996243Y-76182754D01*
X128996241Y-76182753D01*
X128996240Y-76182753D01*
X128834957Y-76157208D01*
X128786287Y-76149500D01*
X128573713Y-76149500D01*
X128525042Y-76157208D01*
X128363760Y-76182753D01*
X128161585Y-76248444D01*
X127972179Y-76344951D01*
X127800213Y-76469890D01*
X127649890Y-76620213D01*
X127524949Y-76792182D01*
X127520484Y-76800946D01*
X127472509Y-76851742D01*
X127404688Y-76868536D01*
X127338553Y-76845998D01*
X127299516Y-76800946D01*
X127295050Y-76792182D01*
X127170109Y-76620213D01*
X127019786Y-76469890D01*
X126847820Y-76344951D01*
X126658414Y-76248444D01*
X126658413Y-76248443D01*
X126658412Y-76248443D01*
X126456243Y-76182754D01*
X126456241Y-76182753D01*
X126456240Y-76182753D01*
X126294957Y-76157208D01*
X126246287Y-76149500D01*
X126033713Y-76149500D01*
X125985042Y-76157208D01*
X125823760Y-76182753D01*
X125621585Y-76248444D01*
X125432179Y-76344951D01*
X125260213Y-76469890D01*
X125109890Y-76620213D01*
X124984949Y-76792182D01*
X124980484Y-76800946D01*
X124932509Y-76851742D01*
X124864688Y-76868536D01*
X124798553Y-76845998D01*
X124759516Y-76800946D01*
X124755050Y-76792182D01*
X124630109Y-76620213D01*
X124479786Y-76469890D01*
X124307820Y-76344951D01*
X124118414Y-76248444D01*
X124118413Y-76248443D01*
X124118412Y-76248443D01*
X123916243Y-76182754D01*
X123916241Y-76182753D01*
X123916240Y-76182753D01*
X123754957Y-76157208D01*
X123706287Y-76149500D01*
X123493713Y-76149500D01*
X123445042Y-76157208D01*
X123283760Y-76182753D01*
X123081585Y-76248444D01*
X122892179Y-76344951D01*
X122720213Y-76469890D01*
X122569890Y-76620213D01*
X122444949Y-76792182D01*
X122440484Y-76800946D01*
X122392509Y-76851742D01*
X122324688Y-76868536D01*
X122258553Y-76845998D01*
X122219516Y-76800946D01*
X122215050Y-76792182D01*
X122090109Y-76620213D01*
X121939786Y-76469890D01*
X121767820Y-76344951D01*
X121578414Y-76248444D01*
X121578413Y-76248443D01*
X121578412Y-76248443D01*
X121376243Y-76182754D01*
X121376241Y-76182753D01*
X121376240Y-76182753D01*
X121214957Y-76157208D01*
X121166287Y-76149500D01*
X120953713Y-76149500D01*
X120905042Y-76157208D01*
X120743760Y-76182753D01*
X120541585Y-76248444D01*
X120352179Y-76344951D01*
X120180213Y-76469890D01*
X120029890Y-76620213D01*
X119904949Y-76792182D01*
X119900484Y-76800946D01*
X119852509Y-76851742D01*
X119784688Y-76868536D01*
X119718553Y-76845998D01*
X119679516Y-76800946D01*
X119675050Y-76792182D01*
X119550109Y-76620213D01*
X119399786Y-76469890D01*
X119227820Y-76344951D01*
X119038414Y-76248444D01*
X119038413Y-76248443D01*
X119038412Y-76248443D01*
X118836243Y-76182754D01*
X118836241Y-76182753D01*
X118836240Y-76182753D01*
X118674957Y-76157208D01*
X118626287Y-76149500D01*
X118413713Y-76149500D01*
X118365042Y-76157208D01*
X118203760Y-76182753D01*
X118001585Y-76248444D01*
X117812179Y-76344951D01*
X117640213Y-76469890D01*
X117489890Y-76620213D01*
X117364949Y-76792182D01*
X117360484Y-76800946D01*
X117312509Y-76851742D01*
X117244688Y-76868536D01*
X117178553Y-76845998D01*
X117139516Y-76800946D01*
X117135050Y-76792182D01*
X117010109Y-76620213D01*
X116859786Y-76469890D01*
X116687820Y-76344951D01*
X116498414Y-76248444D01*
X116498413Y-76248443D01*
X116498412Y-76248443D01*
X116296243Y-76182754D01*
X116296241Y-76182753D01*
X116296240Y-76182753D01*
X116134957Y-76157208D01*
X116086287Y-76149500D01*
X115873713Y-76149500D01*
X115825042Y-76157208D01*
X115663760Y-76182753D01*
X115461585Y-76248444D01*
X115272179Y-76344951D01*
X115100213Y-76469890D01*
X114949890Y-76620213D01*
X114824949Y-76792182D01*
X114820484Y-76800946D01*
X114772509Y-76851742D01*
X114704688Y-76868536D01*
X114638553Y-76845998D01*
X114599516Y-76800946D01*
X114595050Y-76792182D01*
X114470109Y-76620213D01*
X114319786Y-76469890D01*
X114147820Y-76344951D01*
X113958414Y-76248444D01*
X113958413Y-76248443D01*
X113958412Y-76248443D01*
X113756243Y-76182754D01*
X113756241Y-76182753D01*
X113756240Y-76182753D01*
X113594957Y-76157208D01*
X113546287Y-76149500D01*
X113333713Y-76149500D01*
X113285042Y-76157208D01*
X113123760Y-76182753D01*
X112921585Y-76248444D01*
X112732179Y-76344951D01*
X112560213Y-76469890D01*
X112409890Y-76620213D01*
X112284949Y-76792182D01*
X112280202Y-76801499D01*
X112232227Y-76852293D01*
X112164405Y-76869087D01*
X112098271Y-76846548D01*
X112059234Y-76801495D01*
X112054626Y-76792452D01*
X112015270Y-76738282D01*
X112015269Y-76738282D01*
X111382962Y-77370590D01*
X111365925Y-77307007D01*
X111300099Y-77192993D01*
X111207007Y-77099901D01*
X111092993Y-77034075D01*
X111029409Y-77017037D01*
X111661716Y-76384728D01*
X111607550Y-76345375D01*
X111418217Y-76248904D01*
X111216129Y-76183242D01*
X111006246Y-76150000D01*
X110793754Y-76150000D01*
X110583872Y-76183242D01*
X110583869Y-76183242D01*
X110381782Y-76248904D01*
X110192439Y-76345380D01*
X110138282Y-76384727D01*
X110138282Y-76384728D01*
X110770591Y-77017037D01*
X110707007Y-77034075D01*
X110592993Y-77099901D01*
X110499901Y-77192993D01*
X110434075Y-77307007D01*
X110417037Y-77370591D01*
X109747642Y-76701196D01*
X109714319Y-76640609D01*
X109675527Y-76467364D01*
X109653354Y-76407913D01*
X109653350Y-76407906D01*
X109567190Y-76292812D01*
X109567187Y-76292809D01*
X109452093Y-76206649D01*
X109452086Y-76206645D01*
X109317379Y-76156403D01*
X109317372Y-76156401D01*
X109257844Y-76150000D01*
X108610000Y-76150000D01*
X108610000Y-77066988D01*
X108552993Y-77034075D01*
X108425826Y-77000000D01*
X108294174Y-77000000D01*
X108167007Y-77034075D01*
X108110000Y-77066988D01*
X108110000Y-76150000D01*
X107462155Y-76150000D01*
X107402627Y-76156401D01*
X107402620Y-76156403D01*
X107267913Y-76206645D01*
X107267906Y-76206649D01*
X107152812Y-76292809D01*
X107152809Y-76292812D01*
X107066649Y-76407906D01*
X107066645Y-76407913D01*
X107016403Y-76542620D01*
X107016401Y-76542627D01*
X107010000Y-76602155D01*
X107010000Y-77250000D01*
X107926988Y-77250000D01*
X107894075Y-77307007D01*
X107860000Y-77434174D01*
X107860000Y-77565826D01*
X107894075Y-77692993D01*
X107926988Y-77750000D01*
X107010000Y-77750000D01*
X107010000Y-78397844D01*
X107016401Y-78457372D01*
X107016403Y-78457379D01*
X107066645Y-78592086D01*
X107066649Y-78592093D01*
X107152809Y-78707187D01*
X107152812Y-78707190D01*
X107267906Y-78793350D01*
X107267913Y-78793354D01*
X107402620Y-78843596D01*
X107402627Y-78843598D01*
X107462155Y-78849999D01*
X107462172Y-78850000D01*
X108110000Y-78850000D01*
X108110000Y-77933012D01*
X108167007Y-77965925D01*
X108294174Y-78000000D01*
X108425826Y-78000000D01*
X108552993Y-77965925D01*
X108610000Y-77933012D01*
X108610000Y-78850000D01*
X109257828Y-78850000D01*
X109257844Y-78849999D01*
X109317372Y-78843598D01*
X109317379Y-78843596D01*
X109452086Y-78793354D01*
X109452093Y-78793350D01*
X109567187Y-78707190D01*
X109567190Y-78707187D01*
X109653350Y-78592093D01*
X109653354Y-78592086D01*
X109675529Y-78532632D01*
X109714319Y-78359390D01*
X109714682Y-78358734D01*
X109714642Y-78357984D01*
X109747642Y-78298802D01*
X110417037Y-77629408D01*
X110434075Y-77692993D01*
X110499901Y-77807007D01*
X110592993Y-77900099D01*
X110707007Y-77965925D01*
X110770590Y-77982962D01*
X110138282Y-78615269D01*
X110138282Y-78615270D01*
X110192449Y-78654624D01*
X110381782Y-78751095D01*
X110583870Y-78816757D01*
X110793754Y-78850000D01*
X111006246Y-78850000D01*
X111216127Y-78816757D01*
X111216130Y-78816757D01*
X111418217Y-78751095D01*
X111607554Y-78654622D01*
X111661716Y-78615270D01*
X111661717Y-78615270D01*
X111029408Y-77982962D01*
X111092993Y-77965925D01*
X111207007Y-77900099D01*
X111300099Y-77807007D01*
X111365925Y-77692993D01*
X111382962Y-77629409D01*
X112015270Y-78261717D01*
X112015270Y-78261716D01*
X112054622Y-78207555D01*
X112059232Y-78198507D01*
X112107205Y-78147709D01*
X112175025Y-78130912D01*
X112241161Y-78153447D01*
X112280204Y-78198504D01*
X112284949Y-78207817D01*
X112409890Y-78379786D01*
X112560213Y-78530109D01*
X112732179Y-78655048D01*
X112732181Y-78655049D01*
X112732184Y-78655051D01*
X112921588Y-78751557D01*
X113123757Y-78817246D01*
X113333713Y-78850500D01*
X113333714Y-78850500D01*
X113546286Y-78850500D01*
X113546287Y-78850500D01*
X113756243Y-78817246D01*
X113958412Y-78751557D01*
X114147816Y-78655051D01*
X114202572Y-78615269D01*
X114319786Y-78530109D01*
X114319788Y-78530106D01*
X114319792Y-78530104D01*
X114470104Y-78379792D01*
X114470106Y-78379788D01*
X114470109Y-78379786D01*
X114595048Y-78207820D01*
X114595047Y-78207820D01*
X114595051Y-78207816D01*
X114599514Y-78199054D01*
X114647488Y-78148259D01*
X114715308Y-78131463D01*
X114781444Y-78153999D01*
X114820486Y-78199056D01*
X114824951Y-78207820D01*
X114949890Y-78379786D01*
X115100213Y-78530109D01*
X115272179Y-78655048D01*
X115272181Y-78655049D01*
X115272184Y-78655051D01*
X115461588Y-78751557D01*
X115663757Y-78817246D01*
X115873713Y-78850500D01*
X115873714Y-78850500D01*
X116086286Y-78850500D01*
X116086287Y-78850500D01*
X116296243Y-78817246D01*
X116498412Y-78751557D01*
X116687816Y-78655051D01*
X116742572Y-78615269D01*
X116859786Y-78530109D01*
X116859788Y-78530106D01*
X116859792Y-78530104D01*
X117010104Y-78379792D01*
X117010106Y-78379788D01*
X117010109Y-78379786D01*
X117135048Y-78207820D01*
X117135047Y-78207820D01*
X117135051Y-78207816D01*
X117139514Y-78199054D01*
X117187488Y-78148259D01*
X117255308Y-78131463D01*
X117321444Y-78153999D01*
X117360486Y-78199056D01*
X117364951Y-78207820D01*
X117489890Y-78379786D01*
X117489896Y-78379792D01*
X117640208Y-78530104D01*
X117812184Y-78655051D01*
X117910351Y-78705069D01*
X117961146Y-78753042D01*
X117961443Y-78753552D01*
X117988560Y-78800520D01*
X118039480Y-78888716D01*
X118039482Y-78888718D01*
X118158349Y-79007585D01*
X118158355Y-79007590D01*
X119515139Y-80364374D01*
X119515149Y-80364385D01*
X119519479Y-80368715D01*
X119519480Y-80368716D01*
X119631284Y-80480520D01*
X119631286Y-80480521D01*
X119631290Y-80480524D01*
X119717718Y-80530423D01*
X119717719Y-80530423D01*
X119768215Y-80559577D01*
X119920943Y-80600500D01*
X120079057Y-80600500D01*
X124058531Y-80600500D01*
X124125570Y-80620185D01*
X124146212Y-80636819D01*
X124173767Y-80664374D01*
X124173777Y-80664385D01*
X124178107Y-80668715D01*
X124178108Y-80668716D01*
X124289912Y-80780520D01*
X124289914Y-80780521D01*
X124289918Y-80780524D01*
X124341414Y-80810255D01*
X124341419Y-80810257D01*
X124426837Y-80859574D01*
X124426838Y-80859574D01*
X124426843Y-80859577D01*
X124579571Y-80900500D01*
X126368531Y-80900500D01*
X126435570Y-80920185D01*
X126456212Y-80936819D01*
X127163181Y-81643788D01*
X127196666Y-81705111D01*
X127199500Y-81731469D01*
X127199500Y-86092795D01*
X127199499Y-86092813D01*
X127199499Y-86258519D01*
X127199498Y-86258519D01*
X127240423Y-86411250D01*
X127262688Y-86449815D01*
X127268325Y-86459577D01*
X127297605Y-86510292D01*
X127319479Y-86548179D01*
X127319481Y-86548182D01*
X127438349Y-86667050D01*
X127438355Y-86667055D01*
X129885674Y-89114374D01*
X129885684Y-89114385D01*
X129890014Y-89118715D01*
X129890015Y-89118716D01*
X130001819Y-89230520D01*
X130001821Y-89230521D01*
X130001822Y-89230522D01*
X130037498Y-89251119D01*
X130085715Y-89301685D01*
X130099500Y-89358507D01*
X130099500Y-89362727D01*
X130115374Y-89483292D01*
X130112399Y-89483683D01*
X130112399Y-89516316D01*
X130115374Y-89516708D01*
X130108794Y-89566686D01*
X130080527Y-89630582D01*
X130022203Y-89669053D01*
X129985855Y-89674500D01*
X128575098Y-89674500D01*
X128508059Y-89654815D01*
X128487417Y-89638181D01*
X123599320Y-84750084D01*
X123565835Y-84688761D01*
X123563001Y-84662403D01*
X123563001Y-84530393D01*
X123563001Y-84530391D01*
X123522077Y-84377663D01*
X123487437Y-84317665D01*
X123443020Y-84240732D01*
X123331216Y-84128928D01*
X123331215Y-84128927D01*
X123326885Y-84124597D01*
X123326874Y-84124587D01*
X123199319Y-83997032D01*
X123165834Y-83935709D01*
X123163000Y-83909351D01*
X123163000Y-83784313D01*
X123162999Y-83784298D01*
X123162267Y-83775000D01*
X123160098Y-83747431D01*
X123157338Y-83737932D01*
X123114245Y-83589606D01*
X123114244Y-83589603D01*
X123114244Y-83589602D01*
X123030581Y-83448135D01*
X123030579Y-83448133D01*
X123030576Y-83448129D01*
X122914370Y-83331923D01*
X122914362Y-83331917D01*
X122796226Y-83262052D01*
X122772898Y-83248256D01*
X122772897Y-83248255D01*
X122772896Y-83248255D01*
X122772893Y-83248254D01*
X122615073Y-83202402D01*
X122615067Y-83202401D01*
X122578201Y-83199500D01*
X122578194Y-83199500D01*
X121421806Y-83199500D01*
X121421798Y-83199500D01*
X121384932Y-83202401D01*
X121384926Y-83202402D01*
X121227106Y-83248254D01*
X121227103Y-83248255D01*
X121085637Y-83331917D01*
X121085629Y-83331923D01*
X120969423Y-83448129D01*
X120969414Y-83448140D01*
X120969229Y-83448455D01*
X120969019Y-83448650D01*
X120964639Y-83454298D01*
X120963727Y-83453591D01*
X120918157Y-83496136D01*
X120849415Y-83508637D01*
X120784827Y-83481988D01*
X120760643Y-83454078D01*
X120760361Y-83454298D01*
X120756323Y-83449092D01*
X120755771Y-83448455D01*
X120755585Y-83448140D01*
X120755576Y-83448129D01*
X120639370Y-83331923D01*
X120639362Y-83331917D01*
X120521226Y-83262052D01*
X120497898Y-83248256D01*
X120497897Y-83248255D01*
X120497896Y-83248255D01*
X120497893Y-83248254D01*
X120340073Y-83202402D01*
X120340067Y-83202401D01*
X120303201Y-83199500D01*
X120303194Y-83199500D01*
X119146806Y-83199500D01*
X119146798Y-83199500D01*
X119109932Y-83202401D01*
X119109926Y-83202402D01*
X118952106Y-83248254D01*
X118952103Y-83248255D01*
X118810637Y-83331917D01*
X118810629Y-83331923D01*
X118694423Y-83448129D01*
X118694417Y-83448137D01*
X118610755Y-83589603D01*
X118610754Y-83589606D01*
X118564902Y-83747426D01*
X118564901Y-83747432D01*
X118562000Y-83784298D01*
X118562000Y-83909350D01*
X118542315Y-83976389D01*
X118525681Y-83997031D01*
X118281981Y-84240730D01*
X118281979Y-84240733D01*
X118276917Y-84249501D01*
X118237563Y-84317665D01*
X118202923Y-84377663D01*
X118161999Y-84530391D01*
X118161999Y-84530393D01*
X118161999Y-84662404D01*
X118142314Y-84729443D01*
X118125680Y-84750085D01*
X116442584Y-86433181D01*
X116381261Y-86466666D01*
X116354903Y-86469500D01*
X115582559Y-86469500D01*
X115515520Y-86449815D01*
X115469765Y-86397011D01*
X115462786Y-86377599D01*
X115462652Y-86377099D01*
X115462679Y-86328697D01*
X115459626Y-86328295D01*
X115468018Y-86264549D01*
X115475500Y-86207720D01*
X115475500Y-85982280D01*
X115460687Y-85869764D01*
X115446408Y-85835294D01*
X115438940Y-85765827D01*
X115441888Y-85753267D01*
X115472598Y-85647569D01*
X115475500Y-85610694D01*
X115475500Y-85179306D01*
X115472598Y-85142431D01*
X115439555Y-85028697D01*
X115439555Y-84959507D01*
X115472100Y-84847490D01*
X115472295Y-84845001D01*
X115472295Y-84845000D01*
X115396308Y-84845000D01*
X115329269Y-84825315D01*
X115308631Y-84808685D01*
X115226865Y-84726919D01*
X115085398Y-84643256D01*
X115085397Y-84643255D01*
X115085396Y-84643255D01*
X115085393Y-84643254D01*
X114927573Y-84597402D01*
X114927567Y-84597401D01*
X114890701Y-84594500D01*
X114890694Y-84594500D01*
X114374000Y-84594500D01*
X114306961Y-84574815D01*
X114261206Y-84522011D01*
X114250000Y-84470500D01*
X114250000Y-84469000D01*
X114269685Y-84401961D01*
X114322489Y-84356206D01*
X114374000Y-84345000D01*
X115472295Y-84345000D01*
X115472295Y-84344998D01*
X115472100Y-84342513D01*
X115426281Y-84184801D01*
X115342685Y-84043447D01*
X115342678Y-84043438D01*
X115226561Y-83927321D01*
X115226552Y-83927314D01*
X115085196Y-83843717D01*
X115085193Y-83843716D01*
X114927495Y-83797900D01*
X114927482Y-83797898D01*
X114922563Y-83797511D01*
X114863509Y-83775000D01*
X114051988Y-83775000D01*
X114069205Y-83765060D01*
X114125060Y-83709205D01*
X114164556Y-83640796D01*
X114185000Y-83564496D01*
X114185000Y-83485504D01*
X114164556Y-83409204D01*
X114125060Y-83340795D01*
X114069205Y-83284940D01*
X114051988Y-83275000D01*
X114854862Y-83275000D01*
X114846569Y-83233309D01*
X114846569Y-83233307D01*
X114771192Y-83051328D01*
X114771185Y-83051315D01*
X114661751Y-82887537D01*
X114661748Y-82887533D01*
X114588801Y-82814586D01*
X114555316Y-82753263D01*
X114560300Y-82683571D01*
X114588801Y-82639223D01*
X114650734Y-82577290D01*
X114650738Y-82577285D01*
X114732406Y-82439191D01*
X114732407Y-82439188D01*
X114777166Y-82285128D01*
X114777167Y-82285122D01*
X114779931Y-82250000D01*
X114134000Y-82250000D01*
X114066961Y-82230315D01*
X114021206Y-82177511D01*
X114010000Y-82126000D01*
X114010000Y-82000000D01*
X113884499Y-82000000D01*
X113817460Y-81980315D01*
X113771705Y-81927511D01*
X113760499Y-81876000D01*
X113760499Y-81750831D01*
X113760498Y-81750806D01*
X113760382Y-81749332D01*
X113760000Y-81739607D01*
X113760000Y-81187154D01*
X114260000Y-81187154D01*
X114260000Y-81750000D01*
X114779931Y-81750000D01*
X114777167Y-81714877D01*
X114777166Y-81714871D01*
X114732407Y-81560811D01*
X114732406Y-81560808D01*
X114650738Y-81422714D01*
X114650731Y-81422705D01*
X114537294Y-81309268D01*
X114537285Y-81309261D01*
X114399191Y-81227593D01*
X114399188Y-81227591D01*
X114260001Y-81187153D01*
X114260000Y-81187154D01*
X113760000Y-81187154D01*
X113759998Y-81187153D01*
X113620811Y-81227591D01*
X113620810Y-81227592D01*
X113563611Y-81261419D01*
X113495886Y-81278600D01*
X113437371Y-81261419D01*
X113390144Y-81233489D01*
X113379393Y-81227131D01*
X113379392Y-81227130D01*
X113379391Y-81227130D01*
X113379388Y-81227129D01*
X113225208Y-81182335D01*
X113225202Y-81182334D01*
X113189181Y-81179500D01*
X112790830Y-81179500D01*
X112790808Y-81179501D01*
X112754794Y-81182335D01*
X112600611Y-81227129D01*
X112600606Y-81227131D01*
X112462404Y-81308863D01*
X112462400Y-81308866D01*
X112448209Y-81323058D01*
X112408084Y-81363182D01*
X112346764Y-81396666D01*
X112320405Y-81399500D01*
X112079766Y-81399500D01*
X112012727Y-81379815D01*
X112010875Y-81378602D01*
X111879185Y-81290609D01*
X111879172Y-81290602D01*
X111733501Y-81230264D01*
X111733489Y-81230261D01*
X111578845Y-81199500D01*
X111578842Y-81199500D01*
X111421158Y-81199500D01*
X111421155Y-81199500D01*
X111266510Y-81230261D01*
X111266498Y-81230264D01*
X111120827Y-81290602D01*
X111120814Y-81290609D01*
X111068891Y-81325304D01*
X111002214Y-81346182D01*
X110934833Y-81327698D01*
X110931109Y-81325304D01*
X110879185Y-81290609D01*
X110879172Y-81290602D01*
X110733501Y-81230264D01*
X110733489Y-81230261D01*
X110578845Y-81199500D01*
X110578842Y-81199500D01*
X110421158Y-81199500D01*
X110421155Y-81199500D01*
X110266510Y-81230261D01*
X110266498Y-81230264D01*
X110115192Y-81292937D01*
X110114552Y-81291392D01*
X110054003Y-81303994D01*
X110000841Y-81287127D01*
X109899393Y-81227131D01*
X109899388Y-81227129D01*
X109745208Y-81182335D01*
X109745202Y-81182334D01*
X109709181Y-81179500D01*
X109310830Y-81179500D01*
X109310808Y-81179501D01*
X109274794Y-81182335D01*
X109120611Y-81227129D01*
X109120607Y-81227130D01*
X109062628Y-81261419D01*
X108994903Y-81278600D01*
X108936388Y-81261419D01*
X108879189Y-81227592D01*
X108879188Y-81227591D01*
X108740001Y-81187153D01*
X108740000Y-81187154D01*
X108740000Y-81739591D01*
X108739618Y-81749316D01*
X108739500Y-81750804D01*
X108739500Y-81750819D01*
X108739500Y-81876001D01*
X108719817Y-81943039D01*
X108667013Y-81988794D01*
X108615501Y-82000000D01*
X108490000Y-82000000D01*
X108490000Y-82126000D01*
X108470315Y-82193039D01*
X108417511Y-82238794D01*
X108366000Y-82250000D01*
X107720069Y-82250000D01*
X107722832Y-82285122D01*
X107722833Y-82285128D01*
X107767592Y-82439188D01*
X107767593Y-82439191D01*
X107849261Y-82577285D01*
X107849268Y-82577294D01*
X107962705Y-82690731D01*
X107962714Y-82690738D01*
X108027009Y-82728762D01*
X108074693Y-82779831D01*
X108087196Y-82848573D01*
X108066990Y-82904384D01*
X107968817Y-83051310D01*
X107968807Y-83051328D01*
X107893430Y-83233307D01*
X107893430Y-83233309D01*
X107885138Y-83275000D01*
X108688012Y-83275000D01*
X108670795Y-83284940D01*
X108614940Y-83340795D01*
X108575444Y-83409204D01*
X108555000Y-83485504D01*
X108555000Y-83564496D01*
X108575444Y-83640796D01*
X108614940Y-83709205D01*
X108670795Y-83765060D01*
X108688012Y-83775000D01*
X107885138Y-83775000D01*
X107893430Y-83816690D01*
X107893430Y-83816692D01*
X107968807Y-83998671D01*
X107968814Y-83998684D01*
X108078248Y-84162462D01*
X108078251Y-84162466D01*
X108217533Y-84301748D01*
X108217537Y-84301751D01*
X108381315Y-84411185D01*
X108381328Y-84411192D01*
X108563306Y-84486569D01*
X108563318Y-84486572D01*
X108756504Y-84524999D01*
X108756508Y-84525000D01*
X108905000Y-84525000D01*
X108905000Y-83825000D01*
X109405000Y-83825000D01*
X109405000Y-84525000D01*
X109553492Y-84525000D01*
X109553495Y-84524999D01*
X109746681Y-84486572D01*
X109746693Y-84486569D01*
X109928671Y-84411192D01*
X109928684Y-84411185D01*
X110092462Y-84301751D01*
X110092466Y-84301748D01*
X110231748Y-84162466D01*
X110231751Y-84162462D01*
X110341185Y-83998684D01*
X110341192Y-83998671D01*
X110416569Y-83816692D01*
X110416569Y-83816690D01*
X110424862Y-83775000D01*
X109621988Y-83775000D01*
X109639205Y-83765060D01*
X109695060Y-83709205D01*
X109734556Y-83640796D01*
X109755000Y-83564496D01*
X109755000Y-83485504D01*
X109734556Y-83409204D01*
X109695060Y-83340795D01*
X109639205Y-83284940D01*
X109621988Y-83275000D01*
X110424862Y-83275000D01*
X110416569Y-83233309D01*
X110416569Y-83233307D01*
X110341192Y-83051328D01*
X110341185Y-83051315D01*
X110301813Y-82992391D01*
X110280935Y-82925714D01*
X110299419Y-82858333D01*
X110351398Y-82811643D01*
X110417072Y-82800097D01*
X110421153Y-82800499D01*
X110421158Y-82800500D01*
X110421163Y-82800500D01*
X110578844Y-82800500D01*
X110578845Y-82800499D01*
X110733497Y-82769737D01*
X110879179Y-82709394D01*
X110931110Y-82674694D01*
X110997785Y-82653816D01*
X111065165Y-82672300D01*
X111068863Y-82674676D01*
X111120821Y-82709394D01*
X111120823Y-82709395D01*
X111120825Y-82709396D01*
X111218853Y-82750000D01*
X111266503Y-82769737D01*
X111410887Y-82798457D01*
X111421153Y-82800499D01*
X111421156Y-82800500D01*
X111421158Y-82800500D01*
X111578844Y-82800500D01*
X111578845Y-82800499D01*
X111733497Y-82769737D01*
X111844569Y-82723729D01*
X111914035Y-82716261D01*
X111976514Y-82747536D01*
X112012167Y-82807625D01*
X112009674Y-82877450D01*
X111995121Y-82907181D01*
X111898817Y-83051310D01*
X111898807Y-83051328D01*
X111823430Y-83233307D01*
X111823430Y-83233309D01*
X111815138Y-83275000D01*
X112618012Y-83275000D01*
X112600795Y-83284940D01*
X112544940Y-83340795D01*
X112505444Y-83409204D01*
X112485000Y-83485504D01*
X112485000Y-83564496D01*
X112505444Y-83640796D01*
X112544940Y-83709205D01*
X112600795Y-83765060D01*
X112618012Y-83775000D01*
X111815138Y-83775000D01*
X111823430Y-83816690D01*
X111823430Y-83816692D01*
X111898807Y-83998671D01*
X111898814Y-83998684D01*
X112008248Y-84162462D01*
X112008251Y-84162466D01*
X112147533Y-84301748D01*
X112147537Y-84301751D01*
X112316387Y-84414574D01*
X112315430Y-84416005D01*
X112359425Y-84459211D01*
X112374895Y-84527346D01*
X112351072Y-84593029D01*
X112349309Y-84595094D01*
X112349432Y-84595189D01*
X112344485Y-84601635D01*
X112268719Y-84732863D01*
X112229500Y-84879234D01*
X112229500Y-84905500D01*
X112209815Y-84972539D01*
X112157011Y-85018294D01*
X112105500Y-85029500D01*
X111755929Y-85029500D01*
X111630261Y-85054497D01*
X111630255Y-85054499D01*
X111511875Y-85103533D01*
X111511866Y-85103538D01*
X111405331Y-85174723D01*
X111405327Y-85174726D01*
X110494727Y-86085325D01*
X110494721Y-86085332D01*
X110425340Y-86189169D01*
X110425341Y-86189170D01*
X110423534Y-86191873D01*
X110423533Y-86191875D01*
X110374499Y-86310255D01*
X110374497Y-86310261D01*
X110349500Y-86435928D01*
X110349500Y-91345923D01*
X110329815Y-91412962D01*
X110277011Y-91458717D01*
X110207853Y-91468661D01*
X110144297Y-91439636D01*
X110137819Y-91433604D01*
X110092466Y-91388251D01*
X110092462Y-91388248D01*
X109928684Y-91278814D01*
X109928671Y-91278807D01*
X109746693Y-91203430D01*
X109746681Y-91203427D01*
X109553495Y-91165000D01*
X109405000Y-91165000D01*
X109405000Y-91865000D01*
X108905000Y-91865000D01*
X108905000Y-91165000D01*
X108756504Y-91165000D01*
X108563318Y-91203427D01*
X108563306Y-91203430D01*
X108381328Y-91278807D01*
X108381315Y-91278814D01*
X108217537Y-91388248D01*
X108217533Y-91388251D01*
X108078251Y-91527533D01*
X108078248Y-91527537D01*
X107968814Y-91691315D01*
X107968807Y-91691328D01*
X107893430Y-91873307D01*
X107893430Y-91873309D01*
X107885138Y-91915000D01*
X108688012Y-91915000D01*
X108670795Y-91924940D01*
X108614940Y-91980795D01*
X108575444Y-92049204D01*
X108555000Y-92125504D01*
X108555000Y-92204496D01*
X108575444Y-92280796D01*
X108614940Y-92349205D01*
X108670795Y-92405060D01*
X108688012Y-92415000D01*
X107885138Y-92415000D01*
X107893430Y-92456690D01*
X107893430Y-92456692D01*
X107968807Y-92638671D01*
X107968814Y-92638684D01*
X108078248Y-92802462D01*
X108078251Y-92802466D01*
X108217533Y-92941748D01*
X108217537Y-92941751D01*
X108381315Y-93051185D01*
X108381328Y-93051192D01*
X108563306Y-93126569D01*
X108563318Y-93126572D01*
X108756504Y-93164999D01*
X108756508Y-93165000D01*
X108905000Y-93165000D01*
X108905000Y-92465000D01*
X109405000Y-92465000D01*
X109405000Y-93165000D01*
X109553492Y-93165000D01*
X109553495Y-93164999D01*
X109746681Y-93126572D01*
X109746693Y-93126569D01*
X109928671Y-93051192D01*
X109928684Y-93051185D01*
X110092462Y-92941751D01*
X110092466Y-92941748D01*
X110137819Y-92896396D01*
X110199142Y-92862911D01*
X110268834Y-92867895D01*
X110324767Y-92909767D01*
X110349184Y-92975231D01*
X110349500Y-92984077D01*
X110349500Y-93721268D01*
X110329815Y-93788307D01*
X110277011Y-93834062D01*
X110272955Y-93835828D01*
X110242868Y-93848291D01*
X110242867Y-93848291D01*
X110168191Y-93879223D01*
X110085745Y-93934313D01*
X110085744Y-93934314D01*
X110053454Y-93955888D01*
X110053453Y-93955889D01*
X108713025Y-95296316D01*
X108672801Y-95323194D01*
X108644508Y-95334914D01*
X108521581Y-95417050D01*
X108417051Y-95521580D01*
X108393424Y-95556941D01*
X108339811Y-95601745D01*
X108329327Y-95605755D01*
X108227075Y-95639638D01*
X108227066Y-95639642D01*
X108079000Y-95730971D01*
X108078996Y-95730974D01*
X107955974Y-95853996D01*
X107955971Y-95854000D01*
X107864642Y-96002066D01*
X107864637Y-96002077D01*
X107809913Y-96167223D01*
X107799500Y-96269144D01*
X107799500Y-96855855D01*
X107809913Y-96957776D01*
X107864637Y-97122922D01*
X107864642Y-97122933D01*
X107955971Y-97270999D01*
X107955974Y-97271003D01*
X108078996Y-97394025D01*
X108079000Y-97394028D01*
X108079703Y-97394462D01*
X108080083Y-97394885D01*
X108084664Y-97398507D01*
X108084045Y-97399289D01*
X108126428Y-97446410D01*
X108137649Y-97515372D01*
X108109806Y-97579454D01*
X108084544Y-97601342D01*
X108084664Y-97601493D01*
X108081315Y-97604140D01*
X108079703Y-97605538D01*
X108079000Y-97605971D01*
X108078996Y-97605974D01*
X107955974Y-97728996D01*
X107955971Y-97729000D01*
X107864642Y-97877066D01*
X107864637Y-97877077D01*
X107809913Y-98042223D01*
X107799500Y-98144144D01*
X107799500Y-98730855D01*
X107809913Y-98832776D01*
X107828343Y-98888395D01*
X107859513Y-98982458D01*
X107861915Y-99052285D01*
X107829489Y-99109141D01*
X107737047Y-99201583D01*
X107737043Y-99201589D01*
X107692528Y-99268214D01*
X107692527Y-99268216D01*
X107654914Y-99324507D01*
X107598343Y-99461082D01*
X107598340Y-99461092D01*
X107569500Y-99606079D01*
X107569500Y-103525500D01*
X107549815Y-103592539D01*
X107497011Y-103638294D01*
X107445505Y-103649500D01*
X107422132Y-103649500D01*
X107422123Y-103649501D01*
X107362516Y-103655908D01*
X107227671Y-103706202D01*
X107227664Y-103706206D01*
X107112455Y-103792452D01*
X107112452Y-103792455D01*
X107026206Y-103907664D01*
X107026202Y-103907671D01*
X106975908Y-104042517D01*
X106969501Y-104102116D01*
X106969500Y-104102135D01*
X106500500Y-104102135D01*
X106500500Y-81750000D01*
X107720069Y-81750000D01*
X108240000Y-81750000D01*
X108240000Y-81187154D01*
X108239998Y-81187153D01*
X108100811Y-81227591D01*
X108100808Y-81227593D01*
X107962714Y-81309261D01*
X107962705Y-81309268D01*
X107849268Y-81422705D01*
X107849261Y-81422714D01*
X107767593Y-81560808D01*
X107767592Y-81560811D01*
X107722833Y-81714871D01*
X107722832Y-81714877D01*
X107720069Y-81750000D01*
X106500500Y-81750000D01*
X106500500Y-75624500D01*
X106520185Y-75557461D01*
X106572989Y-75511706D01*
X106624500Y-75500500D01*
X153375500Y-75500500D01*
X153442539Y-75520185D01*
G37*
%TD.AperFunction*%
%TD*%
M02*
