M48
; DRILL file KiCad 10.0.4 date 2026-07-31T11:48:51
; FORMAT={-:-/ absolute / metric / decimal}
; #@! TF.CreationDate,2026-07-31T11:48:51+08:00
; #@! TF.GenerationSoftware,Kicad,Pcbnew,10.0.4
; #@! TF.FileFunction,Plated,1,2,PTH
FMAT,2
METRIC
; #@! TA.AperFunction,Plated,PTH,ViaDrill
T1C0.300
; #@! TA.AperFunction,Plated,PTH,ComponentDrill
T2C0.600
; #@! TA.AperFunction,Plated,PTH,ComponentDrill
T3C1.000
%
G90
G05
T1
X109.5Y-82.0
X110.0Y-102.0
X111.0Y-82.0
X111.0Y-96.0
X111.0Y-97.0
X111.0Y-102.0
X111.934Y-88.0
X112.375Y-86.375
X113.5Y-102.0
X115.0Y-95.5
X115.0Y-102.0
X115.5Y-94.5
X117.5Y-79.5
X117.5Y-82.5
X118.5Y-92.5
X119.0Y-90.0
X119.5Y-88.0
X119.5Y-91.5
X120.0Y-94.0
X120.0Y-102.0
X120.0Y-103.0
X121.0Y-82.5
X122.5Y-99.5
X122.5Y-101.0
X123.0Y-88.0
X123.5Y-99.5
X123.5Y-101.0
X124.0Y-88.0
X124.0Y-93.5
X124.5Y-99.5
X124.5Y-101.0
X124.5Y-102.0
X125.0Y-82.5
X125.0Y-92.0
X127.5Y-87.5
X130.0Y-102.5
X130.1Y-80.0
X130.75Y-82.0
X131.5Y-94.5
X132.0Y-81.0
X132.0Y-95.5
X133.0Y-82.0
X133.0Y-96.0
X133.5Y-88.0
X134.0Y-91.0
X134.0Y-92.0
X134.0Y-96.0
X134.5Y-87.5
X135.0Y-80.0
X135.0Y-102.0
X135.1Y-97.0
X135.15Y-96.0
X135.5Y-88.1
X135.5Y-97.95
X135.5Y-99.5
X136.0Y-91.5
X136.5Y-88.9
X137.0Y-87.0
X137.0Y-91.5
X137.306Y-87.739
X137.5Y-89.5
X137.5Y-97.0
X137.5Y-102.0
X138.25Y-95.25
X138.5Y-97.0
X140.0Y-82.5
X140.0Y-85.0
X140.5Y-96.0
X140.934Y-92.566
X141.5Y-83.5
X141.5Y-97.0
X141.6Y-85.0
X142.5Y-88.5
X143.5Y-100.0
X145.0Y-79.0
X145.0Y-86.5
X145.0Y-102.0
X146.0Y-95.0
X147.25Y-88.5
X147.25Y-90.5
X147.5Y-86.0
X147.75Y-97.0
X149.0Y-98.75
X149.0Y-102.0
X149.5Y-82.0
X151.5Y-103.0
X152.5Y-81.5
X152.5Y-102.0
T3
X108.32Y-105.0
X108.36Y-77.5
X110.86Y-105.0
X110.9Y-77.5
X113.4Y-105.0
X113.44Y-77.5
X115.94Y-105.0
X115.98Y-77.5
X118.48Y-105.0
X118.52Y-77.5
X121.02Y-105.0
X121.06Y-77.5
X123.56Y-105.0
X123.6Y-77.5
X126.1Y-105.0
X126.14Y-77.5
X128.64Y-105.0
X128.68Y-77.5
X131.18Y-105.0
X131.22Y-77.5
X133.72Y-105.0
X133.76Y-77.5
X136.26Y-105.0
X136.3Y-77.5
X138.8Y-105.0
X138.84Y-77.5
X141.34Y-105.0
X141.38Y-77.5
X143.88Y-105.0
X143.92Y-77.5
X146.42Y-105.0
X146.46Y-77.5
X148.96Y-105.0
X149.0Y-77.5
X151.5Y-84.42
X151.5Y-86.96
X151.5Y-89.5
X151.5Y-92.04
X151.5Y-94.58
X151.5Y-97.12
X151.5Y-99.66
X151.5Y-105.0
X151.54Y-77.5
T2
G00X109.125Y-83.5
M15
G01X108.525Y-83.5
M16
G05
G00X109.125Y-92.14
M15
G01X108.525Y-92.14
M16
G05
G00X113.555Y-83.5
M15
G01X112.456Y-83.5
M16
G05
G00X113.555Y-92.14
M15
G01X112.456Y-92.14
M16
G05
M30
