%TF.GenerationSoftware,KiCad,Pcbnew,10.0.4*%
%TF.CreationDate,2026-07-31T11:48:23+08:00*%
%TF.ProjectId,stm32c8t6-mini,73746d33-3263-4387-9436-2d6d696e692e,rev?*%
%TF.SameCoordinates,Original*%
%TF.FileFunction,Copper,L2,Bot*%
%TF.FilePolarity,Positive*%
%FSLAX46Y46*%
G04 Gerber Fmt 4.6, Leading zero omitted, Abs format (unit mm)*
G04 Created by KiCad (PCBNEW 10.0.4) date 2026-07-31 11:48:23*
%MOMM*%
%LPD*%
G01*
G04 APERTURE LIST*
%TA.AperFunction,ComponentPad*%
%ADD10O,2.100000X1.000000*%
%TD*%
%TA.AperFunction,ComponentPad*%
%ADD11O,1.600000X1.000000*%
%TD*%
%TA.AperFunction,ComponentPad*%
%ADD12R,1.700000X1.700000*%
%TD*%
%TA.AperFunction,ComponentPad*%
%ADD13C,1.700000*%
%TD*%
%TA.AperFunction,SMDPad,CuDef*%
%ADD14R,2.000000X0.800000*%
%TD*%
%TA.AperFunction,ViaPad*%
%ADD15C,0.600000*%
%TD*%
%TA.AperFunction,Conductor*%
%ADD16C,0.500000*%
%TD*%
%TA.AperFunction,Conductor*%
%ADD17C,0.200000*%
%TD*%
%TA.AperFunction,Conductor*%
%ADD18C,0.400000*%
%TD*%
%TA.AperFunction,Conductor*%
%ADD19C,0.300000*%
%TD*%
G04 APERTURE END LIST*
D10*
%TO.P,P1,0,0_0*%
%TO.N,GND*%
X113005500Y-83500000D03*
D11*
X108825500Y-83500000D03*
D10*
X113005500Y-92140000D03*
D11*
X108825500Y-92140000D03*
%TD*%
D12*
%TO.P,J1,1,Pin_1_1*%
%TO.N,+3.3V*%
X151500000Y-84420000D03*
D13*
%TO.P,J1,2,Pin_2_2*%
%TO.N,/nRST*%
X151500000Y-86960000D03*
%TO.P,J1,3,Pin_3_3*%
%TO.N,/UART1_TX*%
X151500000Y-89500000D03*
%TO.P,J1,4,Pin_4_4*%
%TO.N,/UART1_RX*%
X151500000Y-92040000D03*
%TO.P,J1,5,Pin_5_5*%
%TO.N,/SW_DIO*%
X151500000Y-94580000D03*
%TO.P,J1,6,Pin_6_6*%
%TO.N,/SW_CLK*%
X151500000Y-97120000D03*
%TO.P,J1,7,Pin_7_7*%
%TO.N,GND*%
X151500000Y-99660000D03*
%TD*%
D12*
%TO.P,J2,1,Pin_1_1*%
%TO.N,+5V*%
X108320000Y-105000000D03*
D13*
%TO.P,J2,2,Pin_2_2*%
%TO.N,GND*%
X110860000Y-105000000D03*
%TO.P,J2,3,Pin_3_3*%
X113400000Y-105000000D03*
%TO.P,J2,4,Pin_4_4*%
%TO.N,+3.3V*%
X115940000Y-105000000D03*
%TO.P,J2,5,Pin_5_5*%
X118480000Y-105000000D03*
%TO.P,J2,6,Pin_6_6*%
%TO.N,/PA2*%
X121020000Y-105000000D03*
%TO.P,J2,7,Pin_7_7*%
%TO.N,/PA0*%
X123560000Y-105000000D03*
%TO.P,J2,8,Pin_8_8*%
%TO.N,/PA15*%
X126100000Y-105000000D03*
%TO.P,J2,9,Pin_9_9*%
%TO.N,/PB3*%
X128640000Y-105000000D03*
%TO.P,J2,10,Pin_10_10*%
%TO.N,/PB4*%
X131180000Y-105000000D03*
%TO.P,J2,11,Pin_11_11*%
%TO.N,/PB5*%
X133720000Y-105000000D03*
%TO.P,J2,12,Pin_12_12*%
%TO.N,/PB6*%
X136260000Y-105000000D03*
%TO.P,J2,13,Pin_13_13*%
%TO.N,/PB7*%
X138800000Y-105000000D03*
%TO.P,J2,14,Pin_14_14*%
%TO.N,/PB8*%
X141340000Y-105000000D03*
%TO.P,J2,15,Pin_15_15*%
%TO.N,/PB9*%
X143880000Y-105000000D03*
%TO.P,J2,16,Pin_16_16*%
%TO.N,/PC13*%
X146420000Y-105000000D03*
%TO.P,J2,17,Pin_17_17*%
%TO.N,GND*%
X148960000Y-105000000D03*
%TO.P,J2,18,Pin_18_18*%
X151500000Y-105000000D03*
%TD*%
D12*
%TO.P,J3,1,Pin_1_1*%
%TO.N,GND*%
X108360000Y-77500000D03*
D13*
%TO.P,J3,2,Pin_2_2*%
X110900000Y-77500000D03*
%TO.P,J3,3,Pin_3_3*%
%TO.N,+3.3V*%
X113440000Y-77500000D03*
%TO.P,J3,4,Pin_4_4*%
X115980000Y-77500000D03*
%TO.P,J3,5,Pin_5_5*%
%TO.N,/PA8*%
X118520000Y-77500000D03*
%TO.P,J3,6,Pin_6_6*%
%TO.N,/PB15*%
X121060000Y-77500000D03*
%TO.P,J3,7,Pin_7_7*%
%TO.N,/PB14*%
X123600000Y-77500000D03*
%TO.P,J3,8,Pin_8_8*%
%TO.N,/PB13*%
X126140000Y-77500000D03*
%TO.P,J3,9,Pin_9_9*%
%TO.N,/PB12*%
X128680000Y-77500000D03*
%TO.P,J3,10,Pin_10_10*%
%TO.N,/PB11*%
X131220000Y-77500000D03*
%TO.P,J3,11,Pin_11_11*%
%TO.N,/PB10*%
X133760000Y-77500000D03*
%TO.P,J3,12,Pin_12_12*%
%TO.N,/PB1*%
X136300000Y-77500000D03*
%TO.P,J3,13,Pin_13_13*%
%TO.N,/PB0*%
X138840000Y-77500000D03*
%TO.P,J3,14,Pin_14_14*%
%TO.N,/PA7*%
X141380000Y-77500000D03*
%TO.P,J3,15,Pin_15_15*%
%TO.N,/PA6*%
X143920000Y-77500000D03*
%TO.P,J3,16,Pin_16_16*%
%TO.N,/PA5*%
X146460000Y-77500000D03*
%TO.P,J3,17,Pin_17_17*%
%TO.N,/PA4*%
X149000000Y-77500000D03*
%TO.P,J3,18,Pin_18_18*%
%TO.N,/PA3*%
X151540000Y-77500000D03*
%TD*%
D14*
%TO.P,C6,1*%
%TO.N,/BAT+*%
X126281898Y-89250000D03*
%TO.P,C6,2*%
%TO.N,GND*%
X126281898Y-90750000D03*
%TD*%
D15*
%TO.N,GND*%
X123500000Y-101000000D03*
X115500000Y-94500000D03*
X115000000Y-102000000D03*
X152500000Y-81500000D03*
X140500000Y-96000000D03*
X125000000Y-82500000D03*
X134500000Y-87500000D03*
X143500000Y-100000000D03*
X123500000Y-99500000D03*
X127500000Y-87500000D03*
X149500000Y-82000000D03*
X133500000Y-88000000D03*
X137500000Y-102000000D03*
X130000000Y-102500000D03*
X124500000Y-99500000D03*
X122500000Y-99500000D03*
X117500000Y-82500000D03*
X151500000Y-103000000D03*
X135000000Y-102000000D03*
X135500000Y-88100000D03*
X120000000Y-94000000D03*
X120000000Y-102000000D03*
X133000000Y-82000000D03*
X117500000Y-79500000D03*
X130100000Y-80000000D03*
X120000000Y-103000000D03*
X136000000Y-91500000D03*
X138250000Y-95250000D03*
X124000000Y-93500000D03*
X124500000Y-102000000D03*
X140000000Y-85000000D03*
X111000000Y-96000000D03*
X145000000Y-86500000D03*
X147250000Y-90500000D03*
X135000000Y-80000000D03*
X111000000Y-97000000D03*
X115000000Y-95500000D03*
X121000000Y-82500000D03*
X145000000Y-79000000D03*
X152500000Y-102000000D03*
X149000000Y-98750000D03*
X141500000Y-97000000D03*
X119500000Y-88000000D03*
X122500000Y-101000000D03*
X118500000Y-92500000D03*
X147750000Y-97000000D03*
X145000000Y-102000000D03*
X113500000Y-102000000D03*
X125000000Y-92000000D03*
X130750000Y-82000000D03*
X137000000Y-91500000D03*
X111000000Y-102000000D03*
X110000000Y-102000000D03*
X124500000Y-101000000D03*
X140000000Y-82500000D03*
X149000000Y-102000000D03*
X142500000Y-88500000D03*
X146000000Y-95000000D03*
%TO.N,+3.3V*%
X119500000Y-91500000D03*
X147250000Y-88500000D03*
X119000000Y-90000000D03*
X132000000Y-81000000D03*
X147500000Y-86000000D03*
%TO.N,Net-(SW2-B)*%
X135500000Y-97950000D03*
X135500000Y-99500000D03*
%TO.N,/UART1_RX*%
X137500000Y-89500000D03*
X141600000Y-85000000D03*
%TO.N,/BAT+*%
X140934313Y-92565687D03*
X124000000Y-88000000D03*
X123000000Y-88000000D03*
%TO.N,/PA0*%
X137306148Y-87739106D03*
%TO.N,/PA2*%
X137000000Y-87000000D03*
%TO.N,/UART1_TX*%
X136500000Y-88900000D03*
X141500000Y-83500000D03*
%TO.N,/SW_DIO*%
X134000000Y-91000000D03*
%TO.N,/SW_CLK*%
X134000000Y-92000000D03*
%TO.N,/PA15*%
X131500000Y-94500000D03*
%TO.N,/PB3*%
X132000000Y-95500000D03*
%TO.N,/PB4*%
X133000000Y-96000000D03*
%TO.N,/PB5*%
X134000000Y-96000000D03*
%TO.N,/PB6*%
X135150000Y-96000000D03*
%TO.N,/PB7*%
X135100000Y-97000000D03*
%TO.N,/PB8*%
X137500000Y-97000000D03*
%TO.N,/PB9*%
X138500000Y-97000000D03*
%TO.N,Net-(P1-CC1)*%
X112375000Y-86375000D03*
X111000000Y-82000000D03*
%TO.N,Net-(P1-CC2)*%
X109500000Y-82000000D03*
X111934313Y-88000000D03*
%TD*%
%TO.N,GND*%
D16*
X110900000Y-78000000D02*
X108360000Y-78000000D01*
D17*
X126281898Y-90750000D02*
X124750000Y-90750000D01*
D16*
X108360000Y-78000000D02*
X108360000Y-79360000D01*
D17*
X126281898Y-90750000D02*
X126281898Y-91718102D01*
D16*
X108360000Y-79360000D02*
X108500000Y-79500000D01*
D17*
X124750000Y-90750000D02*
X124500000Y-91000000D01*
%TO.N,+3.3V*%
D16*
X114500000Y-78500000D02*
X115500000Y-79500000D01*
X115980000Y-78000000D02*
X113440000Y-78000000D01*
X115500000Y-80000000D02*
X115520000Y-79980000D01*
D17*
X147250000Y-86250000D02*
X147500000Y-86000000D01*
D18*
X150000000Y-81000000D02*
X151500000Y-82500000D01*
D17*
X147250000Y-88500000D02*
X147250000Y-86250000D01*
D18*
X132000000Y-81000000D02*
X150000000Y-81000000D01*
D16*
X119500000Y-90500000D02*
X119000000Y-90000000D01*
X119500000Y-91500000D02*
X119500000Y-90500000D01*
X115980000Y-78000000D02*
X116000000Y-78020000D01*
X116000000Y-80500000D02*
X116000000Y-81000000D01*
X119000000Y-90000000D02*
X116000000Y-87000000D01*
D18*
X151500000Y-82500000D02*
X151500000Y-84420000D01*
D16*
X115500000Y-79500000D02*
X115500000Y-80000000D01*
X115500000Y-80000000D02*
X116000000Y-80500000D01*
X114500000Y-78000000D02*
X114500000Y-78500000D01*
X116000000Y-87000000D02*
X116000000Y-81000000D01*
X116000000Y-81000000D02*
X132000000Y-81000000D01*
%TO.N,Net-(SW2-B)*%
D17*
X135500000Y-99500000D02*
X135500000Y-97950000D01*
%TO.N,/UART1_RX*%
X150000000Y-88565686D02*
X150000000Y-91020000D01*
X150000000Y-91020000D02*
X151020000Y-92040000D01*
X141500000Y-85500000D02*
X137500000Y-89500000D01*
X141600000Y-85000000D02*
X141500000Y-85100000D01*
X141600000Y-84400000D02*
X142600000Y-83400000D01*
X141500000Y-85100000D02*
X141500000Y-85500000D01*
X151020000Y-92040000D02*
X151500000Y-92040000D01*
X148834314Y-83400000D02*
X149100000Y-83665686D01*
X149100000Y-83665686D02*
X149100000Y-87665686D01*
X142600000Y-83400000D02*
X148834314Y-83400000D01*
X149100000Y-87665686D02*
X150000000Y-88565686D01*
X141600000Y-85000000D02*
X141600000Y-84400000D01*
%TO.N,/BAT+*%
D19*
X135900000Y-90400000D02*
X138768626Y-90400000D01*
X124000000Y-88500000D02*
X124750000Y-89250000D01*
X124750000Y-89250000D02*
X134750000Y-89250000D01*
X138768626Y-90400000D02*
X140934313Y-92565687D01*
X124000000Y-88000000D02*
X124000000Y-88500000D01*
X124000000Y-88000000D02*
X123000000Y-88000000D01*
X134750000Y-89250000D02*
X135900000Y-90400000D01*
%TO.N,/PA0*%
D17*
X135651471Y-86500000D02*
X123065686Y-86500000D01*
X137306148Y-87739106D02*
X136890577Y-87739106D01*
X123065686Y-86500000D02*
X122708579Y-86857108D01*
X122708579Y-86857108D02*
X121500000Y-88065686D01*
X136890577Y-87739106D02*
X135651471Y-86500000D01*
X121500000Y-88065686D02*
X121500000Y-102940000D01*
X121500000Y-102940000D02*
X123560000Y-105000000D01*
%TO.N,/PA2*%
X121000000Y-104980000D02*
X121020000Y-105000000D01*
X136000000Y-86000000D02*
X123000000Y-86000000D01*
X123000000Y-86000000D02*
X121000000Y-88000000D01*
X137000000Y-87000000D02*
X136000000Y-86000000D01*
X121000000Y-88000000D02*
X121000000Y-104980000D01*
%TO.N,/UART1_TX*%
X142000000Y-83000000D02*
X149000000Y-83000000D01*
X141000000Y-84000000D02*
X141000000Y-85434314D01*
X141000000Y-85434314D02*
X137534314Y-88900000D01*
X141500000Y-83500000D02*
X142000000Y-83000000D01*
X141500000Y-83500000D02*
X141000000Y-84000000D01*
X149000000Y-83000000D02*
X149500000Y-83500000D01*
X137534314Y-88900000D02*
X136500000Y-88900000D01*
X149500000Y-87500000D02*
X151500000Y-89500000D01*
X149500000Y-83500000D02*
X149500000Y-87500000D01*
%TO.N,/SW_DIO*%
X134000000Y-91000000D02*
X136165687Y-93165687D01*
X150085687Y-93165687D02*
X151500000Y-94580000D01*
X136165687Y-93165687D02*
X150085687Y-93165687D01*
%TO.N,/SW_CLK*%
X134000000Y-92000000D02*
X135565687Y-93565687D01*
X147945687Y-93565687D02*
X151500000Y-97120000D01*
X135565687Y-93565687D02*
X147945687Y-93565687D01*
%TO.N,/PA15*%
X131500000Y-94500000D02*
X130000000Y-94500000D01*
X126100000Y-102900000D02*
X126100000Y-105000000D01*
X130000000Y-94500000D02*
X128000000Y-96500000D01*
X128000000Y-101000000D02*
X126100000Y-102900000D01*
X128000000Y-96500000D02*
X128000000Y-101000000D01*
%TO.N,/PB3*%
X131651471Y-95500000D02*
X131151471Y-95000000D01*
X128500000Y-101500000D02*
X127500000Y-102500000D01*
X127500000Y-102500000D02*
X127500000Y-103860000D01*
X128500000Y-96565686D02*
X128500000Y-101500000D01*
X131151471Y-95000000D02*
X130065686Y-95000000D01*
X132000000Y-95500000D02*
X131651471Y-95500000D01*
X127500000Y-103860000D02*
X128640000Y-105000000D01*
X130065686Y-95000000D02*
X128500000Y-96565686D01*
%TO.N,/PB4*%
X129631372Y-96500000D02*
X129000000Y-97131372D01*
X129000000Y-97131372D02*
X129000000Y-102820000D01*
X132500000Y-96500000D02*
X129631372Y-96500000D01*
X129000000Y-102820000D02*
X131180000Y-105000000D01*
X133000000Y-96000000D02*
X132500000Y-96500000D01*
%TO.N,/PB5*%
X134000000Y-96000000D02*
X133000000Y-97000000D01*
X130000000Y-98000000D02*
X130000000Y-101280000D01*
X131000000Y-97000000D02*
X130000000Y-98000000D01*
X133000000Y-97000000D02*
X131000000Y-97000000D01*
X130000000Y-101280000D02*
X133720000Y-105000000D01*
%TO.N,/PB6*%
X135000000Y-103500000D02*
X136260000Y-104760000D01*
X133532843Y-97500000D02*
X131065686Y-97500000D01*
X134600000Y-96432843D02*
X133532843Y-97500000D01*
X130400000Y-100400000D02*
X133500000Y-103500000D01*
X133500000Y-103500000D02*
X135000000Y-103500000D01*
X131065686Y-97500000D02*
X130400000Y-98165686D01*
X130400000Y-98165686D02*
X130400000Y-100400000D01*
X134717157Y-96432843D02*
X134600000Y-96432843D01*
X136260000Y-104760000D02*
X136260000Y-105000000D01*
X135150000Y-96000000D02*
X134717157Y-96432843D01*
%TO.N,/PB7*%
X134000000Y-103000000D02*
X137000000Y-103000000D01*
X131000000Y-100000000D02*
X134000000Y-103000000D01*
X131500000Y-98000000D02*
X131000000Y-98500000D01*
X135100000Y-97000000D02*
X135100000Y-97043099D01*
X134143099Y-98000000D02*
X131500000Y-98000000D01*
X138000000Y-104200000D02*
X138800000Y-105000000D01*
X131000000Y-98500000D02*
X131000000Y-100000000D01*
X135100000Y-97043099D02*
X134143099Y-98000000D01*
X137000000Y-103000000D02*
X138000000Y-104000000D01*
X138000000Y-104000000D02*
X138000000Y-104200000D01*
%TO.N,/PB8*%
X137500000Y-97000000D02*
X137500000Y-99500000D01*
X141340000Y-103340000D02*
X141340000Y-105000000D01*
X137500000Y-99500000D02*
X141340000Y-103340000D01*
%TO.N,/PB9*%
X138500000Y-97000000D02*
X138500000Y-99620000D01*
X138500000Y-99620000D02*
X143880000Y-105000000D01*
%TO.N,Net-(P1-CC1)*%
X111000000Y-82500000D02*
X110500000Y-83000000D01*
X110500000Y-84500000D02*
X112375000Y-86375000D01*
X110500000Y-83000000D02*
X110500000Y-84500000D01*
X111000000Y-82000000D02*
X111000000Y-82500000D01*
%TO.N,Net-(P1-CC2)*%
X109925500Y-82425500D02*
X109925500Y-84925500D01*
X109925500Y-84925500D02*
X111934313Y-86934313D01*
X111934313Y-86934313D02*
X111934313Y-88000000D01*
X109500000Y-82000000D02*
X109925500Y-82425500D01*
%TD*%
%TA.AperFunction,Conductor*%
%TO.N,GND*%
G36*
X129805703Y-101935384D02*
G01*
X129812181Y-101941416D01*
X131308584Y-103437819D01*
X131342069Y-103499142D01*
X131337085Y-103568834D01*
X131295213Y-103624767D01*
X131229749Y-103649184D01*
X131220903Y-103649500D01*
X131073713Y-103649500D01*
X131045006Y-103654046D01*
X130863757Y-103682753D01*
X130821473Y-103696492D01*
X130751632Y-103698486D01*
X130695476Y-103666241D01*
X129636819Y-102607583D01*
X129603334Y-102546260D01*
X129600500Y-102519902D01*
X129600500Y-102029097D01*
X129620185Y-101962058D01*
X129672989Y-101916303D01*
X129742147Y-101906359D01*
X129805703Y-101935384D01*
G37*
%TD.AperFunction*%
%TA.AperFunction,Conductor*%
G36*
X148442539Y-84020185D02*
G01*
X148488294Y-84072989D01*
X148499500Y-84124500D01*
X148499500Y-85697809D01*
X148479815Y-85764848D01*
X148427011Y-85810603D01*
X148357853Y-85820547D01*
X148294297Y-85791522D01*
X148260939Y-85745261D01*
X148209397Y-85620827D01*
X148209390Y-85620814D01*
X148121789Y-85489711D01*
X148121786Y-85489707D01*
X148010292Y-85378213D01*
X148010288Y-85378210D01*
X147879185Y-85290609D01*
X147879172Y-85290602D01*
X147733501Y-85230264D01*
X147733489Y-85230261D01*
X147578845Y-85199500D01*
X147578842Y-85199500D01*
X147421158Y-85199500D01*
X147421155Y-85199500D01*
X147266510Y-85230261D01*
X147266498Y-85230264D01*
X147120827Y-85290602D01*
X147120814Y-85290609D01*
X146989711Y-85378210D01*
X146989707Y-85378213D01*
X146878213Y-85489707D01*
X146878210Y-85489711D01*
X146790609Y-85620814D01*
X146790602Y-85620827D01*
X146730264Y-85766498D01*
X146730261Y-85766510D01*
X146699500Y-85921153D01*
X146699500Y-85971636D01*
X146691834Y-86010179D01*
X146692527Y-86010365D01*
X146690424Y-86018213D01*
X146690423Y-86018215D01*
X146649499Y-86170943D01*
X146649499Y-86170945D01*
X146649499Y-86339046D01*
X146649500Y-86339059D01*
X146649500Y-87920234D01*
X146629815Y-87987273D01*
X146628602Y-87989125D01*
X146540609Y-88120814D01*
X146540602Y-88120827D01*
X146480264Y-88266498D01*
X146480261Y-88266510D01*
X146449500Y-88421153D01*
X146449500Y-88578846D01*
X146480261Y-88733489D01*
X146480264Y-88733501D01*
X146540602Y-88879172D01*
X146540609Y-88879185D01*
X146628210Y-89010288D01*
X146628213Y-89010292D01*
X146739707Y-89121786D01*
X146739711Y-89121789D01*
X146870814Y-89209390D01*
X146870827Y-89209397D01*
X147016498Y-89269735D01*
X147016503Y-89269737D01*
X147171153Y-89300499D01*
X147171156Y-89300500D01*
X147171158Y-89300500D01*
X147328844Y-89300500D01*
X147328845Y-89300499D01*
X147483497Y-89269737D01*
X147629179Y-89209394D01*
X147760289Y-89121789D01*
X147871789Y-89010289D01*
X147959394Y-88879179D01*
X148019737Y-88733497D01*
X148050500Y-88578842D01*
X148050500Y-88421158D01*
X148050500Y-88421155D01*
X148050499Y-88421153D01*
X148047525Y-88406202D01*
X148019737Y-88266503D01*
X148012256Y-88248443D01*
X147959397Y-88120827D01*
X147959390Y-88120814D01*
X147871398Y-87989125D01*
X147850520Y-87922447D01*
X147850500Y-87920234D01*
X147850500Y-86794836D01*
X147870185Y-86727797D01*
X147905609Y-86691734D01*
X148010289Y-86621789D01*
X148121786Y-86510292D01*
X148121789Y-86510289D01*
X148209394Y-86379179D01*
X148232856Y-86322536D01*
X148260939Y-86254738D01*
X148304779Y-86200334D01*
X148371074Y-86178269D01*
X148438773Y-86195548D01*
X148486384Y-86246685D01*
X148499500Y-86302190D01*
X148499500Y-87579016D01*
X148499499Y-87579034D01*
X148499499Y-87744740D01*
X148499498Y-87744740D01*
X148540423Y-87897472D01*
X148540424Y-87897473D01*
X148553976Y-87920945D01*
X148555471Y-87923535D01*
X148606397Y-88011742D01*
X148619481Y-88034403D01*
X148738349Y-88153271D01*
X148738355Y-88153276D01*
X149363181Y-88778102D01*
X149396666Y-88839425D01*
X149399500Y-88865783D01*
X149399500Y-90933330D01*
X149399499Y-90933348D01*
X149399499Y-91099054D01*
X149399498Y-91099054D01*
X149399499Y-91099057D01*
X149440423Y-91251785D01*
X149440424Y-91251787D01*
X149440423Y-91251787D01*
X149446818Y-91262862D01*
X149446819Y-91262863D01*
X149519477Y-91388712D01*
X149519481Y-91388717D01*
X149638349Y-91507585D01*
X149638355Y-91507590D01*
X150113181Y-91982416D01*
X150146666Y-92043739D01*
X150149500Y-92070097D01*
X150149500Y-92146287D01*
X150182754Y-92356243D01*
X150197904Y-92402869D01*
X150198707Y-92430986D01*
X150202711Y-92458832D01*
X150199691Y-92465444D01*
X150199899Y-92472709D01*
X150185373Y-92496797D01*
X150173687Y-92522388D01*
X150167572Y-92526317D01*
X150163819Y-92532542D01*
X150138574Y-92544954D01*
X150114909Y-92560163D01*
X150104636Y-92561639D01*
X150101118Y-92563370D01*
X150079975Y-92565186D01*
X150006630Y-92565186D01*
X150006626Y-92565186D01*
X149999020Y-92565187D01*
X149999019Y-92565186D01*
X149999018Y-92565187D01*
X141852161Y-92565187D01*
X141785122Y-92545502D01*
X141739367Y-92492698D01*
X141730544Y-92465379D01*
X141704051Y-92332195D01*
X141704050Y-92332194D01*
X141704050Y-92332190D01*
X141678182Y-92269738D01*
X141643710Y-92186514D01*
X141643703Y-92186501D01*
X141556102Y-92055398D01*
X141556099Y-92055394D01*
X141444605Y-91943900D01*
X141444601Y-91943897D01*
X141313498Y-91856296D01*
X141313485Y-91856289D01*
X141167814Y-91795951D01*
X141167802Y-91795948D01*
X141100733Y-91782607D01*
X141038822Y-91750222D01*
X141037243Y-91748671D01*
X139183300Y-89894727D01*
X139183299Y-89894726D01*
X139154528Y-89875502D01*
X139076753Y-89823535D01*
X138958370Y-89774499D01*
X138958364Y-89774497D01*
X138832697Y-89749500D01*
X138832695Y-89749500D01*
X138417649Y-89749500D01*
X138397437Y-89743565D01*
X138376399Y-89742438D01*
X138364583Y-89733918D01*
X138350610Y-89729815D01*
X138336816Y-89713896D01*
X138319726Y-89701573D01*
X138314392Y-89688017D01*
X138304855Y-89677011D01*
X138301856Y-89656159D01*
X138294143Y-89636555D01*
X138295471Y-89611752D01*
X138294911Y-89607853D01*
X138296031Y-89601312D01*
X138300637Y-89578153D01*
X138333021Y-89516241D01*
X138334519Y-89514715D01*
X141858506Y-85990727D01*
X141858511Y-85990724D01*
X141868714Y-85980520D01*
X141868716Y-85980520D01*
X141980520Y-85868716D01*
X142037665Y-85769737D01*
X142059577Y-85731785D01*
X142074738Y-85675199D01*
X142077620Y-85668097D01*
X142094762Y-85646502D01*
X142106738Y-85626853D01*
X142105981Y-85626096D01*
X142109103Y-85622973D01*
X142109113Y-85622958D01*
X142109157Y-85622919D01*
X142110283Y-85621793D01*
X142110289Y-85621789D01*
X142221789Y-85510289D01*
X142309394Y-85379179D01*
X142369737Y-85233497D01*
X142400500Y-85078842D01*
X142400500Y-84921158D01*
X142400500Y-84921155D01*
X142400499Y-84921153D01*
X142392523Y-84881055D01*
X142369737Y-84766503D01*
X142336983Y-84687427D01*
X142317382Y-84640105D01*
X142309913Y-84570636D01*
X142341188Y-84508157D01*
X142344231Y-84505004D01*
X142812417Y-84036819D01*
X142873740Y-84003334D01*
X142900098Y-84000500D01*
X148375500Y-84000500D01*
X148442539Y-84020185D01*
G37*
%TD.AperFunction*%
%TA.AperFunction,Conductor*%
G36*
X149725520Y-81720185D02*
G01*
X149746162Y-81736819D01*
X150763181Y-82753837D01*
X150777884Y-82780764D01*
X150794477Y-82806583D01*
X150795368Y-82812783D01*
X150796666Y-82815160D01*
X150799500Y-82841518D01*
X150799500Y-82945500D01*
X150779815Y-83012539D01*
X150727011Y-83058294D01*
X150675502Y-83069500D01*
X150602130Y-83069500D01*
X150602123Y-83069501D01*
X150542516Y-83075908D01*
X150407671Y-83126202D01*
X150407664Y-83126206D01*
X150292455Y-83212452D01*
X150255459Y-83261872D01*
X150199524Y-83303743D01*
X150129833Y-83308726D01*
X150068510Y-83275240D01*
X150048805Y-83249559D01*
X149980520Y-83131284D01*
X149480521Y-82631285D01*
X149480520Y-82631284D01*
X149368716Y-82519480D01*
X149281904Y-82469360D01*
X149281904Y-82469359D01*
X149281900Y-82469358D01*
X149231785Y-82440423D01*
X149079057Y-82399499D01*
X148920943Y-82399499D01*
X148913347Y-82399499D01*
X148913331Y-82399500D01*
X142086670Y-82399500D01*
X142086654Y-82399499D01*
X142079058Y-82399499D01*
X141920943Y-82399499D01*
X141844579Y-82419961D01*
X141768214Y-82440423D01*
X141768209Y-82440426D01*
X141631290Y-82519475D01*
X141631286Y-82519478D01*
X141485337Y-82665427D01*
X141424014Y-82698911D01*
X141421848Y-82699362D01*
X141266508Y-82730261D01*
X141266498Y-82730264D01*
X141120827Y-82790602D01*
X141120814Y-82790609D01*
X140989711Y-82878210D01*
X140989707Y-82878213D01*
X140878213Y-82989707D01*
X140878210Y-82989711D01*
X140790609Y-83120814D01*
X140790602Y-83120827D01*
X140730264Y-83266498D01*
X140730261Y-83266508D01*
X140699362Y-83421847D01*
X140690597Y-83438602D01*
X140686578Y-83457081D01*
X140667834Y-83482118D01*
X140666977Y-83483758D01*
X140665427Y-83485335D01*
X140624224Y-83526538D01*
X140624212Y-83526552D01*
X140519478Y-83631286D01*
X140469361Y-83718094D01*
X140469359Y-83718096D01*
X140440425Y-83768209D01*
X140440424Y-83768210D01*
X140440423Y-83768215D01*
X140399499Y-83920943D01*
X140399499Y-83920945D01*
X140399499Y-84089046D01*
X140399500Y-84089059D01*
X140399500Y-85134216D01*
X140379815Y-85201255D01*
X140363181Y-85221897D01*
X138206339Y-87378738D01*
X138145016Y-87412223D01*
X138075324Y-87407239D01*
X138019391Y-87365367D01*
X138015556Y-87359948D01*
X137927937Y-87228816D01*
X137836819Y-87137698D01*
X137803334Y-87076375D01*
X137800500Y-87050017D01*
X137800500Y-86921155D01*
X137800499Y-86921153D01*
X137769738Y-86766510D01*
X137769737Y-86766503D01*
X137737689Y-86689132D01*
X137709397Y-86620827D01*
X137709390Y-86620814D01*
X137621789Y-86489711D01*
X137621786Y-86489707D01*
X137510292Y-86378213D01*
X137510288Y-86378210D01*
X137379185Y-86290609D01*
X137379172Y-86290602D01*
X137233501Y-86230264D01*
X137233491Y-86230261D01*
X137078151Y-86199362D01*
X137016241Y-86166977D01*
X137014662Y-86165426D01*
X136487590Y-85638355D01*
X136487588Y-85638352D01*
X136368717Y-85519481D01*
X136368709Y-85519475D01*
X136280789Y-85468715D01*
X136280788Y-85468715D01*
X136252096Y-85452150D01*
X136231785Y-85440423D01*
X136079057Y-85399499D01*
X135920943Y-85399499D01*
X135913347Y-85399499D01*
X135913331Y-85399500D01*
X122920943Y-85399500D01*
X122768214Y-85440423D01*
X122719213Y-85468715D01*
X122719211Y-85468715D01*
X122631290Y-85519475D01*
X122631282Y-85519481D01*
X120519481Y-87631282D01*
X120519479Y-87631285D01*
X120481558Y-87696968D01*
X120481557Y-87696970D01*
X120440423Y-87768214D01*
X120440423Y-87768215D01*
X120399499Y-87920943D01*
X120399499Y-87920945D01*
X120399499Y-88089046D01*
X120399500Y-88089059D01*
X120399500Y-90088031D01*
X120379815Y-90155070D01*
X120327011Y-90200825D01*
X120257853Y-90210769D01*
X120194297Y-90181744D01*
X120168558Y-90149509D01*
X120168468Y-90149570D01*
X120167756Y-90148505D01*
X120166141Y-90146482D01*
X120165086Y-90144509D01*
X120165085Y-90144507D01*
X120165084Y-90144505D01*
X120129917Y-90091873D01*
X120129917Y-90091872D01*
X120082950Y-90021581D01*
X120082947Y-90021578D01*
X119746071Y-89684703D01*
X119719191Y-89644475D01*
X119709394Y-89620821D01*
X119699682Y-89606286D01*
X119621789Y-89489710D01*
X119510292Y-89378213D01*
X119510288Y-89378210D01*
X119379185Y-89290609D01*
X119379180Y-89290607D01*
X119379179Y-89290606D01*
X119355519Y-89280805D01*
X119315293Y-89253926D01*
X116786819Y-86725451D01*
X116753334Y-86664128D01*
X116750500Y-86637770D01*
X116750500Y-81874500D01*
X116770185Y-81807461D01*
X116822989Y-81761706D01*
X116874500Y-81750500D01*
X131695396Y-81750500D01*
X131742844Y-81759937D01*
X131766503Y-81769737D01*
X131766508Y-81769738D01*
X131766511Y-81769739D01*
X131921153Y-81800499D01*
X131921156Y-81800500D01*
X131921158Y-81800500D01*
X132078844Y-81800500D01*
X132078845Y-81800499D01*
X132233497Y-81769737D01*
X132312969Y-81736819D01*
X132377864Y-81709939D01*
X132425316Y-81700500D01*
X149658481Y-81700500D01*
X149725520Y-81720185D01*
G37*
%TD.AperFunction*%
%TA.AperFunction,Conductor*%
G36*
X135418413Y-87120185D02*
G01*
X135439054Y-87136818D01*
X136252656Y-87950420D01*
X136286140Y-88011742D01*
X136281156Y-88081434D01*
X136239284Y-88137367D01*
X136212427Y-88152661D01*
X136120824Y-88190604D01*
X136120814Y-88190609D01*
X135989711Y-88278210D01*
X135989707Y-88278213D01*
X135878213Y-88389707D01*
X135878210Y-88389711D01*
X135790609Y-88520814D01*
X135790602Y-88520827D01*
X135730264Y-88666498D01*
X135730261Y-88666510D01*
X135699500Y-88821153D01*
X135699500Y-88980191D01*
X135679815Y-89047230D01*
X135627011Y-89092985D01*
X135557853Y-89102929D01*
X135494297Y-89073904D01*
X135487819Y-89067872D01*
X135164673Y-88744726D01*
X135164669Y-88744723D01*
X135058127Y-88673535D01*
X135041167Y-88666510D01*
X134939744Y-88624499D01*
X134939741Y-88624498D01*
X134932932Y-88623144D01*
X134926122Y-88621789D01*
X134926120Y-88621788D01*
X134926120Y-88621789D01*
X134814071Y-88599500D01*
X134814069Y-88599500D01*
X127781649Y-88599500D01*
X127714610Y-88579815D01*
X127682383Y-88549812D01*
X127639446Y-88492457D01*
X127639444Y-88492454D01*
X127639440Y-88492451D01*
X127524233Y-88406206D01*
X127524226Y-88406202D01*
X127389380Y-88355908D01*
X127389381Y-88355908D01*
X127329781Y-88349501D01*
X127329779Y-88349500D01*
X127329771Y-88349500D01*
X127329762Y-88349500D01*
X125234027Y-88349500D01*
X125234021Y-88349501D01*
X125174414Y-88355908D01*
X125039569Y-88406202D01*
X125039562Y-88406206D01*
X125003530Y-88433180D01*
X124938066Y-88457597D01*
X124869793Y-88442745D01*
X124841539Y-88421594D01*
X124829671Y-88409726D01*
X124794260Y-88374314D01*
X124760776Y-88312993D01*
X124765760Y-88243301D01*
X124767385Y-88239174D01*
X124769736Y-88233499D01*
X124769735Y-88233499D01*
X124769737Y-88233497D01*
X124800500Y-88078842D01*
X124800500Y-87921158D01*
X124800500Y-87921155D01*
X124800499Y-87921153D01*
X124795789Y-87897473D01*
X124769737Y-87766503D01*
X124740935Y-87696968D01*
X124709397Y-87620827D01*
X124709390Y-87620814D01*
X124621789Y-87489711D01*
X124621786Y-87489707D01*
X124510292Y-87378213D01*
X124510288Y-87378210D01*
X124434548Y-87327602D01*
X124389743Y-87273990D01*
X124381036Y-87204665D01*
X124411190Y-87141637D01*
X124470634Y-87104918D01*
X124503439Y-87100500D01*
X135351374Y-87100500D01*
X135418413Y-87120185D01*
G37*
%TD.AperFunction*%
%TA.AperFunction,Conductor*%
G36*
X111433752Y-83017995D02*
G01*
X111489686Y-83059866D01*
X111514103Y-83125331D01*
X111504982Y-83181626D01*
X111493929Y-83208311D01*
X111485638Y-83250000D01*
X112288512Y-83250000D01*
X112271295Y-83259940D01*
X112215440Y-83315795D01*
X112175944Y-83384204D01*
X112155500Y-83460504D01*
X112155500Y-83539496D01*
X112175944Y-83615796D01*
X112215440Y-83684205D01*
X112271295Y-83740060D01*
X112288512Y-83750000D01*
X111485638Y-83750000D01*
X111493930Y-83791690D01*
X111493930Y-83791692D01*
X111569307Y-83973671D01*
X111569314Y-83973684D01*
X111678748Y-84137462D01*
X111678751Y-84137466D01*
X111818033Y-84276748D01*
X111818037Y-84276751D01*
X111981815Y-84386185D01*
X111981828Y-84386192D01*
X112169438Y-84463902D01*
X112168669Y-84465758D01*
X112219398Y-84498994D01*
X112247862Y-84562803D01*
X112237311Y-84631871D01*
X112212656Y-84667049D01*
X112177993Y-84701712D01*
X112177991Y-84701715D01*
X112129045Y-84786493D01*
X112112982Y-84846443D01*
X112105250Y-84875299D01*
X112103708Y-84881053D01*
X112103708Y-84958311D01*
X112103544Y-84961494D01*
X112093000Y-84991577D01*
X112084023Y-85022150D01*
X112081526Y-85024312D01*
X112080434Y-85027431D01*
X112055301Y-85047037D01*
X112031219Y-85067905D01*
X112027949Y-85068375D01*
X112025345Y-85070407D01*
X111993606Y-85073313D01*
X111962061Y-85077849D01*
X111959056Y-85076476D01*
X111955767Y-85076778D01*
X111927497Y-85062064D01*
X111898505Y-85048824D01*
X111894001Y-85044630D01*
X111893789Y-85044520D01*
X111893682Y-85044333D01*
X111892027Y-85042792D01*
X111136819Y-84287584D01*
X111103334Y-84226261D01*
X111100500Y-84199903D01*
X111100500Y-83300097D01*
X111120185Y-83233058D01*
X111136813Y-83212421D01*
X111302742Y-83046492D01*
X111364061Y-83013011D01*
X111433752Y-83017995D01*
G37*
%TD.AperFunction*%
%TA.AperFunction,Conductor*%
G36*
X153442539Y-75520185D02*
G01*
X153488294Y-75572989D01*
X153499500Y-75624500D01*
X153499500Y-106875500D01*
X153479815Y-106942539D01*
X153427011Y-106988294D01*
X153375500Y-106999500D01*
X106624500Y-106999500D01*
X106557461Y-106979815D01*
X106511706Y-106927011D01*
X106500500Y-106875500D01*
X106500500Y-104102135D01*
X106969500Y-104102135D01*
X106969500Y-105897870D01*
X106969501Y-105897876D01*
X106975908Y-105957483D01*
X107026202Y-106092328D01*
X107026206Y-106092335D01*
X107112452Y-106207544D01*
X107112455Y-106207547D01*
X107227664Y-106293793D01*
X107227671Y-106293797D01*
X107362517Y-106344091D01*
X107362516Y-106344091D01*
X107369444Y-106344835D01*
X107422127Y-106350500D01*
X109217872Y-106350499D01*
X109277483Y-106344091D01*
X109412331Y-106293796D01*
X109527546Y-106207546D01*
X109613796Y-106092331D01*
X109664091Y-105957483D01*
X109670500Y-105897873D01*
X109670499Y-105873979D01*
X109673330Y-105860963D01*
X109683940Y-105841525D01*
X109690179Y-105820275D01*
X109706803Y-105799643D01*
X109706808Y-105799636D01*
X109706811Y-105799634D01*
X109706818Y-105799626D01*
X110377037Y-105129408D01*
X110394075Y-105192993D01*
X110459901Y-105307007D01*
X110552993Y-105400099D01*
X110667007Y-105465925D01*
X110730590Y-105482962D01*
X110098282Y-106115269D01*
X110098282Y-106115270D01*
X110152449Y-106154624D01*
X110341782Y-106251095D01*
X110543870Y-106316757D01*
X110753754Y-106350000D01*
X110966246Y-106350000D01*
X111176127Y-106316757D01*
X111176130Y-106316757D01*
X111378217Y-106251095D01*
X111567554Y-106154622D01*
X111621716Y-106115270D01*
X111621717Y-106115270D01*
X110989408Y-105482962D01*
X111052993Y-105465925D01*
X111167007Y-105400099D01*
X111260099Y-105307007D01*
X111325925Y-105192993D01*
X111342962Y-105129408D01*
X111975270Y-105761717D01*
X111975270Y-105761716D01*
X112014622Y-105707554D01*
X112019514Y-105697954D01*
X112067488Y-105647157D01*
X112135308Y-105630361D01*
X112201444Y-105652897D01*
X112240486Y-105697954D01*
X112245375Y-105707550D01*
X112284728Y-105761716D01*
X112917037Y-105129408D01*
X112934075Y-105192993D01*
X112999901Y-105307007D01*
X113092993Y-105400099D01*
X113207007Y-105465925D01*
X113270590Y-105482962D01*
X112638282Y-106115269D01*
X112638282Y-106115270D01*
X112692449Y-106154624D01*
X112881782Y-106251095D01*
X113083870Y-106316757D01*
X113293754Y-106350000D01*
X113506246Y-106350000D01*
X113716127Y-106316757D01*
X113716130Y-106316757D01*
X113918217Y-106251095D01*
X114107554Y-106154622D01*
X114161716Y-106115270D01*
X114161717Y-106115270D01*
X113529408Y-105482962D01*
X113592993Y-105465925D01*
X113707007Y-105400099D01*
X113800099Y-105307007D01*
X113865925Y-105192993D01*
X113882962Y-105129408D01*
X114515270Y-105761717D01*
X114515270Y-105761716D01*
X114554622Y-105707555D01*
X114559232Y-105698507D01*
X114607205Y-105647709D01*
X114675025Y-105630912D01*
X114741161Y-105653447D01*
X114780204Y-105698504D01*
X114784949Y-105707817D01*
X114909890Y-105879786D01*
X115060213Y-106030109D01*
X115232179Y-106155048D01*
X115232181Y-106155049D01*
X115232184Y-106155051D01*
X115421588Y-106251557D01*
X115623757Y-106317246D01*
X115833713Y-106350500D01*
X115833714Y-106350500D01*
X116046286Y-106350500D01*
X116046287Y-106350500D01*
X116256243Y-106317246D01*
X116458412Y-106251557D01*
X116647816Y-106155051D01*
X116734138Y-106092335D01*
X116819786Y-106030109D01*
X116819788Y-106030106D01*
X116819792Y-106030104D01*
X116970104Y-105879792D01*
X116970106Y-105879788D01*
X116970109Y-105879786D01*
X117095048Y-105707820D01*
X117095047Y-105707820D01*
X117095051Y-105707816D01*
X117099514Y-105699054D01*
X117147488Y-105648259D01*
X117215308Y-105631463D01*
X117281444Y-105653999D01*
X117320486Y-105699056D01*
X117324951Y-105707820D01*
X117449890Y-105879786D01*
X117600213Y-106030109D01*
X117772179Y-106155048D01*
X117772181Y-106155049D01*
X117772184Y-106155051D01*
X117961588Y-106251557D01*
X118163757Y-106317246D01*
X118373713Y-106350500D01*
X118373714Y-106350500D01*
X118586286Y-106350500D01*
X118586287Y-106350500D01*
X118796243Y-106317246D01*
X118998412Y-106251557D01*
X119187816Y-106155051D01*
X119274138Y-106092335D01*
X119359786Y-106030109D01*
X119359788Y-106030106D01*
X119359792Y-106030104D01*
X119510104Y-105879792D01*
X119510106Y-105879788D01*
X119510109Y-105879786D01*
X119635048Y-105707820D01*
X119635047Y-105707820D01*
X119635051Y-105707816D01*
X119639514Y-105699054D01*
X119687488Y-105648259D01*
X119755308Y-105631463D01*
X119821444Y-105653999D01*
X119860486Y-105699056D01*
X119864951Y-105707820D01*
X119989890Y-105879786D01*
X120140213Y-106030109D01*
X120312179Y-106155048D01*
X120312181Y-106155049D01*
X120312184Y-106155051D01*
X120501588Y-106251557D01*
X120703757Y-106317246D01*
X120913713Y-106350500D01*
X120913714Y-106350500D01*
X121126286Y-106350500D01*
X121126287Y-106350500D01*
X121336243Y-106317246D01*
X121538412Y-106251557D01*
X121727816Y-106155051D01*
X121814138Y-106092335D01*
X121899786Y-106030109D01*
X121899788Y-106030106D01*
X121899792Y-106030104D01*
X122050104Y-105879792D01*
X122050106Y-105879788D01*
X122050109Y-105879786D01*
X122175048Y-105707820D01*
X122175047Y-105707820D01*
X122175051Y-105707816D01*
X122179514Y-105699054D01*
X122227488Y-105648259D01*
X122295308Y-105631463D01*
X122361444Y-105653999D01*
X122400486Y-105699056D01*
X122404951Y-105707820D01*
X122529890Y-105879786D01*
X122680213Y-106030109D01*
X122852179Y-106155048D01*
X122852181Y-106155049D01*
X122852184Y-106155051D01*
X123041588Y-106251557D01*
X123243757Y-106317246D01*
X123453713Y-106350500D01*
X123453714Y-106350500D01*
X123666286Y-106350500D01*
X123666287Y-106350500D01*
X123876243Y-106317246D01*
X124078412Y-106251557D01*
X124267816Y-106155051D01*
X124354138Y-106092335D01*
X124439786Y-106030109D01*
X124439788Y-106030106D01*
X124439792Y-106030104D01*
X124590104Y-105879792D01*
X124590106Y-105879788D01*
X124590109Y-105879786D01*
X124715048Y-105707820D01*
X124715047Y-105707820D01*
X124715051Y-105707816D01*
X124719514Y-105699054D01*
X124767488Y-105648259D01*
X124835308Y-105631463D01*
X124901444Y-105653999D01*
X124940486Y-105699056D01*
X124944951Y-105707820D01*
X125069890Y-105879786D01*
X125220213Y-106030109D01*
X125392179Y-106155048D01*
X125392181Y-106155049D01*
X125392184Y-106155051D01*
X125581588Y-106251557D01*
X125783757Y-106317246D01*
X125993713Y-106350500D01*
X125993714Y-106350500D01*
X126206286Y-106350500D01*
X126206287Y-106350500D01*
X126416243Y-106317246D01*
X126618412Y-106251557D01*
X126807816Y-106155051D01*
X126894138Y-106092335D01*
X126979786Y-106030109D01*
X126979788Y-106030106D01*
X126979792Y-106030104D01*
X127130104Y-105879792D01*
X127130106Y-105879788D01*
X127130109Y-105879786D01*
X127255048Y-105707820D01*
X127255047Y-105707820D01*
X127255051Y-105707816D01*
X127259514Y-105699054D01*
X127307488Y-105648259D01*
X127375308Y-105631463D01*
X127441444Y-105653999D01*
X127480486Y-105699056D01*
X127484951Y-105707820D01*
X127609890Y-105879786D01*
X127760213Y-106030109D01*
X127932179Y-106155048D01*
X127932181Y-106155049D01*
X127932184Y-106155051D01*
X128121588Y-106251557D01*
X128323757Y-106317246D01*
X128533713Y-106350500D01*
X128533714Y-106350500D01*
X128746286Y-106350500D01*
X128746287Y-106350500D01*
X128956243Y-106317246D01*
X129158412Y-106251557D01*
X129347816Y-106155051D01*
X129434138Y-106092335D01*
X129519786Y-106030109D01*
X129519788Y-106030106D01*
X129519792Y-106030104D01*
X129670104Y-105879792D01*
X129670106Y-105879788D01*
X129670109Y-105879786D01*
X129795048Y-105707820D01*
X129795047Y-105707820D01*
X129795051Y-105707816D01*
X129799514Y-105699054D01*
X129847488Y-105648259D01*
X129915308Y-105631463D01*
X129981444Y-105653999D01*
X130020486Y-105699056D01*
X130024951Y-105707820D01*
X130149890Y-105879786D01*
X130300213Y-106030109D01*
X130472179Y-106155048D01*
X130472181Y-106155049D01*
X130472184Y-106155051D01*
X130661588Y-106251557D01*
X130863757Y-106317246D01*
X131073713Y-106350500D01*
X131073714Y-106350500D01*
X131286286Y-106350500D01*
X131286287Y-106350500D01*
X131496243Y-106317246D01*
X131698412Y-106251557D01*
X131887816Y-106155051D01*
X131974138Y-106092335D01*
X132059786Y-106030109D01*
X132059788Y-106030106D01*
X132059792Y-106030104D01*
X132210104Y-105879792D01*
X132210106Y-105879788D01*
X132210109Y-105879786D01*
X132335048Y-105707820D01*
X132335047Y-105707820D01*
X132335051Y-105707816D01*
X132339514Y-105699054D01*
X132387488Y-105648259D01*
X132455308Y-105631463D01*
X132521444Y-105653999D01*
X132560486Y-105699056D01*
X132564951Y-105707820D01*
X132689890Y-105879786D01*
X132840213Y-106030109D01*
X133012179Y-106155048D01*
X133012181Y-106155049D01*
X133012184Y-106155051D01*
X133201588Y-106251557D01*
X133403757Y-106317246D01*
X133613713Y-106350500D01*
X133613714Y-106350500D01*
X133826286Y-106350500D01*
X133826287Y-106350500D01*
X134036243Y-106317246D01*
X134238412Y-106251557D01*
X134427816Y-106155051D01*
X134514138Y-106092335D01*
X134599786Y-106030109D01*
X134599788Y-106030106D01*
X134599792Y-106030104D01*
X134750104Y-105879792D01*
X134750106Y-105879788D01*
X134750109Y-105879786D01*
X134875048Y-105707820D01*
X134875047Y-105707820D01*
X134875051Y-105707816D01*
X134879514Y-105699054D01*
X134927488Y-105648259D01*
X134995308Y-105631463D01*
X135061444Y-105653999D01*
X135100486Y-105699056D01*
X135104951Y-105707820D01*
X135229890Y-105879786D01*
X135380213Y-106030109D01*
X135552179Y-106155048D01*
X135552181Y-106155049D01*
X135552184Y-106155051D01*
X135741588Y-106251557D01*
X135943757Y-106317246D01*
X136153713Y-106350500D01*
X136153714Y-106350500D01*
X136366286Y-106350500D01*
X136366287Y-106350500D01*
X136576243Y-106317246D01*
X136778412Y-106251557D01*
X136967816Y-106155051D01*
X137054138Y-106092335D01*
X137139786Y-106030109D01*
X137139788Y-106030106D01*
X137139792Y-106030104D01*
X137290104Y-105879792D01*
X137290106Y-105879788D01*
X137290109Y-105879786D01*
X137415048Y-105707820D01*
X137415047Y-105707820D01*
X137415051Y-105707816D01*
X137419514Y-105699054D01*
X137467488Y-105648259D01*
X137535308Y-105631463D01*
X137601444Y-105653999D01*
X137640486Y-105699056D01*
X137644951Y-105707820D01*
X137769890Y-105879786D01*
X137920213Y-106030109D01*
X138092179Y-106155048D01*
X138092181Y-106155049D01*
X138092184Y-106155051D01*
X138281588Y-106251557D01*
X138483757Y-106317246D01*
X138693713Y-106350500D01*
X138693714Y-106350500D01*
X138906286Y-106350500D01*
X138906287Y-106350500D01*
X139116243Y-106317246D01*
X139318412Y-106251557D01*
X139507816Y-106155051D01*
X139594138Y-106092335D01*
X139679786Y-106030109D01*
X139679788Y-106030106D01*
X139679792Y-106030104D01*
X139830104Y-105879792D01*
X139830106Y-105879788D01*
X139830109Y-105879786D01*
X139955048Y-105707820D01*
X139955047Y-105707820D01*
X139955051Y-105707816D01*
X139959514Y-105699054D01*
X140007488Y-105648259D01*
X140075308Y-105631463D01*
X140141444Y-105653999D01*
X140180486Y-105699056D01*
X140184951Y-105707820D01*
X140309890Y-105879786D01*
X140460213Y-106030109D01*
X140632179Y-106155048D01*
X140632181Y-106155049D01*
X140632184Y-106155051D01*
X140821588Y-106251557D01*
X141023757Y-106317246D01*
X141233713Y-106350500D01*
X141233714Y-106350500D01*
X141446286Y-106350500D01*
X141446287Y-106350500D01*
X141656243Y-106317246D01*
X141858412Y-106251557D01*
X142047816Y-106155051D01*
X142134138Y-106092335D01*
X142219786Y-106030109D01*
X142219788Y-106030106D01*
X142219792Y-106030104D01*
X142370104Y-105879792D01*
X142370106Y-105879788D01*
X142370109Y-105879786D01*
X142495048Y-105707820D01*
X142495047Y-105707820D01*
X142495051Y-105707816D01*
X142499514Y-105699054D01*
X142547488Y-105648259D01*
X142615308Y-105631463D01*
X142681444Y-105653999D01*
X142720486Y-105699056D01*
X142724951Y-105707820D01*
X142849890Y-105879786D01*
X143000213Y-106030109D01*
X143172179Y-106155048D01*
X143172181Y-106155049D01*
X143172184Y-106155051D01*
X143361588Y-106251557D01*
X143563757Y-106317246D01*
X143773713Y-106350500D01*
X143773714Y-106350500D01*
X143986286Y-106350500D01*
X143986287Y-106350500D01*
X144196243Y-106317246D01*
X144398412Y-106251557D01*
X144587816Y-106155051D01*
X144674138Y-106092335D01*
X144759786Y-106030109D01*
X144759788Y-106030106D01*
X144759792Y-106030104D01*
X144910104Y-105879792D01*
X144910106Y-105879788D01*
X144910109Y-105879786D01*
X145035048Y-105707820D01*
X145035047Y-105707820D01*
X145035051Y-105707816D01*
X145039514Y-105699054D01*
X145087488Y-105648259D01*
X145155308Y-105631463D01*
X145221444Y-105653999D01*
X145260486Y-105699056D01*
X145264951Y-105707820D01*
X145389890Y-105879786D01*
X145540213Y-106030109D01*
X145712179Y-106155048D01*
X145712181Y-106155049D01*
X145712184Y-106155051D01*
X145901588Y-106251557D01*
X146103757Y-106317246D01*
X146313713Y-106350500D01*
X146313714Y-106350500D01*
X146526286Y-106350500D01*
X146526287Y-106350500D01*
X146736243Y-106317246D01*
X146938412Y-106251557D01*
X147127816Y-106155051D01*
X147214138Y-106092335D01*
X147299786Y-106030109D01*
X147299788Y-106030106D01*
X147299792Y-106030104D01*
X147450104Y-105879792D01*
X147450106Y-105879788D01*
X147450109Y-105879786D01*
X147535890Y-105761717D01*
X147575051Y-105707816D01*
X147579793Y-105698508D01*
X147627763Y-105647711D01*
X147695583Y-105630911D01*
X147761719Y-105653445D01*
X147800763Y-105698500D01*
X147805373Y-105707547D01*
X147844728Y-105761716D01*
X148477037Y-105129408D01*
X148494075Y-105192993D01*
X148559901Y-105307007D01*
X148652993Y-105400099D01*
X148767007Y-105465925D01*
X148830590Y-105482962D01*
X148198282Y-106115269D01*
X148198282Y-106115270D01*
X148252449Y-106154624D01*
X148441782Y-106251095D01*
X148643870Y-106316757D01*
X148853754Y-106350000D01*
X149066246Y-106350000D01*
X149276127Y-106316757D01*
X149276130Y-106316757D01*
X149478217Y-106251095D01*
X149667554Y-106154622D01*
X149721716Y-106115270D01*
X149721717Y-106115270D01*
X149089408Y-105482962D01*
X149152993Y-105465925D01*
X149267007Y-105400099D01*
X149360099Y-105307007D01*
X149425925Y-105192993D01*
X149442962Y-105129408D01*
X150075270Y-105761717D01*
X150075270Y-105761716D01*
X150114622Y-105707554D01*
X150119514Y-105697954D01*
X150167488Y-105647157D01*
X150235308Y-105630361D01*
X150301444Y-105652897D01*
X150340486Y-105697954D01*
X150345375Y-105707550D01*
X150384728Y-105761716D01*
X151017037Y-105129408D01*
X151034075Y-105192993D01*
X151099901Y-105307007D01*
X151192993Y-105400099D01*
X151307007Y-105465925D01*
X151370590Y-105482962D01*
X150738282Y-106115269D01*
X150738282Y-106115270D01*
X150792449Y-106154624D01*
X150981782Y-106251095D01*
X151183870Y-106316757D01*
X151393754Y-106350000D01*
X151606246Y-106350000D01*
X151816127Y-106316757D01*
X151816130Y-106316757D01*
X152018217Y-106251095D01*
X152207554Y-106154622D01*
X152261716Y-106115270D01*
X152261717Y-106115270D01*
X151629408Y-105482962D01*
X151692993Y-105465925D01*
X151807007Y-105400099D01*
X151900099Y-105307007D01*
X151965925Y-105192993D01*
X151982962Y-105129409D01*
X152615270Y-105761717D01*
X152615270Y-105761716D01*
X152654622Y-105707554D01*
X152751095Y-105518217D01*
X152816757Y-105316130D01*
X152816757Y-105316127D01*
X152850000Y-105106246D01*
X152850000Y-104893753D01*
X152816757Y-104683872D01*
X152816757Y-104683869D01*
X152751095Y-104481782D01*
X152654624Y-104292449D01*
X152615270Y-104238282D01*
X152615269Y-104238282D01*
X151982962Y-104870590D01*
X151965925Y-104807007D01*
X151900099Y-104692993D01*
X151807007Y-104599901D01*
X151692993Y-104534075D01*
X151629409Y-104517037D01*
X152261716Y-103884728D01*
X152207550Y-103845375D01*
X152018217Y-103748904D01*
X151816129Y-103683242D01*
X151606246Y-103650000D01*
X151393754Y-103650000D01*
X151183872Y-103683242D01*
X151183869Y-103683242D01*
X150981782Y-103748904D01*
X150792439Y-103845380D01*
X150738282Y-103884727D01*
X150738282Y-103884728D01*
X151370591Y-104517037D01*
X151307007Y-104534075D01*
X151192993Y-104599901D01*
X151099901Y-104692993D01*
X151034075Y-104807007D01*
X151017037Y-104870591D01*
X150384728Y-104238282D01*
X150384727Y-104238282D01*
X150345380Y-104292440D01*
X150340483Y-104302051D01*
X150292506Y-104352845D01*
X150224684Y-104369638D01*
X150158550Y-104347098D01*
X150119516Y-104302048D01*
X150114626Y-104292452D01*
X150075270Y-104238282D01*
X150075269Y-104238282D01*
X149442962Y-104870590D01*
X149425925Y-104807007D01*
X149360099Y-104692993D01*
X149267007Y-104599901D01*
X149152993Y-104534075D01*
X149089409Y-104517037D01*
X149721716Y-103884728D01*
X149667550Y-103845375D01*
X149478217Y-103748904D01*
X149276129Y-103683242D01*
X149066246Y-103650000D01*
X148853754Y-103650000D01*
X148643872Y-103683242D01*
X148643869Y-103683242D01*
X148441782Y-103748904D01*
X148252439Y-103845380D01*
X148198282Y-103884727D01*
X148198282Y-103884728D01*
X148830591Y-104517037D01*
X148767007Y-104534075D01*
X148652993Y-104599901D01*
X148559901Y-104692993D01*
X148494075Y-104807007D01*
X148477037Y-104870591D01*
X147844728Y-104238282D01*
X147844727Y-104238282D01*
X147805380Y-104292440D01*
X147805376Y-104292446D01*
X147800760Y-104301505D01*
X147752781Y-104352297D01*
X147684959Y-104369087D01*
X147618826Y-104346543D01*
X147579794Y-104301493D01*
X147575051Y-104292184D01*
X147575049Y-104292181D01*
X147575048Y-104292179D01*
X147450109Y-104120213D01*
X147299786Y-103969890D01*
X147127820Y-103844951D01*
X146938414Y-103748444D01*
X146938413Y-103748443D01*
X146938412Y-103748443D01*
X146736243Y-103682754D01*
X146736241Y-103682753D01*
X146736240Y-103682753D01*
X146574957Y-103657208D01*
X146526287Y-103649500D01*
X146313713Y-103649500D01*
X146265042Y-103657208D01*
X146103760Y-103682753D01*
X145901585Y-103748444D01*
X145712179Y-103844951D01*
X145540213Y-103969890D01*
X145389890Y-104120213D01*
X145264949Y-104292182D01*
X145260484Y-104300946D01*
X145212509Y-104351742D01*
X145144688Y-104368536D01*
X145078553Y-104345998D01*
X145039516Y-104300946D01*
X145035050Y-104292182D01*
X144910109Y-104120213D01*
X144759786Y-103969890D01*
X144587820Y-103844951D01*
X144398414Y-103748444D01*
X144398413Y-103748443D01*
X144398412Y-103748443D01*
X144196243Y-103682754D01*
X144196241Y-103682753D01*
X144196240Y-103682753D01*
X144034957Y-103657208D01*
X143986287Y-103649500D01*
X143773713Y-103649500D01*
X143745006Y-103654046D01*
X143563757Y-103682753D01*
X143521473Y-103696492D01*
X143451632Y-103698486D01*
X143395476Y-103666241D01*
X139136819Y-99407584D01*
X139103334Y-99346261D01*
X139100500Y-99319903D01*
X139100500Y-97579765D01*
X139120185Y-97512726D01*
X139121398Y-97510874D01*
X139209390Y-97379185D01*
X139209390Y-97379184D01*
X139209394Y-97379179D01*
X139269737Y-97233497D01*
X139300500Y-97078842D01*
X139300500Y-96921158D01*
X139300500Y-96921155D01*
X139300499Y-96921153D01*
X139269738Y-96766510D01*
X139269737Y-96766503D01*
X139237721Y-96689208D01*
X139209397Y-96620827D01*
X139209390Y-96620814D01*
X139121789Y-96489711D01*
X139121786Y-96489707D01*
X139010292Y-96378213D01*
X139010288Y-96378210D01*
X138879185Y-96290609D01*
X138879172Y-96290602D01*
X138733501Y-96230264D01*
X138733489Y-96230261D01*
X138578845Y-96199500D01*
X138578842Y-96199500D01*
X138421158Y-96199500D01*
X138421155Y-96199500D01*
X138266510Y-96230261D01*
X138266498Y-96230264D01*
X138120827Y-96290602D01*
X138120814Y-96290609D01*
X138068891Y-96325304D01*
X138002214Y-96346182D01*
X137934833Y-96327698D01*
X137931109Y-96325304D01*
X137879185Y-96290609D01*
X137879172Y-96290602D01*
X137733501Y-96230264D01*
X137733489Y-96230261D01*
X137578845Y-96199500D01*
X137578842Y-96199500D01*
X137421158Y-96199500D01*
X137421155Y-96199500D01*
X137266510Y-96230261D01*
X137266498Y-96230264D01*
X137120827Y-96290602D01*
X137120814Y-96290609D01*
X136989711Y-96378210D01*
X136989707Y-96378213D01*
X136878213Y-96489707D01*
X136878210Y-96489711D01*
X136790609Y-96620814D01*
X136790602Y-96620827D01*
X136730264Y-96766498D01*
X136730261Y-96766510D01*
X136699500Y-96921153D01*
X136699500Y-97078846D01*
X136730261Y-97233489D01*
X136730264Y-97233501D01*
X136790602Y-97379172D01*
X136790609Y-97379185D01*
X136878602Y-97510874D01*
X136899480Y-97577551D01*
X136899500Y-97579765D01*
X136899500Y-99413330D01*
X136899499Y-99413348D01*
X136899499Y-99579054D01*
X136899498Y-99579054D01*
X136940424Y-99731789D01*
X136940425Y-99731790D01*
X136961455Y-99768214D01*
X136961456Y-99768216D01*
X137019475Y-99868709D01*
X137019481Y-99868717D01*
X137138349Y-99987585D01*
X137138355Y-99987590D01*
X140703181Y-103552416D01*
X140717884Y-103579343D01*
X140734477Y-103605162D01*
X140735368Y-103611362D01*
X140736666Y-103613739D01*
X140739500Y-103640097D01*
X140739500Y-103714281D01*
X140719815Y-103781320D01*
X140671795Y-103824765D01*
X140632185Y-103844947D01*
X140632184Y-103844948D01*
X140460213Y-103969890D01*
X140309890Y-104120213D01*
X140184949Y-104292182D01*
X140180484Y-104300946D01*
X140132509Y-104351742D01*
X140064688Y-104368536D01*
X139998553Y-104345998D01*
X139959516Y-104300946D01*
X139955050Y-104292182D01*
X139830109Y-104120213D01*
X139679786Y-103969890D01*
X139507820Y-103844951D01*
X139318414Y-103748444D01*
X139318413Y-103748443D01*
X139318412Y-103748443D01*
X139116243Y-103682754D01*
X139116241Y-103682753D01*
X139116240Y-103682753D01*
X138954957Y-103657208D01*
X138906287Y-103649500D01*
X138693713Y-103649500D01*
X138693706Y-103649500D01*
X138587796Y-103666274D01*
X138518503Y-103657319D01*
X138480718Y-103631482D01*
X137487590Y-102638355D01*
X137487588Y-102638352D01*
X137368717Y-102519481D01*
X137368709Y-102519475D01*
X137264795Y-102459481D01*
X137264794Y-102459480D01*
X137264794Y-102459481D01*
X137231785Y-102440423D01*
X137079057Y-102399499D01*
X136920943Y-102399499D01*
X136913347Y-102399499D01*
X136913331Y-102399500D01*
X134300098Y-102399500D01*
X134233059Y-102379815D01*
X134212417Y-102363181D01*
X131636819Y-99787583D01*
X131603334Y-99726260D01*
X131600500Y-99699902D01*
X131600500Y-98800098D01*
X131609144Y-98770660D01*
X131615668Y-98740670D01*
X131619423Y-98735653D01*
X131620185Y-98733059D01*
X131636819Y-98712416D01*
X131712418Y-98636818D01*
X131773742Y-98603334D01*
X131800099Y-98600500D01*
X134056430Y-98600500D01*
X134056446Y-98600501D01*
X134064042Y-98600501D01*
X134222153Y-98600501D01*
X134222156Y-98600501D01*
X134374884Y-98559577D01*
X134432235Y-98526465D01*
X134511815Y-98480520D01*
X134623619Y-98368716D01*
X134623620Y-98368713D01*
X134632715Y-98359618D01*
X134651206Y-98349520D01*
X134666880Y-98335442D01*
X134681256Y-98333112D01*
X134694038Y-98326133D01*
X134715052Y-98327635D01*
X134735849Y-98324266D01*
X134749201Y-98330078D01*
X134763730Y-98331117D01*
X134780597Y-98343743D01*
X134799913Y-98352151D01*
X134816510Y-98370627D01*
X134819664Y-98372988D01*
X134823499Y-98378407D01*
X134878211Y-98460289D01*
X134878213Y-98460291D01*
X134878602Y-98460873D01*
X134899480Y-98527551D01*
X134899500Y-98529765D01*
X134899500Y-98920234D01*
X134879815Y-98987273D01*
X134878602Y-98989125D01*
X134790609Y-99120814D01*
X134790602Y-99120827D01*
X134730264Y-99266498D01*
X134730261Y-99266510D01*
X134699500Y-99421153D01*
X134699500Y-99578846D01*
X134730261Y-99733489D01*
X134730264Y-99733501D01*
X134790602Y-99879172D01*
X134790609Y-99879185D01*
X134878210Y-100010288D01*
X134878213Y-100010292D01*
X134989707Y-100121786D01*
X134989711Y-100121789D01*
X135120814Y-100209390D01*
X135120827Y-100209397D01*
X135266498Y-100269735D01*
X135266503Y-100269737D01*
X135421153Y-100300499D01*
X135421156Y-100300500D01*
X135421158Y-100300500D01*
X135578844Y-100300500D01*
X135578845Y-100300499D01*
X135733497Y-100269737D01*
X135879179Y-100209394D01*
X136010289Y-100121789D01*
X136121789Y-100010289D01*
X136209394Y-99879179D01*
X136213728Y-99868717D01*
X136256172Y-99766246D01*
X136269737Y-99733497D01*
X136300500Y-99578842D01*
X136300500Y-99421158D01*
X136300500Y-99421155D01*
X136300499Y-99421153D01*
X136297800Y-99407584D01*
X136269737Y-99266503D01*
X136239737Y-99194075D01*
X136209397Y-99120827D01*
X136209390Y-99120814D01*
X136121398Y-98989125D01*
X136100520Y-98922447D01*
X136100500Y-98920234D01*
X136100500Y-98529765D01*
X136120185Y-98462726D01*
X136121398Y-98460874D01*
X136165022Y-98395587D01*
X136209394Y-98329179D01*
X136269737Y-98183497D01*
X136300500Y-98028842D01*
X136300500Y-97871158D01*
X136300500Y-97871155D01*
X136300499Y-97871153D01*
X136269738Y-97716510D01*
X136269737Y-97716503D01*
X136212182Y-97577551D01*
X136209397Y-97570827D01*
X136209390Y-97570814D01*
X136121789Y-97439711D01*
X136121786Y-97439707D01*
X136010292Y-97328213D01*
X136010288Y-97328210D01*
X135938487Y-97280234D01*
X135893682Y-97226622D01*
X135884975Y-97157297D01*
X135885761Y-97152940D01*
X135900500Y-97078844D01*
X135900500Y-96921155D01*
X135900499Y-96921153D01*
X135869738Y-96766510D01*
X135869737Y-96766503D01*
X135837721Y-96689208D01*
X135809397Y-96620827D01*
X135809389Y-96620813D01*
X135799696Y-96606306D01*
X135778817Y-96539629D01*
X135797301Y-96472249D01*
X135799674Y-96468555D01*
X135859394Y-96379179D01*
X135919737Y-96233497D01*
X135950500Y-96078842D01*
X135950500Y-95921158D01*
X135950500Y-95921155D01*
X135950499Y-95921153D01*
X135923286Y-95784346D01*
X135919737Y-95766503D01*
X135906708Y-95735048D01*
X135859397Y-95620827D01*
X135859390Y-95620814D01*
X135771789Y-95489711D01*
X135771786Y-95489707D01*
X135660292Y-95378213D01*
X135660288Y-95378210D01*
X135529185Y-95290609D01*
X135529172Y-95290602D01*
X135383501Y-95230264D01*
X135383489Y-95230261D01*
X135228845Y-95199500D01*
X135228842Y-95199500D01*
X135071158Y-95199500D01*
X135071155Y-95199500D01*
X134916510Y-95230261D01*
X134916498Y-95230264D01*
X134770827Y-95290602D01*
X134770814Y-95290609D01*
X134643891Y-95375417D01*
X134577213Y-95396295D01*
X134509833Y-95377810D01*
X134506109Y-95375417D01*
X134379185Y-95290609D01*
X134379172Y-95290602D01*
X134233501Y-95230264D01*
X134233489Y-95230261D01*
X134078845Y-95199500D01*
X134078842Y-95199500D01*
X133921158Y-95199500D01*
X133921155Y-95199500D01*
X133766510Y-95230261D01*
X133766498Y-95230264D01*
X133620827Y-95290602D01*
X133620814Y-95290609D01*
X133568891Y-95325304D01*
X133502214Y-95346182D01*
X133434833Y-95327698D01*
X133431109Y-95325304D01*
X133379185Y-95290609D01*
X133379172Y-95290602D01*
X133233501Y-95230264D01*
X133233489Y-95230261D01*
X133078845Y-95199500D01*
X133078842Y-95199500D01*
X132921158Y-95199500D01*
X132921153Y-95199500D01*
X132855431Y-95212573D01*
X132785839Y-95206346D01*
X132730662Y-95163482D01*
X132716679Y-95138409D01*
X132709392Y-95120817D01*
X132621789Y-94989711D01*
X132621786Y-94989707D01*
X132510292Y-94878213D01*
X132510288Y-94878210D01*
X132379185Y-94790609D01*
X132379179Y-94790606D01*
X132361589Y-94783320D01*
X132307186Y-94739478D01*
X132285122Y-94673184D01*
X132287425Y-94644571D01*
X132300500Y-94578842D01*
X132300500Y-94421158D01*
X132300500Y-94421155D01*
X132300499Y-94421153D01*
X132269738Y-94266510D01*
X132269737Y-94266503D01*
X132236339Y-94185872D01*
X132209397Y-94120827D01*
X132209390Y-94120814D01*
X132121789Y-93989711D01*
X132121786Y-93989707D01*
X132010292Y-93878213D01*
X132010288Y-93878210D01*
X131879185Y-93790609D01*
X131879172Y-93790602D01*
X131733501Y-93730264D01*
X131733489Y-93730261D01*
X131578845Y-93699500D01*
X131578842Y-93699500D01*
X131421158Y-93699500D01*
X131421155Y-93699500D01*
X131266510Y-93730261D01*
X131266498Y-93730264D01*
X131120827Y-93790602D01*
X131120814Y-93790609D01*
X130989125Y-93878602D01*
X130922447Y-93899480D01*
X130920234Y-93899500D01*
X130079057Y-93899500D01*
X129920943Y-93899500D01*
X129768215Y-93940423D01*
X129768214Y-93940423D01*
X129768212Y-93940424D01*
X129768209Y-93940425D01*
X129718096Y-93969359D01*
X129718095Y-93969360D01*
X129703359Y-93977868D01*
X129631285Y-94019479D01*
X129631282Y-94019481D01*
X127519481Y-96131282D01*
X127519477Y-96131287D01*
X127479196Y-96201058D01*
X127479196Y-96201059D01*
X127440423Y-96268214D01*
X127440423Y-96268215D01*
X127399499Y-96420943D01*
X127399499Y-96420945D01*
X127399499Y-96589046D01*
X127399500Y-96589059D01*
X127399500Y-100699902D01*
X127379815Y-100766941D01*
X127363181Y-100787583D01*
X125619481Y-102531282D01*
X125619479Y-102531285D01*
X125569361Y-102618094D01*
X125569359Y-102618096D01*
X125540425Y-102668209D01*
X125540424Y-102668210D01*
X125528579Y-102712416D01*
X125499499Y-102820943D01*
X125499499Y-102820945D01*
X125499499Y-102989046D01*
X125499500Y-102989059D01*
X125499500Y-103714281D01*
X125479815Y-103781320D01*
X125431795Y-103824765D01*
X125392185Y-103844947D01*
X125392184Y-103844948D01*
X125220213Y-103969890D01*
X125069890Y-104120213D01*
X124944949Y-104292182D01*
X124940484Y-104300946D01*
X124892509Y-104351742D01*
X124824688Y-104368536D01*
X124758553Y-104345998D01*
X124719516Y-104300946D01*
X124715050Y-104292182D01*
X124590109Y-104120213D01*
X124439786Y-103969890D01*
X124267820Y-103844951D01*
X124078414Y-103748444D01*
X124078413Y-103748443D01*
X124078412Y-103748443D01*
X123876243Y-103682754D01*
X123876241Y-103682753D01*
X123876240Y-103682753D01*
X123714957Y-103657208D01*
X123666287Y-103649500D01*
X123453713Y-103649500D01*
X123425006Y-103654046D01*
X123243757Y-103682753D01*
X123201473Y-103696492D01*
X123131632Y-103698486D01*
X123075476Y-103666241D01*
X122136819Y-102727584D01*
X122103334Y-102666261D01*
X122100500Y-102639903D01*
X122100500Y-91197844D01*
X124781898Y-91197844D01*
X124788299Y-91257372D01*
X124788301Y-91257379D01*
X124838543Y-91392086D01*
X124838547Y-91392093D01*
X124924707Y-91507187D01*
X124924710Y-91507190D01*
X125039804Y-91593350D01*
X125039811Y-91593354D01*
X125174518Y-91643596D01*
X125174525Y-91643598D01*
X125234053Y-91649999D01*
X125234070Y-91650000D01*
X126031898Y-91650000D01*
X126531898Y-91650000D01*
X127329726Y-91650000D01*
X127329742Y-91649999D01*
X127389270Y-91643598D01*
X127389277Y-91643596D01*
X127523984Y-91593354D01*
X127523991Y-91593350D01*
X127639085Y-91507190D01*
X127639088Y-91507187D01*
X127725248Y-91392093D01*
X127725252Y-91392086D01*
X127775494Y-91257379D01*
X127775496Y-91257372D01*
X127781897Y-91197844D01*
X127781898Y-91197827D01*
X127781898Y-91000000D01*
X126531898Y-91000000D01*
X126531898Y-91650000D01*
X126031898Y-91650000D01*
X126031898Y-91000000D01*
X124781898Y-91000000D01*
X124781898Y-91197844D01*
X122100500Y-91197844D01*
X122100500Y-88503439D01*
X122120185Y-88436400D01*
X122172989Y-88390645D01*
X122242147Y-88380701D01*
X122305703Y-88409726D01*
X122327602Y-88434548D01*
X122378210Y-88510288D01*
X122378213Y-88510292D01*
X122489707Y-88621786D01*
X122489711Y-88621789D01*
X122620814Y-88709390D01*
X122620827Y-88709397D01*
X122766498Y-88769735D01*
X122766503Y-88769737D01*
X122879326Y-88792179D01*
X122921153Y-88800499D01*
X122921156Y-88800500D01*
X122921158Y-88800500D01*
X123078844Y-88800500D01*
X123078845Y-88800499D01*
X123233497Y-88769737D01*
X123268455Y-88755256D01*
X123337923Y-88747788D01*
X123400403Y-88779063D01*
X123419309Y-88803624D01*
X123420151Y-88803062D01*
X123423534Y-88808125D01*
X123423535Y-88808127D01*
X123444447Y-88839425D01*
X123494726Y-88914673D01*
X123494727Y-88914674D01*
X124244724Y-89664669D01*
X124293951Y-89713896D01*
X124335332Y-89755277D01*
X124441866Y-89826461D01*
X124441872Y-89826464D01*
X124441873Y-89826465D01*
X124560256Y-89875501D01*
X124560260Y-89875501D01*
X124560261Y-89875502D01*
X124685928Y-89900500D01*
X124685931Y-89900500D01*
X124746090Y-89900500D01*
X124813129Y-89920185D01*
X124858884Y-89972989D01*
X124868828Y-90042147D01*
X124845358Y-90098810D01*
X124838544Y-90107911D01*
X124838543Y-90107913D01*
X124788301Y-90242620D01*
X124788299Y-90242627D01*
X124781898Y-90302155D01*
X124781898Y-90500000D01*
X127781898Y-90500000D01*
X127781898Y-90302172D01*
X127781897Y-90302155D01*
X127775496Y-90242627D01*
X127775494Y-90242620D01*
X127725252Y-90107913D01*
X127725251Y-90107911D01*
X127718438Y-90098810D01*
X127694022Y-90033345D01*
X127708874Y-89965072D01*
X127758280Y-89915667D01*
X127817706Y-89900500D01*
X134429192Y-89900500D01*
X134496231Y-89920185D01*
X134516873Y-89936819D01*
X135485325Y-90905272D01*
X135485332Y-90905278D01*
X135556114Y-90952572D01*
X135591874Y-90976466D01*
X135661221Y-91005189D01*
X135710256Y-91025501D01*
X135710259Y-91025501D01*
X135710260Y-91025502D01*
X135835928Y-91050500D01*
X135835931Y-91050500D01*
X135964069Y-91050500D01*
X138447818Y-91050500D01*
X138514857Y-91070185D01*
X138535499Y-91086819D01*
X139802186Y-92353506D01*
X139835671Y-92414829D01*
X139830687Y-92484521D01*
X139788815Y-92540454D01*
X139723351Y-92564871D01*
X139714505Y-92565187D01*
X136465784Y-92565187D01*
X136398745Y-92545502D01*
X136378103Y-92528868D01*
X134834574Y-90985339D01*
X134801089Y-90924016D01*
X134800638Y-90921849D01*
X134770684Y-90771265D01*
X134769737Y-90766503D01*
X134752513Y-90724920D01*
X134709397Y-90620827D01*
X134709390Y-90620814D01*
X134621789Y-90489711D01*
X134621786Y-90489707D01*
X134510292Y-90378213D01*
X134510288Y-90378210D01*
X134379185Y-90290609D01*
X134379172Y-90290602D01*
X134233501Y-90230264D01*
X134233489Y-90230261D01*
X134078845Y-90199500D01*
X134078842Y-90199500D01*
X133921158Y-90199500D01*
X133921155Y-90199500D01*
X133766510Y-90230261D01*
X133766498Y-90230264D01*
X133620827Y-90290602D01*
X133620814Y-90290609D01*
X133489711Y-90378210D01*
X133489707Y-90378213D01*
X133378213Y-90489707D01*
X133378210Y-90489711D01*
X133290609Y-90620814D01*
X133290602Y-90620827D01*
X133230264Y-90766498D01*
X133230261Y-90766510D01*
X133199500Y-90921153D01*
X133199500Y-91078846D01*
X133230261Y-91233489D01*
X133230264Y-91233501D01*
X133290602Y-91379172D01*
X133290609Y-91379185D01*
X133325304Y-91431109D01*
X133346182Y-91497786D01*
X133327698Y-91565167D01*
X133325304Y-91568891D01*
X133290609Y-91620814D01*
X133290602Y-91620827D01*
X133230264Y-91766498D01*
X133230261Y-91766510D01*
X133199500Y-91921153D01*
X133199500Y-92078846D01*
X133230261Y-92233489D01*
X133230264Y-92233501D01*
X133290602Y-92379172D01*
X133290609Y-92379185D01*
X133378210Y-92510288D01*
X133378213Y-92510292D01*
X133489707Y-92621786D01*
X133489711Y-92621789D01*
X133620814Y-92709390D01*
X133620827Y-92709397D01*
X133713590Y-92747820D01*
X133766503Y-92769737D01*
X133831147Y-92782595D01*
X133921849Y-92800638D01*
X133983760Y-92833023D01*
X133985337Y-92834572D01*
X135196971Y-94046207D01*
X135333902Y-94125264D01*
X135486630Y-94166188D01*
X135486633Y-94166188D01*
X135652341Y-94166188D01*
X135652357Y-94166187D01*
X147645590Y-94166187D01*
X147712629Y-94185872D01*
X147733271Y-94202506D01*
X150166241Y-96635476D01*
X150199726Y-96696799D01*
X150196492Y-96761473D01*
X150182753Y-96803757D01*
X150164159Y-96921158D01*
X150149500Y-97013713D01*
X150149500Y-97226287D01*
X150182754Y-97436243D01*
X150229387Y-97579765D01*
X150248444Y-97638414D01*
X150344951Y-97827820D01*
X150469890Y-97999786D01*
X150620213Y-98150109D01*
X150792179Y-98275048D01*
X150792181Y-98275049D01*
X150792184Y-98275051D01*
X150801493Y-98279794D01*
X150852290Y-98327766D01*
X150869087Y-98395587D01*
X150846552Y-98461722D01*
X150801505Y-98500760D01*
X150792446Y-98505376D01*
X150792440Y-98505380D01*
X150738282Y-98544727D01*
X150738282Y-98544728D01*
X151370591Y-99177037D01*
X151307007Y-99194075D01*
X151192993Y-99259901D01*
X151099901Y-99352993D01*
X151034075Y-99467007D01*
X151017037Y-99530591D01*
X150384728Y-98898282D01*
X150384727Y-98898282D01*
X150345380Y-98952439D01*
X150248904Y-99141782D01*
X150183242Y-99343869D01*
X150183242Y-99343872D01*
X150150000Y-99553753D01*
X150150000Y-99766246D01*
X150183242Y-99976127D01*
X150183242Y-99976130D01*
X150248904Y-100178217D01*
X150345375Y-100367550D01*
X150384728Y-100421716D01*
X151017037Y-99789408D01*
X151034075Y-99852993D01*
X151099901Y-99967007D01*
X151192993Y-100060099D01*
X151307007Y-100125925D01*
X151370590Y-100142962D01*
X150738282Y-100775269D01*
X150738282Y-100775270D01*
X150792449Y-100814624D01*
X150981782Y-100911095D01*
X151183870Y-100976757D01*
X151393754Y-101010000D01*
X151606246Y-101010000D01*
X151816127Y-100976757D01*
X151816130Y-100976757D01*
X152018217Y-100911095D01*
X152207554Y-100814622D01*
X152261716Y-100775270D01*
X152261717Y-100775270D01*
X151629408Y-100142962D01*
X151692993Y-100125925D01*
X151807007Y-100060099D01*
X151900099Y-99967007D01*
X151965925Y-99852993D01*
X151982962Y-99789409D01*
X152615270Y-100421717D01*
X152615270Y-100421716D01*
X152654622Y-100367554D01*
X152751095Y-100178217D01*
X152816757Y-99976130D01*
X152816757Y-99976127D01*
X152850000Y-99766246D01*
X152850000Y-99553753D01*
X152816757Y-99343872D01*
X152816757Y-99343869D01*
X152751095Y-99141782D01*
X152654624Y-98952449D01*
X152615270Y-98898282D01*
X152615269Y-98898282D01*
X151982962Y-99530590D01*
X151965925Y-99467007D01*
X151900099Y-99352993D01*
X151807007Y-99259901D01*
X151692993Y-99194075D01*
X151629409Y-99177037D01*
X152261716Y-98544728D01*
X152207547Y-98505373D01*
X152207547Y-98505372D01*
X152198500Y-98500763D01*
X152147706Y-98452788D01*
X152130912Y-98384966D01*
X152153451Y-98318832D01*
X152198508Y-98279793D01*
X152207816Y-98275051D01*
X152333825Y-98183501D01*
X152379786Y-98150109D01*
X152379788Y-98150106D01*
X152379792Y-98150104D01*
X152530104Y-97999792D01*
X152530106Y-97999788D01*
X152530109Y-97999786D01*
X152655048Y-97827820D01*
X152655047Y-97827820D01*
X152655051Y-97827816D01*
X152751557Y-97638412D01*
X152817246Y-97436243D01*
X152850500Y-97226287D01*
X152850500Y-97013713D01*
X152817246Y-96803757D01*
X152751557Y-96601588D01*
X152655051Y-96412184D01*
X152655049Y-96412181D01*
X152655048Y-96412179D01*
X152530109Y-96240213D01*
X152379786Y-96089890D01*
X152207820Y-95964951D01*
X152207115Y-95964591D01*
X152199054Y-95960485D01*
X152148259Y-95912512D01*
X152131463Y-95844692D01*
X152153999Y-95778556D01*
X152199054Y-95739515D01*
X152207816Y-95735051D01*
X152258335Y-95698347D01*
X152379786Y-95610109D01*
X152379788Y-95610106D01*
X152379792Y-95610104D01*
X152530104Y-95459792D01*
X152530106Y-95459788D01*
X152530109Y-95459786D01*
X152655048Y-95287820D01*
X152655047Y-95287820D01*
X152655051Y-95287816D01*
X152751557Y-95098412D01*
X152817246Y-94896243D01*
X152850500Y-94686287D01*
X152850500Y-94473713D01*
X152817246Y-94263757D01*
X152751557Y-94061588D01*
X152655051Y-93872184D01*
X152655049Y-93872181D01*
X152655048Y-93872179D01*
X152530109Y-93700213D01*
X152379786Y-93549890D01*
X152207820Y-93424951D01*
X152207115Y-93424591D01*
X152199054Y-93420485D01*
X152148259Y-93372512D01*
X152131463Y-93304692D01*
X152153999Y-93238556D01*
X152199054Y-93199515D01*
X152207816Y-93195051D01*
X152336484Y-93101569D01*
X152379786Y-93070109D01*
X152379788Y-93070106D01*
X152379792Y-93070104D01*
X152530104Y-92919792D01*
X152530106Y-92919788D01*
X152530109Y-92919786D01*
X152655048Y-92747820D01*
X152655047Y-92747820D01*
X152655051Y-92747816D01*
X152751557Y-92558412D01*
X152817246Y-92356243D01*
X152850500Y-92146287D01*
X152850500Y-91933713D01*
X152817246Y-91723757D01*
X152751557Y-91521588D01*
X152655051Y-91332184D01*
X152655049Y-91332181D01*
X152655048Y-91332179D01*
X152530109Y-91160213D01*
X152379786Y-91009890D01*
X152207820Y-90884951D01*
X152204415Y-90883216D01*
X152199054Y-90880485D01*
X152148259Y-90832512D01*
X152131463Y-90764692D01*
X152153999Y-90698556D01*
X152199054Y-90659515D01*
X152207816Y-90655051D01*
X152324771Y-90570079D01*
X152379786Y-90530109D01*
X152379788Y-90530106D01*
X152379792Y-90530104D01*
X152530104Y-90379792D01*
X152530106Y-90379788D01*
X152530109Y-90379786D01*
X152639086Y-90229789D01*
X152655051Y-90207816D01*
X152751557Y-90018412D01*
X152817246Y-89816243D01*
X152850500Y-89606287D01*
X152850500Y-89393713D01*
X152817246Y-89183757D01*
X152751557Y-88981588D01*
X152655051Y-88792184D01*
X152655049Y-88792181D01*
X152655048Y-88792179D01*
X152530109Y-88620213D01*
X152379786Y-88469890D01*
X152207820Y-88344951D01*
X152207115Y-88344591D01*
X152199054Y-88340485D01*
X152148259Y-88292512D01*
X152131463Y-88224692D01*
X152153999Y-88158556D01*
X152199054Y-88119515D01*
X152207816Y-88115051D01*
X152257654Y-88078842D01*
X152379786Y-87990109D01*
X152379788Y-87990106D01*
X152379792Y-87990104D01*
X152530104Y-87839792D01*
X152530106Y-87839788D01*
X152530109Y-87839786D01*
X152655048Y-87667820D01*
X152655047Y-87667820D01*
X152655051Y-87667816D01*
X152751557Y-87478412D01*
X152817246Y-87276243D01*
X152850500Y-87066287D01*
X152850500Y-86853713D01*
X152817246Y-86643757D01*
X152751557Y-86441588D01*
X152655051Y-86252184D01*
X152655049Y-86252181D01*
X152655048Y-86252179D01*
X152530109Y-86080213D01*
X152416569Y-85966673D01*
X152383084Y-85905350D01*
X152388068Y-85835658D01*
X152429940Y-85779725D01*
X152460915Y-85762810D01*
X152592331Y-85713796D01*
X152707546Y-85627546D01*
X152793796Y-85512331D01*
X152844091Y-85377483D01*
X152850500Y-85317873D01*
X152850499Y-83522128D01*
X152844091Y-83462517D01*
X152843340Y-83460504D01*
X152793797Y-83327671D01*
X152793793Y-83327664D01*
X152707547Y-83212455D01*
X152707544Y-83212452D01*
X152592335Y-83126206D01*
X152592328Y-83126202D01*
X152457482Y-83075908D01*
X152457483Y-83075908D01*
X152397883Y-83069501D01*
X152397881Y-83069500D01*
X152397873Y-83069500D01*
X152397865Y-83069500D01*
X152324500Y-83069500D01*
X152257461Y-83049815D01*
X152211706Y-82997011D01*
X152200500Y-82945500D01*
X152200500Y-82431004D01*
X152180534Y-82330635D01*
X152178934Y-82322591D01*
X152173580Y-82295671D01*
X152147117Y-82231785D01*
X152120775Y-82168189D01*
X152120773Y-82168187D01*
X152120773Y-82168185D01*
X152044115Y-82053459D01*
X152044114Y-82053458D01*
X151946542Y-81955886D01*
X151611470Y-81620814D01*
X150446546Y-80455888D01*
X150446545Y-80455887D01*
X150331807Y-80379222D01*
X150204332Y-80326421D01*
X150204322Y-80326418D01*
X150068996Y-80299500D01*
X150068994Y-80299500D01*
X150068993Y-80299500D01*
X132425316Y-80299500D01*
X132377864Y-80290061D01*
X132233501Y-80230264D01*
X132233489Y-80230261D01*
X132078845Y-80199500D01*
X132078842Y-80199500D01*
X131921158Y-80199500D01*
X131921155Y-80199500D01*
X131766511Y-80230260D01*
X131766506Y-80230262D01*
X131766504Y-80230262D01*
X131766503Y-80230263D01*
X131742844Y-80240062D01*
X131695396Y-80249500D01*
X116791428Y-80249500D01*
X116724389Y-80229815D01*
X116678634Y-80177011D01*
X116676867Y-80172952D01*
X116665087Y-80144511D01*
X116665085Y-80144508D01*
X116665084Y-80144505D01*
X116623956Y-80082952D01*
X116623956Y-80082951D01*
X116582950Y-80021581D01*
X116286819Y-79725450D01*
X116253334Y-79664127D01*
X116250500Y-79637769D01*
X116250500Y-79426081D01*
X116250499Y-79426080D01*
X116232366Y-79334916D01*
X116221659Y-79281088D01*
X116165992Y-79146699D01*
X116165394Y-79144970D01*
X116165084Y-79144506D01*
X116165084Y-79144505D01*
X116087512Y-79028411D01*
X116066635Y-78961734D01*
X116085120Y-78894354D01*
X116137098Y-78847664D01*
X116171214Y-78837048D01*
X116296243Y-78817246D01*
X116498412Y-78751557D01*
X116687816Y-78655051D01*
X116774471Y-78592093D01*
X116859786Y-78530109D01*
X116859788Y-78530106D01*
X116859792Y-78530104D01*
X117010104Y-78379792D01*
X117010106Y-78379788D01*
X117010109Y-78379786D01*
X117135048Y-78207820D01*
X117135050Y-78207817D01*
X117135051Y-78207816D01*
X117139514Y-78199054D01*
X117187488Y-78148259D01*
X117255308Y-78131463D01*
X117321444Y-78153999D01*
X117360486Y-78199056D01*
X117364951Y-78207820D01*
X117489890Y-78379786D01*
X117640213Y-78530109D01*
X117812179Y-78655048D01*
X117812181Y-78655049D01*
X117812184Y-78655051D01*
X118001588Y-78751557D01*
X118203757Y-78817246D01*
X118413713Y-78850500D01*
X118413714Y-78850500D01*
X118626286Y-78850500D01*
X118626287Y-78850500D01*
X118836243Y-78817246D01*
X119038412Y-78751557D01*
X119227816Y-78655051D01*
X119314471Y-78592093D01*
X119399786Y-78530109D01*
X119399788Y-78530106D01*
X119399792Y-78530104D01*
X119550104Y-78379792D01*
X119550106Y-78379788D01*
X119550109Y-78379786D01*
X119675048Y-78207820D01*
X119675050Y-78207817D01*
X119675051Y-78207816D01*
X119679514Y-78199054D01*
X119727488Y-78148259D01*
X119795308Y-78131463D01*
X119861444Y-78153999D01*
X119900486Y-78199056D01*
X119904951Y-78207820D01*
X120029890Y-78379786D01*
X120180213Y-78530109D01*
X120352179Y-78655048D01*
X120352181Y-78655049D01*
X120352184Y-78655051D01*
X120541588Y-78751557D01*
X120743757Y-78817246D01*
X120953713Y-78850500D01*
X120953714Y-78850500D01*
X121166286Y-78850500D01*
X121166287Y-78850500D01*
X121376243Y-78817246D01*
X121578412Y-78751557D01*
X121767816Y-78655051D01*
X121854471Y-78592093D01*
X121939786Y-78530109D01*
X121939788Y-78530106D01*
X121939792Y-78530104D01*
X122090104Y-78379792D01*
X122090106Y-78379788D01*
X122090109Y-78379786D01*
X122215048Y-78207820D01*
X122215050Y-78207817D01*
X122215051Y-78207816D01*
X122219514Y-78199054D01*
X122267488Y-78148259D01*
X122335308Y-78131463D01*
X122401444Y-78153999D01*
X122440486Y-78199056D01*
X122444951Y-78207820D01*
X122569890Y-78379786D01*
X122720213Y-78530109D01*
X122892179Y-78655048D01*
X122892181Y-78655049D01*
X122892184Y-78655051D01*
X123081588Y-78751557D01*
X123283757Y-78817246D01*
X123493713Y-78850500D01*
X123493714Y-78850500D01*
X123706286Y-78850500D01*
X123706287Y-78850500D01*
X123916243Y-78817246D01*
X124118412Y-78751557D01*
X124307816Y-78655051D01*
X124394471Y-78592093D01*
X124479786Y-78530109D01*
X124479788Y-78530106D01*
X124479792Y-78530104D01*
X124630104Y-78379792D01*
X124630106Y-78379788D01*
X124630109Y-78379786D01*
X124755048Y-78207820D01*
X124755050Y-78207817D01*
X124755051Y-78207816D01*
X124759514Y-78199054D01*
X124807488Y-78148259D01*
X124875308Y-78131463D01*
X124941444Y-78153999D01*
X124980486Y-78199056D01*
X124984951Y-78207820D01*
X125109890Y-78379786D01*
X125260213Y-78530109D01*
X125432179Y-78655048D01*
X125432181Y-78655049D01*
X125432184Y-78655051D01*
X125621588Y-78751557D01*
X125823757Y-78817246D01*
X126033713Y-78850500D01*
X126033714Y-78850500D01*
X126246286Y-78850500D01*
X126246287Y-78850500D01*
X126456243Y-78817246D01*
X126658412Y-78751557D01*
X126847816Y-78655051D01*
X126934471Y-78592093D01*
X127019786Y-78530109D01*
X127019788Y-78530106D01*
X127019792Y-78530104D01*
X127170104Y-78379792D01*
X127170106Y-78379788D01*
X127170109Y-78379786D01*
X127295048Y-78207820D01*
X127295050Y-78207817D01*
X127295051Y-78207816D01*
X127299514Y-78199054D01*
X127347488Y-78148259D01*
X127415308Y-78131463D01*
X127481444Y-78153999D01*
X127520486Y-78199056D01*
X127524951Y-78207820D01*
X127649890Y-78379786D01*
X127800213Y-78530109D01*
X127972179Y-78655048D01*
X127972181Y-78655049D01*
X127972184Y-78655051D01*
X128161588Y-78751557D01*
X128363757Y-78817246D01*
X128573713Y-78850500D01*
X128573714Y-78850500D01*
X128786286Y-78850500D01*
X128786287Y-78850500D01*
X128996243Y-78817246D01*
X129198412Y-78751557D01*
X129387816Y-78655051D01*
X129474471Y-78592093D01*
X129559786Y-78530109D01*
X129559788Y-78530106D01*
X129559792Y-78530104D01*
X129710104Y-78379792D01*
X129710106Y-78379788D01*
X129710109Y-78379786D01*
X129835048Y-78207820D01*
X129835050Y-78207817D01*
X129835051Y-78207816D01*
X129839514Y-78199054D01*
X129887488Y-78148259D01*
X129955308Y-78131463D01*
X130021444Y-78153999D01*
X130060486Y-78199056D01*
X130064951Y-78207820D01*
X130189890Y-78379786D01*
X130340213Y-78530109D01*
X130512179Y-78655048D01*
X130512181Y-78655049D01*
X130512184Y-78655051D01*
X130701588Y-78751557D01*
X130903757Y-78817246D01*
X131113713Y-78850500D01*
X131113714Y-78850500D01*
X131326286Y-78850500D01*
X131326287Y-78850500D01*
X131536243Y-78817246D01*
X131738412Y-78751557D01*
X131927816Y-78655051D01*
X132014471Y-78592093D01*
X132099786Y-78530109D01*
X132099788Y-78530106D01*
X132099792Y-78530104D01*
X132250104Y-78379792D01*
X132250106Y-78379788D01*
X132250109Y-78379786D01*
X132375048Y-78207820D01*
X132375050Y-78207817D01*
X132375051Y-78207816D01*
X132379514Y-78199054D01*
X132427488Y-78148259D01*
X132495308Y-78131463D01*
X132561444Y-78153999D01*
X132600486Y-78199056D01*
X132604951Y-78207820D01*
X132729890Y-78379786D01*
X132880213Y-78530109D01*
X133052179Y-78655048D01*
X133052181Y-78655049D01*
X133052184Y-78655051D01*
X133241588Y-78751557D01*
X133443757Y-78817246D01*
X133653713Y-78850500D01*
X133653714Y-78850500D01*
X133866286Y-78850500D01*
X133866287Y-78850500D01*
X134076243Y-78817246D01*
X134278412Y-78751557D01*
X134467816Y-78655051D01*
X134554471Y-78592093D01*
X134639786Y-78530109D01*
X134639788Y-78530106D01*
X134639792Y-78530104D01*
X134790104Y-78379792D01*
X134790106Y-78379788D01*
X134790109Y-78379786D01*
X134915048Y-78207820D01*
X134915050Y-78207817D01*
X134915051Y-78207816D01*
X134919514Y-78199054D01*
X134967488Y-78148259D01*
X135035308Y-78131463D01*
X135101444Y-78153999D01*
X135140486Y-78199056D01*
X135144951Y-78207820D01*
X135269890Y-78379786D01*
X135420213Y-78530109D01*
X135592179Y-78655048D01*
X135592181Y-78655049D01*
X135592184Y-78655051D01*
X135781588Y-78751557D01*
X135983757Y-78817246D01*
X136193713Y-78850500D01*
X136193714Y-78850500D01*
X136406286Y-78850500D01*
X136406287Y-78850500D01*
X136616243Y-78817246D01*
X136818412Y-78751557D01*
X137007816Y-78655051D01*
X137094471Y-78592093D01*
X137179786Y-78530109D01*
X137179788Y-78530106D01*
X137179792Y-78530104D01*
X137330104Y-78379792D01*
X137330106Y-78379788D01*
X137330109Y-78379786D01*
X137455048Y-78207820D01*
X137455050Y-78207817D01*
X137455051Y-78207816D01*
X137459514Y-78199054D01*
X137507488Y-78148259D01*
X137575308Y-78131463D01*
X137641444Y-78153999D01*
X137680486Y-78199056D01*
X137684951Y-78207820D01*
X137809890Y-78379786D01*
X137960213Y-78530109D01*
X138132179Y-78655048D01*
X138132181Y-78655049D01*
X138132184Y-78655051D01*
X138321588Y-78751557D01*
X138523757Y-78817246D01*
X138733713Y-78850500D01*
X138733714Y-78850500D01*
X138946286Y-78850500D01*
X138946287Y-78850500D01*
X139156243Y-78817246D01*
X139358412Y-78751557D01*
X139547816Y-78655051D01*
X139634471Y-78592093D01*
X139719786Y-78530109D01*
X139719788Y-78530106D01*
X139719792Y-78530104D01*
X139870104Y-78379792D01*
X139870106Y-78379788D01*
X139870109Y-78379786D01*
X139995048Y-78207820D01*
X139995050Y-78207817D01*
X139995051Y-78207816D01*
X139999514Y-78199054D01*
X140047488Y-78148259D01*
X140115308Y-78131463D01*
X140181444Y-78153999D01*
X140220486Y-78199056D01*
X140224951Y-78207820D01*
X140349890Y-78379786D01*
X140500213Y-78530109D01*
X140672179Y-78655048D01*
X140672181Y-78655049D01*
X140672184Y-78655051D01*
X140861588Y-78751557D01*
X141063757Y-78817246D01*
X141273713Y-78850500D01*
X141273714Y-78850500D01*
X141486286Y-78850500D01*
X141486287Y-78850500D01*
X141696243Y-78817246D01*
X141898412Y-78751557D01*
X142087816Y-78655051D01*
X142174471Y-78592093D01*
X142259786Y-78530109D01*
X142259788Y-78530106D01*
X142259792Y-78530104D01*
X142410104Y-78379792D01*
X142410106Y-78379788D01*
X142410109Y-78379786D01*
X142535048Y-78207820D01*
X142535050Y-78207817D01*
X142535051Y-78207816D01*
X142539514Y-78199054D01*
X142587488Y-78148259D01*
X142655308Y-78131463D01*
X142721444Y-78153999D01*
X142760486Y-78199056D01*
X142764951Y-78207820D01*
X142889890Y-78379786D01*
X143040213Y-78530109D01*
X143212179Y-78655048D01*
X143212181Y-78655049D01*
X143212184Y-78655051D01*
X143401588Y-78751557D01*
X143603757Y-78817246D01*
X143813713Y-78850500D01*
X143813714Y-78850500D01*
X144026286Y-78850500D01*
X144026287Y-78850500D01*
X144236243Y-78817246D01*
X144438412Y-78751557D01*
X144627816Y-78655051D01*
X144714471Y-78592093D01*
X144799786Y-78530109D01*
X144799788Y-78530106D01*
X144799792Y-78530104D01*
X144950104Y-78379792D01*
X144950106Y-78379788D01*
X144950109Y-78379786D01*
X145075048Y-78207820D01*
X145075050Y-78207817D01*
X145075051Y-78207816D01*
X145079514Y-78199054D01*
X145127488Y-78148259D01*
X145195308Y-78131463D01*
X145261444Y-78153999D01*
X145300486Y-78199056D01*
X145304951Y-78207820D01*
X145429890Y-78379786D01*
X145580213Y-78530109D01*
X145752179Y-78655048D01*
X145752181Y-78655049D01*
X145752184Y-78655051D01*
X145941588Y-78751557D01*
X146143757Y-78817246D01*
X146353713Y-78850500D01*
X146353714Y-78850500D01*
X146566286Y-78850500D01*
X146566287Y-78850500D01*
X146776243Y-78817246D01*
X146978412Y-78751557D01*
X147167816Y-78655051D01*
X147254471Y-78592093D01*
X147339786Y-78530109D01*
X147339788Y-78530106D01*
X147339792Y-78530104D01*
X147490104Y-78379792D01*
X147490106Y-78379788D01*
X147490109Y-78379786D01*
X147615048Y-78207820D01*
X147615050Y-78207817D01*
X147615051Y-78207816D01*
X147619514Y-78199054D01*
X147667488Y-78148259D01*
X147735308Y-78131463D01*
X147801444Y-78153999D01*
X147840486Y-78199056D01*
X147844951Y-78207820D01*
X147969890Y-78379786D01*
X148120213Y-78530109D01*
X148292179Y-78655048D01*
X148292181Y-78655049D01*
X148292184Y-78655051D01*
X148481588Y-78751557D01*
X148683757Y-78817246D01*
X148893713Y-78850500D01*
X148893714Y-78850500D01*
X149106286Y-78850500D01*
X149106287Y-78850500D01*
X149316243Y-78817246D01*
X149518412Y-78751557D01*
X149707816Y-78655051D01*
X149794471Y-78592093D01*
X149879786Y-78530109D01*
X149879788Y-78530106D01*
X149879792Y-78530104D01*
X150030104Y-78379792D01*
X150030106Y-78379788D01*
X150030109Y-78379786D01*
X150155048Y-78207820D01*
X150155050Y-78207817D01*
X150155051Y-78207816D01*
X150159514Y-78199054D01*
X150207488Y-78148259D01*
X150275308Y-78131463D01*
X150341444Y-78153999D01*
X150380486Y-78199056D01*
X150384951Y-78207820D01*
X150509890Y-78379786D01*
X150660213Y-78530109D01*
X150832179Y-78655048D01*
X150832181Y-78655049D01*
X150832184Y-78655051D01*
X151021588Y-78751557D01*
X151223757Y-78817246D01*
X151433713Y-78850500D01*
X151433714Y-78850500D01*
X151646286Y-78850500D01*
X151646287Y-78850500D01*
X151856243Y-78817246D01*
X152058412Y-78751557D01*
X152247816Y-78655051D01*
X152334471Y-78592093D01*
X152419786Y-78530109D01*
X152419788Y-78530106D01*
X152419792Y-78530104D01*
X152570104Y-78379792D01*
X152570106Y-78379788D01*
X152570109Y-78379786D01*
X152695048Y-78207820D01*
X152695050Y-78207817D01*
X152695051Y-78207816D01*
X152791557Y-78018412D01*
X152857246Y-77816243D01*
X152890500Y-77606287D01*
X152890500Y-77393713D01*
X152857246Y-77183757D01*
X152791557Y-76981588D01*
X152695051Y-76792184D01*
X152695049Y-76792181D01*
X152695048Y-76792179D01*
X152570109Y-76620213D01*
X152419786Y-76469890D01*
X152247820Y-76344951D01*
X152058414Y-76248444D01*
X152058413Y-76248443D01*
X152058412Y-76248443D01*
X151856243Y-76182754D01*
X151856241Y-76182753D01*
X151856240Y-76182753D01*
X151694957Y-76157208D01*
X151646287Y-76149500D01*
X151433713Y-76149500D01*
X151385042Y-76157208D01*
X151223760Y-76182753D01*
X151021585Y-76248444D01*
X150832179Y-76344951D01*
X150660213Y-76469890D01*
X150509890Y-76620213D01*
X150384949Y-76792182D01*
X150380484Y-76800946D01*
X150332509Y-76851742D01*
X150264688Y-76868536D01*
X150198553Y-76845998D01*
X150159516Y-76800946D01*
X150155050Y-76792182D01*
X150030109Y-76620213D01*
X149879786Y-76469890D01*
X149707820Y-76344951D01*
X149518414Y-76248444D01*
X149518413Y-76248443D01*
X149518412Y-76248443D01*
X149316243Y-76182754D01*
X149316241Y-76182753D01*
X149316240Y-76182753D01*
X149154957Y-76157208D01*
X149106287Y-76149500D01*
X148893713Y-76149500D01*
X148845042Y-76157208D01*
X148683760Y-76182753D01*
X148481585Y-76248444D01*
X148292179Y-76344951D01*
X148120213Y-76469890D01*
X147969890Y-76620213D01*
X147844949Y-76792182D01*
X147840484Y-76800946D01*
X147792509Y-76851742D01*
X147724688Y-76868536D01*
X147658553Y-76845998D01*
X147619516Y-76800946D01*
X147615050Y-76792182D01*
X147490109Y-76620213D01*
X147339786Y-76469890D01*
X147167820Y-76344951D01*
X146978414Y-76248444D01*
X146978413Y-76248443D01*
X146978412Y-76248443D01*
X146776243Y-76182754D01*
X146776241Y-76182753D01*
X146776240Y-76182753D01*
X146614957Y-76157208D01*
X146566287Y-76149500D01*
X146353713Y-76149500D01*
X146305042Y-76157208D01*
X146143760Y-76182753D01*
X145941585Y-76248444D01*
X145752179Y-76344951D01*
X145580213Y-76469890D01*
X145429890Y-76620213D01*
X145304949Y-76792182D01*
X145300484Y-76800946D01*
X145252509Y-76851742D01*
X145184688Y-76868536D01*
X145118553Y-76845998D01*
X145079516Y-76800946D01*
X145075050Y-76792182D01*
X144950109Y-76620213D01*
X144799786Y-76469890D01*
X144627820Y-76344951D01*
X144438414Y-76248444D01*
X144438413Y-76248443D01*
X144438412Y-76248443D01*
X144236243Y-76182754D01*
X144236241Y-76182753D01*
X144236240Y-76182753D01*
X144074957Y-76157208D01*
X144026287Y-76149500D01*
X143813713Y-76149500D01*
X143765042Y-76157208D01*
X143603760Y-76182753D01*
X143401585Y-76248444D01*
X143212179Y-76344951D01*
X143040213Y-76469890D01*
X142889890Y-76620213D01*
X142764949Y-76792182D01*
X142760484Y-76800946D01*
X142712509Y-76851742D01*
X142644688Y-76868536D01*
X142578553Y-76845998D01*
X142539516Y-76800946D01*
X142535050Y-76792182D01*
X142410109Y-76620213D01*
X142259786Y-76469890D01*
X142087820Y-76344951D01*
X141898414Y-76248444D01*
X141898413Y-76248443D01*
X141898412Y-76248443D01*
X141696243Y-76182754D01*
X141696241Y-76182753D01*
X141696240Y-76182753D01*
X141534957Y-76157208D01*
X141486287Y-76149500D01*
X141273713Y-76149500D01*
X141225042Y-76157208D01*
X141063760Y-76182753D01*
X140861585Y-76248444D01*
X140672179Y-76344951D01*
X140500213Y-76469890D01*
X140349890Y-76620213D01*
X140224949Y-76792182D01*
X140220484Y-76800946D01*
X140172509Y-76851742D01*
X140104688Y-76868536D01*
X140038553Y-76845998D01*
X139999516Y-76800946D01*
X139995050Y-76792182D01*
X139870109Y-76620213D01*
X139719786Y-76469890D01*
X139547820Y-76344951D01*
X139358414Y-76248444D01*
X139358413Y-76248443D01*
X139358412Y-76248443D01*
X139156243Y-76182754D01*
X139156241Y-76182753D01*
X139156240Y-76182753D01*
X138994957Y-76157208D01*
X138946287Y-76149500D01*
X138733713Y-76149500D01*
X138685042Y-76157208D01*
X138523760Y-76182753D01*
X138321585Y-76248444D01*
X138132179Y-76344951D01*
X137960213Y-76469890D01*
X137809890Y-76620213D01*
X137684949Y-76792182D01*
X137680484Y-76800946D01*
X137632509Y-76851742D01*
X137564688Y-76868536D01*
X137498553Y-76845998D01*
X137459516Y-76800946D01*
X137455050Y-76792182D01*
X137330109Y-76620213D01*
X137179786Y-76469890D01*
X137007820Y-76344951D01*
X136818414Y-76248444D01*
X136818413Y-76248443D01*
X136818412Y-76248443D01*
X136616243Y-76182754D01*
X136616241Y-76182753D01*
X136616240Y-76182753D01*
X136454957Y-76157208D01*
X136406287Y-76149500D01*
X136193713Y-76149500D01*
X136145042Y-76157208D01*
X135983760Y-76182753D01*
X135781585Y-76248444D01*
X135592179Y-76344951D01*
X135420213Y-76469890D01*
X135269890Y-76620213D01*
X135144949Y-76792182D01*
X135140484Y-76800946D01*
X135092509Y-76851742D01*
X135024688Y-76868536D01*
X134958553Y-76845998D01*
X134919516Y-76800946D01*
X134915050Y-76792182D01*
X134790109Y-76620213D01*
X134639786Y-76469890D01*
X134467820Y-76344951D01*
X134278414Y-76248444D01*
X134278413Y-76248443D01*
X134278412Y-76248443D01*
X134076243Y-76182754D01*
X134076241Y-76182753D01*
X134076240Y-76182753D01*
X133914957Y-76157208D01*
X133866287Y-76149500D01*
X133653713Y-76149500D01*
X133605042Y-76157208D01*
X133443760Y-76182753D01*
X133241585Y-76248444D01*
X133052179Y-76344951D01*
X132880213Y-76469890D01*
X132729890Y-76620213D01*
X132604949Y-76792182D01*
X132600484Y-76800946D01*
X132552509Y-76851742D01*
X132484688Y-76868536D01*
X132418553Y-76845998D01*
X132379516Y-76800946D01*
X132375050Y-76792182D01*
X132250109Y-76620213D01*
X132099786Y-76469890D01*
X131927820Y-76344951D01*
X131738414Y-76248444D01*
X131738413Y-76248443D01*
X131738412Y-76248443D01*
X131536243Y-76182754D01*
X131536241Y-76182753D01*
X131536240Y-76182753D01*
X131374957Y-76157208D01*
X131326287Y-76149500D01*
X131113713Y-76149500D01*
X131065042Y-76157208D01*
X130903760Y-76182753D01*
X130701585Y-76248444D01*
X130512179Y-76344951D01*
X130340213Y-76469890D01*
X130189890Y-76620213D01*
X130064949Y-76792182D01*
X130060484Y-76800946D01*
X130012509Y-76851742D01*
X129944688Y-76868536D01*
X129878553Y-76845998D01*
X129839516Y-76800946D01*
X129835050Y-76792182D01*
X129710109Y-76620213D01*
X129559786Y-76469890D01*
X129387820Y-76344951D01*
X129198414Y-76248444D01*
X129198413Y-76248443D01*
X129198412Y-76248443D01*
X128996243Y-76182754D01*
X128996241Y-76182753D01*
X128996240Y-76182753D01*
X128834957Y-76157208D01*
X128786287Y-76149500D01*
X128573713Y-76149500D01*
X128525042Y-76157208D01*
X128363760Y-76182753D01*
X128161585Y-76248444D01*
X127972179Y-76344951D01*
X127800213Y-76469890D01*
X127649890Y-76620213D01*
X127524949Y-76792182D01*
X127520484Y-76800946D01*
X127472509Y-76851742D01*
X127404688Y-76868536D01*
X127338553Y-76845998D01*
X127299516Y-76800946D01*
X127295050Y-76792182D01*
X127170109Y-76620213D01*
X127019786Y-76469890D01*
X126847820Y-76344951D01*
X126658414Y-76248444D01*
X126658413Y-76248443D01*
X126658412Y-76248443D01*
X126456243Y-76182754D01*
X126456241Y-76182753D01*
X126456240Y-76182753D01*
X126294957Y-76157208D01*
X126246287Y-76149500D01*
X126033713Y-76149500D01*
X125985042Y-76157208D01*
X125823760Y-76182753D01*
X125621585Y-76248444D01*
X125432179Y-76344951D01*
X125260213Y-76469890D01*
X125109890Y-76620213D01*
X124984949Y-76792182D01*
X124980484Y-76800946D01*
X124932509Y-76851742D01*
X124864688Y-76868536D01*
X124798553Y-76845998D01*
X124759516Y-76800946D01*
X124755050Y-76792182D01*
X124630109Y-76620213D01*
X124479786Y-76469890D01*
X124307820Y-76344951D01*
X124118414Y-76248444D01*
X124118413Y-76248443D01*
X124118412Y-76248443D01*
X123916243Y-76182754D01*
X123916241Y-76182753D01*
X123916240Y-76182753D01*
X123754957Y-76157208D01*
X123706287Y-76149500D01*
X123493713Y-76149500D01*
X123445042Y-76157208D01*
X123283760Y-76182753D01*
X123081585Y-76248444D01*
X122892179Y-76344951D01*
X122720213Y-76469890D01*
X122569890Y-76620213D01*
X122444949Y-76792182D01*
X122440484Y-76800946D01*
X122392509Y-76851742D01*
X122324688Y-76868536D01*
X122258553Y-76845998D01*
X122219516Y-76800946D01*
X122215050Y-76792182D01*
X122090109Y-76620213D01*
X121939786Y-76469890D01*
X121767820Y-76344951D01*
X121578414Y-76248444D01*
X121578413Y-76248443D01*
X121578412Y-76248443D01*
X121376243Y-76182754D01*
X121376241Y-76182753D01*
X121376240Y-76182753D01*
X121214957Y-76157208D01*
X121166287Y-76149500D01*
X120953713Y-76149500D01*
X120905042Y-76157208D01*
X120743760Y-76182753D01*
X120541585Y-76248444D01*
X120352179Y-76344951D01*
X120180213Y-76469890D01*
X120029890Y-76620213D01*
X119904949Y-76792182D01*
X119900484Y-76800946D01*
X119852509Y-76851742D01*
X119784688Y-76868536D01*
X119718553Y-76845998D01*
X119679516Y-76800946D01*
X119675050Y-76792182D01*
X119550109Y-76620213D01*
X119399786Y-76469890D01*
X119227820Y-76344951D01*
X119038414Y-76248444D01*
X119038413Y-76248443D01*
X119038412Y-76248443D01*
X118836243Y-76182754D01*
X118836241Y-76182753D01*
X118836240Y-76182753D01*
X118674957Y-76157208D01*
X118626287Y-76149500D01*
X118413713Y-76149500D01*
X118365042Y-76157208D01*
X118203760Y-76182753D01*
X118001585Y-76248444D01*
X117812179Y-76344951D01*
X117640213Y-76469890D01*
X117489890Y-76620213D01*
X117364949Y-76792182D01*
X117360484Y-76800946D01*
X117312509Y-76851742D01*
X117244688Y-76868536D01*
X117178553Y-76845998D01*
X117139516Y-76800946D01*
X117135050Y-76792182D01*
X117010109Y-76620213D01*
X116859786Y-76469890D01*
X116687820Y-76344951D01*
X116498414Y-76248444D01*
X116498413Y-76248443D01*
X116498412Y-76248443D01*
X116296243Y-76182754D01*
X116296241Y-76182753D01*
X116296240Y-76182753D01*
X116134957Y-76157208D01*
X116086287Y-76149500D01*
X115873713Y-76149500D01*
X115825042Y-76157208D01*
X115663760Y-76182753D01*
X115461585Y-76248444D01*
X115272179Y-76344951D01*
X115100213Y-76469890D01*
X114949890Y-76620213D01*
X114824949Y-76792182D01*
X114820484Y-76800946D01*
X114772509Y-76851742D01*
X114704688Y-76868536D01*
X114638553Y-76845998D01*
X114599516Y-76800946D01*
X114595050Y-76792182D01*
X114470109Y-76620213D01*
X114319786Y-76469890D01*
X114147820Y-76344951D01*
X113958414Y-76248444D01*
X113958413Y-76248443D01*
X113958412Y-76248443D01*
X113756243Y-76182754D01*
X113756241Y-76182753D01*
X113756240Y-76182753D01*
X113594957Y-76157208D01*
X113546287Y-76149500D01*
X113333713Y-76149500D01*
X113285042Y-76157208D01*
X113123760Y-76182753D01*
X112921585Y-76248444D01*
X112732179Y-76344951D01*
X112560213Y-76469890D01*
X112409890Y-76620213D01*
X112284949Y-76792182D01*
X112280202Y-76801499D01*
X112232227Y-76852293D01*
X112164405Y-76869087D01*
X112098271Y-76846548D01*
X112059234Y-76801495D01*
X112054626Y-76792452D01*
X112015270Y-76738282D01*
X112015269Y-76738282D01*
X111382962Y-77370590D01*
X111365925Y-77307007D01*
X111300099Y-77192993D01*
X111207007Y-77099901D01*
X111092993Y-77034075D01*
X111029409Y-77017037D01*
X111661716Y-76384728D01*
X111607550Y-76345375D01*
X111418217Y-76248904D01*
X111216129Y-76183242D01*
X111006246Y-76150000D01*
X110793754Y-76150000D01*
X110583872Y-76183242D01*
X110583869Y-76183242D01*
X110381782Y-76248904D01*
X110192439Y-76345380D01*
X110138282Y-76384727D01*
X110138282Y-76384728D01*
X110770591Y-77017037D01*
X110707007Y-77034075D01*
X110592993Y-77099901D01*
X110499901Y-77192993D01*
X110434075Y-77307007D01*
X110417037Y-77370591D01*
X109747642Y-76701196D01*
X109714319Y-76640609D01*
X109675527Y-76467364D01*
X109653354Y-76407913D01*
X109653350Y-76407906D01*
X109567190Y-76292812D01*
X109567187Y-76292809D01*
X109452093Y-76206649D01*
X109452086Y-76206645D01*
X109317379Y-76156403D01*
X109317372Y-76156401D01*
X109257844Y-76150000D01*
X108610000Y-76150000D01*
X108610000Y-77066988D01*
X108552993Y-77034075D01*
X108425826Y-77000000D01*
X108294174Y-77000000D01*
X108167007Y-77034075D01*
X108110000Y-77066988D01*
X108110000Y-76150000D01*
X107462155Y-76150000D01*
X107402627Y-76156401D01*
X107402620Y-76156403D01*
X107267913Y-76206645D01*
X107267906Y-76206649D01*
X107152812Y-76292809D01*
X107152809Y-76292812D01*
X107066649Y-76407906D01*
X107066645Y-76407913D01*
X107016403Y-76542620D01*
X107016401Y-76542627D01*
X107010000Y-76602155D01*
X107010000Y-77250000D01*
X107926988Y-77250000D01*
X107894075Y-77307007D01*
X107860000Y-77434174D01*
X107860000Y-77565826D01*
X107894075Y-77692993D01*
X107926988Y-77750000D01*
X107010000Y-77750000D01*
X107010000Y-78397844D01*
X107016401Y-78457372D01*
X107016403Y-78457379D01*
X107066645Y-78592086D01*
X107066649Y-78592093D01*
X107152809Y-78707187D01*
X107152812Y-78707190D01*
X107267906Y-78793350D01*
X107267913Y-78793354D01*
X107402620Y-78843596D01*
X107402627Y-78843598D01*
X107462155Y-78849999D01*
X107462172Y-78850000D01*
X108110000Y-78850000D01*
X108110000Y-77933012D01*
X108167007Y-77965925D01*
X108294174Y-78000000D01*
X108425826Y-78000000D01*
X108552993Y-77965925D01*
X108610000Y-77933012D01*
X108610000Y-78850000D01*
X109257828Y-78850000D01*
X109257844Y-78849999D01*
X109317372Y-78843598D01*
X109317379Y-78843596D01*
X109452086Y-78793354D01*
X109452093Y-78793350D01*
X109567187Y-78707190D01*
X109567190Y-78707187D01*
X109653350Y-78592093D01*
X109653354Y-78592086D01*
X109675529Y-78532632D01*
X109714319Y-78359390D01*
X109714682Y-78358734D01*
X109714642Y-78357984D01*
X109747642Y-78298802D01*
X110417037Y-77629408D01*
X110434075Y-77692993D01*
X110499901Y-77807007D01*
X110592993Y-77900099D01*
X110707007Y-77965925D01*
X110770590Y-77982962D01*
X110138282Y-78615269D01*
X110138282Y-78615270D01*
X110192449Y-78654624D01*
X110381782Y-78751095D01*
X110583870Y-78816757D01*
X110793754Y-78850000D01*
X111006246Y-78850000D01*
X111216127Y-78816757D01*
X111216130Y-78816757D01*
X111418217Y-78751095D01*
X111607554Y-78654622D01*
X111661716Y-78615270D01*
X111661717Y-78615270D01*
X111029408Y-77982962D01*
X111092993Y-77965925D01*
X111207007Y-77900099D01*
X111300099Y-77807007D01*
X111365925Y-77692993D01*
X111382962Y-77629409D01*
X112015270Y-78261717D01*
X112015270Y-78261716D01*
X112054622Y-78207555D01*
X112059232Y-78198507D01*
X112107205Y-78147709D01*
X112175025Y-78130912D01*
X112241161Y-78153447D01*
X112280204Y-78198504D01*
X112284949Y-78207817D01*
X112409890Y-78379786D01*
X112560213Y-78530109D01*
X112732179Y-78655048D01*
X112732181Y-78655049D01*
X112732184Y-78655051D01*
X112921588Y-78751557D01*
X113123757Y-78817246D01*
X113333713Y-78850500D01*
X113333714Y-78850500D01*
X113546286Y-78850500D01*
X113546287Y-78850500D01*
X113725874Y-78822056D01*
X113743337Y-78824312D01*
X113760722Y-78821495D01*
X113777271Y-78828698D01*
X113795168Y-78831011D01*
X113808741Y-78842395D01*
X113824786Y-78849379D01*
X113848372Y-78875635D01*
X113867810Y-78904724D01*
X113867812Y-78904729D01*
X113917046Y-78978414D01*
X113917052Y-78978421D01*
X114713181Y-79774548D01*
X114746666Y-79835871D01*
X114749500Y-79862229D01*
X114749500Y-80073918D01*
X114749500Y-80073920D01*
X114749499Y-80073920D01*
X114778340Y-80218907D01*
X114778343Y-80218917D01*
X114834913Y-80355490D01*
X114834914Y-80355491D01*
X114834916Y-80355495D01*
X114850770Y-80379222D01*
X114850771Y-80379223D01*
X114850772Y-80379225D01*
X114917051Y-80478420D01*
X114917052Y-80478421D01*
X115213181Y-80774549D01*
X115246666Y-80835872D01*
X115249500Y-80862230D01*
X115249500Y-80926082D01*
X115249500Y-87073918D01*
X115249500Y-87073920D01*
X115249499Y-87073920D01*
X115278340Y-87218907D01*
X115278343Y-87218917D01*
X115334914Y-87355491D01*
X115334916Y-87355495D01*
X115350741Y-87379179D01*
X115350740Y-87379179D01*
X115417046Y-87478414D01*
X115417052Y-87478421D01*
X118253926Y-90315293D01*
X118280806Y-90355520D01*
X118290606Y-90379178D01*
X118290609Y-90379185D01*
X118378210Y-90510288D01*
X118378213Y-90510292D01*
X118489710Y-90621789D01*
X118576776Y-90679964D01*
X118620821Y-90709394D01*
X118644475Y-90719191D01*
X118651406Y-90723823D01*
X118656449Y-90724920D01*
X118684703Y-90746071D01*
X118713181Y-90774549D01*
X118746666Y-90835872D01*
X118749500Y-90862230D01*
X118749500Y-91195396D01*
X118740062Y-91242844D01*
X118731772Y-91262861D01*
X118730262Y-91266506D01*
X118730260Y-91266511D01*
X118699500Y-91421153D01*
X118699500Y-91578846D01*
X118730261Y-91733489D01*
X118730264Y-91733501D01*
X118790602Y-91879172D01*
X118790609Y-91879185D01*
X118878210Y-92010288D01*
X118878213Y-92010292D01*
X118989707Y-92121786D01*
X118989711Y-92121789D01*
X119120814Y-92209390D01*
X119120827Y-92209397D01*
X119232846Y-92255796D01*
X119266503Y-92269737D01*
X119421153Y-92300499D01*
X119421156Y-92300500D01*
X119421158Y-92300500D01*
X119578844Y-92300500D01*
X119578845Y-92300499D01*
X119733497Y-92269737D01*
X119879179Y-92209394D01*
X120010289Y-92121789D01*
X120121789Y-92010289D01*
X120172398Y-91934548D01*
X120226010Y-91889743D01*
X120295335Y-91881036D01*
X120358363Y-91911190D01*
X120395082Y-91970634D01*
X120399500Y-92003439D01*
X120399500Y-103724471D01*
X120379815Y-103791510D01*
X120331798Y-103834954D01*
X120312182Y-103844949D01*
X120140213Y-103969890D01*
X119989890Y-104120213D01*
X119864949Y-104292182D01*
X119860484Y-104300946D01*
X119812509Y-104351742D01*
X119744688Y-104368536D01*
X119678553Y-104345998D01*
X119639516Y-104300946D01*
X119635050Y-104292182D01*
X119510109Y-104120213D01*
X119359786Y-103969890D01*
X119187820Y-103844951D01*
X118998414Y-103748444D01*
X118998413Y-103748443D01*
X118998412Y-103748443D01*
X118796243Y-103682754D01*
X118796241Y-103682753D01*
X118796240Y-103682753D01*
X118634957Y-103657208D01*
X118586287Y-103649500D01*
X118373713Y-103649500D01*
X118325042Y-103657208D01*
X118163760Y-103682753D01*
X117961585Y-103748444D01*
X117772179Y-103844951D01*
X117600213Y-103969890D01*
X117449890Y-104120213D01*
X117324949Y-104292182D01*
X117320484Y-104300946D01*
X117272509Y-104351742D01*
X117204688Y-104368536D01*
X117138553Y-104345998D01*
X117099516Y-104300946D01*
X117095050Y-104292182D01*
X116970109Y-104120213D01*
X116819786Y-103969890D01*
X116647820Y-103844951D01*
X116458414Y-103748444D01*
X116458413Y-103748443D01*
X116458412Y-103748443D01*
X116256243Y-103682754D01*
X116256241Y-103682753D01*
X116256240Y-103682753D01*
X116094957Y-103657208D01*
X116046287Y-103649500D01*
X115833713Y-103649500D01*
X115785042Y-103657208D01*
X115623760Y-103682753D01*
X115421585Y-103748444D01*
X115232179Y-103844951D01*
X115060213Y-103969890D01*
X114909890Y-104120213D01*
X114784949Y-104292182D01*
X114780202Y-104301499D01*
X114732227Y-104352293D01*
X114664405Y-104369087D01*
X114598271Y-104346548D01*
X114559234Y-104301495D01*
X114554626Y-104292452D01*
X114515270Y-104238282D01*
X114515269Y-104238282D01*
X113882962Y-104870590D01*
X113865925Y-104807007D01*
X113800099Y-104692993D01*
X113707007Y-104599901D01*
X113592993Y-104534075D01*
X113529409Y-104517037D01*
X114161716Y-103884728D01*
X114107550Y-103845375D01*
X113918217Y-103748904D01*
X113716129Y-103683242D01*
X113506246Y-103650000D01*
X113293754Y-103650000D01*
X113083872Y-103683242D01*
X113083869Y-103683242D01*
X112881782Y-103748904D01*
X112692439Y-103845380D01*
X112638282Y-103884727D01*
X112638282Y-103884728D01*
X113270591Y-104517037D01*
X113207007Y-104534075D01*
X113092993Y-104599901D01*
X112999901Y-104692993D01*
X112934075Y-104807007D01*
X112917037Y-104870591D01*
X112284728Y-104238282D01*
X112284727Y-104238282D01*
X112245380Y-104292440D01*
X112240483Y-104302051D01*
X112192506Y-104352845D01*
X112124684Y-104369638D01*
X112058550Y-104347098D01*
X112019516Y-104302048D01*
X112014626Y-104292452D01*
X111975270Y-104238282D01*
X111975269Y-104238282D01*
X111342962Y-104870590D01*
X111325925Y-104807007D01*
X111260099Y-104692993D01*
X111167007Y-104599901D01*
X111052993Y-104534075D01*
X110989409Y-104517037D01*
X111621716Y-103884728D01*
X111567550Y-103845375D01*
X111378217Y-103748904D01*
X111176129Y-103683242D01*
X110966246Y-103650000D01*
X110753754Y-103650000D01*
X110543872Y-103683242D01*
X110543869Y-103683242D01*
X110341782Y-103748904D01*
X110152439Y-103845380D01*
X110098282Y-103884727D01*
X110098282Y-103884728D01*
X110730591Y-104517037D01*
X110667007Y-104534075D01*
X110552993Y-104599901D01*
X110459901Y-104692993D01*
X110394075Y-104807007D01*
X110377037Y-104870591D01*
X109706818Y-104200372D01*
X109673333Y-104139049D01*
X109673330Y-104139036D01*
X109670499Y-104126015D01*
X109670499Y-104102128D01*
X109664091Y-104042517D01*
X109635926Y-103967002D01*
X109613798Y-103907673D01*
X109613793Y-103907664D01*
X109527547Y-103792455D01*
X109527544Y-103792452D01*
X109412335Y-103706206D01*
X109412328Y-103706202D01*
X109277482Y-103655908D01*
X109277483Y-103655908D01*
X109217883Y-103649501D01*
X109217881Y-103649500D01*
X109217873Y-103649500D01*
X109217864Y-103649500D01*
X107422129Y-103649500D01*
X107422123Y-103649501D01*
X107362516Y-103655908D01*
X107227671Y-103706202D01*
X107227664Y-103706206D01*
X107112455Y-103792452D01*
X107112452Y-103792455D01*
X107026206Y-103907664D01*
X107026202Y-103907671D01*
X106975908Y-104042517D01*
X106969501Y-104102116D01*
X106969500Y-104102135D01*
X106500500Y-104102135D01*
X106500500Y-91890000D01*
X107555638Y-91890000D01*
X108358512Y-91890000D01*
X108341295Y-91899940D01*
X108285440Y-91955795D01*
X108245944Y-92024204D01*
X108225500Y-92100504D01*
X108225500Y-92179496D01*
X108245944Y-92255796D01*
X108285440Y-92324205D01*
X108341295Y-92380060D01*
X108358512Y-92390000D01*
X107555638Y-92390000D01*
X107563930Y-92431690D01*
X107563930Y-92431692D01*
X107639307Y-92613671D01*
X107639314Y-92613684D01*
X107748748Y-92777462D01*
X107748751Y-92777466D01*
X107888033Y-92916748D01*
X107888037Y-92916751D01*
X108051815Y-93026185D01*
X108051828Y-93026192D01*
X108233806Y-93101569D01*
X108233818Y-93101572D01*
X108427004Y-93139999D01*
X108427008Y-93140000D01*
X108575500Y-93140000D01*
X108575500Y-92440000D01*
X109075500Y-92440000D01*
X109075500Y-93140000D01*
X109223992Y-93140000D01*
X109223995Y-93139999D01*
X109417181Y-93101572D01*
X109417193Y-93101569D01*
X109599171Y-93026192D01*
X109599184Y-93026185D01*
X109762962Y-92916751D01*
X109762966Y-92916748D01*
X109902248Y-92777466D01*
X109902251Y-92777462D01*
X110011685Y-92613684D01*
X110011692Y-92613671D01*
X110087069Y-92431692D01*
X110087069Y-92431690D01*
X110095362Y-92390000D01*
X109292488Y-92390000D01*
X109309705Y-92380060D01*
X109365560Y-92324205D01*
X109405056Y-92255796D01*
X109425500Y-92179496D01*
X109425500Y-92100504D01*
X109405056Y-92024204D01*
X109365560Y-91955795D01*
X109309705Y-91899940D01*
X109292488Y-91890000D01*
X110095362Y-91890000D01*
X111485638Y-91890000D01*
X112288512Y-91890000D01*
X112271295Y-91899940D01*
X112215440Y-91955795D01*
X112175944Y-92024204D01*
X112155500Y-92100504D01*
X112155500Y-92179496D01*
X112175944Y-92255796D01*
X112215440Y-92324205D01*
X112271295Y-92380060D01*
X112288512Y-92390000D01*
X111485638Y-92390000D01*
X111493930Y-92431690D01*
X111493930Y-92431692D01*
X111569307Y-92613671D01*
X111569314Y-92613684D01*
X111678748Y-92777462D01*
X111678751Y-92777466D01*
X111818033Y-92916748D01*
X111818037Y-92916751D01*
X111981815Y-93026185D01*
X111981828Y-93026192D01*
X112163806Y-93101569D01*
X112163818Y-93101572D01*
X112357004Y-93139999D01*
X112357008Y-93140000D01*
X112755500Y-93140000D01*
X112755500Y-92440000D01*
X113255500Y-92440000D01*
X113255500Y-93140000D01*
X113653992Y-93140000D01*
X113653995Y-93139999D01*
X113847181Y-93101572D01*
X113847193Y-93101569D01*
X114029171Y-93026192D01*
X114029184Y-93026185D01*
X114192962Y-92916751D01*
X114192966Y-92916748D01*
X114332248Y-92777466D01*
X114332251Y-92777462D01*
X114441685Y-92613684D01*
X114441692Y-92613671D01*
X114517069Y-92431692D01*
X114517069Y-92431690D01*
X114525362Y-92390000D01*
X113722488Y-92390000D01*
X113739705Y-92380060D01*
X113795560Y-92324205D01*
X113835056Y-92255796D01*
X113855500Y-92179496D01*
X113855500Y-92100504D01*
X113835056Y-92024204D01*
X113795560Y-91955795D01*
X113739705Y-91899940D01*
X113722488Y-91890000D01*
X114525362Y-91890000D01*
X114517069Y-91848309D01*
X114517069Y-91848307D01*
X114441692Y-91666328D01*
X114441685Y-91666315D01*
X114332251Y-91502537D01*
X114332248Y-91502533D01*
X114192966Y-91363251D01*
X114192962Y-91363248D01*
X114029184Y-91253814D01*
X114029171Y-91253807D01*
X113847193Y-91178430D01*
X113847181Y-91178427D01*
X113653995Y-91140000D01*
X113255500Y-91140000D01*
X113255500Y-91840000D01*
X112755500Y-91840000D01*
X112755500Y-91140000D01*
X112751078Y-91135578D01*
X112717593Y-91074255D01*
X112722577Y-91004563D01*
X112751078Y-90960216D01*
X112760029Y-90951265D01*
X112773008Y-90938286D01*
X112821955Y-90853506D01*
X112847292Y-90758947D01*
X112847292Y-90661053D01*
X112821955Y-90566494D01*
X112773008Y-90481714D01*
X112703786Y-90412492D01*
X112619006Y-90363545D01*
X112619007Y-90363545D01*
X112567737Y-90349807D01*
X112530203Y-90339750D01*
X112530201Y-90339749D01*
X112524449Y-90338208D01*
X112524447Y-90338208D01*
X112426553Y-90338208D01*
X112331994Y-90363545D01*
X112331993Y-90363545D01*
X112247215Y-90412491D01*
X112247212Y-90412493D01*
X112177993Y-90481712D01*
X112177991Y-90481715D01*
X112129045Y-90566493D01*
X112105251Y-90655295D01*
X112105250Y-90655297D01*
X112103708Y-90661051D01*
X112103708Y-90661053D01*
X112103708Y-90758947D01*
X112129045Y-90853506D01*
X112168100Y-90921153D01*
X112177991Y-90938284D01*
X112177993Y-90938287D01*
X112212655Y-90972949D01*
X112246140Y-91034272D01*
X112241156Y-91103964D01*
X112199284Y-91159897D01*
X112169064Y-91175196D01*
X112169438Y-91176098D01*
X111981828Y-91253807D01*
X111981815Y-91253814D01*
X111818037Y-91363248D01*
X111818033Y-91363251D01*
X111678751Y-91502533D01*
X111678748Y-91502537D01*
X111569314Y-91666315D01*
X111569307Y-91666328D01*
X111493930Y-91848307D01*
X111493930Y-91848309D01*
X111485638Y-91890000D01*
X110095362Y-91890000D01*
X110087069Y-91848309D01*
X110087069Y-91848307D01*
X110011692Y-91666328D01*
X110011685Y-91666315D01*
X109902251Y-91502537D01*
X109902248Y-91502533D01*
X109762966Y-91363251D01*
X109762962Y-91363248D01*
X109599184Y-91253814D01*
X109599171Y-91253807D01*
X109417193Y-91178430D01*
X109417181Y-91178427D01*
X109223995Y-91140000D01*
X109075500Y-91140000D01*
X109075500Y-91840000D01*
X108575500Y-91840000D01*
X108575500Y-91140000D01*
X108427004Y-91140000D01*
X108233818Y-91178427D01*
X108233806Y-91178430D01*
X108051828Y-91253807D01*
X108051815Y-91253814D01*
X107888037Y-91363248D01*
X107888033Y-91363251D01*
X107748751Y-91502533D01*
X107748748Y-91502537D01*
X107639314Y-91666315D01*
X107639307Y-91666328D01*
X107563930Y-91848307D01*
X107563930Y-91848309D01*
X107555638Y-91890000D01*
X106500500Y-91890000D01*
X106500500Y-83250000D01*
X107555638Y-83250000D01*
X108358512Y-83250000D01*
X108341295Y-83259940D01*
X108285440Y-83315795D01*
X108245944Y-83384204D01*
X108225500Y-83460504D01*
X108225500Y-83539496D01*
X108245944Y-83615796D01*
X108285440Y-83684205D01*
X108341295Y-83740060D01*
X108358512Y-83750000D01*
X107555638Y-83750000D01*
X107563930Y-83791690D01*
X107563930Y-83791692D01*
X107639307Y-83973671D01*
X107639314Y-83973684D01*
X107748748Y-84137462D01*
X107748751Y-84137466D01*
X107888033Y-84276748D01*
X107888037Y-84276751D01*
X108051815Y-84386185D01*
X108051828Y-84386192D01*
X108233806Y-84461569D01*
X108233818Y-84461572D01*
X108427004Y-84499999D01*
X108427008Y-84500000D01*
X108575500Y-84500000D01*
X108575500Y-83800000D01*
X109075500Y-83800000D01*
X109075500Y-84500000D01*
X109201000Y-84500000D01*
X109209685Y-84502550D01*
X109218647Y-84501262D01*
X109242687Y-84512240D01*
X109268039Y-84519685D01*
X109273966Y-84526525D01*
X109282203Y-84530287D01*
X109296492Y-84552521D01*
X109313794Y-84572489D01*
X109316081Y-84583003D01*
X109319977Y-84589065D01*
X109325000Y-84624000D01*
X109325000Y-84838830D01*
X109324999Y-84838848D01*
X109324999Y-85004554D01*
X109324998Y-85004554D01*
X109365923Y-85157285D01*
X109382258Y-85185579D01*
X109388933Y-85197139D01*
X109442896Y-85290606D01*
X109444979Y-85294214D01*
X109444981Y-85294217D01*
X109563849Y-85413085D01*
X109563855Y-85413090D01*
X111297494Y-87146729D01*
X111312197Y-87173656D01*
X111328790Y-87199475D01*
X111329681Y-87205675D01*
X111330979Y-87208052D01*
X111333813Y-87234410D01*
X111333813Y-87420234D01*
X111314128Y-87487273D01*
X111312915Y-87489125D01*
X111224922Y-87620814D01*
X111224915Y-87620827D01*
X111164577Y-87766498D01*
X111164574Y-87766510D01*
X111133813Y-87921153D01*
X111133813Y-88078846D01*
X111164574Y-88233489D01*
X111164577Y-88233501D01*
X111224915Y-88379172D01*
X111224922Y-88379185D01*
X111312523Y-88510288D01*
X111312526Y-88510292D01*
X111424020Y-88621786D01*
X111424024Y-88621789D01*
X111555127Y-88709390D01*
X111555140Y-88709397D01*
X111700811Y-88769735D01*
X111700816Y-88769737D01*
X111813639Y-88792179D01*
X111855466Y-88800499D01*
X111855469Y-88800500D01*
X111855471Y-88800500D01*
X112013157Y-88800500D01*
X112013158Y-88800499D01*
X112167810Y-88769737D01*
X112313492Y-88709394D01*
X112444602Y-88621789D01*
X112556102Y-88510289D01*
X112643707Y-88379179D01*
X112704050Y-88233497D01*
X112734813Y-88078842D01*
X112734813Y-87921158D01*
X112734813Y-87921155D01*
X112734812Y-87921153D01*
X112730102Y-87897473D01*
X112704050Y-87766503D01*
X112675248Y-87696968D01*
X112643710Y-87620827D01*
X112643703Y-87620814D01*
X112555711Y-87489125D01*
X112550060Y-87471078D01*
X112539836Y-87455169D01*
X112535384Y-87424207D01*
X112534833Y-87422447D01*
X112534813Y-87420234D01*
X112534813Y-87258111D01*
X112554498Y-87191072D01*
X112607302Y-87145317D01*
X112611281Y-87143583D01*
X112754179Y-87084394D01*
X112885289Y-86996789D01*
X112996789Y-86885289D01*
X113084394Y-86754179D01*
X113144737Y-86608497D01*
X113175500Y-86453842D01*
X113175500Y-86296158D01*
X113175500Y-86296155D01*
X113175499Y-86296153D01*
X113166753Y-86252184D01*
X113144737Y-86141503D01*
X113093670Y-86018215D01*
X113084397Y-85995827D01*
X113084390Y-85995814D01*
X112996789Y-85864711D01*
X112996786Y-85864707D01*
X112885292Y-85753213D01*
X112885288Y-85753210D01*
X112754185Y-85665609D01*
X112754172Y-85665602D01*
X112608501Y-85605264D01*
X112608491Y-85605261D01*
X112453149Y-85574361D01*
X112436392Y-85565595D01*
X112417914Y-85561576D01*
X112392877Y-85542833D01*
X112391238Y-85541976D01*
X112389660Y-85540425D01*
X112362708Y-85513473D01*
X112329223Y-85452150D01*
X112334207Y-85382458D01*
X112376079Y-85326525D01*
X112441543Y-85302108D01*
X112450389Y-85301792D01*
X112524445Y-85301792D01*
X112524447Y-85301792D01*
X112619006Y-85276455D01*
X112703786Y-85227508D01*
X112773008Y-85158286D01*
X112821955Y-85073506D01*
X112847292Y-84978947D01*
X112847292Y-84881053D01*
X112821955Y-84786494D01*
X112773008Y-84701714D01*
X112751078Y-84679784D01*
X112717593Y-84618461D01*
X112722577Y-84548769D01*
X112751078Y-84504422D01*
X112755500Y-84500000D01*
X112755500Y-83800000D01*
X113255500Y-83800000D01*
X113255500Y-84500000D01*
X113653992Y-84500000D01*
X113653995Y-84499999D01*
X113847181Y-84461572D01*
X113847193Y-84461569D01*
X114029171Y-84386192D01*
X114029184Y-84386185D01*
X114192962Y-84276751D01*
X114192966Y-84276748D01*
X114332248Y-84137466D01*
X114332251Y-84137462D01*
X114441685Y-83973684D01*
X114441692Y-83973671D01*
X114517069Y-83791692D01*
X114517069Y-83791690D01*
X114525362Y-83750000D01*
X113722488Y-83750000D01*
X113739705Y-83740060D01*
X113795560Y-83684205D01*
X113835056Y-83615796D01*
X113855500Y-83539496D01*
X113855500Y-83460504D01*
X113835056Y-83384204D01*
X113795560Y-83315795D01*
X113739705Y-83259940D01*
X113722488Y-83250000D01*
X114525362Y-83250000D01*
X114517069Y-83208309D01*
X114517069Y-83208307D01*
X114441692Y-83026328D01*
X114441685Y-83026315D01*
X114332251Y-82862537D01*
X114332248Y-82862533D01*
X114192966Y-82723251D01*
X114192962Y-82723248D01*
X114029184Y-82613814D01*
X114029171Y-82613807D01*
X113847193Y-82538430D01*
X113847181Y-82538427D01*
X113653995Y-82500000D01*
X113255500Y-82500000D01*
X113255500Y-83200000D01*
X112755500Y-83200000D01*
X112755500Y-82500000D01*
X112357004Y-82500000D01*
X112163818Y-82538427D01*
X112163806Y-82538430D01*
X111981828Y-82613807D01*
X111981815Y-82613814D01*
X111818037Y-82723248D01*
X111795328Y-82745957D01*
X111764683Y-82762689D01*
X111734339Y-82779367D01*
X111734161Y-82779354D01*
X111734004Y-82779441D01*
X111699126Y-82776945D01*
X111664634Y-82774574D01*
X111664491Y-82774467D01*
X111664312Y-82774455D01*
X111636433Y-82753584D01*
X111608585Y-82732857D01*
X111608521Y-82732689D01*
X111608380Y-82732583D01*
X111596271Y-82700117D01*
X111583989Y-82667460D01*
X111584009Y-82667240D01*
X111583964Y-82667118D01*
X111586410Y-82632249D01*
X111587062Y-82629207D01*
X111600501Y-82579057D01*
X111600501Y-82566605D01*
X111603263Y-82553739D01*
X111613901Y-82534128D01*
X111620186Y-82512725D01*
X111621399Y-82510873D01*
X111709390Y-82379185D01*
X111709390Y-82379184D01*
X111709394Y-82379179D01*
X111769737Y-82233497D01*
X111800500Y-82078842D01*
X111800500Y-81921158D01*
X111800500Y-81921155D01*
X111800499Y-81921153D01*
X111776499Y-81800499D01*
X111769737Y-81766503D01*
X111767018Y-81759938D01*
X111709397Y-81620827D01*
X111709390Y-81620814D01*
X111621789Y-81489711D01*
X111621786Y-81489707D01*
X111510292Y-81378213D01*
X111510288Y-81378210D01*
X111379185Y-81290609D01*
X111379172Y-81290602D01*
X111233501Y-81230264D01*
X111233489Y-81230261D01*
X111078845Y-81199500D01*
X111078842Y-81199500D01*
X110921158Y-81199500D01*
X110921155Y-81199500D01*
X110766510Y-81230261D01*
X110766498Y-81230264D01*
X110620827Y-81290602D01*
X110620814Y-81290609D01*
X110489711Y-81378210D01*
X110489707Y-81378213D01*
X110378213Y-81489707D01*
X110353102Y-81527289D01*
X110299489Y-81572093D01*
X110230164Y-81580800D01*
X110167137Y-81550645D01*
X110146898Y-81527289D01*
X110121786Y-81489707D01*
X110010292Y-81378213D01*
X110010288Y-81378210D01*
X109879185Y-81290609D01*
X109879172Y-81290602D01*
X109733501Y-81230264D01*
X109733489Y-81230261D01*
X109578845Y-81199500D01*
X109578842Y-81199500D01*
X109421158Y-81199500D01*
X109421155Y-81199500D01*
X109266510Y-81230261D01*
X109266498Y-81230264D01*
X109120827Y-81290602D01*
X109120814Y-81290609D01*
X108989711Y-81378210D01*
X108989707Y-81378213D01*
X108878213Y-81489707D01*
X108878210Y-81489711D01*
X108790609Y-81620814D01*
X108790602Y-81620827D01*
X108730264Y-81766498D01*
X108730261Y-81766510D01*
X108699500Y-81921153D01*
X108699500Y-82078846D01*
X108730261Y-82233489D01*
X108730263Y-82233497D01*
X108769634Y-82328547D01*
X108777103Y-82398017D01*
X108745828Y-82460496D01*
X108685739Y-82496148D01*
X108655073Y-82500000D01*
X108427004Y-82500000D01*
X108233818Y-82538427D01*
X108233806Y-82538430D01*
X108051828Y-82613807D01*
X108051815Y-82613814D01*
X107888037Y-82723248D01*
X107888033Y-82723251D01*
X107748751Y-82862533D01*
X107748748Y-82862537D01*
X107639314Y-83026315D01*
X107639307Y-83026328D01*
X107563930Y-83208307D01*
X107563930Y-83208309D01*
X107555638Y-83250000D01*
X106500500Y-83250000D01*
X106500500Y-75624500D01*
X106520185Y-75557461D01*
X106572989Y-75511706D01*
X106624500Y-75500500D01*
X153375500Y-75500500D01*
X153442539Y-75520185D01*
G37*
%TD.AperFunction*%
%TD*%
M02*
