%TF.GenerationSoftware,KiCad,Pcbnew,10.0.5*%
%TF.CreationDate,2026-09-13T10:50:35+08:00*%
%TF.ProjectId,stm32c8t6-mini,73746d33-3263-4387-9436-2d6d696e692e,rev?*%
%TF.SameCoordinates,Original*%
%TF.FileFunction,Soldermask,Bot*%
%TF.FilePolarity,Negative*%
%FSLAX46Y46*%
G04 Gerber Fmt 4.6, Leading zero omitted, Abs format (unit mm)*
G04 Created by KiCad (PCBNEW 10.0.5) date 2026-09-13 10:50:35*
%MOMM*%
%LPD*%
G01*
G04 APERTURE LIST*
%ADD10C,0.650000*%
%ADD11O,2.100000X1.000000*%
%ADD12O,1.600000X1.000000*%
%ADD13R,1.700000X1.700000*%
%ADD14C,1.700000*%
%ADD15R,2.000000X0.800000*%
G04 APERTURE END LIST*
D10*
%TO.C,J4*%
X112805000Y-84955000D03*
X112805000Y-90735000D03*
D11*
X113335000Y-83525000D03*
D12*
X109155000Y-83525000D03*
D11*
X113335000Y-92165000D03*
D12*
X109155000Y-92165000D03*
%TD*%
D13*
%TO.C,J1*%
X151500000Y-84420000D03*
D14*
X151500000Y-86960000D03*
X151500000Y-89500000D03*
X151500000Y-92040000D03*
X151500000Y-94580000D03*
X151500000Y-97120000D03*
X151500000Y-99660000D03*
%TD*%
D13*
%TO.C,J2*%
X108320000Y-105000000D03*
D14*
X110860000Y-105000000D03*
X113400000Y-105000000D03*
X115940000Y-105000000D03*
X118480000Y-105000000D03*
X121020000Y-105000000D03*
X123560000Y-105000000D03*
X126100000Y-105000000D03*
X128640000Y-105000000D03*
X131180000Y-105000000D03*
X133720000Y-105000000D03*
X136260000Y-105000000D03*
X138800000Y-105000000D03*
X141340000Y-105000000D03*
X143880000Y-105000000D03*
X146420000Y-105000000D03*
X148960000Y-105000000D03*
X151500000Y-105000000D03*
%TD*%
D13*
%TO.C,J3*%
X108360000Y-77500000D03*
D14*
X110900000Y-77500000D03*
X113440000Y-77500000D03*
X115980000Y-77500000D03*
X118520000Y-77500000D03*
X121060000Y-77500000D03*
X123600000Y-77500000D03*
X126140000Y-77500000D03*
X128680000Y-77500000D03*
X131220000Y-77500000D03*
X133760000Y-77500000D03*
X136300000Y-77500000D03*
X138840000Y-77500000D03*
X141380000Y-77500000D03*
X143920000Y-77500000D03*
X146460000Y-77500000D03*
X149000000Y-77500000D03*
X151540000Y-77500000D03*
%TD*%
D15*
%TO.C,C6*%
X126281898Y-89250000D03*
X126281898Y-90750000D03*
%TD*%
M02*
